<svg xmlns="http://www.w3.org/2000/svg" width="29.611" height="48.608" viewBox="0 0 29.611 48.608">
  <g id="icon8" transform="translate(-395.195 -2408.196)">
    <g id="Vector_Smart_Object" data-name="Vector Smart Object" transform="translate(156.9 2133.976)">
      <g id="Group_105" data-name="Group 105">
        <path id="Path_25207" data-name="Path 25207" d="M266.733,284.559l-.269-.161a2.027,2.027,0,0,0-2.815.769l-.334.606a9.37,9.37,0,0,1-2.708,2.892,6.573,6.573,0,0,1-3.391.789,8.92,8.92,0,0,1-7.946-.024,6.518,6.518,0,0,1-3.675-.765,9.371,9.371,0,0,1-2.708-2.892l-.335-.606a2.025,2.025,0,0,0-2.813-.769l-.269.161a2.514,2.514,0,0,0-1.008,3.009l.735,1.8a13.346,13.346,0,0,0,2.235,3.462l2.982,3.138a6.079,6.079,0,0,1,1.443,3.619v1.776a28.139,28.139,0,0,1-.377,4.167l-1.729,9.482a23.685,23.685,0,0,1-.589,2.616,2.521,2.521,0,0,1-1.014,1,2.007,2.007,0,0,0,.644,3.593,11.3,11.3,0,0,0,3.428.611,3.073,3.073,0,0,0,2.591-1.968l2.546-6.9a5.127,5.127,0,0,1,1.236-2.164c.005,0,.01-.01.016-.014h.986c.006,0,.012.012.017.014a5.141,5.141,0,0,1,1.236,2.164l2.546,6.9a3.073,3.073,0,0,0,2.591,1.968,11.287,11.287,0,0,0,3.427-.611,2.008,2.008,0,0,0,.645-3.593,2.534,2.534,0,0,1-1.015-1,24.08,24.08,0,0,1-.588-2.616l-1.729-9.482a28.137,28.137,0,0,1-.377-4.167v-1.776a6.079,6.079,0,0,1,1.443-3.619l2.981-3.138A13.312,13.312,0,0,0,267,289.37l.735-1.8A2.513,2.513,0,0,0,266.733,284.559Zm-.2,2.514-.735,1.8a12.15,12.15,0,0,1-1.971,3.054l-2.982,3.138a7.337,7.337,0,0,0-1.8,4.523v1.776a29.192,29.192,0,0,0,.4,4.4l1.729,9.483a24.769,24.769,0,0,0,.655,2.851,3.7,3.7,0,0,0,1.552,1.641,1.277,1.277,0,0,1,.235.63,1.223,1.223,0,0,1-.675.625,10.054,10.054,0,0,1-2.958.522,1.809,1.809,0,0,1-1.373-1.116l-2.546-6.9a5.692,5.692,0,0,0-1.727-2.795c-.046-.033-.425-.237-.425-.237h-1.625l-.507.293a6.033,6.033,0,0,0-1.643,2.739l-2.546,6.9a1.809,1.809,0,0,1-1.373,1.116A10.055,10.055,0,0,1,243.26,321a1.232,1.232,0,0,1-.676-.625,1.289,1.289,0,0,1,.237-.63,3.713,3.713,0,0,0,1.552-1.641,24.884,24.884,0,0,0,.654-2.852l1.729-9.482a29.024,29.024,0,0,0,.4-4.4v-1.776a7.342,7.342,0,0,0-1.8-4.523l-2.982-3.138a12.114,12.114,0,0,1-1.971-3.054l-.735-1.8a1.206,1.206,0,0,1,.463-1.388,3.206,3.206,0,0,1,.645-.264.726.726,0,0,1,.644.383l.334.6a10.721,10.721,0,0,0,3.159,3.368,7.726,7.726,0,0,0,3.816.991c.1,0,.2,0,.3-.007a10.192,10.192,0,0,0,8.464.007,7.722,7.722,0,0,0,3.8-.991,10.7,10.7,0,0,0,3.158-3.368l.335-.6a.726.726,0,0,1,.642-.383,3.174,3.174,0,0,1,.645.264A1.2,1.2,0,0,1,266.536,287.072Z" fill="#3eb7e4"/>
        <path id="Path_25208" data-name="Path 25208" d="M253.269,274.22a7.027,7.027,0,1,0,6.986,7.027A7.006,7.006,0,0,0,253.269,274.22Zm0,12.746a5.719,5.719,0,1,1,5.685-5.719A5.708,5.708,0,0,1,253.269,286.966Z" fill="#3eb7e4"/>
      </g>
    </g>
    <path id="Color_Overlay" data-name="Color Overlay" d="M414.292,2454.835l-2.545-6.9a5.145,5.145,0,0,0-1.237-2.165c-.005,0-.01-.009-.017-.014h-.986c0,.006-.01.014-.015.014a5.136,5.136,0,0,0-1.237,2.165l-2.545,6.9a3.074,3.074,0,0,1-2.591,1.969,11.314,11.314,0,0,1-3.429-.611,2.008,2.008,0,0,1-.643-3.593,2.518,2.518,0,0,0,1.014-1,23.55,23.55,0,0,0,.589-2.615l1.73-9.482a28.215,28.215,0,0,0,.377-4.166v-1.777a6.085,6.085,0,0,0-1.444-3.619l-2.983-3.137a13.347,13.347,0,0,1-2.235-3.461l-.734-1.8a2.514,2.514,0,0,1,1.007-3.01l.269-.16a2.026,2.026,0,0,1,2.814.769l.335.605a9.371,9.371,0,0,0,2.708,2.893,6.535,6.535,0,0,0,3.676.764,8.919,8.919,0,0,0,7.946.024,6.586,6.586,0,0,0,3.391-.788,9.372,9.372,0,0,0,2.708-2.893l.334-.605a2.027,2.027,0,0,1,2.815-.769l.269.16a2.514,2.514,0,0,1,1.006,3.01l-.735,1.8a13.277,13.277,0,0,1-2.235,3.461l-2.981,3.137a6.085,6.085,0,0,0-1.444,3.619v1.777a28.215,28.215,0,0,0,.377,4.166l1.73,9.482a23.82,23.82,0,0,0,.588,2.615,2.527,2.527,0,0,0,1.015,1,2.008,2.008,0,0,1-.645,3.593,11.3,11.3,0,0,1-3.427.611A3.074,3.074,0,0,1,414.292,2454.835Zm-3.478-10.383s.379.2.425.236a5.693,5.693,0,0,1,1.726,2.8l2.546,6.9a1.809,1.809,0,0,0,1.372,1.114,10.041,10.041,0,0,0,2.958-.522,1.218,1.218,0,0,0,.674-.624,1.269,1.269,0,0,0-.235-.631,3.7,3.7,0,0,1-1.552-1.642,24.833,24.833,0,0,1-.655-2.85l-1.729-9.484a29.2,29.2,0,0,1-.4-4.4v-1.777a7.343,7.343,0,0,1,1.8-4.522l2.983-3.137a12.15,12.15,0,0,0,1.971-3.054l.734-1.8a1.206,1.206,0,0,0-.464-1.388,3.175,3.175,0,0,0-.645-.263.723.723,0,0,0-.642.382l-.336.6a10.7,10.7,0,0,1-3.158,3.367,7.723,7.723,0,0,1-3.8.993,10.2,10.2,0,0,1-8.464-.008c-.1.006-.2.008-.3.008a7.727,7.727,0,0,1-3.816-.993,10.712,10.712,0,0,1-3.159-3.367l-.335-.6a.724.724,0,0,0-.643-.382,3.208,3.208,0,0,0-.644.263,1.206,1.206,0,0,0-.463,1.388l.734,1.8a12.124,12.124,0,0,0,1.971,3.054l2.983,3.137a7.344,7.344,0,0,1,1.8,4.522v1.777a29.082,29.082,0,0,1-.4,4.4l-1.73,9.482a25,25,0,0,1-.653,2.852,3.706,3.706,0,0,1-1.553,1.642,1.286,1.286,0,0,0-.237.631,1.23,1.23,0,0,0,.676.624,10.046,10.046,0,0,0,2.958.522,1.809,1.809,0,0,0,1.372-1.114l2.546-6.9a6.02,6.02,0,0,1,1.643-2.738l.507-.293Zm-7.629-29.229a6.985,6.985,0,1,1,6.986,7.027A7.005,7.005,0,0,1,403.184,2415.223Zm1.3,0a5.686,5.686,0,1,0,5.686-5.719A5.708,5.708,0,0,0,404.483,2415.223Z" fill="#3eb7e4"/>
  </g>
</svg>
