<svg xmlns="http://www.w3.org/2000/svg" width="301.397" height="236.34" viewBox="0 0 301.397 236.34">
  <g id="Shape_1" data-name="Shape 1" transform="translate(-370.813 -1237.223)" fill="none" stroke-dasharray="8 4">
    <path d="M520.1,1303l-65.069-64.166s-7.18-4.175-12.652.9-70.492,70.492-70.492,70.492-2.936,8.793.9,14.46S516.484,1472,516.484,1472s6.151,3.512,11.749,0,143.695-153.636,143.695-153.636a9.261,9.261,0,0,0-1.807-8.134c-3.143-3.726-71.4-70.492-71.4-70.492s-5.411-3.672-9.037,0S522.81,1303,522.81,1303,522.175,1303.892,520.1,1303Z" stroke="none"/>
    <path d="M 448.838623046875 1237.222900390625 C 448.8452758789062 1237.222900390625 448.8516235351562 1237.222900390625 448.8583374023438 1237.222900390625 C 448.8605346679688 1237.222900390625 448.8624877929688 1237.222900390625 448.86474609375 1237.222900390625 C 448.8690795898438 1237.222900390625 448.8736572265625 1237.222900390625 448.8780517578125 1237.222900390625 C 448.8804321289062 1237.222900390625 448.8831787109375 1237.222900390625 448.8855590820312 1237.223022460938 C 448.8897705078125 1237.223022460938 448.8936157226562 1237.223022460938 448.8977661132812 1237.223022460938 C 448.900390625 1237.223022460938 448.9031982421875 1237.223022460938 448.9058227539062 1237.223022460938 C 448.9095458984375 1237.22314453125 448.91357421875 1237.22314453125 448.9172973632812 1237.22314453125 C 448.9203491210938 1237.22314453125 448.9234008789062 1237.22314453125 448.9264526367188 1237.223266601562 C 448.9299926757812 1237.223266601562 448.9335327148438 1237.223266601562 448.9370727539062 1237.223266601562 C 448.9403076171875 1237.223388671875 448.9432373046875 1237.223388671875 448.9464721679688 1237.223388671875 C 448.9497680664062 1237.223388671875 448.953125 1237.223510742188 448.9564208984375 1237.223510742188 C 448.9598388671875 1237.223510742188 448.9635620117188 1237.2236328125 448.967041015625 1237.2236328125 C 448.9699096679688 1237.2236328125 448.97314453125 1237.223754882812 448.9760131835938 1237.223754882812 C 448.9794311523438 1237.223754882812 448.9827880859375 1237.223876953125 448.9862060546875 1237.223876953125 C 448.9893188476562 1237.223876953125 448.9925537109375 1237.223999023438 448.9956665039062 1237.223999023438 C 448.9990844726562 1237.223999023438 449.00244140625 1237.22412109375 449.005859375 1237.22412109375 C 449.0092163085938 1237.224243164062 449.0120239257812 1237.224243164062 449.015380859375 1237.224243164062 C 449.0185546875 1237.224365234375 449.0219116210938 1237.224365234375 449.025146484375 1237.224487304688 C 449.0284423828125 1237.224487304688 449.0316772460938 1237.224609375 449.0349731445312 1237.224609375 C 449.0382080078125 1237.224731445312 449.0414428710938 1237.224731445312 449.044677734375 1237.224853515625 C 449.0479736328125 1237.224853515625 449.0513305664062 1237.224975585938 449.0546264648438 1237.224975585938 C 449.0578002929688 1237.22509765625 449.0609741210938 1237.22509765625 449.064208984375 1237.225219726562 C 449.0675048828125 1237.225219726562 449.0707397460938 1237.225341796875 449.0740356445312 1237.225463867188 C 449.0772094726562 1237.225463867188 449.0809326171875 1237.2255859375 449.0841064453125 1237.2255859375 C 449.08740234375 1237.225708007812 449.09033203125 1237.225708007812 449.0936279296875 1237.225830078125 C 449.0968627929688 1237.225952148438 449.1000366210938 1237.225952148438 449.1032104492188 1237.22607421875 C 449.1065063476562 1237.226196289062 449.1098022460938 1237.226196289062 449.1130981445312 1237.226318359375 C 449.1163330078125 1237.226440429688 449.119873046875 1237.226440429688 449.1231079101562 1237.2265625 C 449.1264038085938 1237.226684570312 449.1293334960938 1237.226684570312 449.1326293945312 1237.226806640625 C 449.1358642578125 1237.226928710938 449.1389770507812 1237.22705078125 449.1421508789062 1237.22705078125 C 449.1456909179688 1237.227172851562 449.1487426757812 1237.227294921875 449.1522216796875 1237.227416992188 C 449.1554565429688 1237.227416992188 449.1588134765625 1237.2275390625 449.1619873046875 1237.227661132812 C 449.165283203125 1237.227783203125 449.16845703125 1237.227783203125 449.1717529296875 1237.227905273438 C 449.1749267578125 1237.22802734375 449.1778564453125 1237.228149414062 449.1810302734375 1237.228271484375 C 449.1845703125 1237.228393554688 449.1878051757812 1237.228393554688 449.1913452148438 1237.228515625 C 449.1943359375 1237.228637695312 449.1976318359375 1237.228759765625 449.2006225585938 1237.228881835938 C 449.2041625976562 1237.22900390625 449.2077026367188 1237.229125976562 449.211181640625 1237.229248046875 C 449.2139892578125 1237.229248046875 449.2167358398438 1237.229370117188 449.2195434570312 1237.2294921875 C 449.2232055664062 1237.229614257812 449.2268676757812 1237.229736328125 449.2305297851562 1237.229858398438 C 449.2337036132812 1237.22998046875 449.2363891601562 1237.230102539062 449.2395629882812 1237.230224609375 C 449.2430419921875 1237.230346679688 449.2464599609375 1237.23046875 449.2499389648438 1237.230590820312 C 449.252685546875 1237.230712890625 449.2557983398438 1237.230834960938 449.258544921875 1237.23095703125 C 449.2622680664062 1237.231079101562 449.2659301757812 1237.231201171875 449.2695922851562 1237.231323242188 C 449.2723999023438 1237.2314453125 449.2752685546875 1237.231567382812 449.2780151367188 1237.231689453125 C 449.28173828125 1237.231811523438 449.28564453125 1237.23193359375 449.289306640625 1237.232177734375 C 449.2918701171875 1237.232177734375 449.294677734375 1237.232299804688 449.2972412109375 1237.232421875 C 449.3009033203125 1237.232543945312 449.3045043945312 1237.232788085938 449.3081665039062 1237.23291015625 C 449.3111572265625 1237.233032226562 449.3141479492188 1237.233154296875 449.317138671875 1237.233276367188 C 449.3206176757812 1237.2333984375 449.3238525390625 1237.233642578125 449.3273315429688 1237.233764648438 C 449.330322265625 1237.23388671875 449.3333129882812 1237.234008789062 449.3363037109375 1237.234130859375 C 449.3397827148438 1237.234252929688 449.3433227539062 1237.234497070312 449.3468017578125 1237.234619140625 C 449.3499755859375 1237.234741210938 449.3526000976562 1237.23486328125 449.3557739257812 1237.234985351562 C 449.3594360351562 1237.235229492188 449.362548828125 1237.2353515625 449.3662109375 1237.235473632812 C 449.369140625 1237.235717773438 449.3719482421875 1237.23583984375 449.3748779296875 1237.235961914062 C 449.3783569335938 1237.236083984375 449.3819580078125 1237.236328125 449.3853759765625 1237.236450195312 C 449.3885498046875 1237.236572265625 449.3912353515625 1237.236694335938 449.3944091796875 1237.236938476562 C 449.3978881835938 1237.237060546875 449.4017333984375 1237.2373046875 449.4052124023438 1237.237426757812 C 449.407958984375 1237.237548828125 449.4107055664062 1237.237670898438 449.4134521484375 1237.237915039062 C 449.4171142578125 1237.238037109375 449.4207153320312 1237.23828125 449.4243774414062 1237.238403320312 C 449.4273681640625 1237.238647460938 449.4299926757812 1237.23876953125 449.4329223632812 1237.238891601562 C 449.43701171875 1237.239135742188 449.4412231445312 1237.239379882812 449.4453125 1237.239624023438 C 449.4474487304688 1237.239624023438 449.44970703125 1237.23974609375 449.4518432617188 1237.239868164062 C 449.4551391601562 1237.240112304688 449.4584350585938 1237.240234375 449.461669921875 1237.240478515625 C 449.4713134765625 1237.240966796875 449.48095703125 1237.241577148438 449.4906005859375 1237.242065429688 C 449.4970703125 1237.242553710938 449.5031127929688 1237.242919921875 449.5095825195312 1237.243286132812 C 449.5115356445312 1237.243408203125 449.5132446289062 1237.243530273438 449.5151977539062 1237.24365234375 C 449.5198364257812 1237.243896484375 449.5244140625 1237.244140625 449.5291137695312 1237.244506835938 C 449.5310668945312 1237.24462890625 449.5327758789062 1237.24462890625 449.5347290039062 1237.244750976562 C 449.5390014648438 1237.2451171875 449.5435180664062 1237.245361328125 449.5477905273438 1237.24560546875 C 449.5513305664062 1237.245849609375 449.5546875 1237.24609375 449.5582275390625 1237.246337890625 C 449.5610961914062 1237.246459960938 449.5641479492188 1237.246704101562 449.5669555664062 1237.246826171875 C 449.5708618164062 1237.2470703125 449.5745849609375 1237.247314453125 449.5784912109375 1237.24755859375 C 449.5809326171875 1237.247802734375 449.5833129882812 1237.247924804688 449.5857543945312 1237.248046875 C 449.5892944335938 1237.248291015625 449.5927734375 1237.24853515625 449.5963134765625 1237.248779296875 C 449.5993041992188 1237.2490234375 449.602294921875 1237.249267578125 449.6053466796875 1237.249389648438 C 449.608642578125 1237.249633789062 449.6123657226562 1237.249877929688 449.6156616210938 1237.250122070312 C 449.6184692382812 1237.250366210938 449.6210327148438 1237.25048828125 449.6238403320312 1237.250732421875 C 449.6275634765625 1237.2509765625 449.6312866210938 1237.251220703125 449.635009765625 1237.25146484375 C 449.6378173828125 1237.251708984375 449.640380859375 1237.251831054688 449.6431884765625 1237.252075195312 C 449.646728515625 1237.252319335938 449.6499633789062 1237.252563476562 449.6535034179688 1237.252807617188 C 449.6563110351562 1237.253051757812 449.659423828125 1237.253295898438 449.6622314453125 1237.25341796875 C 449.6653442382812 1237.253662109375 449.6688842773438 1237.25390625 449.6719970703125 1237.254150390625 C 449.6752319335938 1237.25439453125 449.6783447265625 1237.254638671875 449.6815795898438 1237.2548828125 C 449.6846923828125 1237.255126953125 449.688232421875 1237.25537109375 449.6913452148438 1237.255615234375 C 449.6941528320312 1237.255859375 449.697265625 1237.256103515625 449.7000732421875 1237.25634765625 C 449.7034301757812 1237.256591796875 449.706787109375 1237.2568359375 449.7100830078125 1237.257080078125 C 449.7133178710938 1237.25732421875 449.716552734375 1237.257568359375 449.7197875976562 1237.2578125 C 449.72265625 1237.258056640625 449.7257080078125 1237.25830078125 449.7286376953125 1237.258544921875 C 449.7318115234375 1237.2587890625 449.7352294921875 1237.259033203125 449.7384643554688 1237.25927734375 C 449.7415771484375 1237.259521484375 449.7444458007812 1237.259765625 449.74755859375 1237.260009765625 C 449.7509765625 1237.260375976562 449.7542114257812 1237.260620117188 449.7576293945312 1237.260864257812 C 449.7607421875 1237.261108398438 449.7637939453125 1237.261352539062 449.7669067382812 1237.261596679688 C 449.7701416015625 1237.261840820312 449.7728271484375 1237.262084960938 449.7760620117188 1237.262451171875 C 449.7793579101562 1237.2626953125 449.7825927734375 1237.262939453125 449.785888671875 1237.26318359375 C 449.7891235351562 1237.263427734375 449.7921752929688 1237.263793945312 449.79541015625 1237.264038085938 C 449.79833984375 1237.264282226562 449.8016357421875 1237.264526367188 449.8045654296875 1237.264770507812 C 449.8079223632812 1237.26513671875 449.8109741210938 1237.265380859375 449.8143310546875 1237.265625 C 449.8172607421875 1237.265869140625 449.8201293945312 1237.26611328125 449.8230590820312 1237.266357421875 C 449.82666015625 1237.266723632812 449.8300170898438 1237.266967773438 449.8336181640625 1237.267333984375 C 449.8364868164062 1237.267578125 449.8394165039062 1237.267822265625 449.8423461914062 1237.26806640625 C 449.8455200195312 1237.268432617188 449.8485717773438 1237.268676757812 449.8517456054688 1237.268920898438 C 449.8548583984375 1237.269287109375 449.8580932617188 1237.26953125 449.8612060546875 1237.269775390625 C 449.8643798828125 1237.270141601562 449.8677368164062 1237.270385742188 449.8709716796875 1237.270629882812 C 449.8738403320312 1237.27099609375 449.877197265625 1237.271240234375 449.8800659179688 1237.271484375 C 449.8834228515625 1237.271850585938 449.8862915039062 1237.272094726562 449.8896484375 1237.2724609375 C 449.8927612304688 1237.272705078125 449.8956909179688 1237.27294921875 449.8987426757812 1237.273315429688 C 449.9019775390625 1237.273559570312 449.9053344726562 1237.27392578125 449.9085083007812 1237.274169921875 C 449.9115600585938 1237.2744140625 449.914794921875 1237.274780273438 449.9178466796875 1237.275024414062 C 449.920654296875 1237.275390625 449.9237670898438 1237.275634765625 449.926513671875 1237.27587890625 C 449.9299926757812 1237.276245117188 449.9334106445312 1237.276611328125 449.9368896484375 1237.27685546875 C 449.9396362304688 1237.277221679688 449.9423828125 1237.277465820312 449.9451904296875 1237.277709960938 C 449.9486083984375 1237.278076171875 449.9520874023438 1237.278442382812 449.95556640625 1237.278686523438 C 449.9583740234375 1237.279052734375 449.961181640625 1237.279296875 449.9639282226562 1237.279541015625 C 449.9672241210938 1237.279907226562 449.9708862304688 1237.2802734375 449.9741821289062 1237.280639648438 C 449.9769287109375 1237.280883789062 449.9798583984375 1237.281127929688 449.982666015625 1237.281494140625 C 449.986083984375 1237.28173828125 449.9896850585938 1237.282104492188 449.9931640625 1237.282470703125 C 449.9955444335938 1237.28271484375 449.9979858398438 1237.282958984375 450.0003662109375 1237.283203125 C 450.004150390625 1237.283569335938 450.0079345703125 1237.284057617188 450.0117797851562 1237.284423828125 C 450.0147705078125 1237.28466796875 450.0175170898438 1237.285034179688 450.0205078125 1237.285278320312 C 450.0235595703125 1237.28564453125 450.02685546875 1237.286010742188 450.0299072265625 1237.286254882812 C 450.0332641601562 1237.28662109375 450.0370483398438 1237.287109375 450.0404052734375 1237.287353515625 C 450.0432739257812 1237.287719726562 450.045654296875 1237.287963867188 450.0485229492188 1237.288208007812 C 450.0520629882812 1237.288696289062 450.0557861328125 1237.2890625 450.059326171875 1237.289428710938 C 450.06201171875 1237.289672851562 450.0646362304688 1237.2900390625 450.0673217773438 1237.290283203125 C 450.0698852539062 1237.29052734375 450.0726318359375 1237.290893554688 450.0751953125 1237.291137695312 C 450.0789794921875 1237.29150390625 450.0825805664062 1237.2919921875 450.08642578125 1237.292358398438 C 450.0875854492188 1237.29248046875 450.0888671875 1237.292602539062 450.090087890625 1237.292724609375 C 450.117919921875 1237.295776367188 450.1459350585938 1237.298950195312 450.1737060546875 1237.30224609375 C 450.1752319335938 1237.302490234375 450.1767578125 1237.302612304688 450.1782836914062 1237.302734375 C 450.1817016601562 1237.30322265625 450.1849365234375 1237.303588867188 450.1883544921875 1237.303955078125 C 450.1912841796875 1237.304321289062 450.1941528320312 1237.3046875 450.1970825195312 1237.305053710938 C 450.199951171875 1237.305297851562 450.2025756835938 1237.3056640625 450.2054443359375 1237.306030273438 C 450.208740234375 1237.306396484375 450.2122802734375 1237.306884765625 450.2156372070312 1237.307250976562 C 450.2190551757812 1237.3076171875 450.2222290039062 1237.307983398438 450.2256469726562 1237.308471679688 C 450.2283935546875 1237.308837890625 450.2308349609375 1237.30908203125 450.2335205078125 1237.309448242188 C 450.2371215820312 1237.309814453125 450.2409057617188 1237.310302734375 450.2445068359375 1237.310791015625 C 450.2472534179688 1237.31103515625 450.24951171875 1237.311401367188 450.2522583007812 1237.311645507812 C 450.2554931640625 1237.312133789062 450.2591552734375 1237.3125 450.2623291015625 1237.31298828125 C 450.2650756835938 1237.313354492188 450.2677612304688 1237.313598632812 450.2704467773438 1237.31396484375 C 450.2742309570312 1237.314453125 450.278076171875 1237.31494140625 450.2817993164062 1237.3154296875 C 450.2841796875 1237.315673828125 450.2862548828125 1237.31591796875 450.28857421875 1237.316284179688 C 450.2923583984375 1237.316772460938 450.2960815429688 1237.317260742188 450.2998657226562 1237.317626953125 C 450.3024291992188 1237.317993164062 450.304443359375 1237.318237304688 450.3069458007812 1237.318603515625 C 450.3107299804688 1237.319091796875 450.314453125 1237.319580078125 450.3181762695312 1237.320068359375 C 450.3204956054688 1237.3203125 450.3231811523438 1237.320678710938 450.3255004882812 1237.320922851562 C 450.3286743164062 1237.321411132812 450.3320922851562 1237.321899414062 450.3353271484375 1237.322265625 C 450.3381958007812 1237.322631835938 450.3411865234375 1237.322998046875 450.3440551757812 1237.323364257812 C 450.3474731445312 1237.323852539062 450.3508911132812 1237.324340820312 450.354248046875 1237.32470703125 C 450.3567504882812 1237.325073242188 450.3594970703125 1237.325439453125 450.3619995117188 1237.325805664062 C 450.3655395507812 1237.326293945312 450.3692016601562 1237.326782226562 450.3727416992188 1237.3271484375 C 450.3750610351562 1237.327514648438 450.3776245117188 1237.327880859375 450.3799438476562 1237.328125 C 450.3836669921875 1237.32861328125 450.3878784179688 1237.329223632812 450.3916625976562 1237.329711914062 C 450.393798828125 1237.330078125 450.3958740234375 1237.330322265625 450.39794921875 1237.33056640625 C 450.4017333984375 1237.3310546875 450.4055786132812 1237.331665039062 450.4093017578125 1237.332153320312 C 450.41162109375 1237.332397460938 450.4141235351562 1237.332763671875 450.4164428710938 1237.333129882812 C 450.420166015625 1237.333618164062 450.424072265625 1237.334106445312 450.4277954101562 1237.334716796875 C 450.429931640625 1237.3349609375 450.43212890625 1237.335327148438 450.4342651367188 1237.335571289062 C 450.4381713867188 1237.336059570312 450.4419555664062 1237.336669921875 450.4458618164062 1237.337158203125 C 450.4481811523438 1237.337524414062 450.4501342773438 1237.337768554688 450.4524536132812 1237.338134765625 C 450.4563598632812 1237.338623046875 450.460205078125 1237.339233398438 450.464111328125 1237.339721679688 C 450.4662475585938 1237.340087890625 450.4686279296875 1237.34033203125 450.4707641601562 1237.340698242188 C 450.4743041992188 1237.341186523438 450.477783203125 1237.341674804688 450.4813232421875 1237.342163085938 C 450.4840087890625 1237.342529296875 450.4868774414062 1237.343017578125 450.4895629882812 1237.343383789062 C 450.4931030273438 1237.343872070312 450.4964599609375 1237.344360351562 450.5 1237.344848632812 C 450.5023193359375 1237.34521484375 450.50439453125 1237.345458984375 450.5067138671875 1237.345825195312 C 450.5106201171875 1237.346435546875 450.5143432617188 1237.346923828125 450.5182495117188 1237.347534179688 C 450.5203857421875 1237.347778320312 450.522216796875 1237.34814453125 450.5243530273438 1237.348388671875 C 450.5284423828125 1237.348999023438 450.53271484375 1237.349609375 450.5367431640625 1237.350219726562 C 450.5386962890625 1237.350463867188 450.5401611328125 1237.350708007812 450.5421142578125 1237.350952148438 C 450.546142578125 1237.3515625 450.550048828125 1237.352172851562 450.5541381835938 1237.352783203125 C 450.5562133789062 1237.353149414062 450.5587158203125 1237.353515625 450.560791015625 1237.353759765625 C 450.564697265625 1237.354370117188 450.5684814453125 1237.35498046875 450.5723876953125 1237.35546875 C 450.574462890625 1237.355834960938 450.5764770507812 1237.356079101562 450.57861328125 1237.3564453125 C 450.5824584960938 1237.357055664062 450.5862426757812 1237.357543945312 450.590087890625 1237.358154296875 C 450.5921630859375 1237.358520507812 450.5941772460938 1237.358764648438 450.5962524414062 1237.359130859375 C 450.600341796875 1237.359741210938 450.6044311523438 1237.3603515625 450.6085205078125 1237.360961914062 C 450.6102294921875 1237.361206054688 450.6121215820312 1237.361572265625 450.6138305664062 1237.36181640625 C 450.6177368164062 1237.362426757812 450.6219482421875 1237.363037109375 450.6257934570312 1237.363647460938 C 450.6281127929688 1237.364013671875 450.6304321289062 1237.364379882812 450.6326904296875 1237.36474609375 C 450.6365966796875 1237.365356445312 450.6403198242188 1237.365844726562 450.6441650390625 1237.366455078125 C 450.6456909179688 1237.36669921875 450.6470947265625 1237.366943359375 450.6486206054688 1237.3671875 C 450.6530151367188 1237.367919921875 450.657958984375 1237.36865234375 450.662353515625 1237.369384765625 C 450.6629028320312 1237.369384765625 450.6636352539062 1237.369506835938 450.6641845703125 1237.36962890625 C 450.7215576171875 1237.378662109375 450.7784423828125 1237.388061523438 450.8351440429688 1237.397705078125 C 450.8362426757812 1237.39794921875 450.8374633789062 1237.398071289062 450.8385620117188 1237.398315429688 C 450.843505859375 1237.399169921875 450.8483276367188 1237.400024414062 450.8532104492188 1237.40087890625 C 450.8541259765625 1237.401000976562 450.8549194335938 1237.401123046875 450.8558959960938 1237.401245117188 C 450.860595703125 1237.402099609375 450.865478515625 1237.402954101562 450.8701782226562 1237.40380859375 C 450.8712768554688 1237.403930664062 450.8724365234375 1237.404174804688 450.87353515625 1237.404418945312 C 450.8782348632812 1237.405151367188 450.8826293945312 1237.406005859375 450.8873291015625 1237.40673828125 C 450.8886108398438 1237.406982421875 450.8898315429688 1237.4072265625 450.89111328125 1237.407470703125 C 450.8950805664062 1237.408203125 450.8994750976562 1237.408935546875 450.9034423828125 1237.40966796875 C 450.9052734375 1237.409912109375 450.9072265625 1237.410278320312 450.9091186523438 1237.41064453125 C 450.9132690429688 1237.411376953125 450.9176025390625 1237.412109375 450.9217529296875 1237.412841796875 C 450.9232177734375 1237.4130859375 450.9246215820312 1237.413330078125 450.9260864257812 1237.413696289062 C 450.9302368164062 1237.414428710938 450.9345703125 1237.415161132812 450.938720703125 1237.415893554688 C 450.9403686523438 1237.416259765625 450.9421997070312 1237.41650390625 450.94384765625 1237.416870117188 C 450.9483642578125 1237.417602539062 450.95263671875 1237.41845703125 450.9570922851562 1237.419189453125 C 450.958251953125 1237.41943359375 450.95947265625 1237.419677734375 450.9606323242188 1237.419921875 C 450.9652709960938 1237.420654296875 450.9696655273438 1237.421508789062 450.974365234375 1237.42236328125 C 450.9756469726562 1237.422607421875 450.9769287109375 1237.4228515625 450.978271484375 1237.423095703125 C 450.9827270507812 1237.423950195312 450.9874877929688 1237.4248046875 450.991943359375 1237.425537109375 C 450.9930419921875 1237.42578125 450.9942016601562 1237.426025390625 450.9953002929688 1237.42626953125 C 451 1237.427124023438 451.0042114257812 1237.427856445312 451.0088500976562 1237.4287109375 C 451.0103149414062 1237.428955078125 451.0116577148438 1237.42919921875 451.0131225585938 1237.429565429688 C 451.0172729492188 1237.430297851562 451.0216064453125 1237.431030273438 451.0256958007812 1237.431884765625 C 451.02734375 1237.43212890625 451.0289306640625 1237.432495117188 451.0305786132812 1237.432739257812 C 451.0347290039062 1237.433471679688 451.0389404296875 1237.434326171875 451.0430297851562 1237.43505859375 C 451.0447387695312 1237.435424804688 451.0463256835938 1237.435668945312 451.0479736328125 1237.43603515625 C 451.0520629882812 1237.436767578125 451.0565185546875 1237.437622070312 451.0606079101562 1237.4384765625 C 451.0618896484375 1237.438598632812 451.0634765625 1237.43896484375 451.0647583007812 1237.439208984375 C 451.0692138671875 1237.440063476562 451.0736694335938 1237.44091796875 451.078125 1237.441772460938 C 451.0794067382812 1237.442016601562 451.0805053710938 1237.442260742188 451.081787109375 1237.442504882812 C 451.08642578125 1237.443359375 451.0909423828125 1237.444213867188 451.0955810546875 1237.445068359375 C 451.0966796875 1237.4453125 451.0974731445312 1237.445434570312 451.0985717773438 1237.445678710938 C 451.1033325195312 1237.446533203125 451.1078491210938 1237.447509765625 451.1126098632812 1237.448364257812 C 451.1137084960938 1237.448608398438 451.114990234375 1237.448852539062 451.1160888671875 1237.449096679688 C 451.1206665039062 1237.449951171875 451.125244140625 1237.450805664062 451.1298828125 1237.451782226562 C 451.1307983398438 1237.451904296875 451.1318359375 1237.4521484375 451.1327514648438 1237.452270507812 C 451.1375732421875 1237.453247070312 451.1422119140625 1237.4541015625 451.14697265625 1237.455078125 C 451.1480712890625 1237.455322265625 451.14892578125 1237.455444335938 451.1500244140625 1237.455688476562 C 451.1548461914062 1237.456665039062 451.159423828125 1237.45751953125 451.1641845703125 1237.45849609375 C 451.1651000976562 1237.458618164062 451.1657104492188 1237.458740234375 451.1666259765625 1237.458984375 C 451.1715698242188 1237.4599609375 451.1764526367188 1237.4609375 451.181396484375 1237.4619140625 C 451.1819458007812 1237.462036132812 451.1826171875 1237.462158203125 451.1831665039062 1237.462280273438 C 453.3518676757812 1237.894409179688 454.9065551757812 1238.7666015625 455.0228881835938 1238.8330078125 L 455.0228881835938 1238.8330078125 C 455.0275268554688 1238.835571289062 455.0298461914062 1238.8369140625 455.0298461914062 1238.8369140625 L 455.0298461914062 1238.8369140625 C 455.0298461914062 1238.8369140625 455.0298461914062 1238.8369140625 455.0298461914062 1238.8369140625 L 455.0298461914062 1238.8369140625 C 455.0298461914062 1238.8369140625 455.0299072265625 1238.8369140625 455.0299072265625 1238.837036132812 L 455.0298461914062 1238.8369140625 C 455.0299682617188 1238.837036132812 455.0299682617188 1238.837036132812 455.030029296875 1238.837158203125 L 455.0298461914062 1238.8369140625 C 455.0303344726562 1238.83740234375 455.0307006835938 1238.837768554688 455.03125 1238.838256835938 L 455.0298461914062 1238.8369140625 C 455.0316162109375 1238.838623046875 455.0316772460938 1238.838745117188 455.0317993164062 1238.8388671875 L 456.1260986328125 1239.91796875 L 454.7218017578125 1241.342041015625 L 453.8326416015625 1240.465209960938 C 453.20556640625 1240.148559570312 451.1723022460938 1239.222900390625 448.838623046875 1239.222900390625 L 448.838623046875 1237.222900390625 C 448.838623046875 1237.222900390625 448.838623046875 1237.222900390625 448.838623046875 1237.222900390625 Z M 458.9742431640625 1242.7265625 L 461.4274291992188 1245.145629882812 C 462.9700927734375 1246.666870117188 464.6705322265625 1248.343627929688 464.6705322265625 1248.343627929688 L 463.2662353515625 1249.767822265625 L 457.5699462890625 1244.150634765625 L 458.9742431640625 1242.726440429688 Z M 467.5186767578125 1251.152221679688 L 472.4136352539062 1255.979248046875 C 472.415771484375 1255.981323242188 472.41796875 1255.983520507812 472.4201049804688 1255.985595703125 L 472.4384155273438 1256.003662109375 C 472.4397583007812 1256.005004882812 472.4407958984375 1256.005981445312 472.4421997070312 1256.00732421875 L 472.4548950195312 1256.019897460938 C 472.9158935546875 1256.474487304688 473.2149658203125 1256.769409179688 473.2149658203125 1256.769409179688 L 471.8106689453125 1258.193481445312 L 466.1144409179688 1252.576293945312 L 467.5186767578125 1251.152221679688 Z M 476.0631103515625 1259.578002929688 L 481.7593994140625 1265.195190429688 L 480.3550415039062 1266.619262695312 L 474.6587524414062 1261.002075195312 L 476.0631713867188 1259.578002929688 Z M 484.6074829101562 1268.003662109375 C 484.6074829101562 1268.003662109375 490.3037719726562 1273.620849609375 490.3037719726562 1273.620849609375 L 488.8994750976562 1275.044921875 L 483.2032470703125 1269.427734375 L 484.6074829101562 1268.003662109375 Z M 493.1519775390625 1276.429443359375 L 494.5890502929688 1277.846557617188 C 494.5989990234375 1277.856323242188 494.6088256835938 1277.866088867188 494.6188354492188 1277.8759765625 L 494.6317138671875 1277.888549804688 C 494.6328125 1277.8896484375 494.634033203125 1277.890869140625 494.6351318359375 1277.891967773438 L 494.6430053710938 1277.899780273438 C 496.3307495117188 1279.564086914062 498.8482055664062 1282.046630859375 498.8482055664062 1282.046630859375 L 497.4439697265625 1283.470581054688 L 491.7476806640625 1277.853515625 L 493.1519775390625 1276.429443359375 Z M 501.6964111328125 1284.855102539062 L 505.6273193359375 1288.7314453125 C 505.6294555664062 1288.733520507812 505.6315307617188 1288.735595703125 505.6336669921875 1288.737670898438 L 505.6399536132812 1288.743896484375 C 505.656982421875 1288.7607421875 505.6740112304688 1288.777465820312 505.6908569335938 1288.794189453125 L 505.6923217773438 1288.795532226562 C 505.6958618164062 1288.799072265625 505.6995239257812 1288.802612304688 505.7030029296875 1288.80615234375 L 505.7107543945312 1288.813720703125 C 505.7169799804688 1288.819946289062 505.7228393554688 1288.82568359375 505.7291259765625 1288.831787109375 L 505.739501953125 1288.842041015625 C 506.6701049804688 1289.759765625 507.3927001953125 1290.472290039062 507.3927001953125 1290.472290039062 L 505.9884033203125 1291.896362304688 L 500.2920532226562 1286.279174804688 L 501.6964111328125 1284.855102539062 Z M 510.2407836914062 1293.280883789062 C 510.2407836914062 1293.280883789062 515.9370727539062 1298.898071289062 515.9370727539062 1298.898071289062 L 514.5327758789062 1300.322021484375 L 508.8364868164062 1294.704956054688 L 510.2407836914062 1293.280883789062 Z M 525.1956176757812 1300.7548828125 L 526.5673217773438 1302.21044921875 L 524.2437133789062 1304.400024414062 C 523.8787231445312 1304.789672851562 523.0899047851562 1305.398071289062 521.7247924804688 1305.398071289062 C 520.98583984375 1305.398071289062 520.1737670898438 1305.21044921875 519.3111572265625 1304.840576171875 L 518.9639892578125 1304.691650390625 L 518.695068359375 1304.426513671875 L 517.3809814453125 1303.130737304688 L 518.7852172851562 1301.70654296875 C 518.7852172851562 1301.70654296875 519.8688354492188 1302.775146484375 520.0680541992188 1302.971557617188 L 520.0682373046875 1302.971801757812 C 520.0707397460938 1302.974243164062 520.0730590820312 1302.976440429688 520.0752563476562 1302.978637695312 L 520.0756225585938 1302.97900390625 C 520.0784912109375 1302.981811523438 520.0811157226562 1302.984497070312 520.0835571289062 1302.98681640625 L 520.0838012695312 1302.987060546875 C 520.0849609375 1302.98828125 520.0860595703125 1302.989379882812 520.0870971679688 1302.990356445312 L 520.0885009765625 1302.99169921875 C 520.0886840820312 1302.991943359375 520.0889282226562 1302.9921875 520.089111328125 1302.992309570312 L 520.092041015625 1302.995239257812 C 520.0922241210938 1302.995361328125 520.0924072265625 1302.99560546875 520.0925903320312 1302.995849609375 L 520.0946655273438 1302.997802734375 C 520.0949096679688 1302.998046875 520.0951538085938 1302.998291015625 520.0953979492188 1302.99853515625 L 520.0993041992188 1303.00244140625 C 520.0985717773438 1303.001708984375 520.0986938476562 1303.001831054688 520.0988159179688 1303.001831054688 L 520.0993041992188 1303.00244140625 C 520.0993041992188 1303.00244140625 520.0993041992188 1303.00244140625 520.0993041992188 1303.00244140625 L 520.0993041992188 1303.00244140625 C 520.7913208007812 1303.299194335938 521.3231201171875 1303.398071289062 521.7247924804688 1303.398071289062 C 522.528076171875 1303.398071289062 522.8104858398438 1303.00244140625 522.8104858398438 1303.00244140625 C 522.8104858398438 1303.00244140625 522.8104858398438 1303.00244140625 522.8104858398438 1303.00244140625 L 522.8104858398438 1303.00244140625 L 522.8104858398438 1303.00244140625 L 522.8104858398438 1303.00244140625 C 522.8104858398438 1303.00244140625 522.8104858398438 1303.00244140625 522.8104858398438 1303.00244140625 L 522.8104858398438 1303.00244140625 L 522.8104858398438 1303.00244140625 C 522.8104858398438 1303.00244140625 522.8104858398438 1303.00244140625 522.8104858398438 1303.00244140625 L 522.8104858398438 1303.00244140625 L 522.8104858398438 1303.00244140625 L 522.8104858398438 1303.00244140625 C 522.8104858398438 1303.00244140625 522.811767578125 1303.001220703125 522.8143310546875 1302.998779296875 C 522.8565673828125 1302.958984375 523.2471313476562 1302.591064453125 523.9351196289062 1301.942749023438 C 524.2816162109375 1301.6162109375 524.7047729492188 1301.217529296875 525.1956176757812 1300.7548828125 Z M 533.927978515625 1292.5234375 L 535.2999267578125 1293.978637695312 C 533.0914916992188 1296.060913085938 531.122314453125 1297.917236328125 529.4774780273438 1299.467529296875 L 528.105712890625 1298.01220703125 C 528.1204223632812 1297.998291015625 528.1324462890625 1297.987060546875 528.147216796875 1297.973022460938 C 529.487060546875 1296.710205078125 531.0401611328125 1295.246215820312 532.7611083984375 1293.623657226562 C 533.1412353515625 1293.265258789062 533.5318603515625 1292.89697265625 533.927978515625 1292.523559570312 Z M 542.6588745117188 1284.28955078125 L 544.03125 1285.744506835938 C 541.9971313476562 1287.663208007812 540.0441284179688 1289.505249023438 538.2103271484375 1291.234375 L 536.8382568359375 1289.779418945312 C 538.0029296875 1288.681030273438 539.2158813476562 1287.537109375 540.467041015625 1286.357055664062 C 541.1857299804688 1285.67919921875 541.9168090820312 1284.989624023438 542.6588745117188 1284.28955078125 Z M 551.3875122070312 1276.0537109375 L 552.7603149414062 1277.508178710938 C 550.7877807617188 1279.369873046875 548.838623046875 1281.209106445312 546.94091796875 1282.99951171875 L 545.5684204101562 1281.544799804688 C 546.0001220703125 1281.137573242188 546.434814453125 1280.727416992188 546.8714599609375 1280.315307617188 C 548.3543090820312 1278.916259765625 549.8638916015625 1277.49169921875 551.3875122070312 1276.0537109375 Z M 560.113037109375 1267.815307617188 L 561.4864501953125 1269.269165039062 C 559.5556030273438 1271.092895507812 557.60791015625 1272.93212890625 555.6691284179688 1274.762329101562 L 554.2962646484375 1273.307983398438 C 556.2347412109375 1271.477905273438 558.182373046875 1269.638916015625 560.113037109375 1267.815307617188 Z M 568.8345947265625 1259.573120117188 L 570.2086791992188 1261.0263671875 C 568.3226318359375 1262.809814453125 566.374755859375 1264.65087890625 564.39453125 1266.52197265625 L 563.02099609375 1265.068115234375 C 564.27587890625 1263.882446289062 565.5167236328125 1262.709838867188 566.738037109375 1261.555297851562 C 567.4441528320312 1260.887817382812 568.1435546875 1260.2265625 568.8345947265625 1259.573120117188 Z M 577.5511474609375 1251.322875976562 L 578.9268798828125 1252.774536132812 C 577.1162109375 1254.490356445312 575.165283203125 1256.33740234375 573.1162109375 1258.276123046875 L 571.74169921875 1256.823364257812 C 572.165283203125 1256.422607421875 572.5855712890625 1256.02490234375 573.0004272460938 1255.63232421875 C 573.7893676757812 1254.885620117188 574.561767578125 1254.154418945312 575.3150634765625 1253.441040039062 C 576.003662109375 1252.7890625 576.678955078125 1252.149291992188 577.3336791992188 1251.528930664062 C 577.4063720703125 1251.460083007812 577.4788818359375 1251.391357421875 577.5511474609375 1251.322875976562 Z M 586.2514038085938 1243.056030273438 L 587.632568359375 1244.502563476562 C 586.1580810546875 1245.910522460938 584.2061767578125 1247.76708984375 581.8309326171875 1250.020874023438 L 580.454345703125 1248.570068359375 C 581.9151611328125 1247.183959960938 583.2459106445312 1245.919555664062 584.4169921875 1244.8046875 C 585.0821533203125 1244.171508789062 585.6947631835938 1243.587646484375 586.25146484375 1243.056030273438 Z M 593.6417846679688 1238.108764648438 C 593.6419677734375 1238.108764648438 593.64208984375 1238.108764648438 593.6422119140625 1238.108764648438 C 593.6422119140625 1238.108764648438 593.6422119140625 1238.108764648438 593.6422119140625 1238.108764648438 C 593.6492309570312 1238.108764648438 593.6561279296875 1238.108764648438 593.6631469726562 1238.108764648438 C 593.6646118164062 1238.108764648438 593.66650390625 1238.108764648438 593.66796875 1238.10888671875 C 593.6749267578125 1238.10888671875 593.681884765625 1238.10888671875 593.6888427734375 1238.10888671875 C 593.6888427734375 1238.10888671875 593.6888427734375 1238.10888671875 593.6888427734375 1238.10888671875 C 593.6961669921875 1238.109008789062 593.703369140625 1238.109008789062 593.7106323242188 1238.109130859375 C 593.7116088867188 1238.109130859375 593.712890625 1238.109130859375 593.7138671875 1238.109130859375 C 593.728515625 1238.109375 593.7430419921875 1238.109497070312 593.7576904296875 1238.109741210938 C 593.75830078125 1238.109741210938 593.7592163085938 1238.10986328125 593.7598876953125 1238.10986328125 C 593.7747802734375 1238.110107421875 593.7896118164062 1238.1103515625 593.804443359375 1238.110717773438 C 593.804931640625 1238.110717773438 593.8055419921875 1238.11083984375 593.8060302734375 1238.11083984375 C 593.8211669921875 1238.111206054688 593.8363647460938 1238.111572265625 593.8514404296875 1238.112060546875 C 593.8516235351562 1238.112060546875 593.8515625 1238.112060546875 593.8517456054688 1238.112060546875 C 594.7715454101562 1238.140869140625 595.6522216796875 1238.354248046875 596.4056396484375 1238.61767578125 L 595.74560546875 1240.505615234375 C 594.992431640625 1240.242309570312 594.28466796875 1240.108764648438 593.64208984375 1240.108764648438 C 593.641845703125 1240.108764648438 593.641845703125 1240.108764648438 593.6416015625 1240.108764648438 C 592.6278076171875 1240.108764648438 591.7996826171875 1240.448120117188 591.1103515625 1241.14599609375 C 590.9815063476562 1241.2763671875 590.7924194335938 1241.463134765625 590.5321044921875 1241.716674804688 L 589.136474609375 1240.2841796875 C 589.3824462890625 1240.044555664062 589.5675048828125 1239.862060546875 589.6873779296875 1239.740600585938 C 589.6873779296875 1239.740600585938 589.6873779296875 1239.740600585938 589.6873779296875 1239.740600585938 C 589.6873779296875 1239.740600585938 589.6873779296875 1239.740600585938 589.6873779296875 1239.740600585938 C 589.6968994140625 1239.731079101562 589.706298828125 1239.721557617188 589.7158203125 1239.712036132812 C 590.9158935546875 1238.512817382812 592.3078002929688 1238.1103515625 593.6339111328125 1238.108764648438 C 593.6365966796875 1238.108764648438 593.63916015625 1238.108764648438 593.6417846679688 1238.108764648438 Z M 599.7378540039062 1240.731811523438 C 599.8736572265625 1240.86474609375 600.0223388671875 1241.01025390625 600.18359375 1241.168090820312 C 600.7084350585938 1241.681640625 601.3651123046875 1242.324462890625 602.1396484375 1243.082763671875 C 602.142578125 1243.085571289062 602.1456298828125 1243.088500976562 602.1485595703125 1243.09130859375 C 602.1505126953125 1243.09326171875 602.1544189453125 1243.09716796875 602.1563720703125 1243.098999023438 C 602.1602783203125 1243.102905273438 602.164306640625 1243.106811523438 602.168212890625 1243.110717773438 C 602.1721801757812 1243.114501953125 602.1757202148438 1243.117919921875 602.1796875 1243.121826171875 C 603.111328125 1244.033935546875 604.2106323242188 1245.110229492188 605.451904296875 1246.325805664062 L 604.052490234375 1247.754760742188 C 601.4381103515625 1245.1943359375 599.453125 1243.251586914062 598.3390502929688 1242.161376953125 L 599.7378540039062 1240.731811523438 Z M 608.3112182617188 1249.126586914062 C 608.916259765625 1249.719360351562 609.5406494140625 1250.331176757812 610.18798828125 1250.965454101562 C 611.4006958007812 1252.153686523438 612.6839599609375 1253.411376953125 614.0252685546875 1254.726196289062 L 612.6251220703125 1256.154418945312 C 610.5692138671875 1254.139038085938 608.6492919921875 1252.257568359375 606.91162109375 1250.555297851562 L 608.3112182617188 1249.126586914062 Z M 616.880615234375 1257.525756835938 C 617.0777587890625 1257.719116210938 617.27587890625 1257.913452148438 617.4749755859375 1258.108642578125 C 617.4806518554688 1258.1142578125 617.4852905273438 1258.118774414062 617.490966796875 1258.124389648438 C 617.49755859375 1258.130737304688 617.5040283203125 1258.137084960938 617.5105590820312 1258.1435546875 C 618.903076171875 1259.509155273438 620.3385009765625 1260.917114257812 621.8085327148438 1262.359619140625 C 621.8216552734375 1262.372436523438 621.834716796875 1262.38525390625 621.8477783203125 1262.398071289062 C 621.8497924804688 1262.400024414062 621.8563232421875 1262.406494140625 621.8583374023438 1262.408447265625 C 622.102294921875 1262.647827148438 622.3472900390625 1262.88818359375 622.5929565429688 1263.129272460938 L 621.1922607421875 1264.556884765625 C 619.2247924804688 1262.626220703125 617.3115234375 1260.74951171875 615.4803466796875 1258.953735351562 L 616.880615234375 1257.525756835938 Z M 625.4473876953125 1265.930908203125 C 627.2030029296875 1267.654296875 628.9891357421875 1269.408325195312 630.7884521484375 1271.176147460938 C 630.91064453125 1271.296142578125 631.032958984375 1271.416381835938 631.1552734375 1271.536499023438 L 629.7536010742188 1272.963134765625 C 627.8306884765625 1271.073852539062 625.9207763671875 1269.1982421875 624.0463256835938 1267.358154296875 L 625.4473876953125 1265.930908203125 Z M 634.00830078125 1274.340454101562 C 635.9141845703125 1276.2138671875 637.8245849609375 1278.0927734375 639.7122802734375 1279.950561523438 L 638.3094482421875 1281.376098632812 C 636.4210205078125 1279.517578125 634.5128173828125 1277.640747070312 632.6063232421875 1275.766723632812 L 634.00830078125 1274.340454101562 Z M 642.5629272460938 1282.757080078125 C 644.5040893554688 1284.668823242188 646.4111328125 1286.548461914062 648.2606811523438 1288.373168945312 L 646.8560791015625 1289.796875 C 645.0697631835938 1288.034545898438 643.1531982421875 1286.145385742188 641.1596069335938 1284.182006835938 L 642.56298828125 1282.757080078125 Z M 651.1068115234375 1291.182739257812 C 652.3302612304688 1292.39111328125 653.5203857421875 1293.567626953125 654.6690673828125 1294.704223632812 C 655.3943481445312 1295.421997070312 656.1044921875 1296.125122070312 656.7948608398438 1296.809204101562 L 655.3870849609375 1298.229858398438 C 653.6631469726562 1296.521606445312 651.750244140625 1294.629272460938 649.7012939453125 1292.605590820312 L 651.1068115234375 1291.182739257812 Z M 659.6339111328125 1299.6259765625 C 661.7984008789062 1301.7763671875 663.7136840820312 1303.686401367188 665.2998046875 1305.278442382812 L 663.8828735351562 1306.690063476562 C 662.3582763671875 1305.159545898438 660.4544067382812 1303.26025390625 658.224365234375 1301.044799804688 L 659.6339111328125 1299.6259765625 Z M 668.11181640625 1308.119995117188 C 669.1607666015625 1309.190795898438 669.8521118164062 1309.915649414062 670.1142578125 1310.224975585938 C 670.114501953125 1310.225219726562 670.1143188476562 1310.224975585938 670.114501953125 1310.225219726562 C 670.1153564453125 1310.226196289062 670.1162109375 1310.227172851562 670.1170654296875 1310.228149414062 C 670.117431640625 1310.228637695312 670.1175537109375 1310.228759765625 670.117919921875 1310.229248046875 C 670.1187744140625 1310.230346679688 670.11962890625 1310.231323242188 670.1204833984375 1310.232299804688 C 670.1204833984375 1310.232299804688 670.1204833984375 1310.232299804688 670.1204833984375 1310.232299804688 C 670.1204833984375 1310.232299804688 670.1204833984375 1310.232299804688 670.1204833984375 1310.232299804688 C 670.1251220703125 1310.23779296875 670.129638671875 1310.2431640625 670.1341552734375 1310.24853515625 C 670.1349487304688 1310.24951171875 670.1358642578125 1310.250610351562 670.1365966796875 1310.25146484375 C 670.14111328125 1310.2568359375 670.1455078125 1310.262084960938 670.1500244140625 1310.267456054688 C 670.1505737304688 1310.268188476562 670.151123046875 1310.268798828125 670.1517333984375 1310.26953125 C 670.1611328125 1310.280883789062 670.17041015625 1310.2919921875 670.1798095703125 1310.303344726562 C 670.1802978515625 1310.303955078125 670.1806640625 1310.304443359375 670.1812133789062 1310.305053710938 C 671.103271484375 1311.421508789062 671.628662109375 1312.595947265625 671.9124755859375 1313.692260742188 C 671.91259765625 1313.692504882812 671.91259765625 1313.692504882812 671.91259765625 1313.692749023438 C 671.9140625 1313.698364257812 671.91552734375 1313.703979492188 671.9169921875 1313.709594726562 C 671.9171142578125 1313.710083007812 671.917236328125 1313.710571289062 671.9173583984375 1313.711059570312 C 671.9187622070312 1313.716552734375 671.920166015625 1313.72216796875 671.921630859375 1313.727783203125 C 671.921630859375 1313.727905273438 671.9217529296875 1313.728393554688 671.921875 1313.728637695312 C 671.923095703125 1313.733642578125 671.9244384765625 1313.73876953125 671.9256591796875 1313.743896484375 C 671.9259033203125 1313.744750976562 671.9261474609375 1313.745727539062 671.9263916015625 1313.74658203125 C 671.9276123046875 1313.75146484375 671.928955078125 1313.756713867188 671.93017578125 1313.761596679688 C 671.930419921875 1313.762817382812 671.9307861328125 1313.764038085938 671.9310302734375 1313.76513671875 C 671.932373046875 1313.770263671875 671.93359375 1313.775390625 671.9348754882812 1313.780517578125 C 671.9349365234375 1313.780883789062 671.9351196289062 1313.781494140625 671.9351806640625 1313.781860351562 C 671.936279296875 1313.786376953125 671.9374389648438 1313.790893554688 671.9384765625 1313.795288085938 C 671.93896484375 1313.796997070312 671.939453125 1313.799194335938 671.93994140625 1313.800903320312 C 671.9409790039062 1313.805297851562 671.9420776367188 1313.809692382812 671.943115234375 1313.814086914062 C 671.943603515625 1313.816162109375 671.944091796875 1313.81787109375 671.944580078125 1313.81982421875 C 671.9451904296875 1313.82275390625 671.9459228515625 1313.825561523438 671.9466552734375 1313.828369140625 C 671.947509765625 1313.832153320312 671.9483642578125 1313.83544921875 671.94921875 1313.839233398438 C 671.9498291015625 1313.841918945312 671.950439453125 1313.844360351562 671.9511108398438 1313.847045898438 C 671.95166015625 1313.849487304688 671.9522705078125 1313.851928710938 671.952880859375 1313.854370117188 C 671.953369140625 1313.856567382812 671.9539794921875 1313.85888671875 671.9544677734375 1313.861083984375 C 671.95556640625 1313.865600585938 671.956787109375 1313.87060546875 671.957763671875 1313.875122070312 C 671.9581298828125 1313.876342773438 671.9583740234375 1313.877563476562 671.9586791992188 1313.878784179688 C 671.9601440429688 1313.885009765625 671.9615478515625 1313.89111328125 671.9630126953125 1313.897338867188 C 671.963134765625 1313.897705078125 671.963134765625 1313.89794921875 671.9632568359375 1313.898315429688 C 671.9657592773438 1313.908935546875 671.9681396484375 1313.919067382812 671.9705810546875 1313.9296875 C 671.9705810546875 1313.929931640625 671.9706420898438 1313.930053710938 671.970703125 1313.930297851562 C 672.0411376953125 1314.236450195312 672.0932006835938 1314.535400390625 672.1304931640625 1314.824462890625 L 670.1468505859375 1315.080078125 C 669.973876953125 1313.7373046875 669.4505615234375 1312.540161132812 668.5916748046875 1311.521850585938 C 668.4694213867188 1311.376831054688 668.0587768554688 1310.923828125 666.68310546875 1309.519653320312 L 668.11181640625 1308.119995117188 Z M 670.1652221679688 1317.328247070312 L 671.636962890625 1318.682495117188 C 670.94970703125 1319.429443359375 669.0665283203125 1321.475830078125 666.2237548828125 1324.562377929688 L 664.752685546875 1323.20751953125 C 667.5950927734375 1320.121337890625 669.47802734375 1318.0751953125 670.1652221679688 1317.328247070312 Z M 662.0419921875 1326.150268554688 L 663.5128784179688 1327.50537109375 C 663.2484130859375 1327.79248046875 662.9783935546875 1328.085571289062 662.703125 1328.38427734375 C 661.977783203125 1329.171630859375 661.21826171875 1329.995727539062 660.4207763671875 1330.861206054688 C 659.6741333007812 1331.67138671875 658.896728515625 1332.514770507812 658.09033203125 1333.3896484375 L 656.6197509765625 1332.034057617188 C 658.6129150390625 1329.871826171875 660.428955078125 1327.901123046875 662.0419921875 1326.150268554688 Z M 653.9057006835938 1334.97802734375 L 655.3759765625 1336.333740234375 C 654.6390380859375 1337.133056640625 653.88232421875 1337.95361328125 653.107177734375 1338.794189453125 C 652.0848388671875 1339.902709960938 651.0361938476562 1341.03955078125 649.9515991210938 1342.215209960938 L 648.4815673828125 1340.859130859375 C 650.38623046875 1338.794555664062 652.1986083984375 1336.829467773438 653.9057006835938 1334.97802734375 Z M 645.77099609375 1343.796997070312 L 647.2407836914062 1345.1533203125 C 646.6965942382812 1345.743041992188 646.1407470703125 1346.345336914062 645.5838623046875 1346.948608398438 C 644.3570556640625 1348.277954101562 643.1000366210938 1349.639770507812 641.8157958984375 1351.030639648438 L 640.3463134765625 1349.673950195312 C 642.2151489257812 1347.64990234375 644.0263671875 1345.687622070312 645.77099609375 1343.796997070312 Z M 637.6304931640625 1352.615112304688 L 639.0997924804688 1353.972045898438 C 639.02001953125 1354.058471679688 638.9400634765625 1354.14501953125 638.860107421875 1354.231567382812 C 637.4998779296875 1355.704345703125 636.11572265625 1357.202880859375 634.70556640625 1358.729125976562 C 634.36279296875 1359.10009765625 634.0184326171875 1359.472778320312 633.6728515625 1359.846801757812 L 632.2039794921875 1358.489501953125 C 634.0534057617188 1356.487915039062 635.8646240234375 1354.52734375 637.6304931640625 1352.615112304688 Z M 629.4878540039062 1361.428466796875 L 630.95654296875 1362.786010742188 C 630.5158081054688 1363.262817382812 630.0731201171875 1363.741821289062 629.628662109375 1364.22265625 C 628.274658203125 1365.687255859375 626.910400390625 1367.162719726562 625.5249633789062 1368.660888671875 L 624.056640625 1367.302978515625 C 625.89453125 1365.315673828125 627.706787109375 1363.35546875 629.4878540039062 1361.428466796875 Z M 621.34228515625 1370.237426757812 L 622.8104248046875 1371.595581054688 C 621.160888671875 1373.378540039062 619.4876098632812 1375.186767578125 617.806396484375 1377.0029296875 C 617.6631469726562 1377.15771484375 617.5196533203125 1377.312744140625 617.376220703125 1377.467651367188 L 615.9085693359375 1376.109008789062 C 617.737548828125 1374.133422851562 619.5504150390625 1372.17431640625 621.34228515625 1370.237426757812 Z M 613.1903076171875 1379.044921875 L 614.6577758789062 1380.40380859375 C 613.2521362304688 1381.921630859375 611.833740234375 1383.452880859375 610.414794921875 1384.984375 C 610.017333984375 1385.413330078125 609.6195068359375 1385.842651367188 609.2211303710938 1386.2724609375 L 607.7542724609375 1384.9130859375 C 609.5758666992188 1382.947265625 611.3895263671875 1380.989501953125 613.1903076171875 1379.044921875 Z M 605.03515625 1387.846557617188 L 606.5018310546875 1389.206176757812 C 604.7275390625 1391.1201171875 602.9586181640625 1393.027465820312 601.177978515625 1394.946533203125 C 601.1390991210938 1394.988525390625 601.100341796875 1395.0302734375 601.0614013671875 1395.072265625 L 599.5953369140625 1393.7119140625 C 601.4110107421875 1391.755004882812 603.225830078125 1389.798095703125 605.03515625 1387.846557617188 Z M 596.87451171875 1396.643676757812 L 598.34033203125 1398.004272460938 C 597.0157470703125 1399.431274414062 595.6839599609375 1400.865478515625 594.3626708984375 1402.287841796875 C 594.3427734375 1402.309326171875 594.3228149414062 1402.330810546875 594.3028564453125 1402.352172851562 C 594.2814331054688 1402.375244140625 594.254638671875 1402.404174804688 594.233154296875 1402.42724609375 C 593.787109375 1402.907470703125 593.3412475585938 1403.387329101562 592.8958740234375 1403.86669921875 L 591.4306640625 1402.50537109375 C 593.2407836914062 1400.557250976562 595.0569458007812 1398.601684570312 596.87451171875 1396.643676757812 Z M 588.7080078125 1405.434814453125 L 590.1728515625 1406.796508789062 C 589.9541015625 1407.03173828125 589.735595703125 1407.266845703125 589.51708984375 1407.501831054688 C 587.9108276367188 1409.2294921875 586.3123779296875 1410.94775390625 584.7236328125 1412.65478515625 L 583.2595825195312 1411.292114257812 C 585.06396484375 1409.353637695312 586.8817138671875 1407.399291992188 588.7080078125 1405.434814453125 Z M 580.5345458984375 1414.219116210938 L 581.998046875 1415.582275390625 C 580.6805419921875 1416.996826171875 579.371826171875 1418.4013671875 578.0734252929688 1419.794067382812 C 577.55859375 1420.346435546875 577.0550537109375 1420.886352539062 576.5435791015625 1421.434814453125 L 575.0809326171875 1420.070678710938 C 576.8786010742188 1418.143188476562 578.6982421875 1416.19091796875 580.5345458984375 1414.219116210938 Z M 572.3519287109375 1422.995483398438 L 573.81396484375 1424.360229492188 C 573.13623046875 1425.086303710938 572.4620361328125 1425.808349609375 571.7918090820312 1426.52587890625 C 570.6337890625 1427.765747070312 569.4859619140625 1428.993896484375 568.3526000976562 1430.205810546875 L 566.8917846679688 1428.839721679688 C 568.6478271484375 1426.962036132812 570.48486328125 1424.995727539062 572.3519287109375 1422.995483398438 Z M 564.15869140625 1431.760864257812 L 565.6187744140625 1433.127685546875 C 564.9713134765625 1433.8193359375 564.323974609375 1434.510498046875 563.6865234375 1435.19091796875 C 563.678955078125 1435.198852539062 563.6712646484375 1435.207153320312 563.6636962890625 1435.215209960938 C 563.607177734375 1435.275512695312 563.55615234375 1435.329956054688 563.4996948242188 1435.390258789062 C 563.4937744140625 1435.396606445312 563.4879150390625 1435.40283203125 563.4819946289062 1435.409057617188 C 563.4669189453125 1435.425170898438 563.460205078125 1435.432373046875 563.4451904296875 1435.448486328125 C 562.3294677734375 1436.639038085938 561.229736328125 1437.811767578125 560.1475830078125 1438.964721679688 L 558.6893310546875 1437.59619140625 C 560.4342041015625 1435.73681640625 562.2744140625 1433.773559570312 564.15869140625 1431.760864257812 Z M 555.9512939453125 1440.511108398438 L 557.4085693359375 1441.880981445312 C 557.177001953125 1442.127319335938 556.9464721679688 1442.37255859375 556.7167358398438 1442.616821289062 C 556.709716796875 1442.624267578125 556.6995239257812 1442.635131835938 556.6925048828125 1442.642700195312 C 556.6788330078125 1442.657104492188 556.6654052734375 1442.67138671875 556.65185546875 1442.685913085938 C 555.667724609375 1443.732299804688 554.6990966796875 1444.761352539062 553.7508544921875 1445.767700195312 C 553.135009765625 1446.421264648438 552.5272216796875 1447.06591796875 551.9274291992188 1447.701538085938 L 550.4727783203125 1446.3291015625 C 552.197998046875 1444.500610351562 554.041259765625 1442.543212890625 555.9512939453125 1440.511108398438 Z M 547.7266845703125 1449.235961914062 L 549.1796875 1450.6103515625 C 547.238037109375 1452.6630859375 545.3978271484375 1454.602783203125 543.67236328125 1456.414672851562 L 542.2240600585938 1455.035400390625 C 543.9132080078125 1453.261596679688 545.7645263671875 1451.310424804688 547.7266845703125 1449.235961914062 Z M 539.4622192382812 1457.928955078125 L 540.9072265625 1459.311645507812 C 539.0057373046875 1461.298706054688 537.2801513671875 1463.090209960938 535.7545166015625 1464.659912109375 C 535.739990234375 1464.6748046875 535.7299194335938 1464.685180664062 535.7154541015625 1464.700073242188 C 535.7147216796875 1464.700805664062 535.714111328125 1464.701416015625 535.71337890625 1464.7021484375 C 535.5933227539062 1464.82568359375 535.4742431640625 1464.947998046875 535.356689453125 1465.068725585938 L 533.923828125 1463.673461914062 C 535.503662109375 1462.051147460938 537.3670654296875 1460.118408203125 539.4622192382812 1457.928955078125 Z M 531.1321411132812 1466.515502929688 L 532.5511474609375 1467.924926757812 C 530.279541015625 1470.2119140625 528.7982788085938 1471.622924804688 528.2721557617188 1471.976806640625 C 528.2715454101562 1471.977172851562 528.2709350585938 1471.9775390625 528.2703247070312 1471.97802734375 C 528.2699584960938 1471.978271484375 528.2704467773438 1471.977905273438 528.27001953125 1471.978149414062 C 528.257080078125 1471.98681640625 528.2447509765625 1471.994873046875 528.2329711914062 1472.002319335938 L 528.2329711914062 1472.002319335938 C 528.2329711914062 1472.002319335938 528.2329711914062 1472.002319335938 528.2329711914062 1472.002319335938 C 528.2266845703125 1472.006225585938 528.220458984375 1472.010131835938 528.2141723632812 1472.014038085938 C 528.2122192382812 1472.015258789062 528.210205078125 1472.0166015625 528.208251953125 1472.017822265625 C 528.2027587890625 1472.021240234375 528.1975708007812 1472.0244140625 528.1920776367188 1472.02783203125 C 528.1895141601562 1472.029418945312 528.18701171875 1472.031005859375 528.1844482421875 1472.032592773438 C 528.1802368164062 1472.03515625 528.1759033203125 1472.037841796875 528.1716918945312 1472.040405273438 C 528.1690063476562 1472.042114257812 528.1663208007812 1472.043823242188 528.1636352539062 1472.04541015625 C 528.159423828125 1472.047973632812 528.1552734375 1472.050537109375 528.1510620117188 1472.05322265625 C 528.1466674804688 1472.055908203125 528.1423950195312 1472.058471679688 528.1380004882812 1472.061157226562 C 528.1353149414062 1472.062866210938 528.132568359375 1472.064453125 528.1298217773438 1472.066162109375 C 528.1265869140625 1472.068115234375 528.123291015625 1472.070190429688 528.1200561523438 1472.072143554688 C 528.1156005859375 1472.074829101562 528.111328125 1472.077514648438 528.1068725585938 1472.080200195312 C 528.1026000976562 1472.082763671875 528.0984497070312 1472.085327148438 528.0941772460938 1472.087890625 C 528.0918579101562 1472.089233398438 528.0895385742188 1472.090698242188 528.0872802734375 1472.092041015625 C 528.07470703125 1472.099609375 528.0620727539062 1472.107177734375 528.049560546875 1472.11474609375 C 528.0481567382812 1472.115600585938 528.0468139648438 1472.116333007812 528.0454711914062 1472.1171875 C 528.0325317382812 1472.124877929688 528.0195922851562 1472.132690429688 528.0066528320312 1472.140258789062 C 528.0050659179688 1472.141235351562 528.0037841796875 1472.141967773438 528.002197265625 1472.142944335938 C 527.9888916015625 1472.150756835938 527.9756469726562 1472.158569335938 527.96240234375 1472.166381835938 C 527.962158203125 1472.16650390625 527.9619750976562 1472.166625976562 527.9617309570312 1472.166748046875 C 527.9383544921875 1472.180419921875 527.9149780273438 1472.194091796875 527.8915405273438 1472.20751953125 C 527.8911743164062 1472.207763671875 527.890869140625 1472.207885742188 527.8905639648438 1472.208129882812 C 527.876708984375 1472.216064453125 527.86279296875 1472.223999023438 527.848876953125 1472.23193359375 C 527.8484497070312 1472.232177734375 527.847900390625 1472.232543945312 527.847412109375 1472.232788085938 C 527.8338012695312 1472.240478515625 527.8201904296875 1472.248168945312 527.8065795898438 1472.255859375 C 527.8056640625 1472.25634765625 527.8047485351562 1472.2568359375 527.8038330078125 1472.257446289062 C 527.7907104492188 1472.264770507812 527.777587890625 1472.272094726562 527.7644653320312 1472.279418945312 C 527.7630004882812 1472.2802734375 527.76123046875 1472.28125 527.759765625 1472.281982421875 C 527.7470703125 1472.2890625 527.7343139648438 1472.296142578125 527.7215576171875 1472.303100585938 C 527.7197265625 1472.30419921875 527.7178344726562 1472.30517578125 527.7160034179688 1472.30615234375 C 527.708984375 1472.31005859375 527.7018432617188 1472.31396484375 527.6947631835938 1472.31787109375 C 527.6931762695312 1472.318725585938 527.6914672851562 1472.319580078125 527.6898803710938 1472.320556640625 C 527.6860961914062 1472.322509765625 527.682373046875 1472.324584960938 527.6785888671875 1472.32666015625 C 527.6762084960938 1472.328002929688 527.673583984375 1472.329345703125 527.671142578125 1472.330688476562 C 527.6657104492188 1472.333618164062 527.6602172851562 1472.336669921875 527.6547241210938 1472.339599609375 C 527.6517333984375 1472.341186523438 527.6488647460938 1472.3427734375 527.6459350585938 1472.344360351562 C 527.6425170898438 1472.34619140625 527.63916015625 1472.348022460938 527.6357421875 1472.349853515625 C 527.632568359375 1472.3515625 527.6295166015625 1472.353149414062 527.6263427734375 1472.354858398438 C 527.6216430664062 1472.357421875 527.616943359375 1472.35986328125 527.6122436523438 1472.362426757812 C 527.6085815429688 1472.364379882812 527.60498046875 1472.366333007812 527.6012573242188 1472.368286132812 C 527.5985107421875 1472.369750976562 527.595703125 1472.371215820312 527.5929565429688 1472.372680664062 C 527.5879516601562 1472.375366210938 527.582763671875 1472.378173828125 527.5776977539062 1472.380859375 C 527.5750732421875 1472.382202148438 527.5723876953125 1472.383666992188 527.5697631835938 1472.385009765625 C 527.5653686523438 1472.387329101562 527.5608520507812 1472.389770507812 527.5565185546875 1472.391967773438 C 527.5545043945312 1472.39306640625 527.5525512695312 1472.39404296875 527.5505981445312 1472.395141601562 C 527.5444946289062 1472.398315429688 527.53857421875 1472.4013671875 527.5325317382812 1472.404541015625 C 527.5307006835938 1472.405517578125 527.5288696289062 1472.406494140625 527.5270385742188 1472.407470703125 C 527.5217895507812 1472.41015625 527.5165405273438 1472.412963867188 527.5112915039062 1472.415649414062 C 527.510009765625 1472.416381835938 527.5087280273438 1472.4169921875 527.5074462890625 1472.417602539062 C 527.5008544921875 1472.421142578125 527.4942016601562 1472.424560546875 527.487548828125 1472.427978515625 C 527.4867553710938 1472.428344726562 527.4860229492188 1472.4287109375 527.4852905273438 1472.42919921875 C 527.4710693359375 1472.4365234375 527.4569702148438 1472.443725585938 527.4427490234375 1472.450927734375 C 527.4427490234375 1472.450927734375 527.4427490234375 1472.451049804688 527.4427490234375 1472.451049804688 C 527.0958251953125 1472.628051757812 526.7481079101562 1472.780395507812 526.4009399414062 1472.910400390625 L 525.6993408203125 1471.03759765625 C 526.2024536132812 1470.84912109375 526.6932373046875 1470.606079101562 527.1581420898438 1470.315673828125 C 527.3150024414062 1470.20654296875 528.0542602539062 1469.6142578125 531.1321411132812 1466.515502929688 Z M 516.6806030273438 1469.354248046875 L 517.6859130859375 1470.372680664062 C 518.3134765625 1470.6796875 520.2300415039062 1471.518432617188 522.5159301757812 1471.561401367188 L 522.4783325195312 1473.56103515625 C 521.5714111328125 1473.5439453125 520.7191162109375 1473.423583984375 519.95751953125 1473.256469726562 C 519.95751953125 1473.256469726562 519.9574584960938 1473.256469726562 519.9574584960938 1473.256469726562 C 519.9522705078125 1473.25537109375 519.9469604492188 1473.254150390625 519.9417724609375 1473.253051757812 C 519.9415893554688 1473.253051757812 519.9411010742188 1473.2529296875 519.9409790039062 1473.252807617188 C 519.936279296875 1473.251831054688 519.9315185546875 1473.250732421875 519.9268188476562 1473.249755859375 C 519.92578125 1473.24951171875 519.9246215820312 1473.249267578125 519.923583984375 1473.2490234375 C 519.9190673828125 1473.248046875 519.9142456054688 1473.246948242188 519.9097290039062 1473.245971679688 C 519.9091796875 1473.245849609375 519.9091186523438 1473.245849609375 519.9086303710938 1473.245727539062 C 519.9036254882812 1473.244506835938 519.8990478515625 1473.243530273438 519.89404296875 1473.242431640625 C 519.893310546875 1473.242309570312 519.8927001953125 1473.242065429688 519.8920288085938 1473.241943359375 C 519.8399047851562 1473.230224609375 519.7879638671875 1473.21826171875 519.7367553710938 1473.206176757812 C 519.7360229492188 1473.2060546875 519.7351684570312 1473.205810546875 519.7344970703125 1473.205688476562 C 519.729736328125 1473.20458984375 519.7247314453125 1473.203369140625 519.719970703125 1473.202270507812 C 519.7196655273438 1473.2021484375 519.7193603515625 1473.2021484375 519.7190551757812 1473.202026367188 C 519.7147827148438 1473.201049804688 519.7107543945312 1473.200073242188 519.70654296875 1473.199096679688 C 519.7050170898438 1473.19873046875 519.70361328125 1473.198364257812 519.7020874023438 1473.197998046875 C 519.6986694335938 1473.197143554688 519.6951904296875 1473.1962890625 519.6917724609375 1473.195556640625 C 519.6898803710938 1473.195068359375 519.6879272460938 1473.194580078125 519.68603515625 1473.194091796875 C 519.6829223632812 1473.193359375 519.6799926757812 1473.192626953125 519.6768798828125 1473.19189453125 C 519.67431640625 1473.191284179688 519.6716918945312 1473.190673828125 519.6690673828125 1473.190063476562 C 519.6663208007812 1473.189453125 519.663330078125 1473.188720703125 519.6605834960938 1473.18798828125 C 519.6583862304688 1473.1875 519.6563110351562 1473.18701171875 519.654052734375 1473.186401367188 C 519.6510009765625 1473.185668945312 519.6474609375 1473.184814453125 519.6444091796875 1473.18408203125 C 519.642333984375 1473.18359375 519.6400146484375 1473.182983398438 519.637939453125 1473.182495117188 C 519.6348876953125 1473.181762695312 519.631591796875 1473.180908203125 519.6285400390625 1473.18017578125 C 519.6263427734375 1473.1796875 519.6240234375 1473.179077148438 519.621826171875 1473.178588867188 C 519.6190795898438 1473.177856445312 519.6162109375 1473.17724609375 519.6134643554688 1473.176513671875 C 519.6107177734375 1473.175903320312 519.6079711914062 1473.175170898438 519.6052856445312 1473.174438476562 C 519.6025390625 1473.173828125 519.5996704101562 1473.173095703125 519.596923828125 1473.172485351562 C 519.5949096679688 1473.171997070312 519.5926513671875 1473.17138671875 519.5906372070312 1473.1708984375 C 519.58740234375 1473.170043945312 519.5845336914062 1473.16943359375 519.581298828125 1473.168579101562 C 519.57861328125 1473.16796875 519.5763549804688 1473.167358398438 519.5736083984375 1473.166625976562 C 519.571044921875 1473.166015625 519.5682983398438 1473.165405273438 519.5657348632812 1473.164672851562 C 519.5623779296875 1473.163818359375 519.5589599609375 1473.162963867188 519.5556030273438 1473.162231445312 C 519.553955078125 1473.161743164062 519.552490234375 1473.161376953125 519.5508422851562 1473.161010742188 C 519.546142578125 1473.159790039062 519.541015625 1473.158569335938 519.5363159179688 1473.157348632812 C 519.5358276367188 1473.1572265625 519.5357666015625 1473.1572265625 519.5352783203125 1473.157104492188 C 519.5299072265625 1473.15576171875 519.5247802734375 1473.154418945312 519.5194091796875 1473.153076171875 C 519.5194091796875 1473.153076171875 519.519287109375 1473.153076171875 519.519287109375 1473.153076171875 C 519.4979248046875 1473.147705078125 519.4766845703125 1473.142211914062 519.4554443359375 1473.13671875 C 519.4545288085938 1473.136474609375 519.4537353515625 1473.136352539062 519.4528198242188 1473.136108398438 C 519.4374389648438 1473.132080078125 519.4225463867188 1473.128295898438 519.4072875976562 1473.124267578125 C 519.4071655273438 1473.124267578125 519.40673828125 1473.124145507812 519.4066162109375 1473.1240234375 C 519.4017944335938 1473.122802734375 519.3969116210938 1473.12158203125 519.39208984375 1473.120239257812 C 519.3911743164062 1473.119995117188 519.390380859375 1473.119873046875 519.389404296875 1473.11962890625 C 519.3851318359375 1473.118408203125 519.380615234375 1473.117309570312 519.3763427734375 1473.116088867188 C 519.3755493164062 1473.115966796875 519.3748168945312 1473.11572265625 519.3740234375 1473.115478515625 C 519.369384765625 1473.1142578125 519.36474609375 1473.113037109375 519.360107421875 1473.11181640625 C 519.359619140625 1473.111694335938 519.3591918945312 1473.111572265625 519.3587036132812 1473.111450195312 C 519.3541259765625 1473.110229492188 519.3492431640625 1473.109008789062 519.3446044921875 1473.107788085938 C 519.343994140625 1473.107543945312 519.343505859375 1473.107421875 519.3428955078125 1473.107299804688 C 519.3382568359375 1473.106079101562 519.3336181640625 1473.104858398438 519.3290405273438 1473.103515625 C 519.3284301757812 1473.103393554688 519.3276977539062 1473.103149414062 519.3270263671875 1473.10302734375 C 517.6878662109375 1472.66455078125 516.5923461914062 1472.062866210938 516.4918823242188 1472.006591796875 L 516.5065307617188 1471.980346679688 L 516.5065307617188 1471.980346679688 L 516.4918823242188 1472.006591796875 C 516.4868774414062 1472.003784179688 516.4843139648438 1472.002319335938 516.4843139648438 1472.002319335938 C 516.4843139648438 1472.002319335938 516.4843139648438 1472.002319335938 516.4843139648438 1472.002319335938 L 516.4843139648438 1472.002319335938 L 516.4843139648438 1472.002319335938 C 516.4843139648438 1472.002319335938 516.4843139648438 1472.002319335938 516.4843139648438 1472.002319335938 L 516.4843139648438 1472.002319335938 L 516.4843139648438 1472.002319335938 L 516.4843139648438 1472.002319335938 C 516.4843139648438 1472.002319335938 516.4843139648438 1472.002319335938 516.4843139648438 1472.002319335938 C 516.4843139648438 1472.002319335938 516.4843139648438 1472.002319335938 516.4842529296875 1472.002197265625 C 516.4841918945312 1472.002197265625 516.484130859375 1472.002197265625 516.4840698242188 1472.002075195312 C 516.4840698242188 1472.002075195312 516.4840087890625 1472.001953125 516.4839477539062 1472.001953125 C 516.48388671875 1472.001953125 516.4838256835938 1472.001831054688 516.4837646484375 1472.001708984375 C 516.4677734375 1471.985595703125 516.1116333007812 1471.624877929688 515.4500732421875 1470.95458984375 C 515.388427734375 1470.89208984375 515.3240356445312 1470.826904296875 515.2571411132812 1470.759155273438 L 516.6806030273438 1469.354248046875 Z M 508.2499389648438 1460.808837890625 C 510.4749755859375 1463.06494140625 512.3681640625 1464.984008789062 513.8732299804688 1466.509399414062 L 512.4495239257812 1467.914184570312 C 512.061279296875 1467.520629882812 511.6458740234375 1467.099487304688 511.2068481445312 1466.654541015625 C 510.6944580078125 1466.135131835938 510.1480102539062 1465.581176757812 509.5693969726562 1464.99462890625 C 509.5614013671875 1464.986572265625 509.551025390625 1464.97607421875 509.5430908203125 1464.968017578125 C 509.5362548828125 1464.961059570312 509.5294799804688 1464.954223632812 509.522705078125 1464.947387695312 C 508.6898193359375 1464.10302734375 507.7872314453125 1463.187866210938 506.8259887695312 1462.213134765625 L 508.2499389648438 1460.808837890625 Z M 499.8276977539062 1452.265991210938 C 501.838134765625 1454.305908203125 503.7172241210938 1456.212036132812 505.446044921875 1457.96533203125 L 504.0218505859375 1459.369506835938 C 503.2772216796875 1458.6142578125 502.5045166015625 1457.83056640625 501.70556640625 1457.020141601562 C 500.6499633789062 1455.949340820312 499.5474243164062 1454.830810546875 498.4032592773438 1453.669921875 L 499.8276977539062 1452.265991210938 Z M 491.4048461914062 1443.717529296875 C 493.3561401367188 1445.698486328125 495.2318725585938 1447.602416992188 497.020751953125 1449.417724609375 L 495.5961303710938 1450.821533203125 C 495.4761352539062 1450.69970703125 495.357177734375 1450.578979492188 495.2363891601562 1450.456420898438 C 493.5562133789062 1448.751220703125 491.8009033203125 1446.969604492188 489.9800415039062 1445.12109375 L 491.4048461914062 1443.717529296875 Z M 482.9867553710938 1435.168823242188 C 484.907958984375 1437.120361328125 486.78076171875 1439.0224609375 488.5968627929688 1440.866455078125 L 487.171875 1442.269897460938 C 487.13623046875 1442.233642578125 487.1044921875 1442.201416015625 487.0687866210938 1442.165161132812 C 487.068115234375 1442.164428710938 487.0672607421875 1442.163696289062 487.0665893554688 1442.162963867188 C 486.952392578125 1442.046997070312 486.8392333984375 1441.93212890625 486.7245483398438 1441.815673828125 C 486.7244262695312 1441.815551757812 486.7240600585938 1441.815185546875 486.7239379882812 1441.815063476562 C 485.0465087890625 1440.111694335938 483.3270874023438 1438.365356445312 481.5615234375 1436.571899414062 L 482.9867553710938 1435.168823242188 Z M 474.5693359375 1426.615356445312 C 476.473388671875 1428.550903320312 478.3455810546875 1430.453491210938 480.1791381835938 1432.31640625 L 478.7537841796875 1433.719360351562 C 478.3521118164062 1433.311157226562 477.948486328125 1432.901123046875 477.5431518554688 1432.4892578125 C 476.0980224609375 1431.020874023438 474.630859375 1429.52978515625 473.1436157226562 1428.01806640625 L 474.5693359375 1426.615356445312 Z M 466.1537475585938 1418.058349609375 C 468.0455932617188 1419.982543945312 469.917236328125 1421.885864257812 471.7626953125 1423.76220703125 L 470.3367919921875 1425.164672851562 C 468.7614135742188 1423.56298828125 467.1724853515625 1421.947143554688 465.562744140625 1420.309936523438 C 465.2847900390625 1420.027099609375 465.0064697265625 1419.744018554688 464.7276000976562 1419.46044921875 L 466.1537475585938 1418.058349609375 Z M 457.743896484375 1409.500732421875 C 459.6256713867188 1411.416259765625 461.4965209960938 1413.320190429688 463.3509521484375 1415.206909179688 L 461.9246215820312 1416.60888671875 C 460.0699462890625 1414.721923828125 458.1990356445312 1412.817993164062 456.317138671875 1410.902221679688 L 457.743896484375 1409.500732421875 Z M 449.3359375 1400.938110351562 C 451.2088012695312 1402.84619140625 453.07861328125 1404.750732421875 454.9404296875 1406.646362304688 L 453.513427734375 1408.047729492188 C 451.651611328125 1406.151977539062 449.7816162109375 1404.247314453125 447.9085693359375 1402.338989257812 L 449.3359375 1400.938110351562 Z M 440.9326782226562 1392.372192382812 C 442.7970581054688 1394.273681640625 444.6660766601562 1396.179077148438 446.5344848632812 1398.08349609375 L 445.10693359375 1399.484252929688 C 443.237548828125 1397.578979492188 441.369873046875 1395.6748046875 439.5045776367188 1393.7724609375 L 440.9326782226562 1392.372192382812 Z M 432.53466796875 1383.802368164062 C 434.3900756835938 1385.696899414062 436.2578735351562 1387.603271484375 438.1329345703125 1389.516357421875 L 436.7047119140625 1390.916381835938 C 434.8294067382812 1389.003173828125 432.9613037109375 1387.096557617188 431.1057739257812 1385.201782226562 L 432.53466796875 1383.802368164062 Z M 424.1409301757812 1375.225830078125 C 425.9863891601562 1377.112915039062 427.8531494140625 1379.020629882812 429.735595703125 1380.943725585938 L 428.306396484375 1382.3427734375 C 426.793701171875 1380.797485351562 425.2910766601562 1379.261840820312 423.8015747070312 1377.739135742188 C 423.435302734375 1377.364624023438 423.0757446289062 1376.9970703125 422.7110595703125 1376.624145507812 L 424.1409301757812 1375.225830078125 Z M 415.75634765625 1366.644165039062 C 417.5896606445312 1368.5224609375 419.4552612304688 1370.432373046875 421.3466796875 1372.367553710938 L 419.9163208007812 1373.765502929688 C 419.2083740234375 1373.041137695312 418.5057983398438 1372.322143554688 417.805419921875 1371.605224609375 C 416.6336669921875 1370.40576171875 415.4732055664062 1369.217407226562 414.3251342773438 1368.041259765625 L 415.75634765625 1366.644165039062 Z M 407.380859375 1358.0537109375 C 409.162841796875 1359.883911132812 411.0409545898438 1361.81103515625 412.9629516601562 1363.781616210938 L 411.5313110351562 1365.178100585938 C 410.296142578125 1363.911743164062 409.0774536132812 1362.66162109375 407.8775024414062 1361.430053710938 C 407.8585815429688 1361.41064453125 407.83837890625 1361.389892578125 407.8195190429688 1361.37060546875 C 407.8190307617188 1361.3701171875 407.818603515625 1361.36962890625 407.818115234375 1361.369140625 C 407.19091796875 1360.725341796875 406.5646362304688 1360.082397460938 405.9478759765625 1359.448974609375 L 407.380859375 1358.0537109375 Z M 399.0166625976562 1349.449340820312 C 400.7744140625 1351.261108398438 402.650146484375 1353.19189453125 404.591796875 1355.18798828125 L 403.1581420898438 1356.58251953125 C 402.6019287109375 1356.010620117188 402.0549926757812 1355.448120117188 401.509033203125 1354.886474609375 C 400.4047241210938 1353.750366210938 399.3218994140625 1352.635620117188 398.262451171875 1351.544067382812 C 398.0345458984375 1351.309204101562 397.8069458007812 1351.07470703125 397.5812377929688 1350.842041015625 L 399.0166625976562 1349.449340820312 Z M 390.6755981445312 1340.8291015625 C 392.3873291015625 1342.603881835938 394.2572021484375 1344.538208007812 396.2333374023438 1346.578369140625 L 394.7967529296875 1347.969848632812 C 394.3839721679688 1347.543701171875 393.9752807617188 1347.12158203125 393.5712280273438 1346.7041015625 C 392.0618896484375 1345.144653320312 390.6146240234375 1343.646850585938 389.2360229492188 1342.217407226562 L 390.6755981445312 1340.8291015625 Z M 382.381591796875 1332.181640625 C 383.9805908203125 1333.86181640625 385.8389892578125 1335.80322265625 387.9051513671875 1337.952270507812 L 386.4634399414062 1339.33837890625 C 386.2733764648438 1339.140747070312 386.0890502929688 1338.948974609375 385.9022827148438 1338.754516601562 C 384.0828247070312 1336.860717773438 382.4194946289062 1335.12255859375 380.932861328125 1333.560546875 L 382.381591796875 1332.181640625 Z M 374.4475708007812 1323.573364257812 C 374.6171264648438 1323.814575195312 375.4618530273438 1324.853637695312 379.6341552734375 1329.281860351562 L 378.1785278320312 1330.6533203125 C 376.5404663085938 1328.914794921875 375.2354125976562 1327.508666992188 374.3116455078125 1326.4833984375 C 374.3106079101562 1326.482299804688 374.3080444335938 1326.479370117188 374.3070678710938 1326.478271484375 C 374.3054809570312 1326.4765625 374.3038330078125 1326.474731445312 374.3023071289062 1326.473022460938 C 374.30029296875 1326.470825195312 374.2973022460938 1326.467407226562 374.2952880859375 1326.465209960938 C 374.2939453125 1326.463745117188 374.2926635742188 1326.462280273438 374.2913208007812 1326.460815429688 C 373.5164794921875 1325.600341796875 373.0145874023438 1325.0126953125 372.811279296875 1324.723388671875 L 374.4475708007812 1323.573364257812 Z M 371.1904907226562 1313.1328125 L 373.1598510742188 1313.481811523438 C 372.8318481445312 1315.332641601562 372.5692138671875 1318.071655273438 373.1809692382812 1320.609375 L 371.2366943359375 1321.078002929688 C 370.9028930664062 1319.693359375 370.7944946289062 1318.272338867188 370.8146362304688 1316.933959960938 C 370.8146362304688 1316.933471679688 370.8146362304688 1316.932861328125 370.8146362304688 1316.932495117188 C 370.8147583007812 1316.922607421875 370.81494140625 1316.91259765625 370.8151245117188 1316.902709960938 C 370.8151245117188 1316.901611328125 370.8151245117188 1316.900024414062 370.815185546875 1316.89892578125 C 370.8153076171875 1316.889526367188 370.8154907226562 1316.880126953125 370.815673828125 1316.870849609375 C 370.815673828125 1316.868896484375 370.8157348632812 1316.866821289062 370.8157958984375 1316.864868164062 C 370.81591796875 1316.856811523438 370.8161010742188 1316.8486328125 370.8162231445312 1316.840698242188 C 370.8162841796875 1316.838012695312 370.8163452148438 1316.836181640625 370.8163452148438 1316.83349609375 C 370.8165283203125 1316.825561523438 370.8167114257812 1316.817138671875 370.81689453125 1316.809204101562 C 370.81689453125 1316.806884765625 370.8169555664062 1316.804443359375 370.8170166015625 1316.802124023438 C 370.8171997070312 1316.793701171875 370.8173828125 1316.78515625 370.8175659179688 1316.776733398438 C 370.817626953125 1316.7744140625 370.8176879882812 1316.771240234375 370.8177490234375 1316.76904296875 C 370.8179321289062 1316.760375976562 370.8181762695312 1316.75146484375 370.818359375 1316.742797851562 C 370.8184204101562 1316.7412109375 370.8184814453125 1316.73876953125 370.8184814453125 1316.737182617188 C 370.8187255859375 1316.728881835938 370.8189086914062 1316.720703125 370.8191528320312 1316.71240234375 C 370.8192138671875 1316.709350585938 370.8192749023438 1316.707397460938 370.8193359375 1316.704345703125 C 370.8195190429688 1316.696899414062 370.8197021484375 1316.689453125 370.8199462890625 1316.682006835938 C 370.8200073242188 1316.679321289062 370.820068359375 1316.677368164062 370.8201293945312 1316.6748046875 C 370.8203735351562 1316.666625976562 370.820556640625 1316.658447265625 370.82080078125 1316.650390625 C 370.8209228515625 1316.64697265625 370.8209838867188 1316.64404296875 370.8211059570312 1316.640625 C 370.8212890625 1316.6328125 370.821533203125 1316.625366210938 370.82177734375 1316.617553710938 C 370.8218994140625 1316.614135742188 370.8219604492188 1316.61083984375 370.8220825195312 1316.607421875 C 370.822265625 1316.600830078125 370.822509765625 1316.594116210938 370.8226928710938 1316.58740234375 C 370.8228149414062 1316.5830078125 370.822998046875 1316.57861328125 370.8231201171875 1316.574096679688 C 370.8233032226562 1316.568725585938 370.823486328125 1316.563110351562 370.8236694335938 1316.5576171875 C 370.8238525390625 1316.552734375 370.823974609375 1316.547973632812 370.8241577148438 1316.543090820312 C 370.8243408203125 1316.536987304688 370.8245849609375 1316.530883789062 370.8247680664062 1316.524780273438 C 370.8248901367188 1316.520751953125 370.8250122070312 1316.516967773438 370.8251953125 1316.512817382812 C 370.825439453125 1316.505737304688 370.82568359375 1316.498657226562 370.825927734375 1316.491577148438 C 370.8261108398438 1316.487426757812 370.8262329101562 1316.484008789062 370.8263549804688 1316.47998046875 C 370.8265991210938 1316.4736328125 370.8268432617188 1316.467529296875 370.8270263671875 1316.461303710938 C 370.8272705078125 1316.4560546875 370.8274536132812 1316.451416015625 370.82763671875 1316.446166992188 C 370.8277587890625 1316.44189453125 370.8279418945312 1316.437377929688 370.828125 1316.43310546875 C 370.8284301757812 1316.425659179688 370.8287353515625 1316.418212890625 370.8289794921875 1316.410766601562 C 370.8291625976562 1316.407470703125 370.8292846679688 1316.404296875 370.8294067382812 1316.401000976562 C 370.830078125 1316.383911132812 370.8307495117188 1316.367431640625 370.8314819335938 1316.350341796875 C 370.83154296875 1316.349731445312 370.83154296875 1316.34912109375 370.83154296875 1316.348510742188 C 370.83203125 1316.337646484375 370.83251953125 1316.326904296875 370.8329467773438 1316.316162109375 C 370.8330078125 1316.314697265625 370.8331298828125 1316.313110351562 370.8331909179688 1316.311645507812 C 370.8336181640625 1316.30126953125 370.8341064453125 1316.290893554688 370.8345947265625 1316.280517578125 C 370.8345947265625 1316.279418945312 370.8346557617188 1316.278686523438 370.834716796875 1316.277709960938 C 370.8876953125 1315.122436523438 371.0285034179688 1314.046997070312 371.1905517578125 1313.1328125 Z M 378.240966796875 1303.841552734375 L 379.658935546875 1305.252075195312 C 376.9805908203125 1307.944458007812 375.0067138671875 1309.929809570312 374.0173950195312 1310.9248046875 L 372.5990600585938 1309.514892578125 C 373.1085205078125 1309.00244140625 373.8792114257812 1308.227172851562 374.8726806640625 1307.228149414062 C 374.882568359375 1307.21826171875 374.892578125 1307.208129882812 374.9025268554688 1307.1982421875 C 374.9028930664062 1307.197875976562 374.9035034179688 1307.197143554688 374.9038696289062 1307.19677734375 C 375.8335571289062 1306.261962890625 376.9561767578125 1305.133178710938 378.240966796875 1303.841552734375 Z M 386.7058715820312 1295.334716796875 L 388.1234130859375 1296.74560546875 C 386.0877075195312 1298.790771484375 384.191162109375 1300.696533203125 382.4805908203125 1302.415771484375 L 381.0628051757812 1301.005126953125 C 382.7741088867188 1299.28515625 384.6691284179688 1297.380859375 386.7058715820312 1295.334716796875 Z M 395.1737670898438 1286.830444335938 L 396.5907592773438 1288.241821289062 C 394.6438598632812 1290.196411132812 392.752685546875 1292.095581054688 390.9448852539062 1293.911376953125 L 389.527587890625 1292.500244140625 C 390.0840454101562 1291.941284179688 390.6484985351562 1291.374389648438 391.219970703125 1290.800537109375 C 391.2442626953125 1290.776123046875 391.2655029296875 1290.754760742188 391.289794921875 1290.730346679688 C 391.29296875 1290.727172851562 391.2960205078125 1290.72412109375 391.2991943359375 1290.720947265625 C 392.55810546875 1289.456665039062 393.855224609375 1288.154174804688 395.1737670898438 1286.830444335938 Z M 403.64404296875 1278.330322265625 L 405.0604248046875 1279.742431640625 C 403.1563110351562 1281.65234375 401.2664794921875 1283.548583984375 399.413330078125 1285.408569335938 L 397.9965209960938 1283.996948242188 C 398.2533569335938 1283.7392578125 398.5123901367188 1283.479125976562 398.7705688476562 1283.220092773438 C 399.3086547851562 1282.680053710938 399.8496704101562 1282.13720703125 400.392822265625 1281.592163085938 C 401.4677734375 1280.513549804688 402.5556030273438 1279.422119140625 403.64404296875 1278.330322265625 Z M 412.119140625 1269.833740234375 L 413.5347900390625 1271.246459960938 C 411.6624755859375 1273.122436523438 409.77197265625 1275.017456054688 407.8847045898438 1276.909912109375 L 406.4685668945312 1275.49755859375 C 408.3560791015625 1273.60498046875 410.2467041015625 1271.709716796875 412.119140625 1269.833740234375 Z M 420.5994262695312 1261.343383789062 L 422.0138549804688 1262.757446289062 C 420.1770629882812 1264.5947265625 418.2844848632812 1266.489013671875 416.3605346679688 1268.415893554688 L 414.9452514648438 1267.002685546875 C 416.75634765625 1265.18896484375 418.5352783203125 1263.408203125 420.2703857421875 1261.672485351562 C 420.3801879882812 1261.562622070312 420.489990234375 1261.452880859375 420.5994262695312 1261.343383789062 Z M 429.090576171875 1252.861083984375 L 430.5028686523438 1254.277221679688 C 428.7837524414062 1255.99169921875 426.87939453125 1257.893188476562 424.8427734375 1259.9287109375 L 423.4288940429688 1258.514282226562 C 423.5519409179688 1258.391235351562 423.6744995117188 1258.268676757812 423.796875 1258.146362304688 C 423.8024291992188 1258.140869140625 423.8076782226562 1258.135620117188 423.813232421875 1258.130126953125 C 423.9283447265625 1258.015014648438 424.043212890625 1257.900268554688 424.15771484375 1257.785888671875 C 424.1632690429688 1257.7802734375 424.1708374023438 1257.772705078125 424.1763916015625 1257.767211914062 C 424.264404296875 1257.67919921875 424.352294921875 1257.591430664062 424.43994140625 1257.503784179688 C 424.4454956054688 1257.498291015625 424.4520263671875 1257.49169921875 424.45751953125 1257.486206054688 C 424.4744873046875 1257.469360351562 424.491455078125 1257.452392578125 424.5083618164062 1257.435424804688 C 424.528564453125 1257.415283203125 424.546142578125 1257.397705078125 424.5663452148438 1257.377563476562 C 424.6087036132812 1257.335205078125 424.6511840820312 1257.292724609375 424.6934814453125 1257.25048828125 C 424.7081298828125 1257.23583984375 424.7218627929688 1257.22216796875 424.7365112304688 1257.20751953125 C 424.75 1257.193969726562 424.763671875 1257.180419921875 424.7771606445312 1257.166870117188 C 424.7771606445312 1257.166870117188 424.778564453125 1257.16552734375 424.778564453125 1257.16552734375 C 424.8051147460938 1257.138916015625 424.83154296875 1257.112548828125 424.8580932617188 1257.086059570312 C 424.8800048828125 1257.064086914062 424.9030151367188 1257.041137695312 424.9249267578125 1257.019287109375 C 424.9341430664062 1257.010131835938 424.9434204101562 1257.000854492188 424.95263671875 1256.991577148438 C 424.95263671875 1256.991577148438 424.9527587890625 1256.991455078125 424.9527587890625 1256.991455078125 C 425.0252685546875 1256.919067382812 425.09765625 1256.8466796875 425.169921875 1256.774536132812 C 425.169921875 1256.774536132812 425.1727905273438 1256.771606445312 425.1727905273438 1256.771606445312 C 425.1961669921875 1256.748291015625 425.2195434570312 1256.724975585938 425.2428588867188 1256.70166015625 C 425.2555541992188 1256.68896484375 425.2659912109375 1256.678588867188 425.2786865234375 1256.665893554688 C 425.2804565429688 1256.664184570312 425.2821655273438 1256.662353515625 425.283935546875 1256.66064453125 C 425.2911987304688 1256.653442382812 425.3013305664062 1256.643310546875 425.30859375 1256.635986328125 C 425.36181640625 1256.582885742188 425.4147338867188 1256.529907226562 425.4678344726562 1256.476928710938 C 425.4714965820312 1256.473266601562 425.4766235351562 1256.468139648438 425.480224609375 1256.464599609375 C 425.4917602539062 1256.453125 425.50341796875 1256.44140625 425.514892578125 1256.429931640625 C 425.5184936523438 1256.426391601562 425.5227661132812 1256.422119140625 425.5263671875 1256.41845703125 C 425.5364379882812 1256.408447265625 425.5463256835938 1256.398559570312 425.556396484375 1256.388549804688 C 425.5599975585938 1256.384887695312 425.5662231445312 1256.378662109375 425.56982421875 1256.375122070312 C 425.5763549804688 1256.368530273438 425.5829467773438 1256.361938476562 425.5895385742188 1256.35546875 C 425.6201782226562 1256.324829101562 425.653076171875 1256.2919921875 425.6836547851562 1256.261352539062 C 425.7122802734375 1256.232788085938 425.7411499023438 1256.203979492188 425.7697143554688 1256.175415039062 C 425.7786865234375 1256.16650390625 425.784423828125 1256.160766601562 425.7933959960938 1256.15185546875 C 425.7962036132812 1256.149047851562 425.7991333007812 1256.146118164062 425.8019409179688 1256.143310546875 C 425.8126831054688 1256.132446289062 425.8212890625 1256.123901367188 425.83203125 1256.113159179688 C 425.8547973632812 1256.090454101562 425.8776245117188 1256.067749023438 425.9002685546875 1256.045043945312 C 425.9038696289062 1256.04150390625 425.9119262695312 1256.033447265625 425.91552734375 1256.02978515625 C 425.9244995117188 1256.020874023438 425.9335327148438 1256.011840820312 425.9424438476562 1256.0029296875 C 425.9496459960938 1255.995727539062 425.9522094726562 1255.9931640625 425.9594116210938 1255.985961914062 C 425.9666137695312 1255.978759765625 425.9739379882812 1255.971557617188 425.9811401367188 1255.96435546875 C 425.9846801757812 1255.960693359375 425.9926147460938 1255.952880859375 425.9962158203125 1255.94921875 C 427.0612182617188 1254.8857421875 428.0946044921875 1253.854370117188 429.090576171875 1252.861083984375 Z M 437.6005249023438 1244.402221679688 L 439.0067138671875 1245.824462890625 C 437.46875 1247.344970703125 435.5606079101562 1249.2392578125 433.3353271484375 1251.454711914062 L 431.9242553710938 1250.037353515625 C 434.0833129882812 1247.887817382812 436.0014038085938 1245.983276367188 437.6005249023438 1244.402221679688 Z M 447.0647583007812 1237.376342773438 L 447.4159545898438 1239.34521484375 C 446.04248046875 1239.590087890625 444.8050537109375 1240.216430664062 443.7378540039062 1241.206665039062 C 443.3858032226562 1241.533447265625 442.7511596679688 1242.144897460938 441.8516845703125 1243.024291992188 L 440.4534912109375 1241.594116210938 C 440.6837158203125 1241.369140625 440.8978271484375 1241.160400390625 441.0955810546875 1240.96826171875 C 441.6599731445312 1240.419799804688 442.0894775390625 1240.008178710938 442.3682861328125 1239.749145507812 C 442.3682861328125 1239.749145507812 442.3687744140625 1239.748779296875 442.3687744140625 1239.748779296875 C 442.36962890625 1239.747924804688 442.3705444335938 1239.7470703125 442.3714599609375 1239.746215820312 C 442.3734741210938 1239.744384765625 442.37548828125 1239.742431640625 442.3775024414062 1239.740600585938 C 442.3775024414062 1239.740600585938 442.3775024414062 1239.740600585938 442.3775024414062 1239.740600585938 C 442.3826293945312 1239.73583984375 442.3876953125 1239.731201171875 442.392822265625 1239.726440429688 C 442.3944702148438 1239.724853515625 442.39599609375 1239.723510742188 442.3976440429688 1239.721923828125 C 442.4015502929688 1239.718383789062 442.4053344726562 1239.71484375 442.4093017578125 1239.711181640625 C 442.41064453125 1239.7099609375 442.4122924804688 1239.70849609375 442.4136962890625 1239.707153320312 C 442.41845703125 1239.702758789062 442.4232177734375 1239.698364257812 442.427978515625 1239.694091796875 C 442.4299926757812 1239.692138671875 442.4319458007812 1239.6904296875 442.4339599609375 1239.688598632812 C 442.4369506835938 1239.685791015625 442.4400024414062 1239.68310546875 442.4429931640625 1239.680297851562 C 442.4453125 1239.67822265625 442.447509765625 1239.676147460938 442.4498291015625 1239.674072265625 C 442.4542236328125 1239.670166015625 442.4586791992188 1239.666015625 442.4630737304688 1239.662109375 C 442.4653930664062 1239.660034179688 442.4676513671875 1239.657958984375 442.469970703125 1239.655883789062 C 442.4727172851562 1239.6533203125 442.4755859375 1239.650756835938 442.4783325195312 1239.648315429688 C 442.48095703125 1239.645874023438 442.4834594726562 1239.643676757812 442.486083984375 1239.641235351562 C 442.4884643554688 1239.639038085938 442.490966796875 1239.636840820312 442.493408203125 1239.634643554688 C 442.4982299804688 1239.63037109375 442.503173828125 1239.625854492188 442.5079956054688 1239.62158203125 C 442.5095825195312 1239.6201171875 442.5111083984375 1239.618774414062 442.5126953125 1239.617309570312 C 442.5159912109375 1239.614379882812 442.5192260742188 1239.611450195312 442.5225219726562 1239.608520507812 C 442.52392578125 1239.607299804688 442.525146484375 1239.606201171875 442.5265502929688 1239.60498046875 C 442.5328979492188 1239.599243164062 442.5391845703125 1239.593627929688 442.5455932617188 1239.588012695312 C 442.5465087890625 1239.587158203125 442.547607421875 1239.586181640625 442.5485229492188 1239.58544921875 C 442.5519409179688 1239.582397460938 442.5556640625 1239.5791015625 442.55908203125 1239.576049804688 C 442.5601196289062 1239.575073242188 442.561279296875 1239.574096679688 442.562255859375 1239.5732421875 C 442.573486328125 1239.563354492188 442.5848999023438 1239.55322265625 442.5961303710938 1239.54345703125 C 442.5965576171875 1239.54296875 442.5969848632812 1239.542602539062 442.5974731445312 1239.542236328125 C 443.81103515625 1238.478881835938 445.1011352539062 1237.854736328125 446.3736572265625 1237.526611328125 C 446.374755859375 1237.5263671875 446.3755493164062 1237.526123046875 446.3765869140625 1237.52587890625 C 446.3801879882812 1237.52490234375 446.384033203125 1237.52392578125 446.3876342773438 1237.523071289062 C 446.388671875 1237.522827148438 446.3898315429688 1237.5224609375 446.390869140625 1237.522216796875 C 446.3970336914062 1237.520629882812 446.4031982421875 1237.51904296875 446.4093627929688 1237.517456054688 C 446.4112548828125 1237.516967773438 446.413330078125 1237.516479492188 446.4152221679688 1237.515991210938 C 446.4179077148438 1237.515380859375 446.4203491210938 1237.514770507812 446.4230346679688 1237.514038085938 C 446.4262084960938 1237.51318359375 446.4295043945312 1237.512451171875 446.4326782226562 1237.511596679688 C 446.4349365234375 1237.511108398438 446.43701171875 1237.510498046875 446.4393310546875 1237.510009765625 C 446.4441528320312 1237.5087890625 446.4488525390625 1237.507568359375 446.4536743164062 1237.50634765625 C 446.4559326171875 1237.505859375 446.4580078125 1237.505249023438 446.4602661132812 1237.504760742188 C 446.4635620117188 1237.50390625 446.466796875 1237.503173828125 446.4700317382812 1237.502319335938 C 446.47216796875 1237.501831054688 446.4743041992188 1237.501220703125 446.4764404296875 1237.500732421875 C 446.4815673828125 1237.49951171875 446.4867553710938 1237.498168945312 446.4918823242188 1237.496948242188 C 446.492919921875 1237.496704101562 446.4940185546875 1237.496459960938 446.4950561523438 1237.496215820312 C 446.4998168945312 1237.494995117188 446.5044555664062 1237.493896484375 446.5091552734375 1237.492797851562 C 446.510498046875 1237.492431640625 446.5116577148438 1237.4921875 446.5130004882812 1237.491821289062 C 446.5244750976562 1237.489135742188 446.5357666015625 1237.486328125 446.5472412109375 1237.483642578125 C 446.5479125976562 1237.483520507812 446.548583984375 1237.4833984375 446.5492553710938 1237.483154296875 C 446.7216186523438 1237.4423828125 446.8934326171875 1237.406860351562 447.0647583007812 1237.376342773438 Z" stroke="none" fill="#fff"/>
  </g>
</svg>
