<svg style="position: absolute; width: 0; height: 0; overflow: hidden;" version="1.1" xmlns="http://www.w3.org/2000/svg">
  <defs>

    <symbol id="mom1" viewBox="0 0 40 40">
      <title></title>
      <g id="care" transform="translate(0 -39.568)">
          <g id="Group_551" data-name="Group 551" transform="translate(0 58.952)">
            <g id="Group_550" data-name="Group 550">
              <path id="Path_29700" data-name="Path 29700" d="M23.287,292.776H20.33a.762.762,0,1,0,0,1.524h2.957a.828.828,0,1,1,0,1.655h-7.96a4,4,0,0,1-3.087-1.447l-1.9-2.288a5.522,5.522,0,0,0-4.1-1.992v-4.5H9.044a5.286,5.286,0,0,1,3.689,1.49l4.108,3.966a.749.749,0,0,1-1.026,1.091l-3.226-2.957a.762.762,0,0,0-1.03,1.123l3.226,2.957a2.273,2.273,0,0,0,3.114-3.31l-4.108-3.966A6.8,6.8,0,0,0,9.044,284.2H6.09a1.892,1.892,0,0,0-1.741-1.156H.762a.762.762,0,0,0-.762.762v5.572a.762.762,0,1,0,1.524,0v-4.81H4.349a.365.365,0,0,1,.365.365v6.108a.365.365,0,0,1-.365.365H3.558a.762.762,0,1,0,0,1.524h.791A1.892,1.892,0,0,0,6.1,291.748a4,4,0,0,1,3.064,1.447l1.9,2.288a5.524,5.524,0,0,0,4.258,2h7.96a2.352,2.352,0,0,0,0-4.7Z" transform="translate(0 -283.046)"  />
            </g>
          </g>
          <g id="Group_553" data-name="Group 553" transform="translate(14.362 39.568)">
            <g id="Group_552" data-name="Group 552" transform="translate(0 0)">
              <path id="Path_29701" data-name="Path 29701" d="M200.466,46.607a.762.762,0,0,0-.762.762v5.108h-2.825a.365.365,0,0,1-.365-.365V46a.365.365,0,0,1,.365-.365h.736a.762.762,0,1,0,0-1.524h-.736a1.891,1.891,0,0,0-1.752,1.184,4,4,0,0,1-3.064-1.447l-1.9-2.288a5.524,5.524,0,0,0-4.259-2h-7.96a2.352,2.352,0,1,0,0,4.7H181.2a.762.762,0,0,0,0-1.524h-3.255a.828.828,0,1,1,0-1.655h7.96a4,4,0,0,1,3.087,1.447l1.9,2.288a5.522,5.522,0,0,0,4.1,1.992v4.5h-2.806a5.286,5.286,0,0,1-3.689-1.49l-4.108-3.966a.749.749,0,0,1,1.026-1.091l3.226,2.957a.762.762,0,1,0,1.03-1.123l-3.226-2.957a2.273,2.273,0,0,0-3.114,3.31l4.108,3.966a6.8,6.8,0,0,0,4.748,1.918h2.954A1.892,1.892,0,0,0,196.879,54h3.587a.762.762,0,0,0,.762-.762v-5.87A.762.762,0,0,0,200.466,46.607Z" transform="translate(-175.59 -39.568)"  />
            </g>
          </g>
          <g id="Group_555" data-name="Group 555" transform="translate(23.744 65.707)">
            <g id="Group_554" data-name="Group 554" transform="translate(0 0)">
              <path id="Path_29702" data-name="Path 29702" d="M305.082,374.2a.77.77,0,1,0-.4,1.016l.016-.007A.763.763,0,0,0,305.082,374.2Z" transform="translate(-303.617 -373.752)"  />
            </g>
          </g>
          <g id="Group_557" data-name="Group 557" transform="translate(25.776 64.534)">
            <g id="Group_556" data-name="Group 556">
              <path id="Path_29703" data-name="Path 29703" d="M330.982,359.066a.765.765,0,1,0-.166,1.069l.01-.007A.759.759,0,0,0,330.982,359.066Z" transform="translate(-329.603 -358.757)"  />
            </g>
          </g>
          <g id="Group_559" data-name="Group 559" transform="translate(21.507 66.426)">
            <g id="Group_558" data-name="Group 558" transform="translate(0 0)">
              <path id="Path_29704" data-name="Path 29704" d="M276.531,383.544a.769.769,0,1,0-.609.908l.022,0A.761.761,0,0,0,276.531,383.544Z" transform="translate(-275.016 -382.94)"  />
            </g>
          </g>
          <g id="Group_561" data-name="Group 561" transform="translate(27.513 62.949)">
            <g id="Group_560" data-name="Group 560">
              <path id="Path_29705" data-name="Path 29705" d="M353.1,338.683a.762.762,0,0,0-1.076.055l-.016.018a.762.762,0,1,0,1.092-.074Zm-.426.643-.085-.077.092.083Z" transform="translate(-351.819 -338.487)"  />
            </g>
          </g>
          <g id="Group_563" data-name="Group 563" transform="translate(29.804 58.878)">
            <g id="Group_562" data-name="Group 562" transform="translate(0 0)">
              <path id="Path_29706" data-name="Path 29706" d="M382.094,286.475a.765.765,0,1,0,.506.959l0-.01A.76.76,0,0,0,382.094,286.475Z" transform="translate(-381.109 -286.443)"  />
            </g>
          </g>
          <g id="Group_565" data-name="Group 565" transform="translate(30.263 54.224)">
            <g id="Group_564" data-name="Group 564">
              <path id="Path_29707" data-name="Path 29707" d="M388.493,227.574c0-.01,0-.019-.006-.029a.767.767,0,1,0,.006.029Z" transform="translate(-386.979 -226.939)"  />
            </g>
          </g>
          <g id="Group_567" data-name="Group 567" transform="translate(30.247 56.569)">
            <g id="Group_566" data-name="Group 566">
              <path id="Path_29708" data-name="Path 29708" d="M387.613,256.926a.763.763,0,0,0-.826.692c0,.007,0,.022,0,.03a.762.762,0,0,0,.716.805h.045a.766.766,0,0,0,.067-1.529Z" transform="translate(-386.783 -256.923)"  />
            </g>
          </g>
          <g id="Group_569" data-name="Group 569" transform="translate(28.877 61.035)">
            <g id="Group_568" data-name="Group 568">
              <path id="Path_29709" data-name="Path 29709" d="M370.4,314.123a.762.762,0,0,0-1.039.287l-.011.019a.763.763,0,0,0,.67,1.13.756.756,0,0,0,.666-.4l-.662-.377.663.376A.762.762,0,0,0,370.4,314.123Z" transform="translate(-369.259 -314.024)"  />
            </g>
          </g>
          <g id="Group_571" data-name="Group 571" transform="translate(14.381 45.81)">
            <g id="Group_570" data-name="Group 570">
              <path id="Path_29710" data-name="Path 29710" d="M185.346,119.791a.762.762,0,0,0-1.022-.341l-.007,0a.762.762,0,1,0,1.029.337Z" transform="translate(-183.898 -119.37)"  />
            </g>
          </g>
          <g id="Group_573" data-name="Group 573" transform="translate(16.578 44.992)">
            <g id="Group_572" data-name="Group 572" transform="translate(0 0)">
              <path id="Path_29711" data-name="Path 29711" d="M213.5,109.5a.762.762,0,0,0-.92-.561l-.018,0a.762.762,0,1,0,.938.557Z" transform="translate(-211.987 -108.918)"  />
            </g>
          </g>
          <g id="Group_575" data-name="Group 575" transform="translate(12.403 47.079)">
            <g id="Group_574" data-name="Group 574" transform="translate(0 0)">
              <path id="Path_29712" data-name="Path 29712" d="M159.96,135.878a.763.763,0,0,0-1.071-.116l.472.6-.475-.6a.762.762,0,0,0,.949,1.192l.01-.008A.761.761,0,0,0,159.96,135.878Z" transform="translate(-158.599 -135.595)"  />
            </g>
          </g>
          <g id="Group_577" data-name="Group 577" transform="translate(8.64 52.907)">
            <g id="Group_576" data-name="Group 576">
              <path id="Path_29713" data-name="Path 29713" d="M111.451,210.133a.762.762,0,0,0-.936.535l-.007.028a.762.762,0,1,0,.943-.563Z" transform="translate(-110.487 -210.106)"  />
            </g>
          </g>
          <g id="Group_579" data-name="Group 579" transform="translate(8.304 55.232)">
            <g id="Group_578" data-name="Group 578" transform="translate(0 0)">
              <path id="Path_29714" data-name="Path 29714" d="M107,239.825a.762.762,0,0,0-.8.717c0,.01,0,.02,0,.029a.762.762,0,0,0,.739.783h.023a.766.766,0,0,0,.044-1.53Z" transform="translate(-106.191 -239.824)"  />
            </g>
          </g>
          <g id="Group_581" data-name="Group 581" transform="translate(9.465 50.708)">
            <g id="Group_580" data-name="Group 580" transform="translate(0 0)">
              <path id="Path_29715" data-name="Path 29715" d="M122.156,182.077a.762.762,0,0,0-1.029.321l-.012.025a.762.762,0,1,0,1.041-.345Z" transform="translate(-121.037 -181.989)"  />
            </g>
          </g>
          <g id="Group_583" data-name="Group 583" transform="translate(10.74 48.736)">
            <g id="Group_582" data-name="Group 582">
              <path id="Path_29716" data-name="Path 29716" d="M138.593,156.949a.762.762,0,0,0-1.073.1l-.016.019a.762.762,0,1,0,1.089-.119Z" transform="translate(-137.339 -156.773)"  />
            </g>
          </g>
          <g id="Group_585" data-name="Group 585" transform="translate(8.464 57.575)">
            <g id="Group_584" data-name="Group 584" transform="translate(0 0)">
              <path id="Path_29717" data-name="Path 29717" d="M109.742,270.418a.762.762,0,0,0-1.5.269v.007a.758.758,0,0,0,.747.624.763.763,0,0,0,.752-.9Z" transform="translate(-108.23 -269.791)"  />
            </g>
          </g>
          <g id="Group_587" data-name="Group 587" transform="translate(13.948 52.401)">
            <g id="Group_586" data-name="Group 586" transform="translate(0 0)">
              <path id="Path_29718" data-name="Path 29718" d="M185.236,202.125a3.529,3.529,0,0,0-2.566,1.1,3.539,3.539,0,1,0-4.831,5.158l.015.012,4.343,3.438a.762.762,0,0,0,.948,0l4.527-3.606a.754.754,0,0,0,.063-.056,3.539,3.539,0,0,0-2.5-6.044Zm1.45,4.937-4.017,3.2-3.86-3.056a2.015,2.015,0,1,1,3.158-2.313.762.762,0,0,0,1.408,0,2.015,2.015,0,1,1,3.312,2.169Z" transform="translate(-176.566 -202.125)"  />
            </g>
          </g>
          <g id="Group_589" data-name="Group 589" transform="translate(0.003 67.316)">
            <g id="Group_588" data-name="Group 588" transform="translate(0 0)">
              <circle id="Ellipse_743" data-name="Ellipse 743" cx="0.759" cy="0.759" r="0.759"  />
            </g>
          </g>
          <g id="Group_591" data-name="Group 591" transform="translate(38.478 44.118)">
            <g id="Group_590" data-name="Group 590" transform="translate(0 0)">
              <circle id="Ellipse_744" data-name="Ellipse 744" cx="0.759" cy="0.759" r="0.759"  />
            </g>
          </g>
        </g>
    
    </symbol>

    <symbol id="mom2" viewBox="0 0 29 50">
      <title></title>
     <g id="maternity" transform="translate(-103.834)">
        <g id="Group_593" data-name="Group 593" transform="translate(113.241 33.51)">
          <g id="Group_592" data-name="Group 592" transform="translate(0)">
            <path id="Path_29719" data-name="Path 29719" d="M208.486,346.5a3.5,3.5,0,0,0-1.847.531,3.5,3.5,0,0,0-1.847-.531,3.578,3.578,0,0,0-3.541,3.606c0,1.128.814,2.486,2.49,4.151a26.21,26.21,0,0,0,2.293,2.016,1,1,0,0,0,1.211,0,26.191,26.191,0,0,0,2.293-2.016c1.675-1.666,2.49-3.024,2.49-4.151A3.578,3.578,0,0,0,208.486,346.5Zm-1.848,7.706c-1.734-1.437-3.393-3.283-3.393-4.1a1.582,1.582,0,0,1,1.546-1.611,1.5,1.5,0,0,1,1.114.5,1,1,0,0,0,1.466,0,1.5,1.5,0,0,1,1.115-.5,1.581,1.581,0,0,1,1.546,1.611C210.032,350.925,208.373,352.771,206.639,354.21Z" transform="translate(-201.251 -346.504)" />
          </g>
        </g>
        <g id="Group_595" data-name="Group 595" transform="translate(103.834 15.525)">
          <g id="Group_594" data-name="Group 594" transform="translate(0)">
            <path id="Path_29720" data-name="Path 29720" d="M117.608,176.332a2.684,2.684,0,0,0-2.173-.685,10.41,10.41,0,0,0-7.015,4.544,1,1,0,0,0,1.713,1.022,8.433,8.433,0,0,1,5.606-3.594.778.778,0,0,1,.566.224,1.749,1.749,0,0,1,.595,1.229.933.933,0,0,1-.635.883,8.207,8.207,0,0,0-3.806,2.182l-3.819,4.753a1.851,1.851,0,0,1-1.488.743.734.734,0,0,1-.563-.256c-.959-1.048-.769-4.464-.688-5.923.013-.225.024-.429.031-.606.391-9.011,3.9-11.578,9.448-12.8l.343-.076a1,1,0,0,0-.429-1.948l-.343.076c-3.685.811-6.211,2.2-7.951,4.382-1.887,2.363-2.86,5.629-3.061,10.278-.007.17-.018.365-.03.582-.154,2.764-.2,5.842,1.208,7.38a2.734,2.734,0,0,0,1.969.9l.12,0q.1,0,.209-.006a10.916,10.916,0,0,0,1.1,4.639,1,1,0,0,0,1.794-.871,8.946,8.946,0,0,1-.9-3.941v-.553a4.176,4.176,0,0,0,.788-.756l3.819-4.753a6.824,6.824,0,0,1,2.881-1.538,2.928,2.928,0,0,0,2-2.765A3.719,3.719,0,0,0,117.608,176.332Z" transform="translate(-103.834 -166.002)" />
          </g>
        </g>
        <g id="Group_597" data-name="Group 597" transform="translate(110.001 44.846)">
          <g id="Group_596" data-name="Group 596" transform="translate(0)">
            <path id="Path_29721" data-name="Path 29721" d="M168.827,460.617l-.026-.027a1,1,0,0,0-1.456,1.363l.043.045a1,1,0,0,0,1.439-1.381Z" transform="translate(-167.076 -460.274)" />
          </g>
        </g>
        <g id="Group_599" data-name="Group 599" transform="translate(121.395 16.178)">
          <g id="Group_598" data-name="Group 598" transform="translate(0)">
            <path id="Path_29722" data-name="Path 29722" d="M290.577,167.934a15.01,15.01,0,0,0-4.716-1.971,1,1,0,0,0-.446,1.944,13.023,13.023,0,0,1,4.091,1.71,1,1,0,0,0,1.071-1.683Z" transform="translate(-284.64 -165.938)" />
          </g>
        </g>
        <g id="Group_601" data-name="Group 601" transform="translate(128.209 20.048)">
          <g id="Group_600" data-name="Group 600">
            <path id="Path_29723" data-name="Path 29723" d="M356.285,205.83l-.053-.055a1,1,0,1,0-1.435,1.385l.045.046a1,1,0,0,0,1.443-1.377Z" transform="translate(-354.517 -205.47)" />
          </g>
        </g>
        <g id="Group_603" data-name="Group 603" transform="translate(112.164 22.063)">
          <g id="Group_602" data-name="Group 602" transform="translate(0)">
            <path id="Path_29724" data-name="Path 29724" d="M213.531,232.381a1,1,0,0,0-1.737.981c1.006,1.782,1.086,3.871,1.086,6.417v3.039c0,3.509-.8,8.438-4.632,11.991a11.113,11.113,0,0,1-3.9,1.906l-.2.052a1.592,1.592,0,0,1-.766-3.087,9.781,9.781,0,0,0,3.781-1.823c2.633-2.444,2.5-6.226,2.377-9.563-.026-.719-.05-1.4-.05-2.065a1,1,0,0,0-.022-.208,3.762,3.762,0,0,0,.41-1.19c.3-1.861-.906-3.433-1.876-4.7a5.462,5.462,0,0,1-.969-1.522,1,1,0,0,0-1.995,0,4.91,4.91,0,0,0,1.381,2.737c.775,1.009,1.653,2.153,1.49,3.163a3.371,3.371,0,0,1-1.652,2,1,1,0,1,0,1.117,1.652c.055-.037.108-.075.162-.113,0,.106.007.211.011.316.11,3.052.224,6.207-1.74,8.03a8.294,8.294,0,0,1-2.99,1.372A3.589,3.589,0,0,0,201,257.4a16.055,16.055,0,0,1-1.841.159,9.051,9.051,0,0,1-4.211-1.039,1,1,0,0,0-.931,1.764,11.054,11.054,0,0,0,5.142,1.27,23.534,23.534,0,0,0,5.477-.85c.068-.016.135-.035.2-.054l.062-.017.015,0,.027-.008a12.764,12.764,0,0,0,4.663-2.35c3.448-3.2,5.27-7.852,5.27-13.453V239.78C214.875,237.034,214.774,234.582,213.531,232.381Z" transform="translate(-193.486 -231.618)" />
          </g>
        </g>
        <g id="Group_605" data-name="Group 605" transform="translate(109.071)">
          <g id="Group_604" data-name="Group 604" transform="translate(0)">
            <path id="Path_29725" data-name="Path 29725" d="M168.567,0a7.691,7.691,0,0,0-3.217.7,4.1,4.1,0,0,0-4.742,6.69.991.991,0,0,0,.225.126c0,.074-.006.147-.006.221V8.965a7.74,7.74,0,1,0,15.479,0V7.74A7.748,7.748,0,0,0,168.567,0Zm-7.2,2.845a2.108,2.108,0,0,1,2-.827,7.761,7.761,0,0,0-2.1,3.181A2.109,2.109,0,0,1,161.364,2.845Zm7.2,11.866a5.752,5.752,0,0,1-5.708-5.1c1.5-.113,4.748-.578,6.9-2.495a8.221,8.221,0,0,0,4.52,2.44A5.753,5.753,0,0,1,168.567,14.71Zm2.147-9.663a1,1,0,0,0-1.664-.091c-1.494,2.02-4.739,2.526-6.225,2.652a5.743,5.743,0,0,1,11.481-.088A5.658,5.658,0,0,1,170.714,5.047Z" transform="translate(-158.955)" />
          </g>
        </g>
      </g>
    </symbol>

    <symbol id="mom3" viewBox="0 0 40 40">
      <path id="Path_29726" data-name="Path 29726" d="M106.781,166a.781.781,0,1,0,.781.781A.782.782,0,0,0,106.781,166Zm0,0" transform="translate(-97.719 -153.031)" />
      <path id="Path_29727" data-name="Path 29727" d="M2.344,40H37.656A2.346,2.346,0,0,0,40,37.656V5.469a2.346,2.346,0,0,0-2.344-2.344h-1.25V2.344a2.344,2.344,0,0,0-4.688,0v.781H27.031V2.344a2.344,2.344,0,1,0-4.687,0v.781H17.656V2.344a2.344,2.344,0,1,0-4.687,0v.781H8.281V2.344a2.344,2.344,0,1,0-4.687,0v.781H2.344A2.346,2.346,0,0,0,0,5.469V37.656A2.346,2.346,0,0,0,2.344,40Zm35.313-1.562H2.344a.782.782,0,0,1-.781-.781V11.406H38.438v26.25A.782.782,0,0,1,37.656,38.438ZM33.281,2.344a.781.781,0,0,1,1.563,0v.781H33.281Zm-9.375,0a.781.781,0,0,1,1.563,0v.781H23.906Zm-9.375,0a.781.781,0,1,1,1.562,0v.781H14.531Zm-9.375,0a.781.781,0,0,1,1.563,0v.781H5.156ZM2.344,4.688h1.25V5.7A2.346,2.346,0,0,0,5.938,8.047a.781.781,0,1,0,0-1.562A.782.782,0,0,1,5.156,5.7V4.688h7.813V5.7a2.346,2.346,0,0,0,2.344,2.344.781.781,0,0,0,0-1.562.782.782,0,0,1-.781-.781V4.688h7.813V5.7a2.346,2.346,0,0,0,2.344,2.344.781.781,0,1,0,0-1.562.782.782,0,0,1-.781-.781V4.688h7.812V5.7a2.346,2.346,0,0,0,2.344,2.344.781.781,0,1,0,0-1.562.782.782,0,0,1-.781-.781V4.688h4.375a.782.782,0,0,1,.781.781V9.844H1.563V5.469A.782.782,0,0,1,2.344,4.688Zm0,0" transform="translate(0 0)" />
      <path id="Path_29728" data-name="Path 29728" d="M165.537,166H146.781a.781.781,0,0,0,0,1.563h18.755a.781.781,0,1,0,0-1.563Zm0,0" transform="translate(-134.597 -153.031)" />
      <path id="Path_29729" data-name="Path 29729" d="M157.065,236a4.613,4.613,0,0,0-3.968,2.371A4.613,4.613,0,0,0,149.129,236a4.85,4.85,0,0,0-4.75,5.089c0,3.64,3.384,5.861,8.206,10.04a.782.782,0,0,0,1.024,0c4.591-3.98,8.206-6.346,8.206-10.04A4.852,4.852,0,0,0,157.065,236ZM153.1,249.507c-4.368-3.746-7.155-5.7-7.155-8.418a3.3,3.3,0,0,1,3.187-3.526c2.374,0,3.183,2.752,3.215,2.866a.781.781,0,0,0,1.506,0c.008-.028.821-2.866,3.215-2.866a3.3,3.3,0,0,1,3.187,3.526C160.252,243.817,157.407,245.811,153.1,249.507Zm0,0" transform="translate(-133.102 -217.566)" />
    </symbol>
    <symbol id="mom4" viewBox="0 0 40 40">
       <g id="milk-bottle" transform="translate(0 0)">
        <g id="Group_607" data-name="Group 607" transform="translate(6.521 16.135)">
          <g id="Group_606" data-name="Group 606">
            <path id="Path_29730" data-name="Path 29730" d="M84.754,206.671a.775.775,0,1,0,.227.548A.779.779,0,0,0,84.754,206.671Z" transform="translate(-83.433 -206.445)" />
          </g>
        </g>
        <g id="Group_609" data-name="Group 609" transform="translate(0 0)">
          <g id="Group_608" data-name="Group 608" transform="translate(0 0)">
            <path id="Path_29731" data-name="Path 29731" d="M37.114,7.947a5.632,5.632,0,0,0,.968-.433,4.2,4.2,0,0,0,.73-.576,4.066,4.066,0,0,0-5.75-5.75,4.206,4.206,0,0,0-.576.73,5.647,5.647,0,0,0-.433.967,4.245,4.245,0,0,1-.7,1.366.52.52,0,0,1-.114-.06c-1.107-.721-3.549-1.87-5.443-1.5l-.628-.628a2.917,2.917,0,0,0-4.748,3.2A5.367,5.367,0,0,0,16.283,6.82l-7.73,7.73a.781.781,0,0,0,1.1,1.1l4.386-4.386,2.78,2.78a.781.781,0,1,0,1.1-1.1l-2.78-2.78,2.239-2.239a3.816,3.816,0,0,1,5.4,0l9.289,9.289a3.816,3.816,0,0,1,0,5.4L16.98,37.706a2.506,2.506,0,0,1-3.54,0L2.294,26.56a2.506,2.506,0,0,1,0-3.54l3.595-3.595a.781.781,0,0,0-1.1-1.1L1.189,21.915a4.07,4.07,0,0,0,0,5.749L12.336,38.811a4.07,4.07,0,0,0,5.749,0L33.18,23.717a5.367,5.367,0,0,0,1.561-4.136,2.917,2.917,0,0,0,3.2-4.748l-.628-.628c.366-1.894-.784-4.336-1.5-5.443a.521.521,0,0,1-.06-.114A4.245,4.245,0,0,1,37.114,7.947Zm-1.225,7.044h0l.946.946a1.353,1.353,0,1,1-1.914,1.914L22.149,5.079a1.353,1.353,0,0,1,1.914-1.914l.946.946h0ZM34.5,9.614a8.929,8.929,0,0,1,1.244,3.021L27.366,4.258A8.925,8.925,0,0,1,30.386,5.5a1.631,1.631,0,0,0,1.437.244c.927-.3,1.35-1.412,1.69-2.3a5.412,5.412,0,0,1,.292-.687,2.67,2.67,0,0,1,.361-.462,2.5,2.5,0,0,1,3.54,3.54,2.66,2.66,0,0,1-.462.361,5.413,5.413,0,0,1-.688.292c-.892.34-2,.763-2.3,1.69A1.631,1.631,0,0,0,34.5,9.614Z" transform="translate(0 0)" />
          </g>
        </g>
        <g id="Group_611" data-name="Group 611" transform="translate(24.654 18.202)">
          <g id="Group_610" data-name="Group 610">
            <path id="Path_29732" data-name="Path 29732" d="M319.715,236.136l-3.227-3.227A.774.774,0,0,0,315.393,234l3.227,3.227a.774.774,0,1,0,1.095-1.095Z" transform="translate(-315.166 -232.682)" />
          </g>
        </g>
        <g id="Group_613" data-name="Group 613" transform="translate(20.934 21.922)">
          <g id="Group_612" data-name="Group 612">
            <path id="Path_29733" data-name="Path 29733" d="M272.155,283.7l-3.227-3.227a.774.774,0,0,0-1.095,1.095l3.227,3.227a.774.774,0,1,0,1.095-1.095Z" transform="translate(-267.606 -280.242)" />
          </g>
        </g>
        <g id="Group_615" data-name="Group 615" transform="translate(17.214 25.643)">
          <g id="Group_614" data-name="Group 614">
            <path id="Path_29734" data-name="Path 29734" d="M224.6,331.255l-3.227-3.227a.774.774,0,0,0-1.095,1.095l3.227,3.227a.774.774,0,1,0,1.095-1.095Z" transform="translate(-220.047 -327.801)" />
          </g>
        </g>
        <g id="Group_617" data-name="Group 617" transform="translate(13.493 29.425)">
          <g id="Group_616" data-name="Group 616">
            <path id="Path_29735" data-name="Path 29735" d="M177.036,378.815l-3.227-3.227a.774.774,0,1,0-1.095,1.095l3.227,3.227a.774.774,0,1,0,1.095-1.095Z" transform="translate(-172.487 -375.361)" />
          </g>
        </g>
        <g id="Group_619" data-name="Group 619" transform="translate(19.226 15.345)">
          <g id="Group_618" data-name="Group 618">
            <path id="Path_29736" data-name="Path 29736" d="M247.321,196.56a.775.775,0,1,0,.227.548A.779.779,0,0,0,247.321,196.56Z" transform="translate(-246 -196.334)" />
          </g>
        </g>
      </g>
    </symbol>
    
    <symbol id="chuyemuckhac" viewBox="0 0 50 50">
        <path id="Path_29780" data-name="Path 29780" d="M48.983,0H1.017A1.018,1.018,0,0,0,0,1.017V48.983A1.018,1.018,0,0,0,1.017,50H41.789a1.017,1.017,0,0,0,0-2.035H2.035V2.035h45.93V48.983a1.017,1.017,0,1,0,2.035,0V1.017A1.018,1.018,0,0,0,48.983,0Z" />
        <path id="Path_29781" data-name="Path 29781" d="M46.65,62.421a3.835,3.835,0,1,0,3.835,3.835A3.839,3.839,0,0,0,46.65,62.421Zm0,5.669a1.834,1.834,0,1,1,1.834-1.834A1.836,1.836,0,0,1,46.65,68.09Z" transform="translate(-35.677 -51.803)" />
        <path id="Path_29782" data-name="Path 29782" d="M125.157,79.421H101.815a1,1,0,0,0,0,2h23.342a1,1,0,1,0,0-2Z" transform="translate(-83.164 -65.943)" />
        <path id="Path_29783" data-name="Path 29783" d="M46.65,124.421a1,1,0,1,0,0,2,1.834,1.834,0,1,1-1.834,1.834,1,1,0,1,0-2,0,3.835,3.835,0,1,0,3.835-3.835Z" transform="translate(-35.677 -103.256)" />
        <path id="Path_29784" data-name="Path 29784" d="M125.157,141.421H101.815a1,1,0,1,0,0,2h23.342a1,1,0,1,0,0-2Z" transform="translate(-83.164 -117.421)" />
        <path id="Path_29785" data-name="Path 29785" d="M46.65,186.421a3.835,3.835,0,1,0,3.835,3.835A3.839,3.839,0,0,0,46.65,186.421Zm0,5.669a1.834,1.834,0,1,1,1.834-1.834A1.836,1.836,0,0,1,46.65,192.09Z" transform="translate(-35.677 -154.709)" />
        <path id="Path_29786" data-name="Path 29786" d="M125.157,203.421H101.815a1,1,0,1,0,0,2h23.342a1,1,0,1,0,0-2Z" transform="translate(-83.164 -168.9)" />
    </symbol>

    <symbol id="ic-phattrienbenvung-1" viewBox="0 0 30 30">
      <g id="growthw">
        <path id="Path_29615" data-name="Path 29615" d="M292,206.588a.588.588,0,1,0,.588-.588A.588.588,0,0,0,292,206.588Z" transform="translate(-274.893 -193.931)" />
        <path id="Path_29616" data-name="Path 29616" d="M1.756,30H21.188a1.759,1.759,0,0,0,1.756-1.758V5.273a1.759,1.759,0,0,0-1.756-1.758H18.262V2.93a.586.586,0,0,0-.585-.586H14.784a3.512,3.512,0,0,0-6.624,0H5.268a.586.586,0,0,0-.585.586v.586H1.756A1.759,1.759,0,0,0,0,5.273V28.242A1.759,1.759,0,0,0,1.756,30Zm4.1-26.484H8.6a.586.586,0,0,0,.574-.469,2.341,2.341,0,0,1,4.589,0,.586.586,0,0,0,.574.469h2.751V4.688H5.853ZM1.171,5.273a.586.586,0,0,1,.585-.586H4.682v.586a.586.586,0,0,0,.585.586H17.676a.586.586,0,0,0,.585-.586V4.688h2.927a.586.586,0,0,1,.585.586V28.242a.586.586,0,0,1-.585.586H1.756a.586.586,0,0,1-.585-.586Z" />
        <path id="Path_29617" data-name="Path 29617" d="M61.347,169.356a.588.588,0,0,0,.832,0L64.531,167a.588.588,0,0,0-.832-.832l-1.936,1.936-.76-.76a.588.588,0,0,0-.832.832Z" transform="translate(-56.471 -156.278)" />
        <path id="Path_29618" data-name="Path 29618" d="M61.347,269.356a.588.588,0,0,0,.832,0L64.531,267a.588.588,0,0,0-.832-.832l-1.936,1.936-.76-.76a.588.588,0,1,0-.832.832Z" transform="translate(-56.471 -250.421)" />
        <path id="Path_29619" data-name="Path 29619" d="M61.764,366a1.764,1.764,0,1,0,1.764,1.764A1.766,1.766,0,0,0,61.764,366Zm0,2.352a.588.588,0,1,1,.588-.588A.589.589,0,0,1,61.764,368.352Z" transform="translate(-56.472 -344.565)" />
        <path id="Path_29620" data-name="Path 29620" d="M186.588,167.176H194A.588.588,0,0,0,194,166h-7.409a.588.588,0,1,0,0,1.176Z" transform="translate(-175.117 -156.275)" />
        <path id="Path_29621" data-name="Path 29621" d="M186.588,207.176h3.881a.588.588,0,1,0,0-1.176h-3.881a.588.588,0,1,0,0,1.176Z" transform="translate(-175.109 -193.931)" />
        <path id="Path_29622" data-name="Path 29622" d="M186.588,267.176H194A.588.588,0,0,0,194,266h-7.409a.588.588,0,1,0,0,1.176Z" transform="translate(-175.117 -250.416)" />
        <path id="Path_29623" data-name="Path 29623" d="M186.588,307.176h5.057a.588.588,0,1,0,0-1.176h-5.057a.588.588,0,1,0,0,1.176Z" transform="translate(-175.112 -288.073)" />
        <path id="Path_29624" data-name="Path 29624" d="M186.588,367.176H194A.588.588,0,1,0,194,366h-7.409a.588.588,0,1,0,0,1.176Z" transform="translate(-175.117 -344.558)" />
        <path id="Path_29625" data-name="Path 29625" d="M186.588,407.176h5.057a.588.588,0,1,0,0-1.176h-5.057a.588.588,0,1,0,0,1.176Z" transform="translate(-175.112 -382.214)" />
      </g>
    </symbol>

    <symbol id="ic-phattrienbenvung-2" viewBox="0 0 30 30">
      <g id="growth" transform="translate(0 -0.467)">
        <path id="Path_29626" data-name="Path 29626" d="M14.9,209.827a7.775,7.775,0,0,1-3.057-.622l-4.625-1.98a17.758,17.758,0,0,0-5.259-1.349l-1.519-.15a.484.484,0,0,1-.44-.479v-4.692a.476.476,0,0,1,.1-.289c.114-.15,2.836-3.652,6.994-2.74a17.81,17.81,0,0,1,5.39,2.183,5.505,5.505,0,0,0,2.874.791h4.625a2.229,2.229,0,0,1,1.89,1.038l3.984-4.519a4.249,4.249,0,0,1,3.359-1.638h.3a.49.49,0,0,1,.409.218.476.476,0,0,1,.038.457l-3.6,8.063a6.394,6.394,0,0,1-4.29,3.563l-.634.156-3.687,1.452A7.774,7.774,0,0,1,14.9,209.827ZM.978,204.812l1.079.106a18.756,18.756,0,0,1,5.551,1.425l4.625,1.98a6.822,6.822,0,0,0,5.149.075l3.718-1.464a.513.513,0,0,1,.063-.02l.666-.164a5.413,5.413,0,0,0,3.632-3.016l3.286-7.354a3.278,3.278,0,0,0-2.132,1.246L22.2,202.633c0,.019,0,.037,0,.056a2.207,2.207,0,0,1-2.222,2.188H13.528a7.89,7.89,0,0,0-2.464.394l-.18-.449-.152-.458.025-.008a8.875,8.875,0,0,1,2.77-.442h6.453a1.225,1.225,0,1,0,0-2.45H15.356a6.493,6.493,0,0,1-3.389-.936,16.822,16.822,0,0,0-5.086-2.061c-3.149-.688-5.415,1.692-5.9,2.26v4.086Zm0,0" transform="translate(0 -180.734)" />
        <path id="Path_29627" data-name="Path 29627" d="M229.011,99.4a5.651,5.651,0,0,1-2.485-.686.484.484,0,0,1-.238-.269,5.137,5.137,0,0,1,.47-4.409c.994-1.33,2.862-1.929,5.556-1.779a.481.481,0,0,1,.454.457c.01.191.208,4.7-2.093,6.206A2.976,2.976,0,0,1,229.011,99.4Zm-1.871-1.458a3.052,3.052,0,0,0,3.008.173c1.364-.891,1.659-3.536,1.666-4.913-2.111-.052-3.548.424-4.286,1.412A4.036,4.036,0,0,0,227.141,97.945Zm0,0" transform="translate(-209.731 -85.166)" />
        <path id="Path_29628" data-name="Path 29628" d="M102.423,7.8a4.5,4.5,0,0,1-2.7-.812C98.268,5.915,97.6,3.881,97.734.939A.482.482,0,0,1,98.186.48c.208-.012,5.137-.275,6.8,2.215.772,1.159.709,2.677-.188,4.512a.481.481,0,0,1-.266.24A6.648,6.648,0,0,1,102.423,7.8Zm1.939-.8h0ZM98.681,1.427c-.042,2.357.5,3.963,1.613,4.779a4.5,4.5,0,0,0,3.723.394c.654-1.42.71-2.553.164-3.372C103.167,1.707,100.195,1.41,98.681,1.427Zm0,0" transform="translate(-90.681)" />
        <path id="Path_29629" data-name="Path 29629" d="M144.671,60.73l-.046,0a.481.481,0,0,1-.435-.5q.043-.849.143-1.612c.2-3.407.1-11.34-4.919-13.535a.481.481,0,1,1,.386-.882c2.956,1.293,4.815,4.513,5.377,9.311.05.43.088.854.116,1.267a9.084,9.084,0,0,1,3.462-4.585.481.481,0,0,1,.473.838c-.051.03-3.15,1.89-3.928,7.625-.059.981-.145,1.607-.153,1.664A.481.481,0,0,1,144.671,60.73Zm0,0" transform="translate(-129.08 -40.607)" />
      </g>
    </symbol>
    <symbol id="ic-lichsu-1" viewBox="0 0 60 48">
        <g id="script" transform="translate(0 -53.51)">
            <g id="Group_214" data-name="Group 214" transform="translate(22.357 62.502)">
              <g id="Group_213" data-name="Group 213" transform="translate(0 0)">
                <path id="Path_25298" data-name="Path 25298" d="M212.694,130.3H193.61a.9.9,0,1,0,0,1.793h19.084a.9.9,0,1,0,0-1.793Z" transform="translate(-192.714 -130.296)"  />
              </g>
            </g>
            <g id="Group_216" data-name="Group 216" transform="translate(15.5 62.502)">
              <g id="Group_215" data-name="Group 215" transform="translate(0 0)">
                <path id="Path_25299" data-name="Path 25299" d="M136.405,130.3h-3.023a.9.9,0,0,0,0,1.793h3.023a.9.9,0,1,0,0-1.793Z" transform="translate(-132.486 -130.296)"  />
              </g>
            </g>
            <g id="Group_218" data-name="Group 218" transform="translate(15.458 89.44)">
              <g id="Group_217" data-name="Group 217" transform="translate(0 0)">
                <path id="Path_25300" data-name="Path 25300" d="M142.759,360.341h-9.377a.9.9,0,1,0,0,1.793h9.377a.9.9,0,0,0,0-1.793Z" transform="translate(-132.486 -360.341)"  />
              </g>
            </g>
            <g id="Group_220" data-name="Group 220" transform="translate(15.429 80.461)">
              <g id="Group_219" data-name="Group 219">
                <path id="Path_25301" data-name="Path 25301" d="M146.522,283.66H133.382a.9.9,0,0,0,0,1.793h13.139a.9.9,0,0,0,0-1.793Z" transform="translate(-132.486 -283.66)"  />
              </g>
            </g>
            <g id="Group_222" data-name="Group 222" transform="translate(15.365 71.481)">
              <g id="Group_221" data-name="Group 221" transform="translate(0 0)">
                <path id="Path_25302" data-name="Path 25302" d="M152.917,206.977H133.382a.9.9,0,0,0,0,1.793h19.535a.9.9,0,0,0,0-1.793Z" transform="translate(-132.486 -206.977)"  />
              </g>
            </g>
            <g id="Group_224" data-name="Group 224" transform="translate(0 53.51)">
              <g id="Group_223" data-name="Group 223" transform="translate(0 0)">
                <path id="Path_25303" data-name="Path 25303" d="M52.181,53.51H15.856a5.844,5.844,0,0,0-5.835,5.839V93.955H.878A.879.879,0,0,0,0,94.843a5.9,5.9,0,0,0,5.834,6.126H42.269A5.844,5.844,0,0,0,48.1,95.13V84.472a.879.879,0,1,0-1.758,0V95.13a4.083,4.083,0,0,1-4.077,4.08h-.111a4.175,4.175,0,0,1-4.076-4.384.879.879,0,0,0-.879-.871H11.779V59.349a4.083,4.083,0,0,1,4.077-4.08H48.01c-.026.026-.05.054-.075.081s-.062.065-.092.1-.062.071-.093.108-.059.069-.088.1-.058.074-.087.111-.056.072-.084.109-.055.076-.082.115-.054.075-.079.114-.051.078-.076.118-.05.078-.074.118-.047.081-.07.122-.047.081-.069.122-.043.083-.064.125-.043.083-.063.125-.039.086-.058.129-.039.085-.057.128-.035.088-.052.132-.035.087-.051.131-.031.091-.046.137-.03.088-.044.132-.027.095-.04.142-.026.088-.037.133-.023.1-.034.149-.021.087-.03.131-.019.1-.028.156-.016.086-.023.129-.015.112-.021.168c0,.041-.011.081-.015.121-.006.063-.01.126-.015.19,0,.035-.006.069-.008.1q-.007.148-.007.3v7.806a.879.879,0,1,0,1.758,0V60.524h9.041a.879.879,0,0,0,.879-.888A5.9,5.9,0,0,0,52.181,53.51Zm-15.8,42.2q.018.137.042.271c.005.03.011.059.017.089.011.059.022.118.035.177.007.035.016.069.024.1.012.053.024.105.038.157.009.036.02.073.03.109s.028.1.042.148.023.073.034.109.031.095.047.142.025.072.039.108.035.093.053.139.028.07.042.1.039.092.06.138.029.066.044.1c.022.048.046.1.069.143.015.029.028.059.043.088.029.055.058.11.089.164l.032.06q.063.11.13.217l.032.049c.035.054.07.109.106.162l.052.073c.031.044.063.088.1.132l.059.077c.031.04.063.081.1.12l.065.077q.048.057.1.113l.068.074.048.053H5.833a4.074,4.074,0,0,1-3.991-3.5Zm11.761-36.95c0-.006,0-.012,0-.018,0-.027.009-.053.013-.08s.013-.075.02-.112.012-.056.018-.085.016-.07.024-.1.015-.058.023-.087.018-.066.028-.1.018-.059.028-.088.021-.062.032-.093.021-.06.032-.089.023-.058.034-.087.025-.061.038-.091.024-.053.036-.08.029-.063.044-.094.023-.045.035-.068.034-.068.053-.1l.022-.038a4.086,4.086,0,0,1,.268-.415l0,0c.031-.042.064-.084.1-.125l.016-.02c.032-.04.065-.079.1-.117l.019-.022q.051-.058.1-.114l.018-.018q.056-.057.113-.113l.013-.012q.061-.058.124-.113l0,0a4.075,4.075,0,0,1,1.932-.936h0q.09-.017.181-.029h.011q.087-.012.175-.02l.027,0c.054,0,.108-.009.162-.011l.095,0,.1,0a4.074,4.074,0,0,1,3.991,3.5H48.147Z" transform="translate(0 -53.51)"  />
              </g>
            </g>
            <g id="Group_226" data-name="Group 226" transform="translate(30.974 68.561)">
              <g id="Group_225" data-name="Group 225" transform="translate(0 0)">
                <path id="Path_25304" data-name="Path 25304" d="M298.031,185.175c0-.01,0-.021,0-.031a.891.891,0,0,0-.044-.242s0-.008,0-.011l0-.009a.911.911,0,0,0-.049-.114l-.008-.013a.91.91,0,0,0-.059-.093l-.013-.019a.9.9,0,0,0-.077-.088l-.018-.018a.891.891,0,0,0-.082-.07l-.011-.009a.909.909,0,0,0-.1-.063l-.021-.011a.887.887,0,0,0-.111-.048h0a.917.917,0,0,0-.119-.031l-.027,0a.892.892,0,0,0-.124-.013c-7.5-.194-17.283,1.612-22.228,7.257-2.164,2.471-3.163,5.6-4.128,8.636q-.119.372-.238.744l-.01.032-1.515,5.381a.9.9,0,1,0,1.726.486l1.405-4.991a27.915,27.915,0,0,1,4.97-1.69c.969-.264,2.068-.562,3.4-.971,2.874-.884,8.387-4.582,10.925-7.328a61.275,61.275,0,0,1,6.244-5.968l.007-.007a.9.9,0,0,0,.089-.086l.005-.005a.888.888,0,0,0,.074-.1l.012-.019a.893.893,0,0,0,.1-.222l.006-.023a.888.888,0,0,0,.024-.119.044.044,0,0,0,0,0c0-.028.006-.056.006-.084C298.032,185.2,298.031,185.185,298.031,185.175Zm-21.751,7.549c2.087-2.382,5.285-4.178,9.506-5.337a35.158,35.158,0,0,1,3.569-.774,69.353,69.353,0,0,0-7.818,4.55,71.726,71.726,0,0,0-7.787,5.953A14.712,14.712,0,0,1,276.28,192.725Zm13.866-2.1c-2.47,2.672-7.8,6.114-10.135,6.831-1.3.4-2.385.695-3.341.955-.865.235-1.652.449-2.43.7.348-.333.756-.707,1.237-1.127a71.735,71.735,0,0,1,7.055-5.326,48.7,48.7,0,0,1,11.624-6.065C292.852,187.791,291.568,189.085,290.146,190.625Z" transform="translate(-269.006 -184.272)"  />
              </g>
            </g>
          </g>
    </symbol>
    <symbol id="ic-lichsu-2" viewBox="0 0 40 45.2">
       <g id="heart" transform="translate(-8.811 -6.892)">
        <path id="Path_29495" data-name="Path 29495" d="M108.521,71.573c.516-.631.992-1.264,1.423-1.9,2.713-3.989,3.365-7.544,1.838-10.01-1.671-2.7-5.713-3.627-11.132-2.578q-.25-.655-.524-1.274c-1.958-4.41-4.633-6.838-7.532-6.838-3.171,0-6.09,2.948-8.055,8.112q-.688-.133-1.358-.226c-4.776-.658-8.248.338-9.775,2.8-1.787,2.885-.6,7.2,3.26,11.907q-.773.946-1.422,1.9c-2.713,3.989-3.365,7.544-1.838,10.01,1.221,1.971,3.712,3,7.082,3a21.488,21.488,0,0,0,4.05-.422q.25.656.524,1.275c1.958,4.409,4.633,6.838,7.532,6.838,3.17,0,6.09-2.949,8.055-8.112q.688.133,1.358.225a19.987,19.987,0,0,0,2.718.2c3.375,0,5.836-1.032,7.057-3C113.565,80.6,112.375,76.275,108.521,71.573Zm2.022-11.14c1.188,1.919.531,4.988-1.8,8.422a32.4,32.4,0,0,1-5.836,6.314q.127-1.768.128-3.6c0-1.216-.044-2.416-.129-3.594q.973.827,1.869,1.689l1.011-1.05q-1.438-1.387-3.071-2.683a38.81,38.81,0,0,0-1.573-7.456C105.759,57.628,109.249,58.342,110.544,60.433ZM83.611,71.572a47.762,47.762,0,0,1,.244-4.868A47.97,47.97,0,0,1,87.86,63.93,47.469,47.469,0,0,1,92.6,61.349a48.491,48.491,0,0,1,8.734,5.355,48.7,48.7,0,0,1,0,9.736,47.97,47.97,0,0,1-4.005,2.773,47.48,47.48,0,0,1-4.738,2.581,48.478,48.478,0,0,1-8.734-5.355A48.105,48.105,0,0,1,83.611,71.572Zm8.982-21.14c2.255,0,4.515,2.177,6.2,5.972A32.428,32.428,0,0,1,101.08,64.7q-1.435-1.04-2.987-2c-1.243-.772-2.5-1.479-3.762-2.116,1.124-.472,2.24-.884,3.334-1.226l-.435-1.391A40.65,40.65,0,0,0,92.6,59.743a38.177,38.177,0,0,0-6.62-2.34C87.69,53.024,90.135,50.432,92.593,50.432Zm-17.95,10c1.188-1.919,4.227-2.694,8.339-2.128a31.966,31.966,0,0,1,7.882,2.269c-1.27.641-2.533,1.35-3.771,2.118q-1.548.961-2.984,2,.206-1.37.495-2.686l-1.422-.314a42.472,42.472,0,0,0-.707,4.24,39.861,39.861,0,0,0-4.844,4.513C74.368,66.391,73.249,62.683,74.643,60.433Zm0,22.278c-1.188-1.919-.531-4.988,1.8-8.422a26.12,26.12,0,0,1,1.694-2.213.724.724,0,0,0,.053-.062,36.05,36.05,0,0,1,4.089-4.039q-.127,1.768-.129,3.6c0,1.215.044,2.416.129,3.594q-.973-.827-1.868-1.689L79.4,74.526q1.439,1.387,3.071,2.683a38.809,38.809,0,0,0,1.573,7.456C79.429,85.516,75.937,84.8,74.643,82.711Zm17.95,10c-2.255,0-4.515-2.177-6.2-5.972a32.429,32.429,0,0,1-2.286-8.292q1.435,1.04,2.987,2c1.243.772,2.5,1.478,3.762,2.116-1.124.472-2.24.884-3.334,1.226l.435,1.391A40.656,40.656,0,0,0,92.589,83.4a38.177,38.177,0,0,0,6.62,2.34C97.5,90.119,95.051,92.711,92.593,92.711Zm17.95-10c-1.188,1.919-4.228,2.694-8.339,2.128a31.966,31.966,0,0,1-7.882-2.269c1.27-.641,2.533-1.35,3.771-2.118q1.548-.961,2.984-2-.206,1.37-.495,2.686l1.422.314a42.465,42.465,0,0,0,.707-4.24,39.867,39.867,0,0,0,4.844-4.513C110.816,76.75,111.935,80.465,110.544,82.711Z" transform="translate(-63.781 -42.082)"  />
        <path id="Path_29496" data-name="Path 29496" d="M209.845,211.89c-2.536-1.339-4.573,1.016-4.573,1.016s-2.036-2.355-4.573-1.016c-1.829.965-2.87,4.416,0,7.113a21.759,21.759,0,0,0,4.573,3.556A21.754,21.754,0,0,0,209.845,219C212.715,216.306,211.674,212.855,209.845,211.89Z" transform="translate(-176.485 -186.961)"  />
      </g>
    </symbol>
    <symbol id="ic-lichsu-3" viewBox="0 0 40 40">
       <g id="flasks" transform="translate(0 -0.015)">
        <path id="Path_29497" data-name="Path 29497" d="M225.991,43.631V33.837a1.919,1.919,0,0,0-.209-3.822h-8.359a1.919,1.919,0,0,0-.209,3.822v9.794a12.154,12.154,0,0,0-4.9,3.581.647.647,0,0,0,.077.9.619.619,0,0,0,.883-.079,10.881,10.881,0,0,1,4.771-3.353.638.638,0,0,0,.422-.6V33.849h3.553a.639.639,0,0,0,0-1.278h-4.6a.639.639,0,0,1,0-1.278h8.359a.639.639,0,0,1,0,1.278h-1.254a.639.639,0,0,0,0,1.278h.209V44.077a.638.638,0,0,0,.422.6A11.109,11.109,0,0,1,221.6,66.226a10.63,10.63,0,0,1-4.087-.811.623.623,0,0,0-.817.351.643.643,0,0,0,.345.833,11.857,11.857,0,0,0,4.559.9,12.393,12.393,0,0,0,4.389-23.873Z" transform="translate(-193.724 -27.492)"  />
        <circle id="Ellipse_722" data-name="Ellipse 722" cx="0.627" cy="0.627" r="0.627" transform="translate(31.797 29.296)"  />
        <circle id="Ellipse_723" data-name="Ellipse 723" cx="0.627" cy="0.627" r="0.627" transform="translate(29.242 31.851)"  />
        <path id="Path_29498" data-name="Path 29498" d="M229.124,276.459a.627.627,0,0,0-.532,1.136,9.616,9.616,0,0,0,12.4-13.517.626.626,0,0,0-.629-.307l-.228.032a.622.622,0,0,0-.085.018,4.817,4.817,0,0,0-1.87,1.009,2.124,2.124,0,0,1-1.623.607,2.069,2.069,0,0,1-1.538-.685,3.3,3.3,0,0,0-4.709,0,2.069,2.069,0,0,1-1.537.684,2.123,2.123,0,0,1-1.623-.607,4.817,4.817,0,0,0-1.869-1.009.615.615,0,0,0-.085-.018l-.228-.032a.626.626,0,0,0-.628.306l-.016.029a.627.627,0,0,0,.645.931h.01a3.59,3.59,0,0,1,1.386.769,3.5,3.5,0,0,0,4.762-.1,2.069,2.069,0,0,1,3.075,0,3.5,3.5,0,0,0,4.763.1,3.682,3.682,0,0,1,1.161-.7,8.362,8.362,0,0,1-11,11.347Z" transform="translate(-204.786 -240.994)"  />
        <path id="Path_29499" data-name="Path 29499" d="M15.133,16.506V3.832A1.905,1.905,0,0,0,16.8,1.93,1.9,1.9,0,0,0,14.924.015H6.564A1.9,1.9,0,0,0,4.684,1.93a1.905,1.905,0,0,0,1.672,1.9V14.06a.627.627,0,1,0,1.254,0V3.845h3.553a.638.638,0,0,0,0-1.277h-4.6a.638.638,0,0,1,0-1.277h8.359a.638.638,0,0,1,0,1.277H13.67a.638.638,0,0,0,0,1.277h.209V16.613a.648.648,0,0,0,.034.209l6.093,17.935a3.1,3.1,0,0,1-.234,2.829,2.981,2.981,0,0,1-2.55,1.15H4.266a2.981,2.981,0,0,1-2.55-1.15,3.1,3.1,0,0,1-.234-2.829L7.575,16.822a.641.641,0,0,0-.388-.812.624.624,0,0,0-.8.395L.3,34.34a4.357,4.357,0,0,0,.4,3.987,4.188,4.188,0,0,0,3.571,1.686H17.223a4.188,4.188,0,0,0,3.571-1.686,4.357,4.357,0,0,0,.4-3.987L15.133,16.506Z" transform="translate(0 0)"  />
        <path id="Path_29500" data-name="Path 29500" d="M32.917,335.6a.627.627,0,0,0-.977.29l-1.761,5.091a1.508,1.508,0,0,0,1.6,2.245H44.735a1.508,1.508,0,0,0,1.6-2.245l-1.761-5.091a.627.627,0,0,0-.977-.29,2.012,2.012,0,0,1-1.448.468,2.069,2.069,0,0,1-1.538-.685,3.3,3.3,0,0,0-4.709,0,2.069,2.069,0,0,1-1.537.684A2.012,2.012,0,0,1,32.917,335.6Zm3.8.735a2.069,2.069,0,0,1,3.075,0,3.3,3.3,0,0,0,2.355.987,3.569,3.569,0,0,0,1.5-.282l1.505,4.352a1.207,1.207,0,0,1,.085.5,1.207,1.207,0,0,1-.5.082H31.778a1.207,1.207,0,0,1-.5-.082,1.207,1.207,0,0,1,.085-.5l1.5-4.351a3.567,3.567,0,0,0,1.5.282,3.3,3.3,0,0,0,2.354-.987Z" transform="translate(-27.513 -305.717)"  />
      </g>
    </symbol>
    <symbol id="ic-lichsu-4" viewBox="0 0 40 40">
       <g id="favorites_1_" data-name="favorites (1)" transform="translate(0 -3.81)">
          <g id="Group_1076" data-name="Group 1076" transform="translate(2.332 3.81)">
            <g id="Group_1075" data-name="Group 1075">
              <path id="Path_30119" data-name="Path 30119" d="M64.114,19.248a2.634,2.634,0,0,0-1.46-4.493l-8.742-1.27a.527.527,0,0,1-.4-.288L49.606,5.278a2.635,2.635,0,0,0-4.725,0L40.971,13.2a.527.527,0,0,1-.4.288l-8.742,1.27a2.634,2.634,0,0,0-1.46,4.493L36.7,25.412a.527.527,0,0,1,.152.466l-1.493,8.7a2.635,2.635,0,0,0,3.823,2.777L47,33.25a.527.527,0,0,1,.491,0l7.819,4.109a2.635,2.635,0,0,0,3.823-2.777l-1.493-8.7a.527.527,0,0,1,.152-.466Zm-8.554,6.987,1.493,8.7a.527.527,0,0,1-.765.555l-7.819-4.109a2.635,2.635,0,0,0-2.452,0L38.2,35.494a.527.527,0,0,1-.765-.555l1.493-8.7a2.633,2.633,0,0,0-.758-2.331l-6.326-6.164a.527.527,0,0,1,.292-.9l8.742-1.27a2.634,2.634,0,0,0,1.984-1.441l3.909-7.919a.527.527,0,0,1,.945,0h0l3.909,7.919a2.634,2.634,0,0,0,1.984,1.441l8.742,1.27a.527.527,0,0,1,.292.9L56.317,23.9A2.633,2.633,0,0,0,55.559,26.235Z" transform="translate(-29.574 -3.81)"  />
            </g>
          </g>
          <g id="Group_1078" data-name="Group 1078" transform="translate(29.508 5.09)">
            <g id="Group_1077" data-name="Group 1077">
              <path id="Path_30120" data-name="Path 30120" d="M380.822,20.248a1.065,1.065,0,0,0-1.487.236L378.2,22.04a1.065,1.065,0,0,0,1.723,1.252l1.13-1.556A1.065,1.065,0,0,0,380.822,20.248Z" transform="translate(-378.001 -20.045)"  />
            </g>
          </g>
          <g id="Group_1080" data-name="Group 1080" transform="translate(7.228 5.084)">
            <g id="Group_1079" data-name="Group 1079">
              <path id="Path_30121" data-name="Path 30121" d="M95.647,21.961l-1.13-1.556a1.065,1.065,0,1,0-1.723,1.252l1.13,1.556a1.065,1.065,0,1,0,1.723-1.252Z" transform="translate(-92.59 -19.966)"  />
            </g>
          </g>
          <g id="Group_1082" data-name="Group 1082" transform="translate(0 26.739)">
            <g id="Group_1081" data-name="Group 1081" transform="translate(0)">
              <path id="Path_30122" data-name="Path 30122" d="M3.907,298.229a1.065,1.065,0,0,0-1.342-.684l-1.829.594a1.065,1.065,0,1,0,.658,2.025l1.829-.594A1.065,1.065,0,0,0,3.907,298.229Z" transform="translate(0 -297.493)"  />
            </g>
          </g>
          <g id="Group_1084" data-name="Group 1084" transform="translate(18.936 39.162)">
            <g id="Group_1083" data-name="Group 1083">
              <path id="Path_30123" data-name="Path 30123" d="M243.564,456.786a1.065,1.065,0,0,0-1.065,1.065v1.923a1.065,1.065,0,0,0,2.13,0v-1.923A1.065,1.065,0,0,0,243.564,456.786Z" transform="translate(-242.499 -456.786)"  />
            </g>
          </g>
          <g id="Group_1086" data-name="Group 1086" transform="translate(36.041 26.74)">
            <g id="Group_1085" data-name="Group 1085">
              <path id="Path_30124" data-name="Path 30124" d="M465.006,298.16l-1.829-.594a1.065,1.065,0,0,0-.658,2.026l1.829.594a1.065,1.065,0,0,0,.658-2.026Z" transform="translate(-461.783 -297.513)"  />
            </g>
          </g>
        </g>
    </symbol>
  </defs>
</svg>
