<svg style="position: absolute; width: 0; height: 0; overflow: hidden;" version="1.1" xmlns="http://www.w3.org/2000/svg">
  <defs>

    <symbol id="mom1" viewBox="0 0 40 40">
      <title></title>
      <g id="care" transform="translate(0 -39.568)">
          <g id="Group_551" data-name="Group 551" transform="translate(0 58.952)">
            <g id="Group_550" data-name="Group 550">
              <path id="Path_29700" data-name="Path 29700" d="M23.287,292.776H20.33a.762.762,0,1,0,0,1.524h2.957a.828.828,0,1,1,0,1.655h-7.96a4,4,0,0,1-3.087-1.447l-1.9-2.288a5.522,5.522,0,0,0-4.1-1.992v-4.5H9.044a5.286,5.286,0,0,1,3.689,1.49l4.108,3.966a.749.749,0,0,1-1.026,1.091l-3.226-2.957a.762.762,0,0,0-1.03,1.123l3.226,2.957a2.273,2.273,0,0,0,3.114-3.31l-4.108-3.966A6.8,6.8,0,0,0,9.044,284.2H6.09a1.892,1.892,0,0,0-1.741-1.156H.762a.762.762,0,0,0-.762.762v5.572a.762.762,0,1,0,1.524,0v-4.81H4.349a.365.365,0,0,1,.365.365v6.108a.365.365,0,0,1-.365.365H3.558a.762.762,0,1,0,0,1.524h.791A1.892,1.892,0,0,0,6.1,291.748a4,4,0,0,1,3.064,1.447l1.9,2.288a5.524,5.524,0,0,0,4.258,2h7.96a2.352,2.352,0,0,0,0-4.7Z" transform="translate(0 -283.046)"  />
            </g>
          </g>
          <g id="Group_553" data-name="Group 553" transform="translate(14.362 39.568)">
            <g id="Group_552" data-name="Group 552" transform="translate(0 0)">
              <path id="Path_29701" data-name="Path 29701" d="M200.466,46.607a.762.762,0,0,0-.762.762v5.108h-2.825a.365.365,0,0,1-.365-.365V46a.365.365,0,0,1,.365-.365h.736a.762.762,0,1,0,0-1.524h-.736a1.891,1.891,0,0,0-1.752,1.184,4,4,0,0,1-3.064-1.447l-1.9-2.288a5.524,5.524,0,0,0-4.259-2h-7.96a2.352,2.352,0,1,0,0,4.7H181.2a.762.762,0,0,0,0-1.524h-3.255a.828.828,0,1,1,0-1.655h7.96a4,4,0,0,1,3.087,1.447l1.9,2.288a5.522,5.522,0,0,0,4.1,1.992v4.5h-2.806a5.286,5.286,0,0,1-3.689-1.49l-4.108-3.966a.749.749,0,0,1,1.026-1.091l3.226,2.957a.762.762,0,1,0,1.03-1.123l-3.226-2.957a2.273,2.273,0,0,0-3.114,3.31l4.108,3.966a6.8,6.8,0,0,0,4.748,1.918h2.954A1.892,1.892,0,0,0,196.879,54h3.587a.762.762,0,0,0,.762-.762v-5.87A.762.762,0,0,0,200.466,46.607Z" transform="translate(-175.59 -39.568)"  />
            </g>
          </g>
          <g id="Group_555" data-name="Group 555" transform="translate(23.744 65.707)">
            <g id="Group_554" data-name="Group 554" transform="translate(0 0)">
              <path id="Path_29702" data-name="Path 29702" d="M305.082,374.2a.77.77,0,1,0-.4,1.016l.016-.007A.763.763,0,0,0,305.082,374.2Z" transform="translate(-303.617 -373.752)"  />
            </g>
          </g>
          <g id="Group_557" data-name="Group 557" transform="translate(25.776 64.534)">
            <g id="Group_556" data-name="Group 556">
              <path id="Path_29703" data-name="Path 29703" d="M330.982,359.066a.765.765,0,1,0-.166,1.069l.01-.007A.759.759,0,0,0,330.982,359.066Z" transform="translate(-329.603 -358.757)"  />
            </g>
          </g>
          <g id="Group_559" data-name="Group 559" transform="translate(21.507 66.426)">
            <g id="Group_558" data-name="Group 558" transform="translate(0 0)">
              <path id="Path_29704" data-name="Path 29704" d="M276.531,383.544a.769.769,0,1,0-.609.908l.022,0A.761.761,0,0,0,276.531,383.544Z" transform="translate(-275.016 -382.94)"  />
            </g>
          </g>
          <g id="Group_561" data-name="Group 561" transform="translate(27.513 62.949)">
            <g id="Group_560" data-name="Group 560">
              <path id="Path_29705" data-name="Path 29705" d="M353.1,338.683a.762.762,0,0,0-1.076.055l-.016.018a.762.762,0,1,0,1.092-.074Zm-.426.643-.085-.077.092.083Z" transform="translate(-351.819 -338.487)"  />
            </g>
          </g>
          <g id="Group_563" data-name="Group 563" transform="translate(29.804 58.878)">
            <g id="Group_562" data-name="Group 562" transform="translate(0 0)">
              <path id="Path_29706" data-name="Path 29706" d="M382.094,286.475a.765.765,0,1,0,.506.959l0-.01A.76.76,0,0,0,382.094,286.475Z" transform="translate(-381.109 -286.443)"  />
            </g>
          </g>
          <g id="Group_565" data-name="Group 565" transform="translate(30.263 54.224)">
            <g id="Group_564" data-name="Group 564">
              <path id="Path_29707" data-name="Path 29707" d="M388.493,227.574c0-.01,0-.019-.006-.029a.767.767,0,1,0,.006.029Z" transform="translate(-386.979 -226.939)"  />
            </g>
          </g>
          <g id="Group_567" data-name="Group 567" transform="translate(30.247 56.569)">
            <g id="Group_566" data-name="Group 566">
              <path id="Path_29708" data-name="Path 29708" d="M387.613,256.926a.763.763,0,0,0-.826.692c0,.007,0,.022,0,.03a.762.762,0,0,0,.716.805h.045a.766.766,0,0,0,.067-1.529Z" transform="translate(-386.783 -256.923)"  />
            </g>
          </g>
          <g id="Group_569" data-name="Group 569" transform="translate(28.877 61.035)">
            <g id="Group_568" data-name="Group 568">
              <path id="Path_29709" data-name="Path 29709" d="M370.4,314.123a.762.762,0,0,0-1.039.287l-.011.019a.763.763,0,0,0,.67,1.13.756.756,0,0,0,.666-.4l-.662-.377.663.376A.762.762,0,0,0,370.4,314.123Z" transform="translate(-369.259 -314.024)"  />
            </g>
          </g>
          <g id="Group_571" data-name="Group 571" transform="translate(14.381 45.81)">
            <g id="Group_570" data-name="Group 570">
              <path id="Path_29710" data-name="Path 29710" d="M185.346,119.791a.762.762,0,0,0-1.022-.341l-.007,0a.762.762,0,1,0,1.029.337Z" transform="translate(-183.898 -119.37)"  />
            </g>
          </g>
          <g id="Group_573" data-name="Group 573" transform="translate(16.578 44.992)">
            <g id="Group_572" data-name="Group 572" transform="translate(0 0)">
              <path id="Path_29711" data-name="Path 29711" d="M213.5,109.5a.762.762,0,0,0-.92-.561l-.018,0a.762.762,0,1,0,.938.557Z" transform="translate(-211.987 -108.918)"  />
            </g>
          </g>
          <g id="Group_575" data-name="Group 575" transform="translate(12.403 47.079)">
            <g id="Group_574" data-name="Group 574" transform="translate(0 0)">
              <path id="Path_29712" data-name="Path 29712" d="M159.96,135.878a.763.763,0,0,0-1.071-.116l.472.6-.475-.6a.762.762,0,0,0,.949,1.192l.01-.008A.761.761,0,0,0,159.96,135.878Z" transform="translate(-158.599 -135.595)"  />
            </g>
          </g>
          <g id="Group_577" data-name="Group 577" transform="translate(8.64 52.907)">
            <g id="Group_576" data-name="Group 576">
              <path id="Path_29713" data-name="Path 29713" d="M111.451,210.133a.762.762,0,0,0-.936.535l-.007.028a.762.762,0,1,0,.943-.563Z" transform="translate(-110.487 -210.106)"  />
            </g>
          </g>
          <g id="Group_579" data-name="Group 579" transform="translate(8.304 55.232)">
            <g id="Group_578" data-name="Group 578" transform="translate(0 0)">
              <path id="Path_29714" data-name="Path 29714" d="M107,239.825a.762.762,0,0,0-.8.717c0,.01,0,.02,0,.029a.762.762,0,0,0,.739.783h.023a.766.766,0,0,0,.044-1.53Z" transform="translate(-106.191 -239.824)"  />
            </g>
          </g>
          <g id="Group_581" data-name="Group 581" transform="translate(9.465 50.708)">
            <g id="Group_580" data-name="Group 580" transform="translate(0 0)">
              <path id="Path_29715" data-name="Path 29715" d="M122.156,182.077a.762.762,0,0,0-1.029.321l-.012.025a.762.762,0,1,0,1.041-.345Z" transform="translate(-121.037 -181.989)"  />
            </g>
          </g>
          <g id="Group_583" data-name="Group 583" transform="translate(10.74 48.736)">
            <g id="Group_582" data-name="Group 582">
              <path id="Path_29716" data-name="Path 29716" d="M138.593,156.949a.762.762,0,0,0-1.073.1l-.016.019a.762.762,0,1,0,1.089-.119Z" transform="translate(-137.339 -156.773)"  />
            </g>
          </g>
          <g id="Group_585" data-name="Group 585" transform="translate(8.464 57.575)">
            <g id="Group_584" data-name="Group 584" transform="translate(0 0)">
              <path id="Path_29717" data-name="Path 29717" d="M109.742,270.418a.762.762,0,0,0-1.5.269v.007a.758.758,0,0,0,.747.624.763.763,0,0,0,.752-.9Z" transform="translate(-108.23 -269.791)"  />
            </g>
          </g>
          <g id="Group_587" data-name="Group 587" transform="translate(13.948 52.401)">
            <g id="Group_586" data-name="Group 586" transform="translate(0 0)">
              <path id="Path_29718" data-name="Path 29718" d="M185.236,202.125a3.529,3.529,0,0,0-2.566,1.1,3.539,3.539,0,1,0-4.831,5.158l.015.012,4.343,3.438a.762.762,0,0,0,.948,0l4.527-3.606a.754.754,0,0,0,.063-.056,3.539,3.539,0,0,0-2.5-6.044Zm1.45,4.937-4.017,3.2-3.86-3.056a2.015,2.015,0,1,1,3.158-2.313.762.762,0,0,0,1.408,0,2.015,2.015,0,1,1,3.312,2.169Z" transform="translate(-176.566 -202.125)"  />
            </g>
          </g>
          <g id="Group_589" data-name="Group 589" transform="translate(0.003 67.316)">
            <g id="Group_588" data-name="Group 588" transform="translate(0 0)">
              <circle id="Ellipse_743" data-name="Ellipse 743" cx="0.759" cy="0.759" r="0.759"  />
            </g>
          </g>
          <g id="Group_591" data-name="Group 591" transform="translate(38.478 44.118)">
            <g id="Group_590" data-name="Group 590" transform="translate(0 0)">
              <circle id="Ellipse_744" data-name="Ellipse 744" cx="0.759" cy="0.759" r="0.759"  />
            </g>
          </g>
        </g>
    
    </symbol>

    <symbol id="mom2" viewBox="0 0 29 50">
      <title></title>
     <g id="maternity" transform="translate(-103.834)">
        <g id="Group_593" data-name="Group 593" transform="translate(113.241 33.51)">
          <g id="Group_592" data-name="Group 592" transform="translate(0)">
            <path id="Path_29719" data-name="Path 29719" d="M208.486,346.5a3.5,3.5,0,0,0-1.847.531,3.5,3.5,0,0,0-1.847-.531,3.578,3.578,0,0,0-3.541,3.606c0,1.128.814,2.486,2.49,4.151a26.21,26.21,0,0,0,2.293,2.016,1,1,0,0,0,1.211,0,26.191,26.191,0,0,0,2.293-2.016c1.675-1.666,2.49-3.024,2.49-4.151A3.578,3.578,0,0,0,208.486,346.5Zm-1.848,7.706c-1.734-1.437-3.393-3.283-3.393-4.1a1.582,1.582,0,0,1,1.546-1.611,1.5,1.5,0,0,1,1.114.5,1,1,0,0,0,1.466,0,1.5,1.5,0,0,1,1.115-.5,1.581,1.581,0,0,1,1.546,1.611C210.032,350.925,208.373,352.771,206.639,354.21Z" transform="translate(-201.251 -346.504)" />
          </g>
        </g>
        <g id="Group_595" data-name="Group 595" transform="translate(103.834 15.525)">
          <g id="Group_594" data-name="Group 594" transform="translate(0)">
            <path id="Path_29720" data-name="Path 29720" d="M117.608,176.332a2.684,2.684,0,0,0-2.173-.685,10.41,10.41,0,0,0-7.015,4.544,1,1,0,0,0,1.713,1.022,8.433,8.433,0,0,1,5.606-3.594.778.778,0,0,1,.566.224,1.749,1.749,0,0,1,.595,1.229.933.933,0,0,1-.635.883,8.207,8.207,0,0,0-3.806,2.182l-3.819,4.753a1.851,1.851,0,0,1-1.488.743.734.734,0,0,1-.563-.256c-.959-1.048-.769-4.464-.688-5.923.013-.225.024-.429.031-.606.391-9.011,3.9-11.578,9.448-12.8l.343-.076a1,1,0,0,0-.429-1.948l-.343.076c-3.685.811-6.211,2.2-7.951,4.382-1.887,2.363-2.86,5.629-3.061,10.278-.007.17-.018.365-.03.582-.154,2.764-.2,5.842,1.208,7.38a2.734,2.734,0,0,0,1.969.9l.12,0q.1,0,.209-.006a10.916,10.916,0,0,0,1.1,4.639,1,1,0,0,0,1.794-.871,8.946,8.946,0,0,1-.9-3.941v-.553a4.176,4.176,0,0,0,.788-.756l3.819-4.753a6.824,6.824,0,0,1,2.881-1.538,2.928,2.928,0,0,0,2-2.765A3.719,3.719,0,0,0,117.608,176.332Z" transform="translate(-103.834 -166.002)" />
          </g>
        </g>
        <g id="Group_597" data-name="Group 597" transform="translate(110.001 44.846)">
          <g id="Group_596" data-name="Group 596" transform="translate(0)">
            <path id="Path_29721" data-name="Path 29721" d="M168.827,460.617l-.026-.027a1,1,0,0,0-1.456,1.363l.043.045a1,1,0,0,0,1.439-1.381Z" transform="translate(-167.076 -460.274)" />
          </g>
        </g>
        <g id="Group_599" data-name="Group 599" transform="translate(121.395 16.178)">
          <g id="Group_598" data-name="Group 598" transform="translate(0)">
            <path id="Path_29722" data-name="Path 29722" d="M290.577,167.934a15.01,15.01,0,0,0-4.716-1.971,1,1,0,0,0-.446,1.944,13.023,13.023,0,0,1,4.091,1.71,1,1,0,0,0,1.071-1.683Z" transform="translate(-284.64 -165.938)" />
          </g>
        </g>
        <g id="Group_601" data-name="Group 601" transform="translate(128.209 20.048)">
          <g id="Group_600" data-name="Group 600">
            <path id="Path_29723" data-name="Path 29723" d="M356.285,205.83l-.053-.055a1,1,0,1,0-1.435,1.385l.045.046a1,1,0,0,0,1.443-1.377Z" transform="translate(-354.517 -205.47)" />
          </g>
        </g>
        <g id="Group_603" data-name="Group 603" transform="translate(112.164 22.063)">
          <g id="Group_602" data-name="Group 602" transform="translate(0)">
            <path id="Path_29724" data-name="Path 29724" d="M213.531,232.381a1,1,0,0,0-1.737.981c1.006,1.782,1.086,3.871,1.086,6.417v3.039c0,3.509-.8,8.438-4.632,11.991a11.113,11.113,0,0,1-3.9,1.906l-.2.052a1.592,1.592,0,0,1-.766-3.087,9.781,9.781,0,0,0,3.781-1.823c2.633-2.444,2.5-6.226,2.377-9.563-.026-.719-.05-1.4-.05-2.065a1,1,0,0,0-.022-.208,3.762,3.762,0,0,0,.41-1.19c.3-1.861-.906-3.433-1.876-4.7a5.462,5.462,0,0,1-.969-1.522,1,1,0,0,0-1.995,0,4.91,4.91,0,0,0,1.381,2.737c.775,1.009,1.653,2.153,1.49,3.163a3.371,3.371,0,0,1-1.652,2,1,1,0,1,0,1.117,1.652c.055-.037.108-.075.162-.113,0,.106.007.211.011.316.11,3.052.224,6.207-1.74,8.03a8.294,8.294,0,0,1-2.99,1.372A3.589,3.589,0,0,0,201,257.4a16.055,16.055,0,0,1-1.841.159,9.051,9.051,0,0,1-4.211-1.039,1,1,0,0,0-.931,1.764,11.054,11.054,0,0,0,5.142,1.27,23.534,23.534,0,0,0,5.477-.85c.068-.016.135-.035.2-.054l.062-.017.015,0,.027-.008a12.764,12.764,0,0,0,4.663-2.35c3.448-3.2,5.27-7.852,5.27-13.453V239.78C214.875,237.034,214.774,234.582,213.531,232.381Z" transform="translate(-193.486 -231.618)" />
          </g>
        </g>
        <g id="Group_605" data-name="Group 605" transform="translate(109.071)">
          <g id="Group_604" data-name="Group 604" transform="translate(0)">
            <path id="Path_29725" data-name="Path 29725" d="M168.567,0a7.691,7.691,0,0,0-3.217.7,4.1,4.1,0,0,0-4.742,6.69.991.991,0,0,0,.225.126c0,.074-.006.147-.006.221V8.965a7.74,7.74,0,1,0,15.479,0V7.74A7.748,7.748,0,0,0,168.567,0Zm-7.2,2.845a2.108,2.108,0,0,1,2-.827,7.761,7.761,0,0,0-2.1,3.181A2.109,2.109,0,0,1,161.364,2.845Zm7.2,11.866a5.752,5.752,0,0,1-5.708-5.1c1.5-.113,4.748-.578,6.9-2.495a8.221,8.221,0,0,0,4.52,2.44A5.753,5.753,0,0,1,168.567,14.71Zm2.147-9.663a1,1,0,0,0-1.664-.091c-1.494,2.02-4.739,2.526-6.225,2.652a5.743,5.743,0,0,1,11.481-.088A5.658,5.658,0,0,1,170.714,5.047Z" transform="translate(-158.955)" />
          </g>
        </g>
      </g>
    </symbol>

    <symbol id="mom3" viewBox="0 0 40 40">
      <path id="Path_29726" data-name="Path 29726" d="M106.781,166a.781.781,0,1,0,.781.781A.782.782,0,0,0,106.781,166Zm0,0" transform="translate(-97.719 -153.031)" />
      <path id="Path_29727" data-name="Path 29727" d="M2.344,40H37.656A2.346,2.346,0,0,0,40,37.656V5.469a2.346,2.346,0,0,0-2.344-2.344h-1.25V2.344a2.344,2.344,0,0,0-4.688,0v.781H27.031V2.344a2.344,2.344,0,1,0-4.687,0v.781H17.656V2.344a2.344,2.344,0,1,0-4.687,0v.781H8.281V2.344a2.344,2.344,0,1,0-4.687,0v.781H2.344A2.346,2.346,0,0,0,0,5.469V37.656A2.346,2.346,0,0,0,2.344,40Zm35.313-1.562H2.344a.782.782,0,0,1-.781-.781V11.406H38.438v26.25A.782.782,0,0,1,37.656,38.438ZM33.281,2.344a.781.781,0,0,1,1.563,0v.781H33.281Zm-9.375,0a.781.781,0,0,1,1.563,0v.781H23.906Zm-9.375,0a.781.781,0,1,1,1.562,0v.781H14.531Zm-9.375,0a.781.781,0,0,1,1.563,0v.781H5.156ZM2.344,4.688h1.25V5.7A2.346,2.346,0,0,0,5.938,8.047a.781.781,0,1,0,0-1.562A.782.782,0,0,1,5.156,5.7V4.688h7.813V5.7a2.346,2.346,0,0,0,2.344,2.344.781.781,0,0,0,0-1.562.782.782,0,0,1-.781-.781V4.688h7.813V5.7a2.346,2.346,0,0,0,2.344,2.344.781.781,0,1,0,0-1.562.782.782,0,0,1-.781-.781V4.688h7.812V5.7a2.346,2.346,0,0,0,2.344,2.344.781.781,0,1,0,0-1.562.782.782,0,0,1-.781-.781V4.688h4.375a.782.782,0,0,1,.781.781V9.844H1.563V5.469A.782.782,0,0,1,2.344,4.688Zm0,0" transform="translate(0 0)" />
      <path id="Path_29728" data-name="Path 29728" d="M165.537,166H146.781a.781.781,0,0,0,0,1.563h18.755a.781.781,0,1,0,0-1.563Zm0,0" transform="translate(-134.597 -153.031)" />
      <path id="Path_29729" data-name="Path 29729" d="M157.065,236a4.613,4.613,0,0,0-3.968,2.371A4.613,4.613,0,0,0,149.129,236a4.85,4.85,0,0,0-4.75,5.089c0,3.64,3.384,5.861,8.206,10.04a.782.782,0,0,0,1.024,0c4.591-3.98,8.206-6.346,8.206-10.04A4.852,4.852,0,0,0,157.065,236ZM153.1,249.507c-4.368-3.746-7.155-5.7-7.155-8.418a3.3,3.3,0,0,1,3.187-3.526c2.374,0,3.183,2.752,3.215,2.866a.781.781,0,0,0,1.506,0c.008-.028.821-2.866,3.215-2.866a3.3,3.3,0,0,1,3.187,3.526C160.252,243.817,157.407,245.811,153.1,249.507Zm0,0" transform="translate(-133.102 -217.566)" />
    </symbol>
    <symbol id="mom4" viewBox="0 0 40 40">
       <g id="milk-bottle" transform="translate(0 0)">
    <g id="Group_607" data-name="Group 607" transform="translate(6.521 16.135)">
      <g id="Group_606" data-name="Group 606">
        <path id="Path_29730" data-name="Path 29730" d="M84.754,206.671a.775.775,0,1,0,.227.548A.779.779,0,0,0,84.754,206.671Z" transform="translate(-83.433 -206.445)" />
      </g>
    </g>
    <g id="Group_609" data-name="Group 609" transform="translate(0 0)">
      <g id="Group_608" data-name="Group 608" transform="translate(0 0)">
        <path id="Path_29731" data-name="Path 29731" d="M37.114,7.947a5.632,5.632,0,0,0,.968-.433,4.2,4.2,0,0,0,.73-.576,4.066,4.066,0,0,0-5.75-5.75,4.206,4.206,0,0,0-.576.73,5.647,5.647,0,0,0-.433.967,4.245,4.245,0,0,1-.7,1.366.52.52,0,0,1-.114-.06c-1.107-.721-3.549-1.87-5.443-1.5l-.628-.628a2.917,2.917,0,0,0-4.748,3.2A5.367,5.367,0,0,0,16.283,6.82l-7.73,7.73a.781.781,0,0,0,1.1,1.1l4.386-4.386,2.78,2.78a.781.781,0,1,0,1.1-1.1l-2.78-2.78,2.239-2.239a3.816,3.816,0,0,1,5.4,0l9.289,9.289a3.816,3.816,0,0,1,0,5.4L16.98,37.706a2.506,2.506,0,0,1-3.54,0L2.294,26.56a2.506,2.506,0,0,1,0-3.54l3.595-3.595a.781.781,0,0,0-1.1-1.1L1.189,21.915a4.07,4.07,0,0,0,0,5.749L12.336,38.811a4.07,4.07,0,0,0,5.749,0L33.18,23.717a5.367,5.367,0,0,0,1.561-4.136,2.917,2.917,0,0,0,3.2-4.748l-.628-.628c.366-1.894-.784-4.336-1.5-5.443a.521.521,0,0,1-.06-.114A4.245,4.245,0,0,1,37.114,7.947Zm-1.225,7.044h0l.946.946a1.353,1.353,0,1,1-1.914,1.914L22.149,5.079a1.353,1.353,0,0,1,1.914-1.914l.946.946h0ZM34.5,9.614a8.929,8.929,0,0,1,1.244,3.021L27.366,4.258A8.925,8.925,0,0,1,30.386,5.5a1.631,1.631,0,0,0,1.437.244c.927-.3,1.35-1.412,1.69-2.3a5.412,5.412,0,0,1,.292-.687,2.67,2.67,0,0,1,.361-.462,2.5,2.5,0,0,1,3.54,3.54,2.66,2.66,0,0,1-.462.361,5.413,5.413,0,0,1-.688.292c-.892.34-2,.763-2.3,1.69A1.631,1.631,0,0,0,34.5,9.614Z" transform="translate(0 0)" />
      </g>
    </g>
    <g id="Group_611" data-name="Group 611" transform="translate(24.654 18.202)">
      <g id="Group_610" data-name="Group 610">
        <path id="Path_29732" data-name="Path 29732" d="M319.715,236.136l-3.227-3.227A.774.774,0,0,0,315.393,234l3.227,3.227a.774.774,0,1,0,1.095-1.095Z" transform="translate(-315.166 -232.682)" />
      </g>
    </g>
    <g id="Group_613" data-name="Group 613" transform="translate(20.934 21.922)">
      <g id="Group_612" data-name="Group 612">
        <path id="Path_29733" data-name="Path 29733" d="M272.155,283.7l-3.227-3.227a.774.774,0,0,0-1.095,1.095l3.227,3.227a.774.774,0,1,0,1.095-1.095Z" transform="translate(-267.606 -280.242)" />
      </g>
    </g>
    <g id="Group_615" data-name="Group 615" transform="translate(17.214 25.643)">
      <g id="Group_614" data-name="Group 614">
        <path id="Path_29734" data-name="Path 29734" d="M224.6,331.255l-3.227-3.227a.774.774,0,0,0-1.095,1.095l3.227,3.227a.774.774,0,1,0,1.095-1.095Z" transform="translate(-220.047 -327.801)" />
      </g>
    </g>
    <g id="Group_617" data-name="Group 617" transform="translate(13.493 29.425)">
      <g id="Group_616" data-name="Group 616">
        <path id="Path_29735" data-name="Path 29735" d="M177.036,378.815l-3.227-3.227a.774.774,0,1,0-1.095,1.095l3.227,3.227a.774.774,0,1,0,1.095-1.095Z" transform="translate(-172.487 -375.361)" />
      </g>
    </g>
    <g id="Group_619" data-name="Group 619" transform="translate(19.226 15.345)">
      <g id="Group_618" data-name="Group 618">
        <path id="Path_29736" data-name="Path 29736" d="M247.321,196.56a.775.775,0,1,0,.227.548A.779.779,0,0,0,247.321,196.56Z" transform="translate(-246 -196.334)" />
      </g>
    </g>
  </g>
    </symbol>
  </defs>
</svg>
