<svg style="position: absolute; width: 0; height: 0; overflow: hidden;" version="1.1" xmlns="http://www.w3.org/2000/svg">
  <defs>
    <symbol id="mom1" viewBox="0 0 40 40">
      <title></title>
      <g id="care" transform="translate(0 -39.568)">
          <g id="Group_551" data-name="Group 551" transform="translate(0 58.952)">
            <g id="Group_550" data-name="Group 550">
              <path id="Path_29700" data-name="Path 29700" d="M23.287,292.776H20.33a.762.762,0,1,0,0,1.524h2.957a.828.828,0,1,1,0,1.655h-7.96a4,4,0,0,1-3.087-1.447l-1.9-2.288a5.522,5.522,0,0,0-4.1-1.992v-4.5H9.044a5.286,5.286,0,0,1,3.689,1.49l4.108,3.966a.749.749,0,0,1-1.026,1.091l-3.226-2.957a.762.762,0,0,0-1.03,1.123l3.226,2.957a2.273,2.273,0,0,0,3.114-3.31l-4.108-3.966A6.8,6.8,0,0,0,9.044,284.2H6.09a1.892,1.892,0,0,0-1.741-1.156H.762a.762.762,0,0,0-.762.762v5.572a.762.762,0,1,0,1.524,0v-4.81H4.349a.365.365,0,0,1,.365.365v6.108a.365.365,0,0,1-.365.365H3.558a.762.762,0,1,0,0,1.524h.791A1.892,1.892,0,0,0,6.1,291.748a4,4,0,0,1,3.064,1.447l1.9,2.288a5.524,5.524,0,0,0,4.258,2h7.96a2.352,2.352,0,0,0,0-4.7Z" transform="translate(0 -283.046)"  />
            </g>
          </g>
          <g id="Group_553" data-name="Group 553" transform="translate(14.362 39.568)">
            <g id="Group_552" data-name="Group 552" transform="translate(0 0)">
              <path id="Path_29701" data-name="Path 29701" d="M200.466,46.607a.762.762,0,0,0-.762.762v5.108h-2.825a.365.365,0,0,1-.365-.365V46a.365.365,0,0,1,.365-.365h.736a.762.762,0,1,0,0-1.524h-.736a1.891,1.891,0,0,0-1.752,1.184,4,4,0,0,1-3.064-1.447l-1.9-2.288a5.524,5.524,0,0,0-4.259-2h-7.96a2.352,2.352,0,1,0,0,4.7H181.2a.762.762,0,0,0,0-1.524h-3.255a.828.828,0,1,1,0-1.655h7.96a4,4,0,0,1,3.087,1.447l1.9,2.288a5.522,5.522,0,0,0,4.1,1.992v4.5h-2.806a5.286,5.286,0,0,1-3.689-1.49l-4.108-3.966a.749.749,0,0,1,1.026-1.091l3.226,2.957a.762.762,0,1,0,1.03-1.123l-3.226-2.957a2.273,2.273,0,0,0-3.114,3.31l4.108,3.966a6.8,6.8,0,0,0,4.748,1.918h2.954A1.892,1.892,0,0,0,196.879,54h3.587a.762.762,0,0,0,.762-.762v-5.87A.762.762,0,0,0,200.466,46.607Z" transform="translate(-175.59 -39.568)"  />
            </g>
          </g>
          <g id="Group_555" data-name="Group 555" transform="translate(23.744 65.707)">
            <g id="Group_554" data-name="Group 554" transform="translate(0 0)">
              <path id="Path_29702" data-name="Path 29702" d="M305.082,374.2a.77.77,0,1,0-.4,1.016l.016-.007A.763.763,0,0,0,305.082,374.2Z" transform="translate(-303.617 -373.752)"  />
            </g>
          </g>
          <g id="Group_557" data-name="Group 557" transform="translate(25.776 64.534)">
            <g id="Group_556" data-name="Group 556">
              <path id="Path_29703" data-name="Path 29703" d="M330.982,359.066a.765.765,0,1,0-.166,1.069l.01-.007A.759.759,0,0,0,330.982,359.066Z" transform="translate(-329.603 -358.757)"  />
            </g>
          </g>
          <g id="Group_559" data-name="Group 559" transform="translate(21.507 66.426)">
            <g id="Group_558" data-name="Group 558" transform="translate(0 0)">
              <path id="Path_29704" data-name="Path 29704" d="M276.531,383.544a.769.769,0,1,0-.609.908l.022,0A.761.761,0,0,0,276.531,383.544Z" transform="translate(-275.016 -382.94)"  />
            </g>
          </g>
          <g id="Group_561" data-name="Group 561" transform="translate(27.513 62.949)">
            <g id="Group_560" data-name="Group 560">
              <path id="Path_29705" data-name="Path 29705" d="M353.1,338.683a.762.762,0,0,0-1.076.055l-.016.018a.762.762,0,1,0,1.092-.074Zm-.426.643-.085-.077.092.083Z" transform="translate(-351.819 -338.487)"  />
            </g>
          </g>
          <g id="Group_563" data-name="Group 563" transform="translate(29.804 58.878)">
            <g id="Group_562" data-name="Group 562" transform="translate(0 0)">
              <path id="Path_29706" data-name="Path 29706" d="M382.094,286.475a.765.765,0,1,0,.506.959l0-.01A.76.76,0,0,0,382.094,286.475Z" transform="translate(-381.109 -286.443)"  />
            </g>
          </g>
          <g id="Group_565" data-name="Group 565" transform="translate(30.263 54.224)">
            <g id="Group_564" data-name="Group 564">
              <path id="Path_29707" data-name="Path 29707" d="M388.493,227.574c0-.01,0-.019-.006-.029a.767.767,0,1,0,.006.029Z" transform="translate(-386.979 -226.939)"  />
            </g>
          </g>
          <g id="Group_567" data-name="Group 567" transform="translate(30.247 56.569)">
            <g id="Group_566" data-name="Group 566">
              <path id="Path_29708" data-name="Path 29708" d="M387.613,256.926a.763.763,0,0,0-.826.692c0,.007,0,.022,0,.03a.762.762,0,0,0,.716.805h.045a.766.766,0,0,0,.067-1.529Z" transform="translate(-386.783 -256.923)"  />
            </g>
          </g>
          <g id="Group_569" data-name="Group 569" transform="translate(28.877 61.035)">
            <g id="Group_568" data-name="Group 568">
              <path id="Path_29709" data-name="Path 29709" d="M370.4,314.123a.762.762,0,0,0-1.039.287l-.011.019a.763.763,0,0,0,.67,1.13.756.756,0,0,0,.666-.4l-.662-.377.663.376A.762.762,0,0,0,370.4,314.123Z" transform="translate(-369.259 -314.024)"  />
            </g>
          </g>
          <g id="Group_571" data-name="Group 571" transform="translate(14.381 45.81)">
            <g id="Group_570" data-name="Group 570">
              <path id="Path_29710" data-name="Path 29710" d="M185.346,119.791a.762.762,0,0,0-1.022-.341l-.007,0a.762.762,0,1,0,1.029.337Z" transform="translate(-183.898 -119.37)"  />
            </g>
          </g>
          <g id="Group_573" data-name="Group 573" transform="translate(16.578 44.992)">
            <g id="Group_572" data-name="Group 572" transform="translate(0 0)">
              <path id="Path_29711" data-name="Path 29711" d="M213.5,109.5a.762.762,0,0,0-.92-.561l-.018,0a.762.762,0,1,0,.938.557Z" transform="translate(-211.987 -108.918)"  />
            </g>
          </g>
          <g id="Group_575" data-name="Group 575" transform="translate(12.403 47.079)">
            <g id="Group_574" data-name="Group 574" transform="translate(0 0)">
              <path id="Path_29712" data-name="Path 29712" d="M159.96,135.878a.763.763,0,0,0-1.071-.116l.472.6-.475-.6a.762.762,0,0,0,.949,1.192l.01-.008A.761.761,0,0,0,159.96,135.878Z" transform="translate(-158.599 -135.595)"  />
            </g>
          </g>
          <g id="Group_577" data-name="Group 577" transform="translate(8.64 52.907)">
            <g id="Group_576" data-name="Group 576">
              <path id="Path_29713" data-name="Path 29713" d="M111.451,210.133a.762.762,0,0,0-.936.535l-.007.028a.762.762,0,1,0,.943-.563Z" transform="translate(-110.487 -210.106)"  />
            </g>
          </g>
          <g id="Group_579" data-name="Group 579" transform="translate(8.304 55.232)">
            <g id="Group_578" data-name="Group 578" transform="translate(0 0)">
              <path id="Path_29714" data-name="Path 29714" d="M107,239.825a.762.762,0,0,0-.8.717c0,.01,0,.02,0,.029a.762.762,0,0,0,.739.783h.023a.766.766,0,0,0,.044-1.53Z" transform="translate(-106.191 -239.824)"  />
            </g>
          </g>
          <g id="Group_581" data-name="Group 581" transform="translate(9.465 50.708)">
            <g id="Group_580" data-name="Group 580" transform="translate(0 0)">
              <path id="Path_29715" data-name="Path 29715" d="M122.156,182.077a.762.762,0,0,0-1.029.321l-.012.025a.762.762,0,1,0,1.041-.345Z" transform="translate(-121.037 -181.989)"  />
            </g>
          </g>
          <g id="Group_583" data-name="Group 583" transform="translate(10.74 48.736)">
            <g id="Group_582" data-name="Group 582">
              <path id="Path_29716" data-name="Path 29716" d="M138.593,156.949a.762.762,0,0,0-1.073.1l-.016.019a.762.762,0,1,0,1.089-.119Z" transform="translate(-137.339 -156.773)"  />
            </g>
          </g>
          <g id="Group_585" data-name="Group 585" transform="translate(8.464 57.575)">
            <g id="Group_584" data-name="Group 584" transform="translate(0 0)">
              <path id="Path_29717" data-name="Path 29717" d="M109.742,270.418a.762.762,0,0,0-1.5.269v.007a.758.758,0,0,0,.747.624.763.763,0,0,0,.752-.9Z" transform="translate(-108.23 -269.791)"  />
            </g>
          </g>
          <g id="Group_587" data-name="Group 587" transform="translate(13.948 52.401)">
            <g id="Group_586" data-name="Group 586" transform="translate(0 0)">
              <path id="Path_29718" data-name="Path 29718" d="M185.236,202.125a3.529,3.529,0,0,0-2.566,1.1,3.539,3.539,0,1,0-4.831,5.158l.015.012,4.343,3.438a.762.762,0,0,0,.948,0l4.527-3.606a.754.754,0,0,0,.063-.056,3.539,3.539,0,0,0-2.5-6.044Zm1.45,4.937-4.017,3.2-3.86-3.056a2.015,2.015,0,1,1,3.158-2.313.762.762,0,0,0,1.408,0,2.015,2.015,0,1,1,3.312,2.169Z" transform="translate(-176.566 -202.125)"  />
            </g>
          </g>
          <g id="Group_589" data-name="Group 589" transform="translate(0.003 67.316)">
            <g id="Group_588" data-name="Group 588" transform="translate(0 0)">
              <circle id="Ellipse_743" data-name="Ellipse 743" cx="0.759" cy="0.759" r="0.759"  />
            </g>
          </g>
          <g id="Group_591" data-name="Group 591" transform="translate(38.478 44.118)">
            <g id="Group_590" data-name="Group 590" transform="translate(0 0)">
              <circle id="Ellipse_744" data-name="Ellipse 744" cx="0.759" cy="0.759" r="0.759"  />
            </g>
          </g>
        </g>
    
    </symbol>

    <symbol id="mom2" viewBox="0 0 29 50">
      <title></title>
     <g id="maternity" transform="translate(-103.834)">
        <g id="Group_593" data-name="Group 593" transform="translate(113.241 33.51)">
          <g id="Group_592" data-name="Group 592" transform="translate(0)">
            <path id="Path_29719" data-name="Path 29719" d="M208.486,346.5a3.5,3.5,0,0,0-1.847.531,3.5,3.5,0,0,0-1.847-.531,3.578,3.578,0,0,0-3.541,3.606c0,1.128.814,2.486,2.49,4.151a26.21,26.21,0,0,0,2.293,2.016,1,1,0,0,0,1.211,0,26.191,26.191,0,0,0,2.293-2.016c1.675-1.666,2.49-3.024,2.49-4.151A3.578,3.578,0,0,0,208.486,346.5Zm-1.848,7.706c-1.734-1.437-3.393-3.283-3.393-4.1a1.582,1.582,0,0,1,1.546-1.611,1.5,1.5,0,0,1,1.114.5,1,1,0,0,0,1.466,0,1.5,1.5,0,0,1,1.115-.5,1.581,1.581,0,0,1,1.546,1.611C210.032,350.925,208.373,352.771,206.639,354.21Z" transform="translate(-201.251 -346.504)" />
          </g>
        </g>
        <g id="Group_595" data-name="Group 595" transform="translate(103.834 15.525)">
          <g id="Group_594" data-name="Group 594" transform="translate(0)">
            <path id="Path_29720" data-name="Path 29720" d="M117.608,176.332a2.684,2.684,0,0,0-2.173-.685,10.41,10.41,0,0,0-7.015,4.544,1,1,0,0,0,1.713,1.022,8.433,8.433,0,0,1,5.606-3.594.778.778,0,0,1,.566.224,1.749,1.749,0,0,1,.595,1.229.933.933,0,0,1-.635.883,8.207,8.207,0,0,0-3.806,2.182l-3.819,4.753a1.851,1.851,0,0,1-1.488.743.734.734,0,0,1-.563-.256c-.959-1.048-.769-4.464-.688-5.923.013-.225.024-.429.031-.606.391-9.011,3.9-11.578,9.448-12.8l.343-.076a1,1,0,0,0-.429-1.948l-.343.076c-3.685.811-6.211,2.2-7.951,4.382-1.887,2.363-2.86,5.629-3.061,10.278-.007.17-.018.365-.03.582-.154,2.764-.2,5.842,1.208,7.38a2.734,2.734,0,0,0,1.969.9l.12,0q.1,0,.209-.006a10.916,10.916,0,0,0,1.1,4.639,1,1,0,0,0,1.794-.871,8.946,8.946,0,0,1-.9-3.941v-.553a4.176,4.176,0,0,0,.788-.756l3.819-4.753a6.824,6.824,0,0,1,2.881-1.538,2.928,2.928,0,0,0,2-2.765A3.719,3.719,0,0,0,117.608,176.332Z" transform="translate(-103.834 -166.002)" />
          </g>
        </g>
        <g id="Group_597" data-name="Group 597" transform="translate(110.001 44.846)">
          <g id="Group_596" data-name="Group 596" transform="translate(0)">
            <path id="Path_29721" data-name="Path 29721" d="M168.827,460.617l-.026-.027a1,1,0,0,0-1.456,1.363l.043.045a1,1,0,0,0,1.439-1.381Z" transform="translate(-167.076 -460.274)" />
          </g>
        </g>
        <g id="Group_599" data-name="Group 599" transform="translate(121.395 16.178)">
          <g id="Group_598" data-name="Group 598" transform="translate(0)">
            <path id="Path_29722" data-name="Path 29722" d="M290.577,167.934a15.01,15.01,0,0,0-4.716-1.971,1,1,0,0,0-.446,1.944,13.023,13.023,0,0,1,4.091,1.71,1,1,0,0,0,1.071-1.683Z" transform="translate(-284.64 -165.938)" />
          </g>
        </g>
        <g id="Group_601" data-name="Group 601" transform="translate(128.209 20.048)">
          <g id="Group_600" data-name="Group 600">
            <path id="Path_29723" data-name="Path 29723" d="M356.285,205.83l-.053-.055a1,1,0,1,0-1.435,1.385l.045.046a1,1,0,0,0,1.443-1.377Z" transform="translate(-354.517 -205.47)" />
          </g>
        </g>
        <g id="Group_603" data-name="Group 603" transform="translate(112.164 22.063)">
          <g id="Group_602" data-name="Group 602" transform="translate(0)">
            <path id="Path_29724" data-name="Path 29724" d="M213.531,232.381a1,1,0,0,0-1.737.981c1.006,1.782,1.086,3.871,1.086,6.417v3.039c0,3.509-.8,8.438-4.632,11.991a11.113,11.113,0,0,1-3.9,1.906l-.2.052a1.592,1.592,0,0,1-.766-3.087,9.781,9.781,0,0,0,3.781-1.823c2.633-2.444,2.5-6.226,2.377-9.563-.026-.719-.05-1.4-.05-2.065a1,1,0,0,0-.022-.208,3.762,3.762,0,0,0,.41-1.19c.3-1.861-.906-3.433-1.876-4.7a5.462,5.462,0,0,1-.969-1.522,1,1,0,0,0-1.995,0,4.91,4.91,0,0,0,1.381,2.737c.775,1.009,1.653,2.153,1.49,3.163a3.371,3.371,0,0,1-1.652,2,1,1,0,1,0,1.117,1.652c.055-.037.108-.075.162-.113,0,.106.007.211.011.316.11,3.052.224,6.207-1.74,8.03a8.294,8.294,0,0,1-2.99,1.372A3.589,3.589,0,0,0,201,257.4a16.055,16.055,0,0,1-1.841.159,9.051,9.051,0,0,1-4.211-1.039,1,1,0,0,0-.931,1.764,11.054,11.054,0,0,0,5.142,1.27,23.534,23.534,0,0,0,5.477-.85c.068-.016.135-.035.2-.054l.062-.017.015,0,.027-.008a12.764,12.764,0,0,0,4.663-2.35c3.448-3.2,5.27-7.852,5.27-13.453V239.78C214.875,237.034,214.774,234.582,213.531,232.381Z" transform="translate(-193.486 -231.618)" />
          </g>
        </g>
        <g id="Group_605" data-name="Group 605" transform="translate(109.071)">
          <g id="Group_604" data-name="Group 604" transform="translate(0)">
            <path id="Path_29725" data-name="Path 29725" d="M168.567,0a7.691,7.691,0,0,0-3.217.7,4.1,4.1,0,0,0-4.742,6.69.991.991,0,0,0,.225.126c0,.074-.006.147-.006.221V8.965a7.74,7.74,0,1,0,15.479,0V7.74A7.748,7.748,0,0,0,168.567,0Zm-7.2,2.845a2.108,2.108,0,0,1,2-.827,7.761,7.761,0,0,0-2.1,3.181A2.109,2.109,0,0,1,161.364,2.845Zm7.2,11.866a5.752,5.752,0,0,1-5.708-5.1c1.5-.113,4.748-.578,6.9-2.495a8.221,8.221,0,0,0,4.52,2.44A5.753,5.753,0,0,1,168.567,14.71Zm2.147-9.663a1,1,0,0,0-1.664-.091c-1.494,2.02-4.739,2.526-6.225,2.652a5.743,5.743,0,0,1,11.481-.088A5.658,5.658,0,0,1,170.714,5.047Z" transform="translate(-158.955)" />
          </g>
        </g>
      </g>
    </symbol>

    <symbol id="mom3" viewBox="0 0 40 40">
      <path id="Path_29726" data-name="Path 29726" d="M106.781,166a.781.781,0,1,0,.781.781A.782.782,0,0,0,106.781,166Zm0,0" transform="translate(-97.719 -153.031)" />
      <path id="Path_29727" data-name="Path 29727" d="M2.344,40H37.656A2.346,2.346,0,0,0,40,37.656V5.469a2.346,2.346,0,0,0-2.344-2.344h-1.25V2.344a2.344,2.344,0,0,0-4.688,0v.781H27.031V2.344a2.344,2.344,0,1,0-4.687,0v.781H17.656V2.344a2.344,2.344,0,1,0-4.687,0v.781H8.281V2.344a2.344,2.344,0,1,0-4.687,0v.781H2.344A2.346,2.346,0,0,0,0,5.469V37.656A2.346,2.346,0,0,0,2.344,40Zm35.313-1.562H2.344a.782.782,0,0,1-.781-.781V11.406H38.438v26.25A.782.782,0,0,1,37.656,38.438ZM33.281,2.344a.781.781,0,0,1,1.563,0v.781H33.281Zm-9.375,0a.781.781,0,0,1,1.563,0v.781H23.906Zm-9.375,0a.781.781,0,1,1,1.562,0v.781H14.531Zm-9.375,0a.781.781,0,0,1,1.563,0v.781H5.156ZM2.344,4.688h1.25V5.7A2.346,2.346,0,0,0,5.938,8.047a.781.781,0,1,0,0-1.562A.782.782,0,0,1,5.156,5.7V4.688h7.813V5.7a2.346,2.346,0,0,0,2.344,2.344.781.781,0,0,0,0-1.562.782.782,0,0,1-.781-.781V4.688h7.813V5.7a2.346,2.346,0,0,0,2.344,2.344.781.781,0,1,0,0-1.562.782.782,0,0,1-.781-.781V4.688h7.812V5.7a2.346,2.346,0,0,0,2.344,2.344.781.781,0,1,0,0-1.562.782.782,0,0,1-.781-.781V4.688h4.375a.782.782,0,0,1,.781.781V9.844H1.563V5.469A.782.782,0,0,1,2.344,4.688Zm0,0" transform="translate(0 0)" />
      <path id="Path_29728" data-name="Path 29728" d="M165.537,166H146.781a.781.781,0,0,0,0,1.563h18.755a.781.781,0,1,0,0-1.563Zm0,0" transform="translate(-134.597 -153.031)" />
      <path id="Path_29729" data-name="Path 29729" d="M157.065,236a4.613,4.613,0,0,0-3.968,2.371A4.613,4.613,0,0,0,149.129,236a4.85,4.85,0,0,0-4.75,5.089c0,3.64,3.384,5.861,8.206,10.04a.782.782,0,0,0,1.024,0c4.591-3.98,8.206-6.346,8.206-10.04A4.852,4.852,0,0,0,157.065,236ZM153.1,249.507c-4.368-3.746-7.155-5.7-7.155-8.418a3.3,3.3,0,0,1,3.187-3.526c2.374,0,3.183,2.752,3.215,2.866a.781.781,0,0,0,1.506,0c.008-.028.821-2.866,3.215-2.866a3.3,3.3,0,0,1,3.187,3.526C160.252,243.817,157.407,245.811,153.1,249.507Zm0,0" transform="translate(-133.102 -217.566)" />
    </symbol>
    <symbol id="mom4" viewBox="0 0 40 40">
       <g id="milk-bottle" transform="translate(0 0)">
        <g id="Group_607" data-name="Group 607" transform="translate(6.521 16.135)">
          <g id="Group_606" data-name="Group 606">
            <path id="Path_29730" data-name="Path 29730" d="M84.754,206.671a.775.775,0,1,0,.227.548A.779.779,0,0,0,84.754,206.671Z" transform="translate(-83.433 -206.445)" />
          </g>
        </g>
        <g id="Group_609" data-name="Group 609" transform="translate(0 0)">
          <g id="Group_608" data-name="Group 608" transform="translate(0 0)">
            <path id="Path_29731" data-name="Path 29731" d="M37.114,7.947a5.632,5.632,0,0,0,.968-.433,4.2,4.2,0,0,0,.73-.576,4.066,4.066,0,0,0-5.75-5.75,4.206,4.206,0,0,0-.576.73,5.647,5.647,0,0,0-.433.967,4.245,4.245,0,0,1-.7,1.366.52.52,0,0,1-.114-.06c-1.107-.721-3.549-1.87-5.443-1.5l-.628-.628a2.917,2.917,0,0,0-4.748,3.2A5.367,5.367,0,0,0,16.283,6.82l-7.73,7.73a.781.781,0,0,0,1.1,1.1l4.386-4.386,2.78,2.78a.781.781,0,1,0,1.1-1.1l-2.78-2.78,2.239-2.239a3.816,3.816,0,0,1,5.4,0l9.289,9.289a3.816,3.816,0,0,1,0,5.4L16.98,37.706a2.506,2.506,0,0,1-3.54,0L2.294,26.56a2.506,2.506,0,0,1,0-3.54l3.595-3.595a.781.781,0,0,0-1.1-1.1L1.189,21.915a4.07,4.07,0,0,0,0,5.749L12.336,38.811a4.07,4.07,0,0,0,5.749,0L33.18,23.717a5.367,5.367,0,0,0,1.561-4.136,2.917,2.917,0,0,0,3.2-4.748l-.628-.628c.366-1.894-.784-4.336-1.5-5.443a.521.521,0,0,1-.06-.114A4.245,4.245,0,0,1,37.114,7.947Zm-1.225,7.044h0l.946.946a1.353,1.353,0,1,1-1.914,1.914L22.149,5.079a1.353,1.353,0,0,1,1.914-1.914l.946.946h0ZM34.5,9.614a8.929,8.929,0,0,1,1.244,3.021L27.366,4.258A8.925,8.925,0,0,1,30.386,5.5a1.631,1.631,0,0,0,1.437.244c.927-.3,1.35-1.412,1.69-2.3a5.412,5.412,0,0,1,.292-.687,2.67,2.67,0,0,1,.361-.462,2.5,2.5,0,0,1,3.54,3.54,2.66,2.66,0,0,1-.462.361,5.413,5.413,0,0,1-.688.292c-.892.34-2,.763-2.3,1.69A1.631,1.631,0,0,0,34.5,9.614Z" transform="translate(0 0)" />
          </g>
        </g>
        <g id="Group_611" data-name="Group 611" transform="translate(24.654 18.202)">
          <g id="Group_610" data-name="Group 610">
            <path id="Path_29732" data-name="Path 29732" d="M319.715,236.136l-3.227-3.227A.774.774,0,0,0,315.393,234l3.227,3.227a.774.774,0,1,0,1.095-1.095Z" transform="translate(-315.166 -232.682)" />
          </g>
        </g>
        <g id="Group_613" data-name="Group 613" transform="translate(20.934 21.922)">
          <g id="Group_612" data-name="Group 612">
            <path id="Path_29733" data-name="Path 29733" d="M272.155,283.7l-3.227-3.227a.774.774,0,0,0-1.095,1.095l3.227,3.227a.774.774,0,1,0,1.095-1.095Z" transform="translate(-267.606 -280.242)" />
          </g>
        </g>
        <g id="Group_615" data-name="Group 615" transform="translate(17.214 25.643)">
          <g id="Group_614" data-name="Group 614">
            <path id="Path_29734" data-name="Path 29734" d="M224.6,331.255l-3.227-3.227a.774.774,0,0,0-1.095,1.095l3.227,3.227a.774.774,0,1,0,1.095-1.095Z" transform="translate(-220.047 -327.801)" />
          </g>
        </g>
        <g id="Group_617" data-name="Group 617" transform="translate(13.493 29.425)">
          <g id="Group_616" data-name="Group 616">
            <path id="Path_29735" data-name="Path 29735" d="M177.036,378.815l-3.227-3.227a.774.774,0,1,0-1.095,1.095l3.227,3.227a.774.774,0,1,0,1.095-1.095Z" transform="translate(-172.487 -375.361)" />
          </g>
        </g>
        <g id="Group_619" data-name="Group 619" transform="translate(19.226 15.345)">
          <g id="Group_618" data-name="Group 618">
            <path id="Path_29736" data-name="Path 29736" d="M247.321,196.56a.775.775,0,1,0,.227.548A.779.779,0,0,0,247.321,196.56Z" transform="translate(-246 -196.334)" />
          </g>
        </g>
      </g>
    </symbol>
    
    <symbol id="chuyemuckhac" viewBox="0 0 50 50">
        <path id="Path_29780" data-name="Path 29780" d="M48.983,0H1.017A1.018,1.018,0,0,0,0,1.017V48.983A1.018,1.018,0,0,0,1.017,50H41.789a1.017,1.017,0,0,0,0-2.035H2.035V2.035h45.93V48.983a1.017,1.017,0,1,0,2.035,0V1.017A1.018,1.018,0,0,0,48.983,0Z" />
        <path id="Path_29781" data-name="Path 29781" d="M46.65,62.421a3.835,3.835,0,1,0,3.835,3.835A3.839,3.839,0,0,0,46.65,62.421Zm0,5.669a1.834,1.834,0,1,1,1.834-1.834A1.836,1.836,0,0,1,46.65,68.09Z" transform="translate(-35.677 -51.803)" />
        <path id="Path_29782" data-name="Path 29782" d="M125.157,79.421H101.815a1,1,0,0,0,0,2h23.342a1,1,0,1,0,0-2Z" transform="translate(-83.164 -65.943)" />
        <path id="Path_29783" data-name="Path 29783" d="M46.65,124.421a1,1,0,1,0,0,2,1.834,1.834,0,1,1-1.834,1.834,1,1,0,1,0-2,0,3.835,3.835,0,1,0,3.835-3.835Z" transform="translate(-35.677 -103.256)" />
        <path id="Path_29784" data-name="Path 29784" d="M125.157,141.421H101.815a1,1,0,1,0,0,2h23.342a1,1,0,1,0,0-2Z" transform="translate(-83.164 -117.421)" />
        <path id="Path_29785" data-name="Path 29785" d="M46.65,186.421a3.835,3.835,0,1,0,3.835,3.835A3.839,3.839,0,0,0,46.65,186.421Zm0,5.669a1.834,1.834,0,1,1,1.834-1.834A1.836,1.836,0,0,1,46.65,192.09Z" transform="translate(-35.677 -154.709)" />
        <path id="Path_29786" data-name="Path 29786" d="M125.157,203.421H101.815a1,1,0,1,0,0,2h23.342a1,1,0,1,0,0-2Z" transform="translate(-83.164 -168.9)" />
    </symbol>

  
     <symbol  viewBox="0 0 18.355 24" id="ic-phattrienbenvung-1">
        <path d="M13.659 10.129a.488.488 0 1 0 .488-.488.488.488 0 0 0-.488.488z"  ></path>
        <path d="M1.4 24h15.551a1.407 1.407 0 0 0 1.4-1.406V4.219a1.407 1.407 0 0 0-1.4-1.406h-2.342v-.469a.469.469 0 0 0-.468-.469h-2.314a2.809 2.809 0 0 0-5.3 0H4.214a.469.469 0 0 0-.468.469v.469H1.4A1.407 1.407 0 0 0 0 4.219v18.375A1.407 1.407 0 0 0 1.4 24zM4.682 2.813h2.2a.468.468 0 0 0 .459-.376 1.873 1.873 0 0 1 3.671 0 .468.468 0 0 0 .459.376h2.2v.937H4.682zM.936 4.219A.469.469 0 0 1 1.4 3.75h2.346v.469a.469.469 0 0 0 .468.469h9.927a.469.469 0 0 0 .468-.469V3.75h2.341a.469.469 0 0 1 .468.469v18.375a.469.469 0 0 1-.468.469H1.4a.469.469 0 0 1-.468-.469z"
           ></path>
        <path d="M3.914 10.522a.488.488 0 0 0 .689 0l1.95-1.95a.488.488 0 1 0-.69-.69L4.258 9.487l-.63-.63a.488.488 0 0 0-.69.69zm0 4.662a.487.487 0 0 0 .689 0l1.95-1.95a.488.488 0 1 0-.69-.69l-1.605 1.605-.63-.63a.488.488 0 1 0-.69.689zm.353 1.881a1.463 1.463 0 1 0 1.463 1.463 1.464 1.464 0 0 0-1.463-1.463zm0 1.95a.488.488 0 1 1 .488-.488.488.488 0 0 1-.488.488zM9.005 8.744h6.143a.488.488 0 1 0 0-.975H9.005a.488.488 0 1 0 0 .975zm.106 1.872h3.218a.488.488 0 1 0 0-.975H9.111a.488.488 0 1 0 0 .975zm-.106 2.807h6.143a.488.488 0 1 0 0-.975H9.005a.488.488 0 1 0 0 .975zm.075 1.872h4.193a.488.488 0 1 0 0-.975H9.08a.488.488 0 1 0 0 .975zm-.075 2.808h6.143a.488.488 0 1 0 0-.975H9.005a.488.488 0 1 0 0 .975zm.075 1.872h4.193a.488.488 0 1 0 0-.975H9.08a.488.488 0 1 0 0 .975z"
           ></path>
    </symbol>

    <symbol id="ic-phattrienbenvung-2" viewBox="0 0 25.151 24">
        <g>
          <path d="M12.492 23.999a6.5 6.5 0 0 1-2.563-.523l-3.878-1.665a14.85 14.85 0 0 0-4.409-1.135L.369 20.55a.407.407 0 0 1-.369-.4v-3.946a.4.4 0 0 1 .082-.243c.1-.126 2.378-3.071 5.864-2.3a14.905 14.905 0 0 1 4.519 1.836 4.6 4.6 0 0 0 2.41.666h3.878a1.868 1.868 0 0 1 1.584.873l3.34-3.8a3.558 3.558 0 0 1 2.816-1.377h.25a.411.411 0 0 1 .343.183.4.4 0 0 1 .032.384L22.1 19.2a5.365 5.365 0 0 1-3.6 3l-.531.131-3.091 1.222a6.5 6.5 0 0 1-2.386.446zM.82 19.781l.9.089a15.685 15.685 0 0 1 4.654 1.2l3.877 1.665a5.7 5.7 0 0 0 4.316.063l3.117-1.232a.428.428 0 0 1 .053-.017l.558-.138a4.541 4.541 0 0 0 3.045-2.537l2.755-6.185a2.746 2.746 0 0 0-1.787 1.048l-3.7 4.212v.047a1.853 1.853 0 0 1-1.863 1.84h-5.41a6.6 6.6 0 0 0-2.066.331l-.151-.378L9 19.404l.021-.007a7.419 7.419 0 0 1 2.323-.372h5.41a1.03 1.03 0 1 0 0-2.06h-3.88a5.431 5.431 0 0 1-2.842-.787 14.079 14.079 0 0 0-4.264-1.734 5.313 5.313 0 0 0-4.949 1.9v3.436zm15.34-8.223a4.752 4.752 0 0 1-2.09-.577.407.407 0 0 1-.2-.226 4.321 4.321 0 0 1 .395-3.708c.836-1.119 2.407-1.623 4.672-1.5a.4.4 0 0 1 .382.384c.008.161.175 3.956-1.76 5.219a2.5 2.5 0 0 1-1.399.408zm-1.573-1.226a2.567 2.567 0 0 0 2.53.145c1.147-.749 1.4-2.974 1.4-4.132-1.775-.043-2.984.357-3.6 1.187a3.4 3.4 0 0 0-.331 2.8zM9.851 6.163a3.789 3.789 0 0 1-2.269-.683C6.356 4.58 5.793 2.871 5.907.397a.405.405 0 0 1 .381-.385c.175-.01 4.321-.231 5.715 1.863.65.975.6 2.251-.158 3.795a.4.4 0 0 1-.224.2 5.591 5.591 0 0 1-1.77.293zm1.631-.673zM6.704.808c-.035 1.982.421 3.333 1.356 4.019a3.782 3.782 0 0 0 3.131.332 2.866 2.866 0 0 0 .138-2.836C10.476 1.043 7.976.793 6.704.808zm0 0"></path>
          <path d="M13.072 16.537h-.038a.4.4 0 0 1-.366-.423q.036-.714.12-1.356c.168-2.865.082-9.538-4.137-11.384a.405.405 0 1 1 .325-.742c2.486 1.088 4.05 3.8 4.522 7.831.042.362.074.718.1 1.065a7.64 7.64 0 0 1 2.912-3.856.403.403 0 0 1 .4.7c-.043.025-2.649 1.589-3.3 6.413-.05.825-.122 1.351-.128 1.4a.4.4 0 0 1-.41.352zm0 0"></path>
        </g>
    </symbol>
    <symbol id="ic-lichsu-1" viewBox="0 0 60 48">
        <g id="script" transform="translate(0 -53.51)">
            <g id="Group_214" data-name="Group 214" transform="translate(22.357 62.502)">
              <g id="Group_213" data-name="Group 213" transform="translate(0 0)">
                <path id="Path_25298" data-name="Path 25298" d="M212.694,130.3H193.61a.9.9,0,1,0,0,1.793h19.084a.9.9,0,1,0,0-1.793Z" transform="translate(-192.714 -130.296)"  />
              </g>
            </g>
            <g id="Group_216" data-name="Group 216" transform="translate(15.5 62.502)">
              <g id="Group_215" data-name="Group 215" transform="translate(0 0)">
                <path id="Path_25299" data-name="Path 25299" d="M136.405,130.3h-3.023a.9.9,0,0,0,0,1.793h3.023a.9.9,0,1,0,0-1.793Z" transform="translate(-132.486 -130.296)"  />
              </g>
            </g>
            <g id="Group_218" data-name="Group 218" transform="translate(15.458 89.44)">
              <g id="Group_217" data-name="Group 217" transform="translate(0 0)">
                <path id="Path_25300" data-name="Path 25300" d="M142.759,360.341h-9.377a.9.9,0,1,0,0,1.793h9.377a.9.9,0,0,0,0-1.793Z" transform="translate(-132.486 -360.341)"  />
              </g>
            </g>
            <g id="Group_220" data-name="Group 220" transform="translate(15.429 80.461)">
              <g id="Group_219" data-name="Group 219">
                <path id="Path_25301" data-name="Path 25301" d="M146.522,283.66H133.382a.9.9,0,0,0,0,1.793h13.139a.9.9,0,0,0,0-1.793Z" transform="translate(-132.486 -283.66)"  />
              </g>
            </g>
            <g id="Group_222" data-name="Group 222" transform="translate(15.365 71.481)">
              <g id="Group_221" data-name="Group 221" transform="translate(0 0)">
                <path id="Path_25302" data-name="Path 25302" d="M152.917,206.977H133.382a.9.9,0,0,0,0,1.793h19.535a.9.9,0,0,0,0-1.793Z" transform="translate(-132.486 -206.977)"  />
              </g>
            </g>
            <g id="Group_224" data-name="Group 224" transform="translate(0 53.51)">
              <g id="Group_223" data-name="Group 223" transform="translate(0 0)">
                <path id="Path_25303" data-name="Path 25303" d="M52.181,53.51H15.856a5.844,5.844,0,0,0-5.835,5.839V93.955H.878A.879.879,0,0,0,0,94.843a5.9,5.9,0,0,0,5.834,6.126H42.269A5.844,5.844,0,0,0,48.1,95.13V84.472a.879.879,0,1,0-1.758,0V95.13a4.083,4.083,0,0,1-4.077,4.08h-.111a4.175,4.175,0,0,1-4.076-4.384.879.879,0,0,0-.879-.871H11.779V59.349a4.083,4.083,0,0,1,4.077-4.08H48.01c-.026.026-.05.054-.075.081s-.062.065-.092.1-.062.071-.093.108-.059.069-.088.1-.058.074-.087.111-.056.072-.084.109-.055.076-.082.115-.054.075-.079.114-.051.078-.076.118-.05.078-.074.118-.047.081-.07.122-.047.081-.069.122-.043.083-.064.125-.043.083-.063.125-.039.086-.058.129-.039.085-.057.128-.035.088-.052.132-.035.087-.051.131-.031.091-.046.137-.03.088-.044.132-.027.095-.04.142-.026.088-.037.133-.023.1-.034.149-.021.087-.03.131-.019.1-.028.156-.016.086-.023.129-.015.112-.021.168c0,.041-.011.081-.015.121-.006.063-.01.126-.015.19,0,.035-.006.069-.008.1q-.007.148-.007.3v7.806a.879.879,0,1,0,1.758,0V60.524h9.041a.879.879,0,0,0,.879-.888A5.9,5.9,0,0,0,52.181,53.51Zm-15.8,42.2q.018.137.042.271c.005.03.011.059.017.089.011.059.022.118.035.177.007.035.016.069.024.1.012.053.024.105.038.157.009.036.02.073.03.109s.028.1.042.148.023.073.034.109.031.095.047.142.025.072.039.108.035.093.053.139.028.07.042.1.039.092.06.138.029.066.044.1c.022.048.046.1.069.143.015.029.028.059.043.088.029.055.058.11.089.164l.032.06q.063.11.13.217l.032.049c.035.054.07.109.106.162l.052.073c.031.044.063.088.1.132l.059.077c.031.04.063.081.1.12l.065.077q.048.057.1.113l.068.074.048.053H5.833a4.074,4.074,0,0,1-3.991-3.5Zm11.761-36.95c0-.006,0-.012,0-.018,0-.027.009-.053.013-.08s.013-.075.02-.112.012-.056.018-.085.016-.07.024-.1.015-.058.023-.087.018-.066.028-.1.018-.059.028-.088.021-.062.032-.093.021-.06.032-.089.023-.058.034-.087.025-.061.038-.091.024-.053.036-.08.029-.063.044-.094.023-.045.035-.068.034-.068.053-.1l.022-.038a4.086,4.086,0,0,1,.268-.415l0,0c.031-.042.064-.084.1-.125l.016-.02c.032-.04.065-.079.1-.117l.019-.022q.051-.058.1-.114l.018-.018q.056-.057.113-.113l.013-.012q.061-.058.124-.113l0,0a4.075,4.075,0,0,1,1.932-.936h0q.09-.017.181-.029h.011q.087-.012.175-.02l.027,0c.054,0,.108-.009.162-.011l.095,0,.1,0a4.074,4.074,0,0,1,3.991,3.5H48.147Z" transform="translate(0 -53.51)"  />
              </g>
            </g>
            <g id="Group_226" data-name="Group 226" transform="translate(30.974 68.561)">
              <g id="Group_225" data-name="Group 225" transform="translate(0 0)">
                <path id="Path_25304" data-name="Path 25304" d="M298.031,185.175c0-.01,0-.021,0-.031a.891.891,0,0,0-.044-.242s0-.008,0-.011l0-.009a.911.911,0,0,0-.049-.114l-.008-.013a.91.91,0,0,0-.059-.093l-.013-.019a.9.9,0,0,0-.077-.088l-.018-.018a.891.891,0,0,0-.082-.07l-.011-.009a.909.909,0,0,0-.1-.063l-.021-.011a.887.887,0,0,0-.111-.048h0a.917.917,0,0,0-.119-.031l-.027,0a.892.892,0,0,0-.124-.013c-7.5-.194-17.283,1.612-22.228,7.257-2.164,2.471-3.163,5.6-4.128,8.636q-.119.372-.238.744l-.01.032-1.515,5.381a.9.9,0,1,0,1.726.486l1.405-4.991a27.915,27.915,0,0,1,4.97-1.69c.969-.264,2.068-.562,3.4-.971,2.874-.884,8.387-4.582,10.925-7.328a61.275,61.275,0,0,1,6.244-5.968l.007-.007a.9.9,0,0,0,.089-.086l.005-.005a.888.888,0,0,0,.074-.1l.012-.019a.893.893,0,0,0,.1-.222l.006-.023a.888.888,0,0,0,.024-.119.044.044,0,0,0,0,0c0-.028.006-.056.006-.084C298.032,185.2,298.031,185.185,298.031,185.175Zm-21.751,7.549c2.087-2.382,5.285-4.178,9.506-5.337a35.158,35.158,0,0,1,3.569-.774,69.353,69.353,0,0,0-7.818,4.55,71.726,71.726,0,0,0-7.787,5.953A14.712,14.712,0,0,1,276.28,192.725Zm13.866-2.1c-2.47,2.672-7.8,6.114-10.135,6.831-1.3.4-2.385.695-3.341.955-.865.235-1.652.449-2.43.7.348-.333.756-.707,1.237-1.127a71.735,71.735,0,0,1,7.055-5.326,48.7,48.7,0,0,1,11.624-6.065C292.852,187.791,291.568,189.085,290.146,190.625Z" transform="translate(-269.006 -184.272)"  />
              </g>
            </g>
          </g>
    </symbol>
    <symbol id="ic-lichsu-2" viewBox="0 0 40 45.2">
       <g id="heart" transform="translate(-8.811 -6.892)">
        <path id="Path_29495" data-name="Path 29495" d="M108.521,71.573c.516-.631.992-1.264,1.423-1.9,2.713-3.989,3.365-7.544,1.838-10.01-1.671-2.7-5.713-3.627-11.132-2.578q-.25-.655-.524-1.274c-1.958-4.41-4.633-6.838-7.532-6.838-3.171,0-6.09,2.948-8.055,8.112q-.688-.133-1.358-.226c-4.776-.658-8.248.338-9.775,2.8-1.787,2.885-.6,7.2,3.26,11.907q-.773.946-1.422,1.9c-2.713,3.989-3.365,7.544-1.838,10.01,1.221,1.971,3.712,3,7.082,3a21.488,21.488,0,0,0,4.05-.422q.25.656.524,1.275c1.958,4.409,4.633,6.838,7.532,6.838,3.17,0,6.09-2.949,8.055-8.112q.688.133,1.358.225a19.987,19.987,0,0,0,2.718.2c3.375,0,5.836-1.032,7.057-3C113.565,80.6,112.375,76.275,108.521,71.573Zm2.022-11.14c1.188,1.919.531,4.988-1.8,8.422a32.4,32.4,0,0,1-5.836,6.314q.127-1.768.128-3.6c0-1.216-.044-2.416-.129-3.594q.973.827,1.869,1.689l1.011-1.05q-1.438-1.387-3.071-2.683a38.81,38.81,0,0,0-1.573-7.456C105.759,57.628,109.249,58.342,110.544,60.433ZM83.611,71.572a47.762,47.762,0,0,1,.244-4.868A47.97,47.97,0,0,1,87.86,63.93,47.469,47.469,0,0,1,92.6,61.349a48.491,48.491,0,0,1,8.734,5.355,48.7,48.7,0,0,1,0,9.736,47.97,47.97,0,0,1-4.005,2.773,47.48,47.48,0,0,1-4.738,2.581,48.478,48.478,0,0,1-8.734-5.355A48.105,48.105,0,0,1,83.611,71.572Zm8.982-21.14c2.255,0,4.515,2.177,6.2,5.972A32.428,32.428,0,0,1,101.08,64.7q-1.435-1.04-2.987-2c-1.243-.772-2.5-1.479-3.762-2.116,1.124-.472,2.24-.884,3.334-1.226l-.435-1.391A40.65,40.65,0,0,0,92.6,59.743a38.177,38.177,0,0,0-6.62-2.34C87.69,53.024,90.135,50.432,92.593,50.432Zm-17.95,10c1.188-1.919,4.227-2.694,8.339-2.128a31.966,31.966,0,0,1,7.882,2.269c-1.27.641-2.533,1.35-3.771,2.118q-1.548.961-2.984,2,.206-1.37.495-2.686l-1.422-.314a42.472,42.472,0,0,0-.707,4.24,39.861,39.861,0,0,0-4.844,4.513C74.368,66.391,73.249,62.683,74.643,60.433Zm0,22.278c-1.188-1.919-.531-4.988,1.8-8.422a26.12,26.12,0,0,1,1.694-2.213.724.724,0,0,0,.053-.062,36.05,36.05,0,0,1,4.089-4.039q-.127,1.768-.129,3.6c0,1.215.044,2.416.129,3.594q-.973-.827-1.868-1.689L79.4,74.526q1.439,1.387,3.071,2.683a38.809,38.809,0,0,0,1.573,7.456C79.429,85.516,75.937,84.8,74.643,82.711Zm17.95,10c-2.255,0-4.515-2.177-6.2-5.972a32.429,32.429,0,0,1-2.286-8.292q1.435,1.04,2.987,2c1.243.772,2.5,1.478,3.762,2.116-1.124.472-2.24.884-3.334,1.226l.435,1.391A40.656,40.656,0,0,0,92.589,83.4a38.177,38.177,0,0,0,6.62,2.34C97.5,90.119,95.051,92.711,92.593,92.711Zm17.95-10c-1.188,1.919-4.228,2.694-8.339,2.128a31.966,31.966,0,0,1-7.882-2.269c1.27-.641,2.533-1.35,3.771-2.118q1.548-.961,2.984-2-.206,1.37-.495,2.686l1.422.314a42.465,42.465,0,0,0,.707-4.24,39.867,39.867,0,0,0,4.844-4.513C110.816,76.75,111.935,80.465,110.544,82.711Z" transform="translate(-63.781 -42.082)"  />
        <path id="Path_29496" data-name="Path 29496" d="M209.845,211.89c-2.536-1.339-4.573,1.016-4.573,1.016s-2.036-2.355-4.573-1.016c-1.829.965-2.87,4.416,0,7.113a21.759,21.759,0,0,0,4.573,3.556A21.754,21.754,0,0,0,209.845,219C212.715,216.306,211.674,212.855,209.845,211.89Z" transform="translate(-176.485 -186.961)"  />
      </g>
    </symbol>
    <symbol id="ic-lichsu-3" viewBox="0 0 40 40">
       <g id="flasks" transform="translate(0 -0.015)">
        <path id="Path_29497" data-name="Path 29497" d="M225.991,43.631V33.837a1.919,1.919,0,0,0-.209-3.822h-8.359a1.919,1.919,0,0,0-.209,3.822v9.794a12.154,12.154,0,0,0-4.9,3.581.647.647,0,0,0,.077.9.619.619,0,0,0,.883-.079,10.881,10.881,0,0,1,4.771-3.353.638.638,0,0,0,.422-.6V33.849h3.553a.639.639,0,0,0,0-1.278h-4.6a.639.639,0,0,1,0-1.278h8.359a.639.639,0,0,1,0,1.278h-1.254a.639.639,0,0,0,0,1.278h.209V44.077a.638.638,0,0,0,.422.6A11.109,11.109,0,0,1,221.6,66.226a10.63,10.63,0,0,1-4.087-.811.623.623,0,0,0-.817.351.643.643,0,0,0,.345.833,11.857,11.857,0,0,0,4.559.9,12.393,12.393,0,0,0,4.389-23.873Z" transform="translate(-193.724 -27.492)"  />
        <circle id="Ellipse_722" data-name="Ellipse 722" cx="0.627" cy="0.627" r="0.627" transform="translate(31.797 29.296)"  />
        <circle id="Ellipse_723" data-name="Ellipse 723" cx="0.627" cy="0.627" r="0.627" transform="translate(29.242 31.851)"  />
        <path id="Path_29498" data-name="Path 29498" d="M229.124,276.459a.627.627,0,0,0-.532,1.136,9.616,9.616,0,0,0,12.4-13.517.626.626,0,0,0-.629-.307l-.228.032a.622.622,0,0,0-.085.018,4.817,4.817,0,0,0-1.87,1.009,2.124,2.124,0,0,1-1.623.607,2.069,2.069,0,0,1-1.538-.685,3.3,3.3,0,0,0-4.709,0,2.069,2.069,0,0,1-1.537.684,2.123,2.123,0,0,1-1.623-.607,4.817,4.817,0,0,0-1.869-1.009.615.615,0,0,0-.085-.018l-.228-.032a.626.626,0,0,0-.628.306l-.016.029a.627.627,0,0,0,.645.931h.01a3.59,3.59,0,0,1,1.386.769,3.5,3.5,0,0,0,4.762-.1,2.069,2.069,0,0,1,3.075,0,3.5,3.5,0,0,0,4.763.1,3.682,3.682,0,0,1,1.161-.7,8.362,8.362,0,0,1-11,11.347Z" transform="translate(-204.786 -240.994)"  />
        <path id="Path_29499" data-name="Path 29499" d="M15.133,16.506V3.832A1.905,1.905,0,0,0,16.8,1.93,1.9,1.9,0,0,0,14.924.015H6.564A1.9,1.9,0,0,0,4.684,1.93a1.905,1.905,0,0,0,1.672,1.9V14.06a.627.627,0,1,0,1.254,0V3.845h3.553a.638.638,0,0,0,0-1.277h-4.6a.638.638,0,0,1,0-1.277h8.359a.638.638,0,0,1,0,1.277H13.67a.638.638,0,0,0,0,1.277h.209V16.613a.648.648,0,0,0,.034.209l6.093,17.935a3.1,3.1,0,0,1-.234,2.829,2.981,2.981,0,0,1-2.55,1.15H4.266a2.981,2.981,0,0,1-2.55-1.15,3.1,3.1,0,0,1-.234-2.829L7.575,16.822a.641.641,0,0,0-.388-.812.624.624,0,0,0-.8.395L.3,34.34a4.357,4.357,0,0,0,.4,3.987,4.188,4.188,0,0,0,3.571,1.686H17.223a4.188,4.188,0,0,0,3.571-1.686,4.357,4.357,0,0,0,.4-3.987L15.133,16.506Z" transform="translate(0 0)"  />
        <path id="Path_29500" data-name="Path 29500" d="M32.917,335.6a.627.627,0,0,0-.977.29l-1.761,5.091a1.508,1.508,0,0,0,1.6,2.245H44.735a1.508,1.508,0,0,0,1.6-2.245l-1.761-5.091a.627.627,0,0,0-.977-.29,2.012,2.012,0,0,1-1.448.468,2.069,2.069,0,0,1-1.538-.685,3.3,3.3,0,0,0-4.709,0,2.069,2.069,0,0,1-1.537.684A2.012,2.012,0,0,1,32.917,335.6Zm3.8.735a2.069,2.069,0,0,1,3.075,0,3.3,3.3,0,0,0,2.355.987,3.569,3.569,0,0,0,1.5-.282l1.505,4.352a1.207,1.207,0,0,1,.085.5,1.207,1.207,0,0,1-.5.082H31.778a1.207,1.207,0,0,1-.5-.082,1.207,1.207,0,0,1,.085-.5l1.5-4.351a3.567,3.567,0,0,0,1.5.282,3.3,3.3,0,0,0,2.354-.987Z" transform="translate(-27.513 -305.717)"  />
      </g>
    </symbol>
    <symbol id="ic-lichsu-4" viewBox="0 0 40 40">
       <g id="favorites_1_" data-name="favorites (1)" transform="translate(0 -3.81)">
          <g id="Group_1076" data-name="Group 1076" transform="translate(2.332 3.81)">
            <g id="Group_1075" data-name="Group 1075">
              <path id="Path_30119" data-name="Path 30119" d="M64.114,19.248a2.634,2.634,0,0,0-1.46-4.493l-8.742-1.27a.527.527,0,0,1-.4-.288L49.606,5.278a2.635,2.635,0,0,0-4.725,0L40.971,13.2a.527.527,0,0,1-.4.288l-8.742,1.27a2.634,2.634,0,0,0-1.46,4.493L36.7,25.412a.527.527,0,0,1,.152.466l-1.493,8.7a2.635,2.635,0,0,0,3.823,2.777L47,33.25a.527.527,0,0,1,.491,0l7.819,4.109a2.635,2.635,0,0,0,3.823-2.777l-1.493-8.7a.527.527,0,0,1,.152-.466Zm-8.554,6.987,1.493,8.7a.527.527,0,0,1-.765.555l-7.819-4.109a2.635,2.635,0,0,0-2.452,0L38.2,35.494a.527.527,0,0,1-.765-.555l1.493-8.7a2.633,2.633,0,0,0-.758-2.331l-6.326-6.164a.527.527,0,0,1,.292-.9l8.742-1.27a2.634,2.634,0,0,0,1.984-1.441l3.909-7.919a.527.527,0,0,1,.945,0h0l3.909,7.919a2.634,2.634,0,0,0,1.984,1.441l8.742,1.27a.527.527,0,0,1,.292.9L56.317,23.9A2.633,2.633,0,0,0,55.559,26.235Z" transform="translate(-29.574 -3.81)"  />
            </g>
          </g>
          <g id="Group_1078" data-name="Group 1078" transform="translate(29.508 5.09)">
            <g id="Group_1077" data-name="Group 1077">
              <path id="Path_30120" data-name="Path 30120" d="M380.822,20.248a1.065,1.065,0,0,0-1.487.236L378.2,22.04a1.065,1.065,0,0,0,1.723,1.252l1.13-1.556A1.065,1.065,0,0,0,380.822,20.248Z" transform="translate(-378.001 -20.045)"  />
            </g>
          </g>
          <g id="Group_1080" data-name="Group 1080" transform="translate(7.228 5.084)">
            <g id="Group_1079" data-name="Group 1079">
              <path id="Path_30121" data-name="Path 30121" d="M95.647,21.961l-1.13-1.556a1.065,1.065,0,1,0-1.723,1.252l1.13,1.556a1.065,1.065,0,1,0,1.723-1.252Z" transform="translate(-92.59 -19.966)"  />
            </g>
          </g>
          <g id="Group_1082" data-name="Group 1082" transform="translate(0 26.739)">
            <g id="Group_1081" data-name="Group 1081" transform="translate(0)">
              <path id="Path_30122" data-name="Path 30122" d="M3.907,298.229a1.065,1.065,0,0,0-1.342-.684l-1.829.594a1.065,1.065,0,1,0,.658,2.025l1.829-.594A1.065,1.065,0,0,0,3.907,298.229Z" transform="translate(0 -297.493)"  />
            </g>
          </g>
          <g id="Group_1084" data-name="Group 1084" transform="translate(18.936 39.162)">
            <g id="Group_1083" data-name="Group 1083">
              <path id="Path_30123" data-name="Path 30123" d="M243.564,456.786a1.065,1.065,0,0,0-1.065,1.065v1.923a1.065,1.065,0,0,0,2.13,0v-1.923A1.065,1.065,0,0,0,243.564,456.786Z" transform="translate(-242.499 -456.786)"  />
            </g>
          </g>
          <g id="Group_1086" data-name="Group 1086" transform="translate(36.041 26.74)">
            <g id="Group_1085" data-name="Group 1085">
              <path id="Path_30124" data-name="Path 30124" d="M465.006,298.16l-1.829-.594a1.065,1.065,0,0,0-.658,2.026l1.829.594a1.065,1.065,0,0,0,.658-2.026Z" transform="translate(-461.783 -297.513)"  />
            </g>
          </g>
        </g>
    </symbol>

    <symbol  viewBox="0 0 16.467 24" id="ic-dt-tab-1">
      <path d="M14.421 4.557l2.046-2.046L13.957 0l-2.046 2.046L10.833.968l-9.2 9.2 4.666 4.666 6.074-6.074a6.169 6.169 0 0 1-7.972 9.177h1.827v-1.042H0v1.043h2.679a7.229 7.229 0 0 0 7.222 1.548l1.067 3.472H5.051l.959-3.229-1-.3L3.654 24h8.724l-1.512-4.921A7.212 7.212 0 0 0 13.111 8.02l2.385-2.385zm-1.773-1.774l1.309-1.309 1.036 1.036-1.309 1.31-.518-.52zm-.219 1.255l1.255 1.255.341.341-5.743 5.743L5.09 8.185l5.743-5.743zm-9.318 6.125l1.241-1.241 3.192 3.192-1.241 1.241z"
      ></path>
    </symbol>
    <symbol viewBox="0 0 23.993 24" id="ic-dt-tab-2">
      <path d="M11.03 16.279a.47.47 0 1 0-.664 0 .47.47 0 0 0 .664 0zM8.801 5.162A5.162 5.162 0 1 0 13.963 0a5.168 5.168 0 0 0-5.162 5.162zm9.385 0A4.223 4.223 0 1 1 13.963.939a4.228 4.228 0 0 1 4.223 4.223zm0 0"></path>
      <path d="M5.399 23.861a.468.468 0 0 0 .661 0l2.272-2.241a1.419 1.419 0 0 0 .334-1.456l.489-.472a1.4 1.4 0 0 1 .976-.395h6.23a4.193 4.193 0 0 0 2.942-1.2c.033-.032-.247.3 4.25-5.084a1.876 1.876 0 0 0-2.854-2.429l-2.765 2.846a1.882 1.882 0 0 0-1.457-.7H11.25a6.039 6.039 0 0 0-2.347-.469 5.8 5.8 0 0 0-5.284 3 1.4 1.4 0 0 0-1.253.389L.137 17.89a.47.47 0 0 0 0 .662zm3.5-10.661a5.11 5.11 0 0 1 2.063.43.467.467 0 0 0 .188.039h5.322a.939.939 0 0 1 0 1.877h-3.819a.469.469 0 0 0 0 .938h3.823a1.874 1.874 0 0 0 1.858-2.122c2.675-2.753 3.052-3.14 3.068-3.159a.938.938 0 1 1 1.431 1.213l-4.2 5.031a3.261 3.261 0 0 1-2.271.915h-6.233a2.328 2.328 0 0 0-1.63.658l-.4.385-3.671-3.676A4.837 4.837 0 0 1 8.899 13.2zm-5.87 3.114a.467.467 0 0 1 .58-.066c.081.049-.152-.163 4.059 4.048a.471.471 0 0 1 0 .661l-1.937 1.911-4.6-4.646zM13.401 2.347v.55a1.408 1.408 0 0 0 .469 2.735.469.469 0 1 1 0 .938.849.849 0 0 1-.609-.355.469.469 0 0 0-.718.6 1.947 1.947 0 0 0 .858.611v.548a.469.469 0 0 0 .938 0v-.55a1.408 1.408 0 0 0-.469-2.735.47.47 0 0 1 0-.939.753.753 0 0 1 .508.245.47.47 0 1 0 .653-.674 1.812 1.812 0 0 0-.691-.432v-.547a.469.469 0 1 0-.938 0zm0 0"></path>
    </symbol>
    
    <!-- nuoiduong be yeu -->
    <symbol viewBox="0 0 40 40.001" id="nuoiduong1">
      <g>
        <path d="M36.615 19.9l3.034-3.034a1.2 1.2 0 0 0-1.693-1.693l-3.14 3.14a15.008 15.008 0 0 0-3.334-8.006l1.836-1.835h4.992a1.2 1.2 0 0 0 0-2.394h-4.29V1.786a1.2 1.2 0 0 0-2.394 0v4.992l-1.8 1.8a15.222 15.222 0 0 0-8.18-3.732l2.8-2.8A1.2 1.2 0 0 0 22.755.351l-3.034 3.034L16.687.351a1.2 1.2 0 0 0-1.694 1.693l2.8 2.8a15.026 15.026 0 0 0-7.736 3.351L8.642 6.778V1.786a1.2 1.2 0 0 0-2.394 0v4.29H1.957a1.2 1.2 0 1 0 0 2.394h4.992l1.389 1.39a15 15 0 0 0-3.652 7.955l-2.643-2.641A1.2 1.2 0 0 0 .35 16.867L3.384 19.9.35 22.934a1.2 1.2 0 0 0 1.693 1.694l2.642-2.642a15.047 15.047 0 0 0 3.264 7.5L6.3 31.131H1.308a1.2 1.2 0 0 0 0 2.394h4.291v4.291a1.2 1.2 0 1 0 2.394 0v-4.992l1.61-1.61a15.2 15.2 0 0 0 8.37 3.763l-2.98 2.98a1.2 1.2 0 1 0 1.693 1.693l3.034-3.034 3.034 3.034a1.2 1.2 0 0 0 1.693-1.693l-2.979-2.979a15.192 15.192 0 0 0 8.464-3.847l1.693 1.693v4.992a1.2 1.2 0 1 0 2.394 0v-4.29h4.291a1.2 1.2 0 1 0 0-2.394h-4.992l-1.747-1.746a15.019 15.019 0 0 0 3.245-7.9l3.14 3.14a1.2 1.2 0 0 0 1.693-1.693zm-4.4-12.737a.344.344 0 0 0 .1-.243V1.786a.51.51 0 0 1 1.019 0v4.635a.344.344 0 0 0 .344.344h4.634a.51.51 0 0 1 0 1.019h-5.136a.344.344 0 0 0-.243.1l-3.04 3.038a.51.51 0 0 1-.72-.72zM15.331 1.2a.509.509 0 0 1 .87-.36l3.277 3.277a.344.344 0 0 0 .486 0l3.277-3.28a.51.51 0 1 1 .72.72l-3.63 3.631a.344.344 0 0 0-.1.243v4.3a.51.51 0 1 1-1.019 0v-4.3a.344.344 0 0 0-.1-.243l-3.63-3.631a.506.506 0 0 1-.151-.357zM7.093 7.783H1.957a.51.51 0 1 1 0-1.019h4.636a.344.344 0 0 0 .344-.344V1.786a.51.51 0 1 1 1.019 0v5.135a.344.344 0 0 0 .1.243l2.387 2.389a.51.51 0 0 1-.72.72L7.334 7.884a.344.344 0 0 0-.241-.101zM1.557 24.141a.51.51 0 1 1-.72-.72l3.276-3.277a.344.344 0 0 0 0-.486L.836 16.38a.51.51 0 1 1 .72-.72l3.631 3.63a.344.344 0 0 0 .243.1h3.379a.51.51 0 0 1 0 1.019H5.431a.344.344 0 0 0-.243.1zm5.849 8.3a.344.344 0 0 0-.1.243v5.134a.51.51 0 1 1-1.019 0v-4.636a.344.344 0 0 0-.344-.344H1.308a.51.51 0 0 1 0-1.019h5.134a.344.344 0 0 0 .243-.1l2.579-2.579a.51.51 0 1 1 .72.72zm16.7 6.365a.509.509 0 0 1-.87.36l-3.277-3.277a.344.344 0 0 0-.486 0l-3.277 3.277a.51.51 0 1 1-.72-.72l3.63-3.631a.344.344 0 0 0 .1-.243v-4.3a.51.51 0 1 1 1.019 0v4.3a.344.344 0 0 0 .1.243l3.631 3.631a.506.506 0 0 1 .154.354zm9.066-6.985h5.134a.51.51 0 1 1 0 1.019h-4.63a.344.344 0 0 0-.344.344v4.634a.51.51 0 1 1-1.019 0v-5.136a.344.344 0 0 0-.1-.243l-2.847-2.847a.51.51 0 1 1 .72-.72l2.847 2.847a.343.343 0 0 0 .243.1zm-2.6-3.434a1.2 1.2 0 0 0-1.693 1.693l.566.566a14.5 14.5 0 0 1-8.527 3.7v-4.072a1.2 1.2 0 1 0-2.394 0v4.067a14.507 14.507 0 0 1-8.431-3.614l.381-.381a1.2 1.2 0 1 0-1.693-1.693l-.34.34a14.367 14.367 0 0 1-3.134-7.627l.266-.266h1.1v.009a10.421 10.421 0 0 0 2.45 5.85.344.344 0 1 0 .524-.446A9.735 9.735 0 0 1 7.359 21.1h1.45a1.2 1.2 0 0 0 0-2.394H5.573l-.268-.268a14.325 14.325 0 0 1 3.521-8.087l.411.411a1.189 1.189 0 0 0 .846.351 1.2 1.2 0 0 0 .847-2.044l-.383-.383a14.349 14.349 0 0 1 7.871-3.215l.105.105v1.487a11.7 11.7 0 0 0-6.771 2.824.344.344 0 0 0 .449.521 11.015 11.015 0 0 1 6.325-2.654v1.973a1.2 1.2 0 1 0 2.394 0V5.573l.105-.105a14.521 14.521 0 0 1 8.316 3.6l-.651.651a1.2 1.2 0 0 0 1.693 1.693l.61-.612a14.328 14.328 0 0 1 3.169 7.9h-2.969a1.2 1.2 0 0 0 0 2.394h.683a11.022 11.022 0 0 1-2.547 6.221.344.344 0 0 0 .528.441 11.707 11.707 0 0 0 2.708-6.656h1.6a14.34 14.34 0 0 1-3.08 7.8zm8.591-4.244a.509.509 0 0 1-.72 0l-3.631-3.63a.344.344 0 0 0-.243-.1h-3.376a.51.51 0 0 1 0-1.019h3.378a.344.344 0 0 0 .243-.1l3.629-3.634a.51.51 0 0 1 .72.72l-3.277 3.277a.344.344 0 0 0 0 .486l3.277 3.277a.509.509 0 0 1 0 .72z"></path>
        <path d="M24.934 27.144a.35.35 0 0 0-.494.494l3.247 3.247a.35.35 0 0 0 .494-.494zM9.989 11.634a.35.35 0 1 0-.494.494l3.247 3.247a.35.35 0 0 0 .494-.494z"></path>
      </g>
    </symbol>
    <symbol viewBox="0 0 40 39.864" id="nuoiduong2">
        <path d="M23.94 9.238c-.01-.01-.021-.021-.031-.021C20.925 7.049 20.277 2 20.267 1.928a.824.824 0 1 0-1.636.2c.031.227.7 5.6 4.084 8.259a8.7 8.7 0 0 1-.638 1.352c-.113.206-.206.372-.267.506a.175.175 0 0 0-.021.052c-.165.465-.319.929-.473 1.383a17.768 17.768 0 0 1-2 4.553 17.71 17.71 0 0 1-3.761 4.041 14.965 14.965 0 0 1-2.49 1.3 19.215 19.215 0 0 0-2.469 1.26 11.978 11.978 0 0 0-1.235.919 4.822 4.822 0 0 1-2.438 1.332c-.154.01-.3.031-.442.041a6.5 6.5 0 0 0-2.953.774C-.114 30.061-.031 35.027.01 37.412a.825.825 0 0 0 .823.816h.01a.834.834 0 0 0 .813-.836v-.01c-.072-3.335.216-6.607 2.685-8.063a4.986 4.986 0 0 1 2.259-.545c.154-.01.309-.031.463-.041a6.283 6.283 0 0 0 3.313-1.683 10.5 10.5 0 0 1 1.08-.805 16.041 16.041 0 0 1 2.263-1.146 16.481 16.481 0 0 0 2.757-1.456 19.836 19.836 0 0 0 4.177-4.46 19.4 19.4 0 0 0 2.217-4.979c.144-.434.3-.878.453-1.321.041-.072.113-.217.2-.351.577-1.064 1.384-2.52.417-3.294z"
          ></path>
        <path d="M38.096 11.923a10.2 10.2 0 0 0-7.878-5.522h-.041a5.807 5.807 0 0 0-.589-.021 2.181 2.181 0 0 1-.94-.134c-.01 0-.01-.01-.021-.01-.661-.372-3.263-3.355-3.407-5.47a.823.823 0 0 0-1.642.114c.176 2.746 3.087 6.141 4.233 6.8a3.408 3.408 0 0 0 1.755.361 3.349 3.349 0 0 1 .465.021 8.439 8.439 0 0 1 6.609 4.678 16.786 16.786 0 0 1 1.7 8.36c-.32 7.886-4.223 13.6-11 16.112-1.921.723-8.6 2.178-13.981-.609a.01.01 0 0 1-.01-.01 8.6 8.6 0 0 1-2.891-2.611l-.01-.021c-.774-1.042-1.828-2.477-3.9-1.662-2.3.867-2.3 4.2-2.3 5.615a.826.826 0 0 0 1.652 0c0-.991 0-3.6 1.239-4.077h.01c.816-.32 1.125-.062 1.983 1.094l.021.021.01.01a10.049 10.049 0 0 0 3.459 3.086 17.45 17.45 0 0 0 8.1 1.817c.423 0 .847-.01 1.28-.031a21.664 21.664 0 0 0 5.927-1.1 17.649 17.649 0 0 0 8.766-6.761 20.63 20.63 0 0 0 3.291-10.843 18.5 18.5 0 0 0-1.89-9.207z"
          ></path>
        <path d="M35.633 19.864a2.132 2.132 0 0 0-1.492-1.327h-.031c-.442-.041-1.3.072-2.027 1.358a12.969 12.969 0 0 1-6.307 4.815 30.557 30.557 0 0 1-9.465 1.6 8.82 8.82 0 0 0-2.778.535 4.314 4.314 0 0 0-1.7 7.181 8.005 8.005 0 0 0 3.169 1.924 15.3 15.3 0 0 0 5.309.926 16.814 16.814 0 0 0 3.92-.473 17.931 17.931 0 0 0 8.056-4.5 13.249 13.249 0 0 0 3.591-5.422 8.619 8.619 0 0 0-.245-6.617zm-1.317 6.08a.036.036 0 0 1-.01.021 11.617 11.617 0 0 1-3.169 4.753 16.264 16.264 0 0 1-7.3 4.095 14.28 14.28 0 0 1-8.272-.4 6.555 6.555 0 0 1-2.521-1.5 2.673 2.673 0 0 1 1.08-4.527c.01 0 .01 0 .021-.01a7.251 7.251 0 0 1 2.274-.422 32.185 32.185 0 0 0 9.938-1.708 14.2 14.2 0 0 0 7.109-5.473.224.224 0 0 0 .031-.051 1.621 1.621 0 0 1 .4-.514 1.188 1.188 0 0 1 .216.34c0 .01.01.021.021.031a6.964 6.964 0 0 1 .185 5.365z"
          ></path>
      </symbol>
    <symbol viewBox="0 0 60 68.889" id="nuoiduong3">
        <defs>
          <clipPath id="a">
            <path transform="translate(47.655 37.855)"  d="M0 0h11v25H0z"></path>
          </clipPath>
        </defs>
        <path d="M36.741 19.157v-1.911a4.789 4.789 0 1 0-9.578 0v1.911a4.767 4.767 0 0 0 1.911 3.811v1.217l-4.62 1.32a2.889 2.889 0 0 0-2.08 2.764v12.922h1.916V28.269a.962.962 0 0 1 .7-.921l6.009-1.717v-1.774a4.79 4.79 0 0 0 1.916 0v1.777l6.009 1.716a.963.963 0 0 1 .7.922v12.919h1.916V28.269a2.887 2.887 0 0 0-2.084-2.763l-4.62-1.32v-1.217a4.77 4.77 0 0 0 1.905-3.812zm-4.789 2.873a2.877 2.877 0 0 1-2.878-2.873v-1.911a2.874 2.874 0 1 1 5.747 0v1.911a2.877 2.877 0 0 1-2.869 2.878zM51.235 9.022v18.76h1.914V9.022l1.24 1.239 1.354-1.354-3.55-3.551-3.551 3.551 1.354 1.354zm-.199 20.464h2v2h-2z"
          ></path>
        <path d="M56.341 64.119l-1.571-1.571-1.437 1.437V42.222h-2.222v21.762l-1.437-1.437-1.574 1.572 2.548 2.548H38.889V30h-2.222v36.667h-3.334V41.111h-2.222v25.556h-3.333V30h-2.222v36.667H14.444v-60h22.223V0H3.333v66.667H0v2.222h60v-2.222h-6.207zm-41.9-61.9h20v2.225h-20zm-2.219 6.67H10v2.222h2.222v2.222H7.778v2.222h4.444v2.222H10V20h2.222v2.222H7.778v2.222h4.444v2.222H10v2.222h2.222v2.222H7.778v2.222h4.444v2.222H10v2.222h2.222V40H7.778v2.222h4.444v2.222H10v2.222h2.222v2.222H7.778v2.222h4.444v2.222H10v2.222h2.222v2.222H7.778V60h4.444v2.222H10v2.222h2.222v2.222H5.556V2.222h6.667z"
          ></path>
        <path  d="M51.036 37.486h2v2h-2zm0-4h2v2h-2z"></path>
        <g clip-path="url(#a)" transform="translate(-.655 3.795)">
          <path d="M56.996 60.325l-1.571-1.571-1.437 1.437V38.428h-2.222V60.19l-1.437-1.437-1.574 1.572 2.548 2.548H39.544V26.206h-2.222v36.667h-3.334V37.317h-2.222v25.556h-3.333V26.206h-2.222v36.667H15.099v-60h22.223v-6.667H3.988v66.667H.655v2.222h60v-2.222h-6.207zm-41.9-61.9h20V.65h-20zm-2.219 6.67h-2.222v2.222h2.222v2.222H8.433v2.222h4.444v2.222h-2.222v2.223h2.222v2.222H8.433v2.222h4.444v2.222h-2.222v2.222h2.222v2.222H8.433v2.222h4.444v2.222h-2.222v2.222h2.222v2.224H8.433v2.222h4.444v2.222h-2.222v2.222h2.222v2.222H8.433v2.222h4.444v2.222h-2.222v2.222h2.222v2.222H8.433v2.224h4.444v2.222h-2.222v2.222h2.222v2.222H6.211V-1.572h6.667z"
            ></path>
        </g>
      </symbol>
    <symbol viewBox="0 0 40 39.995" id="nuoiduong4">
      <path d="M39.998 30.832l-.01-12.384a2.888 2.888 0 0 0-5.732-.5l-1.6 9.075a2.592 2.592 0 0 0-1.838.453l-5.463 3.843a.678.678 0 0 0-.288.555v7.443a.679.679 0 0 0 .679.679h6.79a.679.679 0 0 0 .679-.679v-.859l4.468-2.845a5.742 5.742 0 0 0 2.315-4.781zm-3.062 3.646l-4.769 3.036a.679.679 0 0 0-.314.573v.552h-5.43v-6.412l5.175-3.64a1.247 1.247 0 0 1 1.465 2.018l-3.654 2.74.815 1.086 3.654-2.74a2.6 2.6 0 0 0 .279-3.925 2.724 2.724 0 0 0-.22-.2l1.656-9.384a1.53 1.53 0 0 1 3.038.265l.01 12.383a4.375 4.375 0 0 1-1.705 3.647zm-22.29-3.16l-5.463-3.843a2.592 2.592 0 0 0-1.838-.453l-1.6-9.075a2.888 2.888 0 0 0-5.732.5L0 30.83a5.746 5.746 0 0 0 2.333 4.791l4.454 2.836v.859a.679.679 0 0 0 .679.679h6.787a.679.679 0 0 0 .679-.679v-7.443a.678.678 0 0 0-.286-.555zm-1.069 7.32h-5.43v-.552a.679.679 0 0 0-.314-.573l-4.755-3.027a4.378 4.378 0 0 1-1.718-3.654l.01-12.384a1.53 1.53 0 0 1 3.038-.265l1.656 9.384a2.716 2.716 0 0 0-.22.2 2.6 2.6 0 0 0 .279 3.925l3.654 2.74.815-1.086-3.654-2.74A1.247 1.247 0 0 1 8.4 28.585l5.175 3.64v6.413zM19.975 0h-.043l.043 1.357a13.028 13.028 0 0 1 2.475.237l.257-1.332A14.364 14.364 0 0 0 19.975 0zm-2.72.28a14.144 14.144 0 0 0-2.671.818l.525 1.256a12.821 12.821 0 0 1 2.415-.739zm11.698 22.639a12.984 12.984 0 0 1-1.952 1.606l.756 1.127a14.379 14.379 0 0 0 2.156-1.773zM25.288 1.063l-.516 1.255a12.92 12.92 0 0 1 2.231 1.184l.751-1.131a14.231 14.231 0 0 0-2.466-1.308zm7.244 12.918a13.021 13.021 0 0 1-.245 2.515l1.332.263a14.378 14.378 0 0 0 .271-2.778v-.058zM29.841 4.14l-.956.963a13.012 13.012 0 0 1 1.612 1.947l1.125-.76a14.358 14.358 0 0 0-1.781-2.15zm-4.973 21.534a12.826 12.826 0 0 1-2.416.734l.264 1.332a14.187 14.187 0 0 0 2.673-.812zm8.039-17.097l-1.252.525a12.839 12.839 0 0 1 .742 2.414l1.33-.269a14.214 14.214 0 0 0-.82-2.67z"
        ></path>
      <path d="M31.692 18.816a12.917 12.917 0 0 1-1.192 2.228l1.129.754a14.293 14.293 0 0 0 1.317-2.463zm-11.665 7.833a12.992 12.992 0 0 1-2.5-.243l-.262 1.332a14.383 14.383 0 0 0 2.764.268h.014zM9.489 21.023l-1.127.758a14.376 14.376 0 0 0 1.776 2.155l.958-.961a12.991 12.991 0 0 1-1.607-1.952zm2.726-18.6a14.332 14.332 0 0 0-2.153 1.779l.962.957a12.971 12.971 0 0 1 1.949-1.61zm-5.839 8.861a14.384 14.384 0 0 0-.265 2.749v.029l1.357-.029a13.021 13.021 0 0 1 .24-2.489zm1.979-5.043a14.253 14.253 0 0 0-1.312 2.463l1.255.517a12.849 12.849 0 0 1 1.187-2.23zm-.756 10.23l-1.331.266a14.177 14.177 0 0 0 .815 2.672l1.253-.522a12.839 12.839 0 0 1-.737-2.416zm5.377 8.042l-.754 1.129a14.267 14.267 0 0 0 2.464 1.315l.518-1.255a12.882 12.882 0 0 1-2.228-1.189zm17.205-12.975c0-2.084-1.294-4.318-3.43-4.7a4.53 4.53 0 0 0-4.457-4.128A4.46 4.46 0 0 0 20 3.343a4.46 4.46 0 0 0-2.294-.633 4.672 4.672 0 0 0-4.587 4.272 4.714 4.714 0 0 0-3.3 4.552 4.835 4.835 0 0 0 .832 2.715 4.835 4.835 0 0 0-.832 2.715c0 2.084 1.295 4.318 3.43 4.7a4.53 4.53 0 0 0 4.457 4.128A4.46 4.46 0 0 0 20 25.159a4.46 4.46 0 0 0 2.294.633 4.672 4.672 0 0 0 4.587-4.272 4.714 4.714 0 0 0 3.3-4.552 4.835 4.835 0 0 0-.832-2.715 4.836 4.836 0 0 0 .832-2.715zm-10.86-2.715a1.357 1.357 0 1 1-2.715 0h-1.357a2.718 2.718 0 0 0 2.715 2.715 2.683 2.683 0 0 0 1.357-.378v12.812a3.113 3.113 0 0 1-1.615.462 3.174 3.174 0 0 1-3.085-2.827 2.708 2.708 0 0 0-.73-5.317v1.357a1.357 1.357 0 1 1 0 2.715c-1.624 0-2.715-1.755-2.715-3.394a3.469 3.469 0 0 1 .841-2.271.678.678 0 0 0 0-.888 3.469 3.469 0 0 1-.841-2.271 3.34 3.34 0 0 1 2.717-3.343.743.743 0 0 0 .56-.729 3.329 3.329 0 0 1 3.253-3.394 3.112 3.112 0 0 1 1.615.462zm8.661 5.874a3.469 3.469 0 0 1 .841 2.271 3.34 3.34 0 0 1-2.717 3.343.743.743 0 0 0-.56.729 3.329 3.329 0 0 1-3.253 3.394 3.112 3.112 0 0 1-1.615-.462v-7.686a1.357 1.357 0 1 1 2.715 0h1.357a2.718 2.718 0 0 0-2.715-2.715 2.683 2.683 0 0 0-1.357.378V4.534a3.113 3.113 0 0 1 1.615-.462 3.174 3.174 0 0 1 3.085 2.827 2.708 2.708 0 0 0 .73 5.317V10.86a1.357 1.357 0 0 1 0-2.715c1.624 0 2.715 1.755 2.715 3.394a3.469 3.469 0 0 1-.841 2.271.678.678 0 0 0 0 .887z"
        ></path>
    </symbol>
    <symbol viewBox="0 0 40 40" id="nuoiduong5">
      <path d="M32.554 23.061l-1.32.015a8.158 8.158 0 0 0-1.629-4.063l.422-.353a.593.593 0 0 0-.761-.91l-.449.376a8.223 8.223 0 0 0-.831-.707.593.593 0 0 0-.707.953 6.981 6.981 0 1 1-8.531 11.05c-.5-.4-1-.818-1.467-1.241a.593.593 0 0 0-.792.884q.368.33.752.654l-.817 1.011a.593.593 0 1 0 .923.746l.814-1.007a8.126 8.126 0 0 0 4.054 1.629l-.019 1.323a.593.593 0 0 0 .585.6h.009a.593.593 0 0 0 .593-.585l.019-1.3a8.29 8.29 0 0 0 1.757-.258 8.167 8.167 0 0 0 3-1.476l.638.814a.593.593 0 0 0 .934-.732l-.692-.883a8.243 8.243 0 0 0 2.237-5.341l1.29-.015a.593.593 0 0 0-.007-1.186z"
        ></path>
      <path d="M24.127 28.529a3.524 3.524 0 1 0-2.493-1.031 3.515 3.515 0 0 0 2.493 1.031zm-1.654-5.178a2.339 2.339 0 1 1 0 3.308 2.332 2.332 0 0 1 0-3.308zm-9.897-10.252a2.688 2.688 0 1 0 3.8 0 2.691 2.691 0 0 0-3.8 0zm2.962 2.962a1.5 1.5 0 1 1 0-2.123 1.5 1.5 0 0 1 0 2.123z"
        ></path>
      <path d="M19.194 10.883a6.3 6.3 0 0 0-3.567-1.984l.036-.732a.593.593 0 1 0-1.185-.058l-.034.689a6.352 6.352 0 0 0-4.06 1.51l-.566-.557a.593.593 0 1 0-.832.846l.569.56a6.324 6.324 0 0 0-1.411 4.079l-.87.064a.593.593 0 0 0 .043 1.185c.041 0-.021 0 .958-.068a6.269 6.269 0 0 0 .186.692 25.259 25.259 0 0 0 1.511 3.6l-1.173.628a.593.593 0 1 0 .56 1.046l1.178-.631q.374.656.789 1.3a.595.595 0 0 0 1-.645 24.786 24.786 0 0 1-2.735-5.664 5.162 5.162 0 0 1 5.357-6.744 5.123 5.123 0 0 1 3.36 1.674 27.55 27.55 0 0 0 2.25 2.222.593.593 0 1 0 .784-.89q-.628-.553-1.214-1.138l.835-.782a.593.593 0 1 0-.811-.866l-.845.791z"
        ></path>
      <path d="M34.142 5.858A20 20 0 0 0 5.858 34.142 20 20 0 0 0 34.142 5.858zM20 38.828a18.828 18.828 0 0 1 0-37.656 18.828 18.828 0 0 1 0 37.656z" ></path>
      <path d="M31.698 6.848l-.275-.226a17.623 17.623 0 0 0-24.8 24.8l.226.275a.593.593 0 0 0 .878.043L31.741 7.726a.594.594 0 0 0-.043-.878zM7.351 30.437A16.437 16.437 0 0 1 30.437 7.351zM33.378 8.576l-.226-.275a.593.593 0 0 0-.878-.043L8.259 32.273a.593.593 0 0 0 .043.878l.275.226a17.623 17.623 0 0 0 24.8-24.8zm2.789 11.933a16.437 16.437 0 0 1-26.6 12.139L32.653 9.562a16.39 16.39 0 0 1 3.514 10.947z"
        ></path>
    </symbol>
    <symbol viewBox="0 0 40 40" id="nuoiduong6">
    <g >
      <path d="M2.672 39.333A.668.668 0 0 0 3.34 40h28.72a.668.668 0 0 0 .668-.667V.667A.668.668 0 0 0 32.06 0H3.34a.668.668 0 0 0-.668.667v4H2a2 2 0 1 0 0 4h.668v2.667H2a2 2 0 1 0 0 4h.668V18H2a2 2 0 1 0 0 4h.668v2.667H2a2 2 0 1 0 0 4h.668v2.667H2a2 2 0 1 0 0 4h.668zM2 7.333A.667.667 0 1 1 2 6h.668v1.333zM4.007 6h2a.667.667 0 1 1 0 1.333h-2zM2 14a.667.667 0 1 1 0-1.333h.668V14zm2-1.333h2A.667.667 0 1 1 6 14H4zm-2 8a.667.667 0 1 1 0-1.333h.668v1.333zm2-1.333h2a.667.667 0 1 1 0 1.333H4zm-2 8A.667.667 0 1 1 2 26h.668v1.333zm2-1.333h2a.667.667 0 1 1 0 1.333H4zm0 2.667h2a2 2 0 1 0 0-4H4V22h2a2 2 0 1 0 0-4H4v-2.667h2a2 2 0 1 0 0-4H4V8.667h2a2 2 0 1 0 0-4H4V1.333h27.392v37.334H4.007v-3.334h2a2 2 0 1 0 0-4h-2zm0 5.333v-1.334h2A.667.667 0 1 1 6 34zM2 34a.667.667 0 1 1 0-1.333h.668V34zM37.355 0a2.658 2.658 0 0 0-2.644 2.667v34.666a.668.668 0 0 0 .194.471l1.983 2a.657.657 0 0 0 .935 0l1.983-2a.668.668 0 0 0 .194-.471V2.667A2.658 2.658 0 0 0 37.355 0zm0 1.333a1.329 1.329 0 0 1 1.322 1.333V16h-2.644V2.667a1.329 1.329 0 0 1 1.322-1.334zm1.322 16v1.333h-2.644v-1.333zm-1.322 21.058l-1.322-1.333V20h2.644v17.057z"></path>
      <path d="M36.694 3.967h1.322v7.272h-1.322zM18.243 26.476a.661.661 0 0 0 .837 0l5.228-4.275a3.485 3.485 0 1 0-4.437-5.375l-1.207 1.006-1.207-1a3.485 3.485 0 1 0-4.437 5.375zm-4.779-8.23a2.139 2.139 0 0 1 1.484-.883 2.163 2.163 0 0 1 .283-.019 2.138 2.138 0 0 1 1.377.5l1.63 1.358a.659.659 0 0 0 .846 0l1.63-1.358a2.163 2.163 0 0 1 3.144.4 2.169 2.169 0 0 1-.39 2.931l-4.806 3.932-4.807-3.933a2.168 2.168 0 0 1-.39-2.931z"></path>
      <path d="M18.656 30.588a9.917 9.917 0 1 0-9.917-9.916 9.928 9.928 0 0 0 9.917 9.916zm0-18.511a8.595 8.595 0 1 1-8.595 8.595 8.6 8.6 0 0 1 8.595-8.595z"></path>
    </g>
  </symbol>
  </defs>
</svg>
