<svg xmlns="http://www.w3.org/2000/svg" width="235.1" height="56.33" viewBox="0 0 235.1 56.33"><g data-name="Layer 2"><g data-name="Layer 1" fill="#0054a5"><path data-name="Path 25297" d="M21.54 47.73V31H18v-4.64h9v21.37z"/><path data-name="Path 25298" d="M49.68 37.1a13.15 13.15 0 0 1-1.48 2.8l-5.31 7.83h-6.33l4.71-6.47-.06-.06a1.5 1.5 0 0 1-.52.1h-.52a6.31 6.31 0 0 1-2.83-.69 6.71 6.71 0 0 1-3.9-6.55 7.74 7.74 0 0 1 2.39-5.82 8.15 8.15 0 0 1 5.9-2.24 8.5 8.5 0 0 1 6.72 2.79A7.56 7.56 0 0 1 50.24 34a8.82 8.82 0 0 1-.56 3.1zm-5.74-5.5a2.85 2.85 0 0 0-2.1-.84 2.93 2.93 0 0 0-2.07.8 2.74 2.74 0 0 0-.87 2.06 2.78 2.78 0 0 0 .84 2.07 2.91 2.91 0 0 0 2.1.83 3 3 0 0 0 2.08-.77 2.71 2.71 0 0 0 .87-2 2.85 2.85 0 0 0-.85-2.15z"/><path data-name="Path 25299" d="M67.58 40a8.8 8.8 0 0 1-1 4.35 7.15 7.15 0 0 1-3.32 3 8.06 8.06 0 0 1-3.52.78 8.48 8.48 0 0 1-3.26-.66q-4.78-2-4.79-7.45v-6q0-5.54 4.82-7.47A9 9 0 0 1 59.7 26a8.28 8.28 0 0 1 3.27.69q4.61 2 4.61 7.41zm-5.46-6.09a4.13 4.13 0 0 0-.5-2.21 2.23 2.23 0 0 0-2-1 2.2 2.2 0 0 0-2 1 3.9 3.9 0 0 0-.55 2.2v6.23a3.91 3.91 0 0 0 .55 2.21 2.18 2.18 0 0 0 2 1 2.23 2.23 0 0 0 2-1 4.2 4.2 0 0 0 .5-2.22z"/><path data-name="Path 25300" d="M85.41 40a8.7 8.7 0 0 1-1 4.35 7.08 7.08 0 0 1-3.31 3 8.06 8.06 0 0 1-3.52.78 8.44 8.44 0 0 1-3.26-.66q-4.78-2-4.79-7.45v-6q0-5.54 4.82-7.47a9 9 0 0 1 3.18-.55 8.28 8.28 0 0 1 3.27.69q4.61 2 4.61 7.41zM80 33.93a4 4 0 0 0-.51-2.21 2.51 2.51 0 0 0-4 0 4 4 0 0 0-.55 2.2v6.23a4 4 0 0 0 .55 2.21 2.51 2.51 0 0 0 4 0 4.1 4.1 0 0 0 .51-2.2z"/><path data-name="Path 25301" d="M110.19 45.82a8.08 8.08 0 0 1-5.89 2.31 8.34 8.34 0 0 1-6-2.28 7.92 7.92 0 0 1-2.39-6 8.75 8.75 0 0 1 .55-3 12.63 12.63 0 0 1 1.41-2.72l5.31-7.79h6.33l-4.71 6.44.06.06a2.21 2.21 0 0 1 .5-.1h.54a6.21 6.21 0 0 1 4.87 2.16 7.37 7.37 0 0 1 1.82 5.1 7.77 7.77 0 0 1-2.4 5.82zm-3.93-7.47a3 3 0 0 0-2.12-.81 2.82 2.82 0 0 0-2.06.8 2.7 2.7 0 0 0-.83 2 2.94 2.94 0 0 0 .81 2.1 2.77 2.77 0 0 0 2.08.87 3 3 0 0 0 2.11-.82 2.72 2.72 0 0 0 .89-2.07 2.77 2.77 0 0 0-.88-2.07z"/><path data-name="Path 25302" d="M127.26 46.33a8.57 8.57 0 0 1-5.37 1.8 9.43 9.43 0 0 1-3.7-.73 6.1 6.1 0 0 1-3-2.27 6.43 6.43 0 0 1-.84-1.82 12.9 12.9 0 0 1-.35-2h5.51a2.31 2.31 0 0 0 2.48 2 2.08 2.08 0 0 0 2.35-2.31 2 2 0 0 0-1.76-2.05 7.43 7.43 0 0 0-1.56-.14h-1.47v-4h1.23a4.74 4.74 0 0 0 1.17-.23 1.81 1.81 0 0 0 1.21-1.89c0-1.25-.5-1.87-1.49-1.87A1.56 1.56 0 0 0 120 32.6h-5.37a6.31 6.31 0 0 1 2.17-4.92 7.64 7.64 0 0 1 5.12-1.68 7.22 7.22 0 0 1 4.62 1.53 5.26 5.26 0 0 1 2.07 4.3 4.85 4.85 0 0 1-2.81 4.47c2.66.91 4 2.63 4 5.17a6 6 0 0 1-2.54 4.86z"/><path data-name="Path 25303" d="M154 46.33a8.52 8.52 0 0 1-5.36 1.8 9.48 9.48 0 0 1-3.71-.73 6.19 6.19 0 0 1-3-2.27 6.41 6.41 0 0 1-.83-1.82 11.778 11.778 0 0 1-.35-2h5.51a2.3 2.3 0 0 0 2.48 2 2.08 2.08 0 0 0 2.34-2.31 2 2 0 0 0-1.76-2.05 7.6 7.6 0 0 0-1.57-.14h-1.46v-4h1.22a4.74 4.74 0 0 0 1.17-.23 1.81 1.81 0 0 0 1.21-1.89c0-1.25-.49-1.87-1.49-1.87s-1.65.61-1.68 1.84h-5.37a6.34 6.34 0 0 1 2.17-4.92 7.68 7.68 0 0 1 5.13-1.74 7.23 7.23 0 0 1 4.63 1.53 5.26 5.26 0 0 1 2.07 4.3 4.84 4.84 0 0 1-2.82 4.47q4 1.36 4 5.17a6 6 0 0 1-2.53 4.86z"/><path data-name="Path 25304" d="M174.11 43.4c-1.38 3.17-3.89 4.76-7.56 4.76a8.73 8.73 0 0 1-5.25-1.58 7 7 0 0 1-2.89-4.58h5.48a2.93 2.93 0 0 0 2.51 1.34 2.78 2.78 0 0 0 2-.83 2.69 2.69 0 0 0 .86-2c0-1.87-1-2.8-2.92-2.8a2.8 2.8 0 0 0-2.79 1.84l-4.43-1.08L161 26.36h11.81V31h-7.62l-.46 2.92a6 6 0 0 1 2.88-.63 6.52 6.52 0 0 1 6.55 4.3 7.24 7.24 0 0 1 .58 2.86 7.48 7.48 0 0 1-.63 2.95z"/><path data-name="Path 25305" d="M200.84 43.4q-2.06 4.76-7.55 4.76a8.78 8.78 0 0 1-5.29-1.58 7 7 0 0 1-2.86-4.58h5.48a2.94 2.94 0 0 0 2.51 1.34 2.76 2.76 0 0 0 2-.83 2.69 2.69 0 0 0 .86-2c0-1.87-1-2.8-2.92-2.8a2.81 2.81 0 0 0-2.79 1.84l-4.42-1.08 1.84-12.11h11.81V31h-7.62l-.45 2.92a5.94 5.94 0 0 1 2.87-.63 6.54 6.54 0 0 1 6.56 4.3 7.46 7.46 0 0 1-.06 5.86z"/><path data-name="Path 25306" d="M219 37.1a13.149 13.149 0 0 1-1.48 2.8l-5.31 7.83h-6.31l4.71-6.47-.06-.06a1.5 1.5 0 0 1-.52.1h-.52a6.31 6.31 0 0 1-2.83-.69 6.71 6.71 0 0 1-3.9-6.55 7.74 7.74 0 0 1 2.39-5.82 8.15 8.15 0 0 1 5.9-2.28 8.5 8.5 0 0 1 6.72 2.79 7.56 7.56 0 0 1 1.79 5.25 8.82 8.82 0 0 1-.58 3.1zm-5.74-5.5a2.85 2.85 0 0 0-2.1-.84 2.93 2.93 0 0 0-2.07.8 2.74 2.74 0 0 0-.87 2.06 2.78 2.78 0 0 0 .84 2.07 2.91 2.91 0 0 0 2.1.83 3 3 0 0 0 2.08-.77 2.71 2.71 0 0 0 .87-2 2.85 2.85 0 0 0-.83-2.15z"/><path data-name="Path 25307" d="M220.28 56.33H14.82A14.83 14.83 0 0 1 0 41.52v-15a14.84 14.84 0 0 1 14.82-14.8h20.11v1.48H14.82A13.36 13.36 0 0 0 1.48 26.54v15a13.35 13.35 0 0 0 13.34 13.31h205.46a13.35 13.35 0 0 0 13.34-13.33v-15a13.36 13.36 0 0 0-13.34-13.32h-17.23v-1.48h17.23a14.84 14.84 0 0 1 14.82 14.82v15a14.83 14.83 0 0 1-14.82 14.79z"/><path data-name="Path 25308" d="M44.31 8v8.3h-2.73V8h-2.1V5.62h6.92V8z"/><path data-name="Path 25309" d="M55.66 12.08a7.14 7.14 0 0 1-.18 1.77 3.51 3.51 0 0 1-.88 1.5 4 4 0 0 1-3 1.16 5.16 5.16 0 0 1-1.6-.26 3.36 3.36 0 0 1-1.41-.88 3.79 3.79 0 0 1-.91-1.52 6 6 0 0 1-.14-.83v-7.4h2.72v6.46a7.06 7.06 0 0 0 0 .72 2.23 2.23 0 0 0 .2.66 1.36 1.36 0 0 0 2.31 0 2.44 2.44 0 0 0 .17-.65V5.62h2.73zm-.27-8.23H57V5.5a2.23 2.23 0 0 1-.67 1.5 2.38 2.38 0 0 1-1.3.59l-.7.06.05-1h.27a2.43 2.43 0 0 0 .57-.16 1.13 1.13 0 0 0 .73-1h-.56z"/><path data-name="Path 25310" d="M67.65 16.3h-2.81L61.28 5.62h2.79l2.15 7.49 2.16-7.49h2.81z"/><path data-name="Path 25311" d="M79.32 16.3l-.53-1.54h-3.7l-.57 1.54h-2.93l4.29-10.68H78l4.28 10.68zM77.61 4.69L77 3.85l-.66.84H74l2.25-2.4h1.55l2.17 2.4zM77 9l-1.1 3.65h2.25zm2.34-5.67l-.67-1.42L82.11 0l.76 1.7z"/><path data-name="Path 25312" d="M90 16.3l-4.06-6.49.06 6.49h-2.63V5.62h2.35l4.13 6.72-.12-6.69h2.61V16.3z"/><path data-name="Path 25313" d="M102.36 16.3h-3.74V5.62h3.54a10.93 10.93 0 0 1 1.38.08 5.59 5.59 0 0 1 1.25.3 4.31 4.31 0 0 1 2.08 1.62 5.49 5.49 0 0 1 1 3.32c-.01 3.58-1.87 5.36-5.51 5.36zm2.15-7.44a2.39 2.39 0 0 0-2-.84h-1.18v5.89h1.17a2.41 2.41 0 0 0 2-.82 3.24 3.24 0 0 0 .61-2.11 3.26 3.26 0 0 0-.6-2.12z"/><path data-name="Path 25314" d="M109.47 16.3V5.62h2.73V16.3z"/><path data-name="Path 25315" d="M120.77 16.3l-4.07-6.49.08 6.48h-2.62V5.62h2.35l4.13 6.72-.12-6.69h2.62V16.3z"/><path data-name="Path 25316" d="M131.3 16.3V12h-3.49v4.3h-2.73V5.62h2.73v4h3.49v-4h2.7V16.3z"/><path data-name="Path 25317" d="M144 16.3h-3.73V5.62h3.53a11.22 11.22 0 0 1 1.39.08 5.49 5.49 0 0 1 1.24.3 4.38 4.38 0 0 1 2.09 1.62 5.49 5.49 0 0 1 1 3.32c-.01 3.58-1.85 5.36-5.52 5.36zm2.16-7.44a2.39 2.39 0 0 0-2-.84H143v5.89h1.17a2.4 2.4 0 0 0 2-.82 3.24 3.24 0 0 0 .62-2.11 3.32 3.32 0 0 0-.63-2.12z"/><path data-name="Path 25318" d="M159.28 12.08a7.139 7.139 0 0 1-.18 1.77 3.41 3.41 0 0 1-.88 1.5 4 4 0 0 1-3 1.16 5.2 5.2 0 0 1-1.66-.26 3.49 3.49 0 0 1-1.41-.88 3.65 3.65 0 0 1-.9-1.52 4.78 4.78 0 0 1-.14-.83v-7.4h2.73v6.46a5 5 0 0 0 0 .72 2.24 2.24 0 0 0 .19.66 1.357 1.357 0 0 0 2.31.01 2.11 2.11 0 0 0 .17-.65 7.125 7.125 0 0 0 0-.74V5.62h2.72zM159 3.85h1.61V5.5A2.19 2.19 0 0 1 160 7a2.35 2.35 0 0 1-1.3.59l-.7.06.05-1h.28a2.39 2.39 0 0 0 .56-.16 1.13 1.13 0 0 0 .73-1H159z"/><path data-name="Path 25319" d="M170.34 14.92a5.79 5.79 0 0 1-7.94 0 5.09 5.09 0 0 1-1.68-3.85 6.25 6.25 0 0 1 .42-2.29 4.55 4.55 0 0 1 .7-1.19 5.36 5.36 0 0 1 4.51-2.2 5.52 5.52 0 0 1 4 1.6A5.26 5.26 0 0 1 172 11a5.31 5.31 0 0 1-1.66 3.92zm-1.06-10.87a3.06 3.06 0 0 1-1.63.54 3.25 3.25 0 0 1-.57-.06l-1.19-.26a3.05 3.05 0 0 0-.55-.06 1.69 1.69 0 0 0-.53.09l-.51.19-.87-1.28a4.649 4.649 0 0 1 .77-.35 2.5 2.5 0 0 1 .82-.15 3.19 3.19 0 0 1 .59.06l.29.06.58.13.29.06a4.54 4.54 0 0 0 .59 0 2.85 2.85 0 0 0 1.06-.24zm-.81 4.73a2.68 2.68 0 0 0-2.1-1 2.72 2.72 0 0 0-2.12.93 3.2 3.2 0 0 0-.8 2.19 3.21 3.21 0 0 0 .81 2.22 2.7 2.7 0 0 0 2.13.95 2.62 2.62 0 0 0 2.08-1 3.17 3.17 0 0 0 .79-2.17 3.23 3.23 0 0 0-.79-2.12zm1.66-4.93h1.61V5.5a2.19 2.19 0 0 1-.67 1.5 2.35 2.35 0 0 1-1.3.59l-.7.06.05-1h.28a2.39 2.39 0 0 0 .6-.15 1.13 1.13 0 0 0 .73-1h-.56z"/><path data-name="Path 25320" d="M180.1 16.3L176 9.81l.08 6.48h-2.62V5.62h2.35l4.13 6.72-.12-6.69h2.62V16.3z"/><path data-name="Path 25321" d="M195.32 10.79a5.59 5.59 0 0 1-1.62 4.1 5.87 5.87 0 0 1-8.1 0 5.4 5.4 0 0 1-1.65-4A5.19 5.19 0 0 1 185.63 7a5.88 5.88 0 0 1 7.37-.54 4.92 4.92 0 0 1 2 2.74h-3.06a2.52 2.52 0 0 0-2.35-1.38 2.71 2.71 0 0 0-2.11.92 3.11 3.11 0 0 0-.81 2.18 3.34 3.34 0 0 0 .78 2.26 2.73 2.73 0 0 0 2.15 1 3 3 0 0 0 1.6-.42 2.11 2.11 0 0 0 1-1.3H189v-2.23h6.33v.28z"/></g></g></svg>