<svg xmlns="http://www.w3.org/2000/svg" width="62.638" height="55.258" viewBox="0 0 62.638 55.258"><g data-name="Group 191"><g data-name="Group 190"><g data-name="Group 183"><g data-name="Group 182"><path data-name="Path 25277" d="M51.933 6.321a1.223 1.223 0 1 0 1.223 1.223 1.224 1.224 0 0 0-1.223-1.223z" fill="#3eb7e4"/></g></g><g data-name="Group 185"><g data-name="Group 184"><path data-name="Path 25278" d="M58.29 5.089A15.06 15.06 0 0 0 46.89 0a17.7 17.7 0 0 0-12.797 5.435 21.68 21.68 0 0 0-2.774 3.452 21.7 21.7 0 0 0-2.774-3.452A17.7 17.7 0 0 0 15.751 0C6.471 0 0 7.764 0 16.994c0 12.469 13.213 22.968 30.518 37.965a1.223 1.223 0 0 0 1.6 0c17.348-15.033 30.52-25.513 30.52-37.965A17.82 17.82 0 0 0 58.29 5.089zM31.319 52.416C14.978 38.275 2.447 28.119 2.447 16.994c0-8.293 5.72-14.548 13.3-14.548a15.094 15.094 0 0 1 10.995 4.649 18.24 18.24 0 0 1 3.458 4.774 1.223 1.223 0 0 0 1.114.722 1.225 1.225 0 0 0 1.116-.722 18.242 18.242 0 0 1 3.457-4.773 15.093 15.093 0 0 1 10.995-4.649c7.585 0 13.3 6.254 13.3 14.548.01 11.375-13.349 21.996-28.863 35.421z" fill="#3eb7e4"/></g></g><g data-name="Group 187"><g data-name="Group 186"><path data-name="Path 25279" d="M56.212 10.68a1.223 1.223 0 1 0-2.167 1.136 11.341 11.341 0 0 1 1.252 5.178c0 3.535-1.683 7.287-5.3 11.808a1.223 1.223 0 1 0 1.911 1.528c3.978-4.978 5.831-9.215 5.831-13.336a13.64 13.64 0 0 0-1.527-6.314z" fill="#3eb7e4"/></g></g><g data-name="Group 189"><g data-name="Group 188"><path data-name="Path 25280" d="M43.064 23.449h-6.851v-6.851a1.223 1.223 0 0 0-1.223-1.223h-7.339a1.223 1.223 0 0 0-1.223 1.223v6.851h-6.851a1.223 1.223 0 0 0-1.226 1.224v7.34a1.223 1.223 0 0 0 1.223 1.223h6.851v6.851a1.223 1.223 0 0 0 1.223 1.223h7.34a1.223 1.223 0 0 0 1.223-1.223v-6.848h6.851a1.223 1.223 0 0 0 1.223-1.223v-7.34a1.223 1.223 0 0 0-1.221-1.227zm-1.223 7.34H34.99a1.223 1.223 0 0 0-1.223 1.223v6.851h-4.894v-6.851a1.223 1.223 0 0 0-1.223-1.223h-6.851v-4.894h6.852a1.223 1.223 0 0 0 1.223-1.223v-6.851h4.894v6.851a1.223 1.223 0 0 0 1.223 1.223h6.851z" fill="#3eb7e4"/></g></g></g></g></svg>