<svg xmlns="http://www.w3.org/2000/svg" width="39.609" height="52.886" viewBox="0 0 39.609 52.886"><g data-name="Group 192" fill="#3eb7e4"><path data-name="Path 25281" d="M19.805 28.437a5.439 5.439 0 0 0-6.6 8.538l5.5 5.5a1.549 1.549 0 0 0 2.191 0l5.5-5.5a5.438 5.438 0 0 0-6.595-8.538zm4.4 6.347l-4.4 4.4-4.4-4.4a2.34 2.34 0 1 1 3.309-3.309 1.55 1.55 0 0 0 2.191 0 2.34 2.34 0 1 1 3.309 3.309z"/><path data-name="Path 25282" d="M26.289 21.007a11.507 11.507 0 1 0-12.969 0C1.403 25.146 0 36.241 0 39.719v5.83a7.345 7.345 0 0 0 7.336 7.336h24.937a7.345 7.345 0 0 0 7.336-7.336v-5.832c0-3.551-1.597-14.639-13.32-18.71zm-14.893-9.5a8.408 8.408 0 1 1 8.408 8.408 8.418 8.418 0 0 1-8.408-8.408zM36.51 45.55a4.242 4.242 0 0 1-4.237 4.237H26.4a1.725 1.725 0 0 1-1.726-1.728 1.81 1.81 0 0 1 1.811-1.811h4.937a1.55 1.55 0 0 0 1.549-1.55V38.06a1.55 1.55 0 1 0-3.1 0v5.089h-3.387a4.907 4.907 0 0 0-4.91 4.912 4.825 4.825 0 0 0 .318 1.726h-4.191a4.866 4.866 0 0 0-4.534-6.638h-3.43V38.06a1.55 1.55 0 1 0-3.1 0v6.638a1.549 1.549 0 0 0 1.549 1.549h4.979a1.77 1.77 0 0 1 0 3.539H7.336a4.242 4.242 0 0 1-4.237-4.237v-5.83a16.706 16.706 0 0 1 33.411 0z"/></g></svg>