<svg xmlns="http://www.w3.org/2000/svg" width="58.769" height="51" viewBox="0 0 58.769 51"><g data-name="Group 203"><g data-name="Group 194"><g data-name="Group 193"><path data-name="Path 25283" d="M45.493 48.975l-6.168-6.164a1.137 1.137 0 0 0-.815-.333h-3.33a15.4 15.4 0 0 1-5.375-.976l1.987-1.332a3.615 3.615 0 0 0-2.021-6.615h-.057l4.571-4.571a3.556 3.556 0 0 0 0-5.03 3.754 3.754 0 0 0-1.16-.779 3.57 3.57 0 0 0-3.078-5.363 3.62 3.62 0 0 0-1.8.482 3.392 3.392 0 0 0-.781-1.16 3.549 3.549 0 0 0-5.03 0l-1.646 1.641a3.416 3.416 0 0 0-.724-1.045 3.549 3.549 0 0 0-5.03 0l-.724.724-2.963-2.94a2.206 2.206 0 0 1 2.952-3.273l2.871 2.871a1.128 1.128 0 0 0 .815.333 1.176 1.176 0 0 0 .815-.333 1.144 1.144 0 0 0 0-1.619l-4.937-4.94a2.209 2.209 0 0 1 3.124-3.124l8.659 8.682a1.128 1.128 0 0 0 .815.333 1.176 1.176 0 0 0 .815-.333 1.144 1.144 0 0 0 0-1.619l-6.581-6.6A2.206 2.206 0 0 1 23.97 2.94l2.412 2.412a1.145 1.145 0 1 0 1.619-1.619l-2.412-2.412a4.49 4.49 0 0 0-7.522 2.021 4.493 4.493 0 0 0-5.811.471 4.506 4.506 0 0 0-.471 5.811 4.445 4.445 0 0 0-2.021 1.16 4.515 4.515 0 0 0-.276 6.064 4.441 4.441 0 0 0-1.975 1.148 4.5 4.5 0 0 0 0 6.362l.517.517a12.865 12.865 0 0 0-2.986 8.292v1.908l-4.708 4.7a1.144 1.144 0 0 0 0 1.619 1.128 1.128 0 0 0 .815.333 1.176 1.176 0 0 0 .815-.333l5.053-5.053a1.137 1.137 0 0 0 .333-.815v-2.377a10.6 10.6 0 0 1 3.124-7.557l5.7-5.7.549-.543a1.263 1.263 0 0 1 2.159.9 1.255 1.255 0 0 1-.276.792l-1.562 1.527a1.144 1.144 0 0 0 0 1.619 1.128 1.128 0 0 0 .815.333 1.176 1.176 0 0 0 .815-.333l5.41-5.412a1.263 1.263 0 0 1 1.883 1.677l-5.512 5.523a1.144 1.144 0 0 0 0 1.619 1.128 1.128 0 0 0 .815.333 1.176 1.176 0 0 0 .815-.333l7.1-7.109a1.275 1.275 0 0 1 1.792 0 1.255 1.255 0 0 1 0 1.78l-7.109 7.1a1.145 1.145 0 0 0 1.619 1.619l5.524-5.513a1.258 1.258 0 0 1 1.677 1.872l-7.752 7.752a1.5 1.5 0 0 0 1.849 2.343l2.343-1.424a1.315 1.315 0 0 1 1.413 2.217l-5.421 3.629a10.622 10.622 0 0 1-5.938 1.8h-3.7a1.186 1.186 0 0 0-.815.333l-5.054 5.055a1.144 1.144 0 0 0 0 1.619 1.128 1.128 0 0 0 .815.333 1.176 1.176 0 0 0 .815-.333l4.709-4.709h3.227a12.943 12.943 0 0 0 7.224-2.194l1.16-.781a17.581 17.581 0 0 0 7.637 1.746h2.86l5.834 5.834a1.128 1.128 0 0 0 .815.333 1.176 1.176 0 0 0 .815-.333 1.134 1.134 0 0 0-.033-1.588zM11.958 20.842l-2.366 2.365-.467-.47a2.206 2.206 0 0 1 2.952-3.273l.632.632z" fill="#3eb7e4"/></g></g><g data-name="Group 196"><g data-name="Group 195"><path data-name="Path 25284" d="M58.436 36.047a1.137 1.137 0 0 0-.815-.333 1.186 1.186 0 0 0-.815.333 1.137 1.137 0 0 0-.333.815 1.208 1.208 0 0 0 .333.815 1.137 1.137 0 0 0 .815.333 1.186 1.186 0 0 0 .815-.333 1.137 1.137 0 0 0 .333-.815 1.165 1.165 0 0 0-.333-.815z" fill="#3eb7e4"/></g></g><g data-name="Group 198"><g data-name="Group 197"><path data-name="Path 25285" d="M55.347 32.958l-2.745-2.745.011-4.64a17.6 17.6 0 0 0-2.974-9.819L44.586 8.22a4.576 4.576 0 0 0-8.165 3.928l-3-3a1.145 1.145 0 1 0-1.619 1.619l6.443 6.443a1.61 1.61 0 0 0 2.171.126 1.626 1.626 0 0 0 .391-2.148l-1.975-3.262a2.283 2.283 0 0 1 2.366-3.422 2.248 2.248 0 0 1 1.47.976l5.053 7.534a15.286 15.286 0 0 1 2.6 8.533l-.012 5.122a1.137 1.137 0 0 0 .333.815l3.078 3.078a1.128 1.128 0 0 0 .815.333 1.177 1.177 0 0 0 .815-.333 1.13 1.13 0 0 0-.003-1.604z" fill="#3eb7e4"/></g></g><g data-name="Group 200"><g data-name="Group 199"><path data-name="Path 25286" d="M30.713 6.44a1.137 1.137 0 0 0-.815-.333 1.208 1.208 0 0 0-.815.333 1.137 1.137 0 0 0-.333.815 1.208 1.208 0 0 0 .333.815 1.137 1.137 0 0 0 .815.333 1.208 1.208 0 0 0 .815-.333 1.137 1.137 0 0 0 .333-.815 1.186 1.186 0 0 0-.333-.815z" fill="#3eb7e4"/></g></g><g data-name="Group 202"><g data-name="Group 201"><path data-name="Path 25287" d="M41.37 24.264a1.145 1.145 0 0 0-1.619-1.619l-.505.494a5.5 5.5 0 0 0 0 7.775 1.128 1.128 0 0 0 .815.333 1.177 1.177 0 0 0 .815-.333 1.144 1.144 0 0 0 0-1.619 3.209 3.209 0 0 1 0-4.536z" fill="#3eb7e4"/></g></g></g></svg>