<svg xmlns="http://www.w3.org/2000/svg" width="55" height="55" viewBox="0 0 55 55">
  <g id="Group_1840" data-name="Group 1840" transform="translate(316.195 -81.425)">
    <g id="Ellipse_20" data-name="Ellipse 20">
      <circle id="Ellipse_1" data-name="Ellipse 1" cx="27.5" cy="27.5" r="27.5" transform="translate(-316.195 81.425)" fill="none"/>
      <circle id="Ellipse_2" data-name="Ellipse 2" cx="27" cy="27" r="27" transform="translate(-315.695 81.925)" fill="none" stroke="#ffffff" stroke-width="1"/>
    </g>
    <path id="facebook" d="M-287.274,121.8h-4.049a1.227,1.227,0,0,1-1.226-1.226v-9.132h-2.363a1.228,1.228,0,0,1-1.226-1.224V106.3a1.227,1.227,0,0,1,1.226-1.226h2.363v-1.958a6.675,6.675,0,0,1,1.764-4.78,6.354,6.354,0,0,1,4.685-1.82l3.088.005a1.228,1.228,0,0,1,1.224,1.226v3.634a1.227,1.227,0,0,1-1.226,1.226h-2.079c-.634,0-.8.127-.83.166-.057.065-.125.247-.125.752v1.549h2.877a1.25,1.25,0,0,1,.607.154,1.232,1.232,0,0,1,.631,1.073v3.913a1.227,1.227,0,0,1-1.226,1.226h-2.889v9.132A1.227,1.227,0,0,1-287.274,121.8Zm-3.793-1.482h3.537v-9.54a.821.821,0,0,1,.819-.819h3.3v-3.4h-3.3a.821.821,0,0,1-.819-.819v-2.212a2.527,2.527,0,0,1,.5-1.733,2.512,2.512,0,0,1,1.941-.667h1.823V98.006H-286.1c-3.063,0-4.966,1.961-4.966,5.116v2.618a.821.821,0,0,1-.819.819h-2.769v3.4h2.77a.821.821,0,0,1,.819.819Zm8.052-22.313" fill="#ffffff"/>
  </g>
</svg>