<svg id="Outline" xmlns="http://www.w3.org/2000/svg" width="48.67" height="41.76" viewBox="0 0 48.67 41.76">
  <path id="Path_30920" data-name="Path 30920" d="M12.4,80.748h6.409V71.135a8.823,8.823,0,0,1,8.813-8.813h8.055a3.594,3.594,0,0,1,.557-3.564v-.541a11.216,11.216,0,0,1,22.432,0v4.006a11.19,11.19,0,0,1-6.9,10.356l-.108.043v5.455l3.959,5.218a4.109,4.109,0,0,1,2.45,3.759v.906a.8.8,0,0,1-.8.8H51.66a.8.8,0,0,1-.62-.294l-7.21-8.813a.8.8,0,0,1-.181-.507V78.7a12.149,12.149,0,0,1-1.343.778l2.9,3.821a4.127,4.127,0,0,1,2.45,3.758v.906a.8.8,0,0,1-.8.8H41.245a.8.8,0,0,1-.626-.3L34.45,80.748H33.317l.283,2.827a4.714,4.714,0,0,1-5.835,5.043l-1.922-.481A4.985,4.985,0,0,1,22,88.549l-3.517-1.054-.141.212a2.367,2.367,0,0,1-3.972-.051l-.034.051A2.367,2.367,0,0,1,10,86.393V83.152a2.406,2.406,0,0,1,2.4-2.4Zm8.012-9.614v1.228a4.8,4.8,0,0,1,8.012,3.579v3.2h1.6V63.924h-2.4A7.218,7.218,0,0,0,20.415,71.135Zm36.653-8.913V58.216a9.614,9.614,0,0,0-19.209-.6,3.588,3.588,0,0,1,1.183-.2h.4v1.6h-.4a2,2,0,1,0,0,4.006h.4v1.6h-.4a3.6,3.6,0,0,1-.927-.121A9.615,9.615,0,0,0,48.1,71.814l.039,0a9.6,9.6,0,0,0,8.926-9.589ZM52.039,87.157h4.427v-.105A2.506,2.506,0,0,0,54.835,84.7a.8.8,0,0,1-.36-.267L50.22,78.829a.8.8,0,0,1-.163-.484V73.134a11.176,11.176,0,0,1-1.763.272l-.042,0-.129.007-.526.965a12.166,12.166,0,0,1-2.347,3.038V78.86Zm-16.4-7.491,5.993,7.491h4.422v-.1A2.516,2.516,0,0,0,44.419,84.7a.8.8,0,0,1-.359-.267l-4.255-5.608a.8.8,0,0,1-.163-.484V74.339h1.6v3.736l.07.093a10.6,10.6,0,0,0,4.875-4.554l.128-.235c-.168-.017-.334-.036-.5-.061a11.214,11.214,0,0,1-9.452-9.394H31.631V79.146h2.4V74.339h1.6Zm-7.483,7.4a3.113,3.113,0,0,0,3.851-3.329l-.3-2.987H28.426v3.019a4.967,4.967,0,0,1-1.08,3.1Zm-11.782.093A.763.763,0,0,0,16.835,87l-1.184-.355a.763.763,0,0,0,.721.513Zm-4.77-.764a.764.764,0,0,0,1.4.424l1.138-1.706a.8.8,0,0,1,.9-.323l7.422,2.227a3.39,3.39,0,0,0,4.365-3.248V75.941a3.2,3.2,0,0,0-6.409,0v5.608a.8.8,0,0,1-.8.8H12.4a.8.8,0,0,0-.8.8Z" transform="translate(-10 -47)" fill="#0054a5"/>
  <ellipse id="Ellipse_823" data-name="Ellipse 823" cx="2" cy="1.5" rx="2" ry="1.5" transform="translate(41.373 13.82)" fill="#0054a5"/>
  <ellipse id="Ellipse_824" data-name="Ellipse 824" cx="2" cy="1.5" rx="2" ry="1.5" transform="translate(32.373 13.82)" fill="#0054a5"/>
  <path id="Path_30921" data-name="Path 30921" d="M84.4,233.4A2.406,2.406,0,0,1,82,231h1.6a.8.8,0,0,0,1.6,0h1.6A2.406,2.406,0,0,1,84.4,233.4Z" transform="translate(-45.347 -212.574)" fill="#0054a5"/>
  <path id="Path_30922" data-name="Path 30922" d="M77.228,102.5a.8.8,0,0,1-1.069-.9l.132-.7a2.574,2.574,0,0,0-.483-2.095,2.448,2.448,0,0,0-1.816-.942l.091-1.6a4.082,4.082,0,0,1,2.987,1.555,4.158,4.158,0,0,1,.871,2.522,2.157,2.157,0,0,0,.566-.721,2.637,2.637,0,0,0,.153-2.221l1.455-.671a4.208,4.208,0,0,1-.179,3.615A4.423,4.423,0,0,1,77.228,102.5Z" transform="translate(-38.181 -91.334)" fill="#0054a5"/>
</svg>
