<svg xmlns="http://www.w3.org/2000/svg" width="31.042" height="45.474" viewBox="0 0 31.042 45.474">
  <g id="milk" transform="translate(-80.773)">
    <path id="Path_30910" data-name="Path 30910" d="M133.387,311.485a.419.419,0,0,1-.38.212.375.375,0,0,1-.358-.212l-.694-1.271v2.813c0,.234-.285.351-.57.351s-.57-.117-.57-.351v-4.421a.527.527,0,0,1,.57-.57c.409,0,.585.044.884.57l.753,1.315.753-1.315c.3-.526.475-.57.884-.57a.524.524,0,0,1,.57.57v4.421c0,.234-.285.351-.57.351s-.57-.117-.57-.351v-2.74Z" transform="translate(-45.571 -280.517)" fill="#3eb7e4"/>
    <path id="Path_30911" data-name="Path 30911" d="M202.137,308.379c0-.241.285-.343.57-.343s.57.1.57.343v4.647c0,.234-.285.351-.57.351s-.57-.117-.57-.351Z" transform="translate(-110.522 -280.517)" fill="#3eb7e4"/>
    <path id="Path_30912" data-name="Path 30912" d="M237.314,313.377c-.248,0-.5-.117-.5-.351v-4.647c0-.241.285-.343.57-.343s.57.1.57.343v4h1.666c.219,0,.329.248.329.5s-.11.5-.329.5Z" transform="translate(-142.103 -280.517)" fill="#3eb7e4"/>
    <path id="Path_30913" data-name="Path 30913" d="M290.145,308.379c0-.241.285-.343.57-.343s.57.1.57.343v1.754l1.366-1.936a.342.342,0,0,1,.3-.161.726.726,0,0,1,.672.585.37.37,0,0,1-.073.219l-1.2,1.505,1.513,2.316a.362.362,0,0,1,.058.19.7.7,0,0,1-.687.57.441.441,0,0,1-.395-.212l-1.249-1.9-.307.395v1.323c0,.234-.285.351-.57.351s-.57-.117-.57-.351Z" transform="translate(-190.667 -280.517)" fill="#3eb7e4"/>
    <path id="Path_30914" data-name="Path 30914" d="M109.885,4.02H104.13a.67.67,0,0,0,0,1.34h5.754a.59.59,0,1,1,0,1.179H97.962V5.36h3.489a.67.67,0,0,0,0-1.34H97.643L95.583,1.031a2.384,2.384,0,0,0-3.925,0L89.4,4.31a.683.683,0,0,0-.118.38V8.8A28.125,28.125,0,0,0,83.5,9.849c-1.832.593-2.723,1.331-2.723,2.259v24.3a.67.67,0,1,0,1.34,0V34.59a13.155,13.155,0,0,0,3.49,1.1.655.655,0,0,0,.04.08,10.072,10.072,0,0,0,17.291,0c.011-.018.02-.036.029-.054a14.8,14.8,0,0,0,3.5-1.039v7.3c-.054.186-.8.828-3.472,1.387a44.5,44.5,0,0,1-8.7.766,43.753,43.753,0,0,1-8.788-.789c-2.72-.586-3.364-1.257-3.387-1.4V39.085a.67.67,0,1,0-1.34,0v2.857c0,1.159,1.4,2.035,4.287,2.677a44.515,44.515,0,0,0,9.229.854,44.933,44.933,0,0,0,9.227-.848c2.885-.636,4.288-1.5,4.288-2.639V12.108c0-1-1.036-1.781-3.168-2.395a33.44,33.44,0,0,0-6.674-1.019V7.879h11.923a1.93,1.93,0,0,0,0-3.859ZM96.621,7.209V9.6a.43.43,0,0,1-.43.43H91.049a.43.43,0,0,1-.43-.43V5.36h6V7.209ZM92.761,1.791a1.044,1.044,0,0,1,1.718,0L96.016,4.02H91.224Zm13.7,12.01v1.166c-.023.147-.667.818-3.387,1.4a43.745,43.745,0,0,1-8.788.789,43.745,43.745,0,0,1-8.788-.789c-2.72-.586-3.364-1.257-3.387-1.4V13.8a11.894,11.894,0,0,0,2.947.984,44.515,44.515,0,0,0,9.229.854,44.51,44.51,0,0,0,9.229-.854A11.888,11.888,0,0,0,106.463,13.8Zm0,9.292c-.788.209-2.4.6-4.54.943a10.07,10.07,0,0,0-15.268,0c-2.177-.346-3.793-.742-4.492-.926l-.05-.011V16.663a11.894,11.894,0,0,0,2.947.984,44.516,44.516,0,0,0,9.229.854,44.515,44.515,0,0,0,9.229-.854,11.89,11.89,0,0,0,2.947-.984v6.43ZM100.3,24.268a48.05,48.05,0,0,1-6.009.391,47.93,47.93,0,0,1-6.005-.394,8.729,8.729,0,0,1,12.014,0ZM94.288,39.333a8.787,8.787,0,0,1-6.868-3.341,52.085,52.085,0,0,0,6.868.439,52.513,52.513,0,0,0,6.854-.421,8.788,8.788,0,0,1-6.854,3.324Zm12.129-6.183a11.23,11.23,0,0,1-4.33,1.358,49.013,49.013,0,0,1-7.8.582c-6.374,0-10.952-1.032-12.024-2a.669.669,0,0,0-.151-.1V24.477A51.164,51.164,0,0,0,94.288,26a51.492,51.492,0,0,0,12.175-1.522v8.64c-.016.01-.031.021-.046.033Zm.046-21.044h0c-.024.148-.668.818-3.387,1.4a43.745,43.745,0,0,1-8.788.789A43.746,43.746,0,0,1,85.5,13.51c-2.717-.585-3.362-1.255-3.387-1.4h0c0-.011.164-.477,1.913-1.023a27.321,27.321,0,0,1,5.338-.949,1.773,1.773,0,0,0,1.685,1.229h5.143A1.772,1.772,0,0,0,97.9,10.034a32.667,32.667,0,0,1,6.232.932c2.145.6,2.325,1.138,2.326,1.141Z" transform="translate(0 0)" fill="#3eb7e4"/>
  </g>
</svg>
