<svg xmlns="http://www.w3.org/2000/svg" width="24.7" height="23" viewBox="0 0 24.7 23">
  <g id="Group_1" data-name="Group 1" transform="translate(-0.001 -17.047)">
    <g id="Group_152" data-name="Group 152" transform="translate(0 17.047)">
      <g id="Group_151" data-name="Group 151" transform="translate(0)">
        <path id="Path_25242" data-name="Path 25242" d="M24.286,27.441,20.542,23.7V19.373a1.416,1.416,0,0,0-2.831,0v1.493l-2.787-2.787a3.725,3.725,0,0,0-5.149,0l-9.36,9.36a1.416,1.416,0,0,0,2,2l9.359-9.36a.836.836,0,0,1,1.146,0l9.361,9.361a1.416,1.416,0,1,0,2-2Z" transform="translate(0 -17.047)" fill="#3eb7e4"/>
        <path id="Path_25243" data-name="Path 25243" d="M78.047,127.952a.7.7,0,0,0-.983,0l-8.233,8.231a.7.7,0,0,0-.2.492v6a2.551,2.551,0,0,0,2.551,2.551h4.076v-6.313h4.6v6.313h4.076a2.551,2.551,0,0,0,2.551-2.551v-6a.694.694,0,0,0-.2-.492Z" transform="translate(-65.205 -122.228)" fill="#3eb7e4"/>
      </g>
    </g>
  </g>
</svg>
