<svg xmlns="http://www.w3.org/2000/svg" width="32" height="45" viewBox="0 0 32 45">
  <g id="Vector_Smart_Object1_copy" data-name="Vector Smart Object1 copy" transform="translate(-51 -553)">
    <g id="Vector_Smart_Object1_copy-2" data-name="Vector Smart Object1 copy" transform="matrix(-1, 0, 0, -1, 621.673, 296.66)">
      <g id="Group_127" data-name="Group 127">
        <g id="Group_126" data-name="Group 126">
          <g id="Group_125" data-name="Group 125">
            <path id="Path_25227" data-name="Path 25227" d="M545.231-256.34h0a6.318,6.318,0,0,1-4.329-11.1l7.767-6.641a6.216,6.216,0,0,0,0-9.515l-7.767-6.641a6.319,6.319,0,0,1,4.329-11.1h0a6.671,6.671,0,0,1,4.33,1.586l18.9,16.157a6.216,6.216,0,0,1,0,9.515l-18.9,16.156A6.664,6.664,0,0,1,545.231-256.34Z" fill="#ce6638"/>
          </g>
        </g>
      </g>
    </g>
    <path id="Color_Overlay" data-name="Color Overlay" d="M72.112,596.415l-18.9-16.157a6.216,6.216,0,0,1,0-9.516l18.9-16.155A6.662,6.662,0,0,1,76.442,553a6.318,6.318,0,0,1,4.328,11.1L73,570.742a6.216,6.216,0,0,0,0,9.516l7.766,6.64A6.319,6.319,0,0,1,76.442,598,6.671,6.671,0,0,1,72.112,596.415Z" fill="#26a9e0"/>
  </g>
</svg>
