<svg xmlns="http://www.w3.org/2000/svg" width="39.609" height="52.886" viewBox="0 0 39.609 52.886">
  <g id="Group_192" data-name="Group 192" transform="translate(-64.873 0.998)">
    <path id="Path_25281" data-name="Path 25281" d="M185.323,267.33a5.439,5.439,0,0,0-6.6,8.538l5.5,5.5a1.549,1.549,0,0,0,2.191,0l5.5-5.5a5.438,5.438,0,0,0-6.595-8.538Zm4.4,6.347-4.4,4.4-4.4-4.4a2.34,2.34,0,1,1,3.309-3.309,1.55,1.55,0,0,0,2.191,0,2.34,2.34,0,1,1,3.309,3.309Z" transform="translate(-100.645 -239.891)" fill="#3eb7e4"/>
    <path id="Path_25282" data-name="Path 25282" d="M91.162,20.009a11.507,11.507,0,1,0-12.969,0c-11.917,4.139-13.32,15.234-13.32,18.712v5.83a7.345,7.345,0,0,0,7.336,7.336H97.146a7.345,7.345,0,0,0,7.336-7.336V38.719C104.482,35.168,102.885,24.08,91.162,20.009Zm-14.893-9.5a8.408,8.408,0,1,1,8.408,8.408A8.418,8.418,0,0,1,76.269,10.509Zm25.114,34.043a4.242,4.242,0,0,1-4.237,4.237H91.273a1.725,1.725,0,0,1-1.726-1.728,1.81,1.81,0,0,1,1.811-1.811h4.937A1.55,1.55,0,0,0,97.844,43.7V37.062a1.549,1.549,0,1,0-3.1,0v5.089H91.357a4.907,4.907,0,0,0-4.91,4.912,4.825,4.825,0,0,0,.318,1.726H82.574a4.866,4.866,0,0,0-4.534-6.638H74.61V37.062a1.549,1.549,0,1,0-3.1,0V43.7a1.549,1.549,0,0,0,1.549,1.549h4.979a1.77,1.77,0,0,1,0,3.539H72.209a4.242,4.242,0,0,1-4.237-4.237v-5.83a16.706,16.706,0,0,1,33.411,0Z" fill="#3eb7e4"/>
  </g>
</svg>
