<svg xmlns="http://www.w3.org/2000/svg" width="62.638" height="55.258" viewBox="0 0 62.638 55.258">
  <g id="Group_191" data-name="Group 191" transform="translate(-415.362 -1291.867)">
    <g id="Group_190" data-name="Group 190" transform="translate(415.362 1261.702)">
      <g id="Group_183" data-name="Group 183" transform="translate(50.71 36.486)">
        <g id="Group_182" data-name="Group 182">
          <path id="Path_25277" data-name="Path 25277" d="M415.723,81.836a1.223,1.223,0,1,0,1.223,1.223A1.224,1.224,0,0,0,415.723,81.836Z" transform="translate(-414.5 -81.836)" fill="#3eb7e4"/>
        </g>
      </g>
      <g id="Group_185" data-name="Group 185" transform="translate(0 30.165)">
        <g id="Group_184" data-name="Group 184">
          <path id="Path_25278" data-name="Path 25278" d="M58.29,35.254a15.06,15.06,0,0,0-11.4-5.089A17.7,17.7,0,0,0,34.093,35.6a21.68,21.68,0,0,0-2.774,3.452A21.7,21.7,0,0,0,28.545,35.6a17.7,17.7,0,0,0-12.794-5.435C6.471,30.165,0,37.929,0,47.159,0,59.628,13.213,70.127,30.518,85.124a1.223,1.223,0,0,0,1.6,0C49.466,70.091,62.638,59.611,62.638,47.159A17.82,17.82,0,0,0,58.29,35.254ZM31.319,82.581C14.978,68.44,2.447,58.284,2.447,47.159c0-8.293,5.72-14.548,13.3-14.548a15.094,15.094,0,0,1,10.995,4.649A18.24,18.24,0,0,1,30.2,42.034a1.223,1.223,0,0,0,1.114.722h0a1.225,1.225,0,0,0,1.116-.722,18.242,18.242,0,0,1,3.457-4.773,15.093,15.093,0,0,1,10.995-4.649c7.585,0,13.3,6.254,13.3,14.548C60.192,58.535,46.833,69.156,31.319,82.581Z" transform="translate(0 -30.165)" fill="#3eb7e4"/>
        </g>
      </g>
      <g id="Group_187" data-name="Group 187" transform="translate(49.735 40.189)">
        <g id="Group_186" data-name="Group 186" transform="translate(0 0)">
          <path id="Path_25279" data-name="Path 25279" d="M413.007,112.759a1.223,1.223,0,1,0-2.167,1.136,11.341,11.341,0,0,1,1.252,5.178c0,3.535-1.683,7.287-5.3,11.808a1.223,1.223,0,1,0,1.911,1.528c3.978-4.978,5.831-9.215,5.831-13.336A13.64,13.64,0,0,0,413.007,112.759Z" transform="translate(-406.53 -112.103)" fill="#3eb7e4"/>
        </g>
      </g>
      <g id="Group_189" data-name="Group 189" transform="translate(18.351 45.54)">
        <g id="Group_188" data-name="Group 188">
          <path id="Path_25280" data-name="Path 25280" d="M174.713,163.91h-6.851v-6.851a1.223,1.223,0,0,0-1.223-1.223H159.3a1.223,1.223,0,0,0-1.223,1.223v6.851h-6.851A1.223,1.223,0,0,0,150,165.134v7.34a1.223,1.223,0,0,0,1.223,1.223h6.851v6.851a1.223,1.223,0,0,0,1.223,1.223h7.34a1.223,1.223,0,0,0,1.223-1.223V173.7h6.851a1.223,1.223,0,0,0,1.223-1.223v-7.34A1.223,1.223,0,0,0,174.713,163.91Zm-1.223,7.34h-6.851a1.223,1.223,0,0,0-1.223,1.223v6.851h-4.894v-6.851a1.223,1.223,0,0,0-1.223-1.223h-6.851v-4.894H159.3a1.223,1.223,0,0,0,1.223-1.223v-6.851h4.894v6.851a1.223,1.223,0,0,0,1.223,1.223h6.851Z" transform="translate(-150 -155.836)" fill="#3eb7e4"/>
        </g>
      </g>
    </g>
  </g>
</svg>
