<svg xmlns="http://www.w3.org/2000/svg" width="58.769" height="51" viewBox="0 0 58.769 51">
  <g id="Group_203" data-name="Group 203" transform="translate(-0.275 -67.525)">
    <g id="Group_194" data-name="Group 194" transform="translate(0.275 67.525)">
      <g id="Group_193" data-name="Group 193" transform="translate(0 0)">
        <path id="Path_25283" data-name="Path 25283" d="M45.768,116.5,39.6,110.336a1.137,1.137,0,0,0-.815-.333H35.455a15.4,15.4,0,0,1-5.375-.976l1.987-1.332a3.615,3.615,0,0,0-2.021-6.615h-.057l4.571-4.571a3.556,3.556,0,0,0,0-5.03A3.754,3.754,0,0,0,33.4,90.7a3.57,3.57,0,0,0-3.078-5.363,3.62,3.62,0,0,0-1.8.482,3.392,3.392,0,0,0-.781-1.16,3.549,3.549,0,0,0-5.03,0L21.065,86.3a3.416,3.416,0,0,0-.724-1.045,3.549,3.549,0,0,0-5.03,0l-.724.724-2.963-2.94a2.206,2.206,0,0,1,2.952-3.273l2.871,2.871a1.128,1.128,0,0,0,.815.333,1.176,1.176,0,0,0,.815-.333,1.144,1.144,0,0,0,0-1.619L14.14,76.078a2.209,2.209,0,0,1,3.124-3.124l8.659,8.682a1.128,1.128,0,0,0,.815.333,1.176,1.176,0,0,0,.815-.333,1.144,1.144,0,0,0,0-1.619l-6.581-6.6a2.206,2.206,0,0,1,3.273-2.952l2.412,2.412a1.145,1.145,0,1,0,1.619-1.619l-2.412-2.412a4.49,4.49,0,0,0-7.522,2.021,4.493,4.493,0,0,0-5.811.471,4.506,4.506,0,0,0-.471,5.811,4.445,4.445,0,0,0-2.021,1.16,4.515,4.515,0,0,0-.276,6.064,4.441,4.441,0,0,0-1.975,1.148,4.5,4.5,0,0,0,0,6.362l.517.517a12.865,12.865,0,0,0-2.986,8.292V102.6L.611,107.3a1.144,1.144,0,0,0,0,1.619,1.128,1.128,0,0,0,.815.333,1.176,1.176,0,0,0,.815-.333l5.053-5.053a1.137,1.137,0,0,0,.333-.815v-2.377a10.6,10.6,0,0,1,3.124-7.557l5.7-5.7h0L17,86.874a1.263,1.263,0,0,1,2.159.9,1.255,1.255,0,0,1-.276.792l-1.562,1.527a1.144,1.144,0,0,0,0,1.619h0a1.128,1.128,0,0,0,.815.333,1.176,1.176,0,0,0,.815-.333L24.361,86.3a1.263,1.263,0,0,1,1.883,1.677L20.732,93.5a1.144,1.144,0,0,0,0,1.619,1.128,1.128,0,0,0,.815.333,1.176,1.176,0,0,0,.815-.333l7.1-7.109a1.275,1.275,0,0,1,1.792,0,1.255,1.255,0,0,1,0,1.78l-7.109,7.1a1.145,1.145,0,0,0,1.619,1.619l5.524-5.513a1.258,1.258,0,0,1,1.677,1.872l-7.752,7.752a1.5,1.5,0,0,0,1.849,2.343l2.343-1.424a1.314,1.314,0,0,1,1.413,2.217l-5.421,3.629a10.622,10.622,0,0,1-5.938,1.8h-3.7a1.186,1.186,0,0,0-.815.333L9.89,116.573a1.144,1.144,0,0,0,0,1.619,1.128,1.128,0,0,0,.815.333,1.176,1.176,0,0,0,.815-.333l4.709-4.709h3.227a12.943,12.943,0,0,0,7.224-2.194l1.16-.781a17.581,17.581,0,0,0,7.637,1.746h2.86l5.834,5.834a1.128,1.128,0,0,0,.815.333,1.176,1.176,0,0,0,.815-.333A1.134,1.134,0,0,0,45.768,116.5ZM12.233,88.367h0L9.867,90.732,9.4,90.262a2.206,2.206,0,0,1,2.952-3.273l.632.632Z" transform="translate(-0.275 -67.525)" fill="#3eb7e4"/>
      </g>
    </g>
    <g id="Group_196" data-name="Group 196" transform="translate(56.747 103.239)">
      <g id="Group_195" data-name="Group 195" transform="translate(0 0)">
        <path id="Path_25284" data-name="Path 25284" d="M493.964,378.833a1.137,1.137,0,0,0-.815-.333,1.186,1.186,0,0,0-.815.333,1.137,1.137,0,0,0-.333.815,1.208,1.208,0,0,0,.333.815,1.137,1.137,0,0,0,.815.333,1.186,1.186,0,0,0,.815-.333,1.137,1.137,0,0,0,.333-.815A1.165,1.165,0,0,0,493.964,378.833Z" transform="translate(-492 -378.5)" fill="#3eb7e4"/>
      </g>
    </g>
    <g id="Group_198" data-name="Group 198" transform="translate(31.743 73.712)">
      <g id="Group_197" data-name="Group 197" transform="translate(0 0)">
        <path id="Path_25285" data-name="Path 25285" d="M298.154,148.168l-2.745-2.745.011-4.64a17.6,17.6,0,0,0-2.974-9.819l-5.053-7.534a4.576,4.576,0,0,0-8.165,3.928l-3-3a1.145,1.145,0,1,0-1.619,1.619l6.443,6.443a1.61,1.61,0,0,0,2.171.126,1.626,1.626,0,0,0,.391-2.148l-1.975-3.262a2.283,2.283,0,0,1,2.366-3.422,2.248,2.248,0,0,1,1.47.976l5.053,7.534a15.286,15.286,0,0,1,2.6,8.533l-.012,5.122a1.137,1.137,0,0,0,.333.815l3.078,3.078a1.128,1.128,0,0,0,.815.333,1.177,1.177,0,0,0,.815-.333A1.13,1.13,0,0,0,298.154,148.168Z" transform="translate(-274.275 -121.397)" fill="#3eb7e4"/>
      </g>
    </g>
    <g id="Group_200" data-name="Group 200" transform="translate(29.024 73.632)">
      <g id="Group_199" data-name="Group 199" transform="translate(0 0)">
        <path id="Path_25286" data-name="Path 25286" d="M252.564,121.033a1.137,1.137,0,0,0-.815-.333,1.208,1.208,0,0,0-.815.333,1.137,1.137,0,0,0-.333.815,1.208,1.208,0,0,0,.333.815,1.137,1.137,0,0,0,.815.333,1.208,1.208,0,0,0,.815-.333,1.137,1.137,0,0,0,.333-.815A1.186,1.186,0,0,0,252.564,121.033Z" transform="translate(-250.6 -120.7)" fill="#3eb7e4"/>
      </g>
    </g>
    <g id="Group_202" data-name="Group 202" transform="translate(37.91 89.834)">
      <g id="Group_201" data-name="Group 201" transform="translate(0 0)">
        <path id="Path_25287" data-name="Path 25287" d="M331.71,263.73a1.145,1.145,0,0,0-1.619-1.619l-.505.494a5.5,5.5,0,0,0,0,7.775,1.128,1.128,0,0,0,.815.333,1.177,1.177,0,0,0,.815-.333,1.144,1.144,0,0,0,0-1.619,3.209,3.209,0,0,1,0-4.536Z" transform="translate(-327.975 -261.775)" fill="#3eb7e4"/>
      </g>
    </g>
  </g>
</svg>
