<svg xmlns="http://www.w3.org/2000/svg" width="191.795" height="69.211" viewBox="0 0 191.795 69.211">
  <g id="Group_154" data-name="Group 154" transform="translate(-152 -293.076)">
    <path id="Path_25244" data-name="Path 25244" d="M542.613,428.917c0-5.081-1.2-8.931-3.544-11.451s-5.939-3.789-10.668-3.789h-8.442c-2.545,0-3.783,1.262-3.783,3.86v22.756c0,2.594,1.238,3.861,3.783,3.861h8.318c4.518,0,8.078-1.344,10.569-3.987s3.767-6.435,3.767-11.251m-7.976,6.862a6.575,6.575,0,0,1-5.975,3.241H522.55V418.814h6.068c5.06,0,7.624,3.4,7.624,10.1a13.165,13.165,0,0,1-1.606,6.862" transform="translate(-271.701 -89.977)" fill="#0856a4"/>
    <path id="Path_25245" data-name="Path 25245" d="M639.843,463.627a10.243,10.243,0,0,1-.33-2.718V450.592c0-4.069-3.186-6.049-9.729-6.049a12.83,12.83,0,0,0-7.113,1.808c-1.6,1.037-2.413,2.209-2.413,3.483a1.919,1.919,0,0,0,.657,1.468,2.32,2.32,0,0,0,1.685.619,2.662,2.662,0,0,0,1.755-.811,17.5,17.5,0,0,1,1.9-1.638,6.442,6.442,0,0,1,3.478-.915c2.765,0,4.162.939,4.162,2.791,0,1.014-.5,2.278-2.9,2.544l-3.759.421a13.914,13.914,0,0,0-5.958,1.766,5.632,5.632,0,0,0-2.417,5.042,5.5,5.5,0,0,0,2.06,4.385,7.053,7.053,0,0,0,4.635,1.618,10.665,10.665,0,0,0,8.24-3.488l.45-.5.035.665c.1,2.238,1.2,3.321,3.357,3.321a2.71,2.71,0,0,0,1.786-.61,1.82,1.82,0,0,0,.726-1.476,7.942,7.942,0,0,0-.307-1.408m-5.944-4.741a4.229,4.229,0,0,1-1.528,3.276,6.094,6.094,0,0,1-4.2,1.458,4.184,4.184,0,0,1-2.665-.8,2.482,2.482,0,0,1-1.032-2c0-1.772,1.415-2.88,4.211-3.3l2.232-.332a4.943,4.943,0,0,0,2.515-.9l.464-.437Z" transform="translate(-348.312 -113.005)" fill="#0856a4"/>
    <path id="Path_25246" data-name="Path 25246" d="M711.488,447.348c0-1.914-.891-2.8-2.8-2.8s-2.8.891-2.8,2.8v16.971c0,1.912.891,2.8,2.8,2.8s2.8-.891,2.8-2.8Z" transform="translate(-413.231 -113.005)" fill="#0856a4"/>
    <path id="Path_25247" data-name="Path 25247" d="M749.043,445.324a3.275,3.275,0,0,0-2.239-.769c-2.306,0-3.892,1.642-4.847,5.021l-.056.2h-.575v-2.626a2.527,2.527,0,0,0-.7-1.915,2.761,2.761,0,0,0-3.619,0,2.517,2.517,0,0,0-.7,1.915v17.183c0,1.913.893,2.8,2.807,2.8s2.8-.889,2.8-2.8v-7.162c0-4.7,1.386-7.09,4.122-7.09h1.1c1.885,0,2.768-.893,2.768-2.806a2.459,2.459,0,0,0-.864-1.947" transform="translate(-435.935 -113.014)" fill="#0856a4"/>
    <path id="Path_25248" data-name="Path 25248" d="M811.622,448.912a6.286,6.286,0,0,0,.453-1.848,2.425,2.425,0,0,0-.618-1.517,2.727,2.727,0,0,0-2.272-.992c-1.363,0-2.245.827-2.694,2.532l-3.811,14.142h-.508l-4.022-14.559a2.682,2.682,0,0,0-2.91-2.115,2.635,2.635,0,0,0-1.933.762,2.547,2.547,0,0,0-.786,1.916,10.525,10.525,0,0,0,.745,2.775l6.45,18.308-.02.074a2.4,2.4,0,0,1-2.423,2.147h-.631c-1.747,0-2.555.7-2.555,2.212,0,1.718,1.178,2.553,3.606,2.553a5.758,5.758,0,0,0,4.239-1.56,12.308,12.308,0,0,0,2.555-4.656Z" transform="translate(-477.872 -113.014)" fill="#0856a4"/>
    <path id="Path_25249" data-name="Path 25249" d="M193.634,350.128s-4.663,4.682-10,3.918c-14.77-2.1-6.938-17.281-5.438-24.98,1.787-9.05,3.527-20.071,0-28.925a11.616,11.616,0,0,0-14.7-6.367c-7.96,2.937-10.308,15.221-11.088,22.782A69.969,69.969,0,0,0,152,323.6c0,11.654,5.385,37.792,24.119,37.792,11.558,0,16.314-10.484,17.515-11.266" transform="translate(0 0)" fill="#0856a4"/>
    <path id="Path_25250" data-name="Path 25250" d="M254.314,418.341a7.456,7.456,0,0,0,5.539,1.185c5.826-.9,2.7-10.691,1.613-14.508-1.274-4.471-3.478-9.75-2.1-14.409.7-2.3,3.529-4.234,6.282-4.234,6.826,0,8.764,9.451,8.764,14.684,0,5.87-1.58,18.242-11.382,20.245-6.077,1.245-8.442-2.725-8.711-2.964" transform="translate(-76.333 -69.608)" fill="#28a8e0"/>
    <path id="Path_25251" data-name="Path 25251" d="M711.153,416.263a2.979,2.979,0,1,1-2.979-2.977,2.978,2.978,0,0,1,2.979,2.977" transform="translate(-412.723 -89.685)" fill="#28a8e0" fill-rule="evenodd"/>
    <path id="Path_25252" data-name="Path 25252" d="M443.063,463.627a10.49,10.49,0,0,1-.325-2.718V450.592c0-4.069-3.186-6.049-9.73-6.049a12.84,12.84,0,0,0-7.115,1.808c-1.6,1.037-2.413,2.209-2.413,3.483a1.919,1.919,0,0,0,.657,1.468,2.331,2.331,0,0,0,1.688.619,2.669,2.669,0,0,0,1.755-.811,17.232,17.232,0,0,1,1.9-1.638,6.421,6.421,0,0,1,3.475-.915c2.761,0,4.164.939,4.164,2.791,0,1.014-.5,2.278-2.9,2.544l-3.763.421a13.894,13.894,0,0,0-5.953,1.766,5.632,5.632,0,0,0-2.417,5.042,5.5,5.5,0,0,0,2.059,4.385,7.055,7.055,0,0,0,4.636,1.618,10.661,10.661,0,0,0,8.239-3.488l.45-.5.029.665c.109,2.238,1.2,3.321,3.364,3.321a2.718,2.718,0,0,0,1.786-.61,1.83,1.83,0,0,0,.726-1.476,7.92,7.92,0,0,0-.312-1.408m-5.94-4.741a4.226,4.226,0,0,1-1.527,3.276,6.107,6.107,0,0,1-4.2,1.458,4.182,4.182,0,0,1-2.664-.8,2.477,2.477,0,0,1-1.033-2c0-1.772,1.418-2.88,4.212-3.3l2.233-.332a4.934,4.934,0,0,0,2.513-.9l.465-.437Z" transform="translate(-201.503 -113.005)" fill="#0856a4"/>
    <path id="Path_25253" data-name="Path 25253" d="M351.389,447.348c0-1.914-.89-2.8-2.8-2.8s-2.808.891-2.808,2.8v16.971c0,1.912.894,2.8,2.808,2.8s2.8-.891,2.8-2.8Z" transform="translate(-144.571 -113.005)" fill="#0856a4"/>
    <path id="Path_25254" data-name="Path 25254" d="M351.053,416.263a2.98,2.98,0,1,1-2.979-2.977,2.977,2.977,0,0,1,2.979,2.977" transform="translate(-144.061 -89.685)" fill="#0856a4" fill-rule="evenodd"/>
    <path id="Path_25255" data-name="Path 25255" d="M370.36,422.687a1.8,1.8,0,1,1,0-3.6h1.218v-5.03a2.453,2.453,0,0,1,.735-1.78,2.424,2.424,0,0,1,1.776-.74,2.357,2.357,0,0,1,1.758.74,2.473,2.473,0,0,1,.717,1.78v5.03h4.315a1.8,1.8,0,1,1,0,3.6h-4.315v13.168a2.916,2.916,0,0,0,.47,1.908,2.861,2.861,0,0,0,2.049.516h.938a2.072,2.072,0,0,1,2.115,2.113,2.029,2.029,0,0,1-.608,1.5,2.057,2.057,0,0,1-1.508.605h-2.876a5.892,5.892,0,0,1-4.13-1.323q-1.434-1.327-1.436-4.427V422.687Z" transform="translate(-161.572 -88.383)" fill="#0856a4"/>
    <path id="Path_25256" data-name="Path 25256" d="M542.613,428.917c0-5.081-1.2-8.931-3.544-11.451s-5.939-3.789-10.668-3.789h-8.442c-2.545,0-3.783,1.262-3.783,3.86v22.756c0,2.594,1.238,3.861,3.783,3.861h8.318c4.518,0,8.078-1.344,10.569-3.987s3.767-6.435,3.767-11.251m-7.976,6.862a6.575,6.575,0,0,1-5.975,3.241H522.55V418.814h6.068c5.06,0,7.624,3.4,7.624,10.1a13.165,13.165,0,0,1-1.606,6.862" transform="translate(-271.701 -89.977)" fill="#0856a4"/>
    <path id="Path_25257" data-name="Path 25257" d="M639.843,463.627a10.243,10.243,0,0,1-.33-2.718V450.592c0-4.069-3.186-6.049-9.729-6.049a12.83,12.83,0,0,0-7.113,1.808c-1.6,1.037-2.413,2.209-2.413,3.483a1.919,1.919,0,0,0,.657,1.468,2.32,2.32,0,0,0,1.685.619,2.662,2.662,0,0,0,1.755-.811,17.5,17.5,0,0,1,1.9-1.638,6.442,6.442,0,0,1,3.478-.915c2.765,0,4.162.939,4.162,2.791,0,1.014-.5,2.278-2.9,2.544l-3.759.421a13.914,13.914,0,0,0-5.958,1.766,5.632,5.632,0,0,0-2.417,5.042,5.5,5.5,0,0,0,2.06,4.385,7.053,7.053,0,0,0,4.635,1.618,10.665,10.665,0,0,0,8.24-3.488l.45-.5.035.665c.1,2.238,1.2,3.321,3.357,3.321a2.71,2.71,0,0,0,1.786-.61,1.82,1.82,0,0,0,.726-1.476,7.942,7.942,0,0,0-.307-1.408m-5.944-4.741a4.229,4.229,0,0,1-1.528,3.276,6.094,6.094,0,0,1-4.2,1.458,4.184,4.184,0,0,1-2.665-.8,2.482,2.482,0,0,1-1.032-2c0-1.772,1.415-2.88,4.211-3.3l2.232-.332a4.943,4.943,0,0,0,2.515-.9l.464-.437Z" transform="translate(-348.312 -113.005)" fill="#0856a4"/>
    <path id="Path_25258" data-name="Path 25258" d="M711.488,447.348c0-1.914-.891-2.8-2.8-2.8s-2.8.891-2.8,2.8v16.971c0,1.912.891,2.8,2.8,2.8s2.8-.891,2.8-2.8Z" transform="translate(-413.231 -113.005)" fill="#0856a4"/>
    <path id="Path_25259" data-name="Path 25259" d="M749.043,445.324a3.275,3.275,0,0,0-2.239-.769c-2.306,0-3.892,1.642-4.847,5.021l-.056.2h-.575v-2.626a2.527,2.527,0,0,0-.7-1.915,2.761,2.761,0,0,0-3.619,0,2.517,2.517,0,0,0-.7,1.915v17.183c0,1.913.893,2.8,2.807,2.8s2.8-.889,2.8-2.8v-7.162c0-4.7,1.386-7.09,4.122-7.09h1.1c1.885,0,2.768-.893,2.768-2.806a2.459,2.459,0,0,0-.864-1.947" transform="translate(-435.935 -113.014)" fill="#0856a4"/>
    <path id="Path_25260" data-name="Path 25260" d="M811.622,448.912a6.286,6.286,0,0,0,.453-1.848,2.425,2.425,0,0,0-.618-1.517,2.727,2.727,0,0,0-2.272-.992c-1.363,0-2.245.827-2.694,2.532l-3.811,14.142h-.508l-4.022-14.559a2.682,2.682,0,0,0-2.91-2.115,2.635,2.635,0,0,0-1.933.762,2.547,2.547,0,0,0-.786,1.916,10.525,10.525,0,0,0,.745,2.775l6.45,18.308-.02.074a2.4,2.4,0,0,1-2.423,2.147h-.631c-1.747,0-2.555.7-2.555,2.212,0,1.718,1.178,2.553,3.606,2.553a5.758,5.758,0,0,0,4.239-1.56,12.308,12.308,0,0,0,2.555-4.656Z" transform="translate(-477.872 -113.014)" fill="#0856a4"/>
    <path id="Path_25261" data-name="Path 25261" d="M193.634,350.128s-4.663,4.682-10,3.918c-14.77-2.1-6.938-17.281-5.438-24.98,1.787-9.05,3.527-20.071,0-28.925a11.616,11.616,0,0,0-14.7-6.367c-7.96,2.937-10.308,15.221-11.088,22.782A69.969,69.969,0,0,0,152,323.6c0,11.654,5.385,37.792,24.119,37.792,11.558,0,16.314-10.484,17.515-11.266" transform="translate(0 0)" fill="#0856a4"/>
    <path id="Path_25262" data-name="Path 25262" d="M254.314,418.341a7.456,7.456,0,0,0,5.539,1.185c5.826-.9,2.7-10.691,1.613-14.508-1.274-4.471-3.478-9.75-2.1-14.409.7-2.3,3.529-4.234,6.282-4.234,6.826,0,8.764,9.451,8.764,14.684,0,5.87-1.58,18.242-11.382,20.245-6.077,1.245-8.442-2.725-8.711-2.964" transform="translate(-76.333 -69.608)" fill="#28a8e0"/>
    <path id="Path_25263" data-name="Path 25263" d="M711.153,416.263a2.979,2.979,0,1,1-2.979-2.977,2.978,2.978,0,0,1,2.979,2.977" transform="translate(-412.723 -89.685)" fill="#28a8e0" fill-rule="evenodd"/>
    <path id="Path_25264" data-name="Path 25264" d="M443.063,463.627a10.49,10.49,0,0,1-.325-2.718V450.592c0-4.069-3.186-6.049-9.73-6.049a12.84,12.84,0,0,0-7.115,1.808c-1.6,1.037-2.413,2.209-2.413,3.483a1.919,1.919,0,0,0,.657,1.468,2.331,2.331,0,0,0,1.688.619,2.669,2.669,0,0,0,1.755-.811,17.232,17.232,0,0,1,1.9-1.638,6.421,6.421,0,0,1,3.475-.915c2.761,0,4.164.939,4.164,2.791,0,1.014-.5,2.278-2.9,2.544l-3.763.421a13.894,13.894,0,0,0-5.953,1.766,5.632,5.632,0,0,0-2.417,5.042,5.5,5.5,0,0,0,2.059,4.385,7.055,7.055,0,0,0,4.636,1.618,10.661,10.661,0,0,0,8.239-3.488l.45-.5.029.665c.109,2.238,1.2,3.321,3.364,3.321a2.718,2.718,0,0,0,1.786-.61,1.83,1.83,0,0,0,.726-1.476,7.92,7.92,0,0,0-.312-1.408m-5.94-4.741a4.226,4.226,0,0,1-1.527,3.276,6.107,6.107,0,0,1-4.2,1.458,4.182,4.182,0,0,1-2.664-.8,2.477,2.477,0,0,1-1.033-2c0-1.772,1.418-2.88,4.212-3.3l2.233-.332a4.934,4.934,0,0,0,2.513-.9l.465-.437Z" transform="translate(-201.503 -113.005)" fill="#0856a4"/>
    <path id="Path_25265" data-name="Path 25265" d="M351.389,447.348c0-1.914-.89-2.8-2.8-2.8s-2.808.891-2.808,2.8v16.971c0,1.912.894,2.8,2.808,2.8s2.8-.891,2.8-2.8Z" transform="translate(-144.571 -113.005)" fill="#0856a4"/>
    <path id="Path_25266" data-name="Path 25266" d="M351.053,416.263a2.98,2.98,0,1,1-2.979-2.977,2.977,2.977,0,0,1,2.979,2.977" transform="translate(-144.061 -89.685)" fill="#0856a4" fill-rule="evenodd"/>
    <path id="Path_25267" data-name="Path 25267" d="M370.36,422.687a1.8,1.8,0,1,1,0-3.6h1.218v-5.03a2.453,2.453,0,0,1,.735-1.78,2.424,2.424,0,0,1,1.776-.74,2.357,2.357,0,0,1,1.758.74,2.473,2.473,0,0,1,.717,1.78v5.03h4.315a1.8,1.8,0,1,1,0,3.6h-4.315v13.168a2.916,2.916,0,0,0,.47,1.908,2.861,2.861,0,0,0,2.049.516h.938a2.072,2.072,0,0,1,2.115,2.113,2.029,2.029,0,0,1-.608,1.5,2.057,2.057,0,0,1-1.508.605h-2.876a5.892,5.892,0,0,1-4.13-1.323q-1.434-1.327-1.436-4.427V422.687Z" transform="translate(-161.572 -88.383)" fill="#0856a4"/>
    <path id="Path_25268" data-name="Path 25268" d="M883.867,411.534a3.429,3.429,0,1,0,1,2.426,3.429,3.429,0,0,0-1-2.426m-3.346,2.125H881.8a1.92,1.92,0,0,0,.637-.083.685.685,0,0,0,.351-.272.729.729,0,0,0,.117-.4.682.682,0,0,0-.229-.528,1.083,1.083,0,0,0-.73-.2h-1.428Zm-.6,2.52V411.67h2a2.69,2.69,0,0,1,.915.119,1.021,1.021,0,0,1,.505.429,1.3,1.3,0,0,1,.187.68,1.136,1.136,0,0,1-.312.811,1.572,1.572,0,0,1-.961.417,1.53,1.53,0,0,1,.362.224,3,3,0,0,1,.493.6l.778,1.227h-.746l-.595-.937c-.172-.271-.319-.479-.429-.622a1.393,1.393,0,0,0-.3-.3.912.912,0,0,0-.271-.123,2.011,2.011,0,0,0-.332-.018h-.692v2Zm1.518-5.981a3.759,3.759,0,1,1-2.66,1.1,3.753,3.753,0,0,1,2.66-1.1" transform="translate(-541.408 -87.38)" fill="#0856a4"/>
  </g>
</svg>
