<svg xmlns="http://www.w3.org/2000/svg" width="358.581" height="293.63" viewBox="0 0 358.581 293.63"><defs><filter id="a" x="73.453" y="80.135" width="213.484" height="213.495" filterUnits="userSpaceOnUse"><feOffset dy="3"/><feGaussianBlur stdDeviation="15" result="blur"/><feFlood flood-opacity=".051"/><feComposite operator="in" in2="blur"/><feComposite in="SourceGraphic"/></filter><filter id="b" x="145.097" y="0" width="213.484" height="213.496" filterUnits="userSpaceOnUse"><feOffset dy="3"/><feGaussianBlur stdDeviation="15" result="blur-2"/><feFlood flood-opacity=".051"/><feComposite operator="in" in2="blur-2"/><feComposite in="SourceGraphic"/></filter><filter id="c" x="0" y="0" width="213.484" height="213.496" filterUnits="userSpaceOnUse"><feOffset dy="3"/><feGaussianBlur stdDeviation="15" result="blur-3"/><feFlood flood-opacity=".051"/><feComposite operator="in" in2="blur-3"/><feComposite in="SourceGraphic"/></filter></defs><g data-name="Group 214"><path data-name="Rounded Rectangle 1" d="M515.932 1455.062l-53.668-53.673a8.075 8.075 0 0 1 0-11.42l53.668-53.672a8.073 8.073 0 0 1 11.419 0l53.668 53.672a8.075 8.075 0 0 1 0 11.42l-53.668 53.673a8.073 8.073 0 0 1-11.419 0z" transform="translate(-341.448 -1211.798)" fill="#fff" filter="url(#a)"/><path data-name="Rounded Rectangle 1 copy" d="M587.5 1375.024l-53.668-53.673a8.076 8.076 0 0 1 0-11.42l53.668-53.674a8.074 8.074 0 0 1 11.419 0l53.668 53.674a8.076 8.076 0 0 1 0 11.42l-53.668 53.673a8.075 8.075 0 0 1-11.419 0z" transform="translate(-341.368 -1211.888)" fill="#fff" filter="url(#b)"/><path data-name="Rounded Rectangle 1 copy 2" d="M442.553 1375.024l-53.668-53.673a8.076 8.076 0 0 1 0-11.42l53.668-53.674a8.074 8.074 0 0 1 11.419 0l53.668 53.674a8.076 8.076 0 0 1 0 11.42l-53.668 53.673a8.075 8.075 0 0 1-11.419 0z" transform="translate(-341.518 -1211.888)" fill="#fff" filter="url(#c)"/><g data-name="Shape 1" fill="none" stroke-dasharray="8 4"><path d="M178.601 91.141l-65.069-64.166s-7.18-4.175-12.652.9-70.492 70.492-70.492 70.492-2.936 8.793.9 14.46 143.697 147.314 143.697 147.314 6.151 3.512 11.749 0 143.695-153.636 143.695-153.636a9.261 9.261 0 0 0-1.807-8.134c-3.143-3.726-71.4-70.492-71.4-70.492s-5.411-3.672-9.037 0-66.874 63.262-66.874 63.262-.635.892-2.71 0z"/><path d="M107.34 25.364h.067a.36.36 0 0 0 .02 0h.06l.01.001h.049l.01.001h.039l.01.001h.028l.01.001h.029l.009.001h.02l.01.001h.019l.01.001h.01l.009.001h.019l.011.001h.019l.01.001h.01l.008.001h.01l.01.001a.298.298 0 0 0 .019.001h.02l.01.001h.008l.011.001h.009l.012.002h.017l.029.002a.99.99 0 0 0 .019.001h.005l.014.002h.019l.01.001h.009l.011.002h.019l.01.001.01.001h.008l.011.001.008.001h.01a.21.21 0 0 0 .01.001l.009.001h.01l.01.002h.008l.01.001h.01l.009.002h.01l.009.001a.28.28 0 0 0 .01 0l.009.002h.01l.009.001.01.001h.009l.01.002h.008l.01.001a5.01 5.01 0 0 0 .019.002h.01l.009.002h.01l.009.001.009.001.01.001.009.001h.009l.01.002a.182.182 0 0 0 .019.002h.008l.01.002h.009a.32.32 0 0 1 .01.001l.007.001.012.001.009.001.009.001.01.001.009.001.01.001.008.001.008.001.011.001h.004a9.463 9.463 0 0 1 .098.012l.01.001.007.001.01.001a.28.28 0 0 1 .01.001l.009.001.01.002h.008l.01.002.008.001.012.001a.12.12 0 0 1 .007.001l.01.002h.008l.011.002h.008l.01.002.008.001.01.002h.008a.323.323 0 0 0 .018.003l.012.002h.006l.011.002.007.001.012.002h.006l.012.002.006.001.012.002h.007l.01.002.009.001.01.002h.007l.011.003h.006l.013.002.005.001.012.002h.007l.011.002.007.001.011.002.006.001.013.002h.005l.012.003h.007l.011.002.005.001.013.002h.002l.171.029h.004l.014.003h.003l.014.003h.004l.013.003h.004l.012.003a.1.1 0 0 1 .006 0l.013.003h.004l.013.003h.005c.004.002.009.002.013.003h.004a.468.468 0 0 0 .031.006l.003.001.014.003h.004l.013.003h.005l.012.003.005.001a.46.46 0 0 1 .013.002l.004.001.013.003h.004l.014.003h.003a.032.032 0 0 0 .014.003l.003.001.014.003h.003l.014.003h.003l.014.003.003.001.014.003h.002c2.169.432 3.724 1.305 3.84 1.371a.45.45 0 0 1 .007.004l.001.001-.001-.001.002.002 1.094 1.079-1.404 1.424-.89-.877c-.626-.316-2.66-1.242-4.993-1.242v-2zm10.135 5.504l2.453 2.419 3.244 3.198-1.405 1.424-5.696-5.617 1.404-1.425zm8.545 8.425l4.895 4.827.006.007.018.018.004.003.013.013.76.75-1.404 1.423-5.697-5.617 1.405-1.424zm8.544 8.426l5.696 5.617-1.404 1.424-5.696-5.617 1.404-1.424zm8.544 8.426l5.697 5.617-1.405 1.424-5.696-5.617 1.404-1.424zm8.545 8.425l1.437 1.418.03.029.013.013.003.003.008.008 4.205 4.147-1.404 1.424-5.696-5.617 1.404-1.425zm8.544 8.426l3.931 3.876.007.007.006.006.05.05.002.002.011.01.008.008.018.018.01.01 1.654 1.63-1.405 1.424-5.696-5.617 1.404-1.424zm8.545 8.426l5.696 5.617-1.404 1.424-5.697-5.617 1.405-1.424zm14.955 7.474l1.371 1.455-2.323 2.19c-.365.39-1.154.998-2.52.998-.738 0-1.55-.188-2.413-.557l-.347-.15-.269-.264-1.314-1.296 1.404-1.424 1.283 1.265.007.007.009.008a.084.084 0 0 0 .003.003l.002.002.003.003.003.003.004.004c.692.297 1.224.396 1.626.396.803 0 1.085-.396 1.085-.396s.002 0 .004-.003l1.121-1.056 1.26-1.188zm8.732-8.232l1.372 1.456-5.823 5.489-1.371-1.456.041-.039a37646.092 37646.092 0 0 0 5.781-5.45zm8.73-8.233l1.373 1.455-5.82 5.49-1.373-1.456a116331.226 116331.226 0 0 0 5.82-5.49zm8.73-8.236l1.372 1.454-5.82 5.492-1.372-1.455 1.303-1.23 4.517-4.261zm8.725-8.239l1.373 1.454c-1.93 1.824-3.878 3.663-5.817 5.493l-1.373-1.454 5.817-5.493zm8.722-8.242l1.374 1.453-5.814 5.496-1.374-1.454a20092.567 20092.567 0 0 0 5.814-5.495zm8.716-8.25l1.376 1.452-5.81 5.501-1.375-1.453a17232.516 17232.516 0 0 0 5.592-5.294l.217-.206zm8.7-8.267l1.382 1.447a2659.123 2659.123 0 0 1-5.802 5.518l-1.377-1.45a3365.579 3365.579 0 0 0 5.797-5.515zm7.39-4.947h.12l.044.002h.002l.045.001c.92.029 1.801.242 2.555.506l-.66 1.888c-.754-.264-1.461-.397-2.104-.397-1.014 0-1.842.34-2.532 1.037-.128.13-.318.317-.578.57l-1.396-1.432c.246-.24.432-.422.551-.543l.029-.029c1.2-1.2 2.592-1.602 3.918-1.603h.008zm6.097 2.623l.446.436 1.956 1.915.009.008a.46.46 0 0 0 .007.008l.012.012a33297.577 33297.577 0 0 1 3.284 3.215l-1.4 1.429-5.713-5.594 1.399-1.43zm8.573 8.395l1.877 1.838 3.837 3.761-1.4 1.428-5.713-5.599 1.4-1.428zm8.57 8.399l.594.583.016.015.02.02a19520.496 19520.496 0 0 1 4.337 4.254l.01.01.735.721-1.4 1.428-5.713-5.603 1.4-1.428zm8.566 8.405a9440.85 9440.85 0 0 1 5.341 5.245l.367.36-1.401 1.427c-1.923-1.89-3.833-3.765-5.708-5.605l1.401-1.427zm8.561 8.41c1.906 1.873 3.817 3.752 5.704 5.61l-1.403 1.425-5.703-5.61 1.402-1.426zm8.555 8.416c1.941 1.912 3.848 3.791 5.698 5.616l-1.405 1.424a9188.87 9188.87 0 0 0-5.696-5.615l1.403-1.425zm8.544 8.426a5507.081 5507.081 0 0 1 5.688 5.626l-1.408 1.42c-1.724-1.707-3.637-3.6-5.686-5.623l1.406-1.423zm8.527 8.443c2.164 2.15 4.08 4.06 5.666 5.652l-1.417 1.412c-1.525-1.53-3.429-3.43-5.659-5.645l1.41-1.419zm8.478 8.494c1.049 1.07 1.74 1.796 2.002 2.105l.003.003v.001l.003.003a10.185 10.185 0 0 1 .017.02l.013.015.002.003c.01.01.018.022.028.033l.001.002a8.7 8.7 0 0 1 1.732 3.388l.004.017v.001l.005.017.004.016v.003l.004.015.001.003.004.016.003.014.002.006.003.013.002.006c0 .003 0 .006.002.008l.002.011.002.008.002.007.001.007.004.014v.004l.005.018v.001l.008.032c.07.306.122.605.16.894l-1.984.256a6.77 6.77 0 0 0-1.555-3.558c-.123-.145-.533-.598-1.909-2.002l1.429-1.4zm2.053 9.208l1.472 1.354c-.687.747-2.57 2.794-5.413 5.88l-1.471-1.354 5.412-5.88zm-8.123 8.822l1.47 1.355-.809.88-2.282 2.476-2.33 2.529-1.471-1.356 5.422-5.884zm-8.136 8.828l1.47 1.356-2.269 2.46a30072.33 30072.33 0 0 1-3.155 3.421l-1.47-1.356 5.424-5.881zm-8.135 8.819l1.47 1.356a14261.984 14261.984 0 0 1-5.425 5.878l-1.47-1.357c1.87-2.024 3.68-3.986 5.425-5.877zm-8.14 8.818l1.469 1.357-.24.26-4.154 4.497-1.033 1.118-1.469-1.357 5.426-5.875zm-8.143 8.813l1.469 1.358-1.328 1.437-4.104 4.438-1.468-1.358c1.838-1.987 3.65-3.948 5.43-5.875zm-8.146 8.81l1.468 1.358a25930.882 25930.882 0 0 1-5.434 5.872l-1.467-1.359 5.433-5.872zm-8.152 8.807l1.468 1.359a27616.35 27616.35 0 0 1-5.437 5.868l-1.467-1.359c1.822-1.966 3.636-3.923 5.436-5.868zm-8.155 8.802l1.467 1.36-5.324 5.74-.117.125-1.466-1.36 5.44-5.865zm-8.16 8.797l1.465 1.36a15366.897 15366.897 0 0 1-4.037 4.348l-.07.075-1.337 1.44-1.465-1.362 5.444-5.861zm-8.167 8.79l1.465 1.363-.656.705-4.793 5.153-1.464-1.363 5.448-5.857zm-8.173 8.785l1.463 1.363c-1.317 1.415-2.626 2.82-3.925 4.212l-1.53 1.64-1.462-1.363 5.454-5.852zm-8.183 8.776l1.462 1.365a8492.933 8492.933 0 0 1-5.461 5.846l-1.461-1.366c1.756-1.878 3.593-3.844 5.46-5.845zm-8.193 8.766l1.46 1.367-1.932 2.063-.023.024a430.604 430.604 0 0 0-.219.233l-3.297 3.517-1.459-1.369c1.745-1.86 3.585-3.822 5.47-5.835zm-8.208 8.75l1.458 1.37-.692.736a5.021 5.021 0 0 0-.065.069 4551.363 4551.363 0 0 1-4.725 5.016l-1.454-1.373c1.725-1.828 3.568-3.786 5.478-5.818zm-8.224 8.725l1.453 1.374a2382.783 2382.783 0 0 1-5.508 5.805l-1.448-1.38c1.69-1.773 3.54-3.725 5.503-5.799zm-8.265 8.693l1.445 1.383a969.66 969.66 0 0 1-5.152 5.348l-.04.04-.002.002-.356.367-1.433-1.396a931.996 931.996 0 0 0 5.538-5.744zm-8.33 8.587l1.42 1.409c-2.272 2.287-3.754 3.698-4.28 4.052l-.002.001a1.677 1.677 0 0 1-.037.024l-.019.012-.006.004-.016.01-.008.005-.012.007-.008.005a.704.704 0 0 0-.013.008l-.013.008-.008.005-.01.006-.013.008-.013.008-.007.004-.037.023-.005.002-.038.023-.005.003-.04.023-.07.042h-.001a25.38 25.38 0 0 1-.042.024h-.002l-.04.024-.003.001-.04.022a4.659 4.659 0 0 1-.043.024l-.005.003-.021.012c-.002 0-.004.002-.005.003l-.011.006-.008.004-.016.009-.01.004-.01.006-.009.005-.014.007-.01.006-.009.005-.015.008-.008.004-.013.007-.006.003-.018.01-.006.002-.016.009-.004.002-.02.01-.002.001a10.032 10.032 0 0 1-1.084.481l-.702-1.872a8.174 8.174 0 0 0 1.46-.722c.156-.11.895-.702 3.973-3.8zm-14.451 2.838l1.005 1.019c.627.307 2.544 1.145 4.83 1.188l-.038 2a12.93 12.93 0 0 1-2.52-.305c-.006 0-.011-.002-.016-.003h-.001l-.014-.003-.003-.001-.014-.003h-.001l-.015-.004h-.002a15.049 15.049 0 0 1-.155-.036h-.003l-.014-.004-.013-.003-.005-.001a.315.315 0 0 0-.01-.002l-.006-.002-.01-.002-.007-.002a.214.214 0 0 1-.015-.004l-.01-.002-.006-.002-.01-.002-.006-.001-.009-.002a.178.178 0 0 1-.008-.003c-.002 0-.005 0-.008-.002l-.006-.001-.01-.002-.007-.002-.008-.002a.305.305 0 0 0-.015-.004l-.015-.004-.017-.004-.064-.016h-.002l-.046-.013-.015-.004h-.003l-.013-.004h-.002l-.014-.004h-.001l-.014-.004h-.002l-.014-.004-.002-.001c-1.64-.438-2.735-1.04-2.835-1.096l.015-.027-.015.027-.008-.005-1.034-1.047-.193-.196 1.424-1.405zm-8.431-8.545l5.623 5.7-1.423 1.405-1.243-1.26-1.638-1.66a10.752 10.752 0 0 1-.046-.047l-2.697-2.734 1.424-1.404zm-8.422-8.543l5.618 5.7-1.424 1.404-2.316-2.35-3.303-3.35 1.425-1.404zm-8.423-8.548l5.616 5.7-1.425 1.404-.36-.366-5.256-5.335 1.425-1.403zm-8.418-8.55l5.61 5.698-1.425 1.404-.103-.105-.002-.002-.342-.347h-.001l-5.162-5.244 1.425-1.403zm-8.418-8.553l5.61 5.701-1.425 1.403-1.21-1.23-4.4-4.47 1.425-1.404zm-8.415-8.557l5.609 5.704-1.426 1.403a38071.61 38071.61 0 0 1-5.61-5.705l1.427-1.402zm-8.41-8.557l5.607 5.706-1.426 1.402-5.608-5.707 1.427-1.401zm-8.408-8.563l5.604 5.708-1.427 1.402-5.604-5.709 1.427-1.4zm-8.403-8.566l5.601 5.711-1.427 1.401c-1.87-1.905-3.737-3.81-5.602-5.712l1.428-1.4zm-8.398-8.57c1.855 1.895 3.723 3.801 5.598 5.714l-1.428 1.4-5.6-5.714 1.43-1.4zm-8.394-8.576c1.845 1.887 3.712 3.795 5.595 5.718l-1.43 1.399-4.504-4.604-1.09-1.115 1.429-1.398zm-8.385-8.582l5.59 5.724-1.43 1.398a14546.792 14546.792 0 0 1-5.59-5.725l1.43-1.397zm-8.375-8.59l5.582 5.728-1.432 1.396a9795.556 9795.556 0 0 1-3.653-3.748l-.058-.06h-.002l-1.87-1.921 1.433-1.395zm-8.364-8.605c1.757 1.812 3.633 3.743 5.575 5.739l-1.434 1.395a9168.649 9168.649 0 0 1-4.896-5.039l-.68-.702 1.435-1.393zm-8.341-8.62c1.711 1.775 3.581 3.71 5.557 5.75l-1.436 1.39a4280.435 4280.435 0 0 1-5.561-5.752l1.44-1.388zm-8.294-8.647c1.599 1.68 3.457 3.621 5.523 5.77l-1.442 1.386-.56-.583c-1.82-1.894-3.484-3.632-4.97-5.194l1.449-1.38zm-7.934-8.609c.17.242 1.014 1.28 5.186 5.709l-1.455 1.371a273.158 273.158 0 0 1-3.867-4.17l-.005-.005a.37.37 0 0 1-.005-.005l-.007-.008-.004-.004c-.775-.86-1.276-1.448-1.48-1.738l1.637-1.15zm-3.258-10.44l1.97.349c-.328 1.85-.59 4.59.021 7.127l-1.944.469c-.334-1.385-.443-2.806-.422-4.144v-.035a4.162 4.162 0 0 1 0-.034l.001-.024v-.032l.001-.007v-.033l.001-.026v-.006l.001-.025v-.03l.001-.007v-.025l.001-.01v-.022l.001-.01v-.02l.001-.014v-.016l.001-.015v-.018l.001-.012v-.021l.001-.012.001-.019a1.254 1.254 0 0 0 .001-.028l.001-.022v-.01l.002-.05v-.002l.002-.033v-.004l.002-.031v-.003a24.6 24.6 0 0 1 .356-3.145zm7.051-9.291l1.418 1.41-5.642 5.673-1.418-1.41 2.274-2.287.03-.03v-.001l3.338-3.355zm8.465-8.507l1.417 1.41-5.642 5.67-1.418-1.41 5.643-5.67zm8.468-8.505l1.417 1.412a34021.34 34021.34 0 0 0-5.646 5.67l-1.417-1.412 1.692-1.7.07-.07.01-.01 3.874-3.89zm8.47-8.5l1.416 1.412-5.647 5.667-1.416-1.412.774-.777 1.622-1.628 3.251-3.262zm8.475-8.496l1.416 1.412a10187.39 10187.39 0 0 0-5.65 5.664l-1.416-1.412 5.65-5.664zm8.48-8.49l1.415 1.413c-1.837 1.838-3.73 3.732-5.653 5.659l-1.416-1.413c1.811-1.814 3.59-3.595 5.325-5.33l.33-.33zm8.492-8.483l1.412 1.416a7477.8 7477.8 0 0 0-5.66 5.652l-1.414-1.415.368-.368.016-.016a912.324 912.324 0 0 1 .363-.363l.264-.263.018-.018.05-.05.058-.058.127-.128.044-.042.04-.041.002-.001.08-.08a34.451 34.451 0 0 1 .094-.094l.217-.217.003-.003.07-.07.036-.036.005-.005.025-.025.159-.16.012-.011.035-.035.011-.012.03-.03a1.393 1.393 0 0 1 .034-.033l.094-.094.086-.086.023-.023.009-.009.03-.03.068-.068.016-.015c.008-.01.018-.018.026-.027l.017-.017.022-.022.015-.015 3.095-3.088zm8.51-8.459l1.406 1.422a2681.002 2681.002 0 0 0-5.672 5.63l-1.41-1.417c2.158-2.15 4.076-4.054 5.676-5.635zm9.464-7.026l.351 1.97c-1.374.244-2.61.87-3.678 1.86-.352.327-.987.939-1.886 1.818l-1.399-1.43.643-.626c.564-.548.993-.96 1.272-1.219l.003-.003.007-.005.015-.015.005-.004.011-.01.005-.005.014-.013.006-.005.009-.009.007-.006.013-.012.007-.006a.468.468 0 0 1 .008-.008l.008-.007.007-.006a.087.087 0 0 1 .015-.013l.005-.005.01-.008a1.646 1.646 0 0 1 .026-.023l.01-.01.003-.003.034-.03h.001a9.133 9.133 0 0 1 3.777-2.016l.003-.001a.366.366 0 0 1 .01-.003h.004l.018-.006.006-.001a.183.183 0 0 0 .008-.002l.01-.002.006-.002.015-.004.006-.001.01-.003.006-.001.016-.004h.003a.673.673 0 0 1 .014-.004l.004-.001.034-.008h.002a9.4 9.4 0 0 1 .516-.108z" fill="#fff"/></g><g data-name="Group 211"><g data-name="Group 190"><g data-name="Group 183"><g data-name="Group 182"><path data-name="Path 25277" d="M126.387 85.983a1.223 1.223 0 1 0 1.223 1.223 1.224 1.224 0 0 0-1.223-1.223z" fill="#3eb7e4"/></g></g><g data-name="Group 185"><g data-name="Group 184"><path data-name="Path 25278" d="M132.744 84.751a15.06 15.06 0 0 0-11.4-5.089 17.7 17.7 0 0 0-12.797 5.435 21.68 21.68 0 0 0-2.774 3.452 21.7 21.7 0 0 0-2.774-3.452 17.7 17.7 0 0 0-12.794-5.435c-9.28 0-15.751 7.764-15.751 16.994 0 12.469 13.213 22.968 30.518 37.965a1.223 1.223 0 0 0 1.6 0c17.348-15.033 30.52-25.513 30.52-37.965a17.82 17.82 0 0 0-4.348-11.905zm-26.971 47.327c-16.341-14.141-28.872-24.297-28.872-35.422 0-8.293 5.72-14.548 13.3-14.548a15.094 15.094 0 0 1 10.995 4.649 18.24 18.24 0 0 1 3.458 4.774 1.223 1.223 0 0 0 1.114.722 1.225 1.225 0 0 0 1.116-.722 18.242 18.242 0 0 1 3.457-4.773 15.093 15.093 0 0 1 10.995-4.649c7.585 0 13.3 6.254 13.3 14.548.01 11.375-13.349 21.996-28.863 35.421z" fill="#3eb7e4"/></g></g><g data-name="Group 187"><g data-name="Group 186"><path data-name="Path 25279" d="M130.666 90.342a1.223 1.223 0 1 0-2.167 1.136 11.341 11.341 0 0 1 1.252 5.178c0 3.535-1.683 7.287-5.3 11.808a1.223 1.223 0 1 0 1.911 1.528c3.978-4.978 5.831-9.215 5.831-13.336a13.64 13.64 0 0 0-1.527-6.314z" fill="#3eb7e4"/></g></g><g data-name="Group 189"><g data-name="Group 188"><path data-name="Path 25280" d="M117.518 103.111h-6.851V96.26a1.223 1.223 0 0 0-1.223-1.223h-7.339a1.223 1.223 0 0 0-1.223 1.223v6.851h-6.851a1.223 1.223 0 0 0-1.226 1.224v7.34a1.223 1.223 0 0 0 1.223 1.223h6.851v6.851a1.223 1.223 0 0 0 1.223 1.223h7.34a1.223 1.223 0 0 0 1.223-1.223v-6.848h6.851a1.223 1.223 0 0 0 1.223-1.223v-7.34a1.223 1.223 0 0 0-1.221-1.227zm-1.223 7.34h-6.851a1.223 1.223 0 0 0-1.223 1.223v6.851h-4.894v-6.851a1.223 1.223 0 0 0-1.223-1.223h-6.851v-4.894h6.852a1.223 1.223 0 0 0 1.223-1.223v-6.851h4.894v6.851a1.223 1.223 0 0 0 1.223 1.223h6.851z" fill="#3eb7e4"/></g></g></g></g><g data-name="Group 212" fill="#3eb7e4"><path data-name="Path 25281" d="M253.384 102.213a5.439 5.439 0 0 0-6.6 8.538l5.5 5.5a1.549 1.549 0 0 0 2.191 0l5.5-5.5a5.438 5.438 0 0 0-6.595-8.538zm4.4 6.347l-4.4 4.4-4.4-4.4a2.34 2.34 0 1 1 3.309-3.309 1.55 1.55 0 0 0 2.191 0 2.34 2.34 0 1 1 3.309 3.309z"/><path data-name="Path 25282" d="M259.868 94.783a11.507 11.507 0 1 0-12.969 0c-11.917 4.139-13.32 15.234-13.32 18.712v5.83a7.345 7.345 0 0 0 7.336 7.336h24.937a7.345 7.345 0 0 0 7.336-7.336v-5.832c0-3.551-1.597-14.639-13.32-18.71zm-14.893-9.5a8.408 8.408 0 1 1 8.408 8.408 8.418 8.418 0 0 1-8.408-8.408zm25.114 34.043a4.242 4.242 0 0 1-4.237 4.237h-5.873a1.725 1.725 0 0 1-1.726-1.728 1.81 1.81 0 0 1 1.811-1.811h4.937a1.55 1.55 0 0 0 1.549-1.55v-6.638a1.55 1.55 0 1 0-3.1 0v5.089h-3.387a4.907 4.907 0 0 0-4.91 4.912 4.825 4.825 0 0 0 .318 1.726h-4.191a4.866 4.866 0 0 0-4.534-6.638h-3.43v-5.089a1.55 1.55 0 1 0-3.1 0v6.638a1.549 1.549 0 0 0 1.549 1.549h4.979a1.77 1.77 0 0 1 0 3.539h-5.829a4.242 4.242 0 0 1-4.237-4.237v-5.83a16.706 16.706 0 0 1 33.411 0z"/></g><g data-name="Group 213"><g data-name="Group 194"><g data-name="Group 193"><path data-name="Path 25283" d="M196.444 203.637l-6.168-6.164a1.137 1.137 0 0 0-.815-.333h-3.33a15.4 15.4 0 0 1-5.375-.976l1.987-1.332a3.615 3.615 0 0 0-2.021-6.615h-.057l4.571-4.571a3.556 3.556 0 0 0 0-5.03 3.754 3.754 0 0 0-1.16-.779 3.57 3.57 0 0 0-3.078-5.363 3.62 3.62 0 0 0-1.8.482 3.392 3.392 0 0 0-.781-1.16 3.549 3.549 0 0 0-5.03 0l-1.646 1.641a3.416 3.416 0 0 0-.724-1.045 3.549 3.549 0 0 0-5.03 0l-.724.724-2.963-2.94a2.206 2.206 0 0 1 2.952-3.273l2.871 2.871a1.128 1.128 0 0 0 .815.333 1.176 1.176 0 0 0 .815-.333 1.144 1.144 0 0 0 0-1.619l-4.937-4.94a2.209 2.209 0 0 1 3.124-3.124l8.659 8.682a1.128 1.128 0 0 0 .815.333 1.176 1.176 0 0 0 .815-.333 1.144 1.144 0 0 0 0-1.619l-6.581-6.6a2.206 2.206 0 0 1 3.273-2.952l2.412 2.412a1.145 1.145 0 1 0 1.619-1.619l-2.412-2.412a4.49 4.49 0 0 0-7.522 2.021 4.493 4.493 0 0 0-5.811.471 4.506 4.506 0 0 0-.471 5.811 4.445 4.445 0 0 0-2.021 1.16 4.515 4.515 0 0 0-.276 6.064 4.441 4.441 0 0 0-1.975 1.148 4.5 4.5 0 0 0 0 6.362l.517.517a12.865 12.865 0 0 0-2.986 8.292v1.908l-4.708 4.7a1.144 1.144 0 0 0 0 1.619 1.128 1.128 0 0 0 .815.333 1.176 1.176 0 0 0 .815-.333l5.053-5.053a1.137 1.137 0 0 0 .333-.815v-2.377a10.6 10.6 0 0 1 3.124-7.557l5.7-5.7.549-.543a1.263 1.263 0 0 1 2.159.9 1.255 1.255 0 0 1-.276.792l-1.562 1.527a1.144 1.144 0 0 0 0 1.619 1.128 1.128 0 0 0 .815.333 1.176 1.176 0 0 0 .815-.333l5.41-5.412a1.263 1.263 0 0 1 1.883 1.677l-5.512 5.523a1.144 1.144 0 0 0 0 1.619 1.128 1.128 0 0 0 .815.333 1.176 1.176 0 0 0 .815-.333l7.1-7.109a1.275 1.275 0 0 1 1.792 0 1.255 1.255 0 0 1 0 1.78l-7.109 7.1a1.145 1.145 0 0 0 1.619 1.619l5.524-5.513a1.258 1.258 0 0 1 1.677 1.872l-7.752 7.752a1.5 1.5 0 0 0 1.849 2.343l2.343-1.424a1.315 1.315 0 0 1 1.413 2.217l-5.421 3.629a10.622 10.622 0 0 1-5.938 1.8h-3.7a1.186 1.186 0 0 0-.815.333l-5.054 5.055a1.144 1.144 0 0 0 0 1.619 1.128 1.128 0 0 0 .815.333 1.176 1.176 0 0 0 .815-.333l4.709-4.709h3.227a12.943 12.943 0 0 0 7.224-2.194l1.16-.781a17.581 17.581 0 0 0 7.637 1.746h2.86l5.834 5.834a1.128 1.128 0 0 0 .815.333 1.176 1.176 0 0 0 .815-.333 1.134 1.134 0 0 0-.033-1.588zm-33.535-28.133l-2.366 2.365-.467-.47a2.206 2.206 0 0 1 2.952-3.273l.632.632z" fill="#3eb7e4"/></g></g><g data-name="Group 196"><g data-name="Group 195"><path data-name="Path 25284" d="M209.387 190.709a1.137 1.137 0 0 0-.815-.333 1.186 1.186 0 0 0-.815.333 1.137 1.137 0 0 0-.333.815 1.208 1.208 0 0 0 .333.815 1.137 1.137 0 0 0 .815.333 1.186 1.186 0 0 0 .815-.333 1.137 1.137 0 0 0 .333-.815 1.165 1.165 0 0 0-.333-.815z" fill="#3eb7e4"/></g></g><g data-name="Group 198"><g data-name="Group 197"><path data-name="Path 25285" d="M206.298 187.62l-2.745-2.745.011-4.64a17.6 17.6 0 0 0-2.974-9.819l-5.053-7.534a4.576 4.576 0 0 0-8.165 3.928l-3-3a1.145 1.145 0 0 0-1.619 1.619l6.443 6.443a1.61 1.61 0 0 0 2.171.126 1.626 1.626 0 0 0 .391-2.148l-1.975-3.262a2.283 2.283 0 0 1 2.366-3.422 2.248 2.248 0 0 1 1.47.976l5.053 7.534a15.286 15.286 0 0 1 2.6 8.533l-.012 5.122a1.137 1.137 0 0 0 .333.815l3.078 3.078a1.128 1.128 0 0 0 .815.333 1.177 1.177 0 0 0 .815-.333 1.13 1.13 0 0 0-.003-1.604z" fill="#3eb7e4"/></g></g><g data-name="Group 200"><g data-name="Group 199"><path data-name="Path 25286" d="M181.664 161.102a1.137 1.137 0 0 0-.815-.333 1.208 1.208 0 0 0-.815.333 1.137 1.137 0 0 0-.333.815 1.208 1.208 0 0 0 .333.815 1.137 1.137 0 0 0 .815.333 1.208 1.208 0 0 0 .815-.333 1.137 1.137 0 0 0 .333-.815 1.186 1.186 0 0 0-.333-.815z" fill="#3eb7e4"/></g></g><g data-name="Group 202"><g data-name="Group 201"><path data-name="Path 25287" d="M192.321 178.926a1.145 1.145 0 0 0-1.619-1.619l-.505.494a5.5 5.5 0 0 0 0 7.775 1.128 1.128 0 0 0 .815.333 1.177 1.177 0 0 0 .815-.333 1.144 1.144 0 0 0 0-1.619 3.209 3.209 0 0 1 0-4.536z" fill="#3eb7e4"/></g></g></g></g></svg>