<svg xmlns="http://www.w3.org/2000/svg" width="244.001" height="363" viewBox="0 0 244.001 363">
  <g id="Vector_Smart_Object" data-name="Vector Smart Object" transform="translate(-204.407 -395.432)">
    <path id="Path_25193" data-name="Path 25193" d="M424.9,698.571s-24.7,24.876-52.936,20.82c-78.218-11.182-36.745-91.822-28.8-132.731,9.463-48.089,18.679-106.646,0-153.69-12.185-31-48.268-44.746-77.871-33.83-42.154,15.6-54.588,80.874-58.723,121.052a372.967,372.967,0,0,0-2.16,37.431c0,61.924,28.519,200.808,127.732,200.808,61.211,0,86.394-55.706,92.757-59.861" fill="#0856a4"/>
    <path id="Path_25194" data-name="Path 25194" d="M342,691.164s11.616,9.221,29.336,6.3c30.852-4.794,14.315-56.8,8.541-77.087-6.747-23.758-18.42-51.807-11.147-76.559,3.689-12.239,18.691-22.5,33.267-22.5,36.151,0,46.413,50.218,46.413,78.024,0,31.192-8.369,96.927-60.277,107.57-32.183,6.614-44.71-14.48-46.133-15.747" fill="#28a8e0"/>
  </g>
</svg>
