<svg id="wedding-day" xmlns="http://www.w3.org/2000/svg" width="50" height="50" viewBox="0 0 50 50">
  <path id="Path_29726" data-name="Path 29726" d="M106.977,166a.977.977,0,1,0,.977.977A.977.977,0,0,0,106.977,166Zm0,0" transform="translate(-95.648 -149.789)" fill="#3eb7e4"/>
  <path id="Path_29727" data-name="Path 29727" d="M2.93,50H47.07A2.933,2.933,0,0,0,50,47.07V6.836a2.933,2.933,0,0,0-2.93-2.93H45.508V2.93a2.93,2.93,0,0,0-5.859,0v.977H33.789V2.93a2.93,2.93,0,1,0-5.859,0v.977H22.07V2.93a2.93,2.93,0,1,0-5.859,0v.977H10.352V2.93a2.93,2.93,0,1,0-5.859,0v.977H2.93A2.933,2.933,0,0,0,0,6.836V47.07A2.933,2.933,0,0,0,2.93,50ZM47.07,48.047H2.93a.977.977,0,0,1-.977-.977V14.258H48.047V47.07A.977.977,0,0,1,47.07,48.047ZM41.6,2.93a.977.977,0,0,1,1.953,0v.977H41.6Zm-11.719,0a.977.977,0,0,1,1.953,0v.977H29.883Zm-11.719,0a.977.977,0,1,1,1.953,0v.977H18.164Zm-11.719,0a.977.977,0,0,1,1.953,0v.977H6.445ZM2.93,5.859H4.492v1.27a2.933,2.933,0,0,0,2.93,2.93.977.977,0,1,0,0-1.953.977.977,0,0,1-.977-.977V5.859h9.766v1.27a2.933,2.933,0,0,0,2.93,2.93.977.977,0,0,0,0-1.953.977.977,0,0,1-.977-.977V5.859H27.93v1.27a2.933,2.933,0,0,0,2.93,2.93.977.977,0,1,0,0-1.953.977.977,0,0,1-.977-.977V5.859h9.766v1.27a2.933,2.933,0,0,0,2.93,2.93.977.977,0,1,0,0-1.953.977.977,0,0,1-.977-.977V5.859H47.07a.977.977,0,0,1,.977.977V12.3H1.953V6.836A.977.977,0,0,1,2.93,5.859Zm0,0" transform="translate(0 0)" fill="#3eb7e4"/>
  <path id="Path_29728" data-name="Path 29728" d="M170.417,166H146.977a.977.977,0,0,0,0,1.953h23.441a.977.977,0,1,0,0-1.953Zm0,0" transform="translate(-131.744 -149.789)" fill="#3eb7e4"/>
  <path id="Path_29729" data-name="Path 29729" d="M160.234,236a5.765,5.765,0,0,0-4.96,2.964A5.766,5.766,0,0,0,150.315,236a6.062,6.062,0,0,0-5.936,6.36c0,4.549,4.229,7.325,10.256,12.548a.977.977,0,0,0,1.279,0c5.738-4.974,10.256-7.932,10.256-12.548A6.064,6.064,0,0,0,160.234,236Zm-4.96,16.881c-5.46-4.681-8.942-7.12-8.942-10.521a4.118,4.118,0,0,1,3.983-4.407c2.967,0,3.978,3.439,4.019,3.582a.977.977,0,0,0,1.882,0c.01-.035,1.026-3.582,4.018-3.582a4.118,4.118,0,0,1,3.983,4.407C164.218,245.769,160.661,248.261,155.275,252.881Zm0,0" transform="translate(-130.281 -212.955)" fill="#3eb7e4"/>
</svg>
