<svg xmlns="http://www.w3.org/2000/svg" width="14.121" height="14.128" viewBox="0 0 14.121 14.128">
  <g id="Group_1" data-name="Group 1" transform="translate(-0.138)">
    <g id="Group_149" data-name="Group 149" transform="translate(0.138)">
      <path id="Path_25241" data-name="Path 25241" d="M12.191,2.072A7.012,7.012,0,0,0,7.294,0c-.032,0-.064,0-.1,0s-.063,0-.1,0a7.06,7.06,0,0,0-4.9,12.051,7.012,7.012,0,0,0,4.9,2.067c.032,0,.064,0,.1,0s.063,0,.1,0a7.06,7.06,0,0,0,4.9-12.051ZM2.8,2.665A6.187,6.187,0,0,1,5.448,1.092a6.74,6.74,0,0,0-.642.88,8.363,8.363,0,0,0-.668,1.35H2.228A6.312,6.312,0,0,1,2.8,2.665Zm-1.107,1.5H3.856a10.532,10.532,0,0,0-.391,2.483H.992A6.172,6.172,0,0,1,1.693,4.162Zm0,5.805a6.171,6.171,0,0,1-.7-2.483H3.465a10.532,10.532,0,0,0,.391,2.483Zm1.107,1.5a6.3,6.3,0,0,1-.572-.657H4.138a8.361,8.361,0,0,0,.668,1.35,6.74,6.74,0,0,0,.642.88A6.188,6.188,0,0,1,2.8,11.463Zm3.979,1.653a4.529,4.529,0,0,1-1.258-1.4,7.369,7.369,0,0,1-.475-.909H6.779v2.31Zm0-3.149H4.731A9.6,9.6,0,0,1,4.3,7.484H6.779V9.967Zm0-3.322H4.3a9.6,9.6,0,0,1,.427-2.483H6.779V6.644Zm0-3.322H5.046a7.369,7.369,0,0,1,.475-.909,4.529,4.529,0,0,1,1.258-1.4v2.31Zm5.925.839a6.171,6.171,0,0,1,.7,2.483H10.932a10.532,10.532,0,0,0-.391-2.483ZM11.6,2.665a6.312,6.312,0,0,1,.572.657h-1.91a8.361,8.361,0,0,0-.668-1.35,6.738,6.738,0,0,0-.642-.88A6.188,6.188,0,0,1,11.6,2.665ZM7.618,1.012a4.529,4.529,0,0,1,1.258,1.4,7.369,7.369,0,0,1,.475.909H7.618V1.012Zm0,3.149H9.665a9.6,9.6,0,0,1,.427,2.483H7.618Zm2.474,3.322a9.6,9.6,0,0,1-.427,2.483H7.618V7.484ZM7.618,13.116v-2.31H9.351a7.369,7.369,0,0,1-.475.909A4.529,4.529,0,0,1,7.618,13.116ZM11.6,11.463a6.188,6.188,0,0,1-2.649,1.573,6.74,6.74,0,0,0,.642-.88,8.363,8.363,0,0,0,.668-1.35h1.91A6.308,6.308,0,0,1,11.6,11.463Zm1.106-1.5H10.541a10.53,10.53,0,0,0,.391-2.483H13.4A6.172,6.172,0,0,1,12.7,9.967Z" transform="translate(-0.138)" fill="#333"/>
    </g>
  </g>
</svg>
