<svg xmlns="http://www.w3.org/2000/svg" width="31.992" height="45.5" viewBox="0 0 31.992 45.5">
  <g id="icon9" transform="translate(-77 -1)">
    <path id="Path_25229" data-name="Path 25229" d="M108.992,45.611v-6.4a9.784,9.784,0,0,0-9.775-9.775,1.78,1.78,0,0,1-1.777-1.777V26.47a8.84,8.84,0,0,0,4.036-5.031h.407a3.555,3.555,0,0,0,0-7.109v-.889a8.883,8.883,0,0,0-4.454-7.7c.007-.1.011-.2.011-.295a4.443,4.443,0,1,0-8.887,0c0,.1,0,.2.011.295a8.882,8.882,0,0,0-4.454,7.7v.889a3.555,3.555,0,0,0,0,7.109H84.6a9.206,9.206,0,0,0,3.952,5V27.66a1.779,1.779,0,0,1-1.777,1.777A9.784,9.784,0,0,0,77,39.213v6.4a.889.889,0,0,0,.889.889H108.1A.889.889,0,0,0,108.992,45.611ZM90.33,27.66v-.415a8.455,8.455,0,0,0,1.8.374,8.954,8.954,0,0,0,3.536-.368v.409a3.543,3.543,0,0,0,.813,2.263,5.331,5.331,0,0,1-6.959,0A3.543,3.543,0,0,0,90.33,27.66Zm13.33-9.775a1.779,1.779,0,0,1-1.777,1.777h-.045c.029-.295.045-.592.045-.889V16.107A1.779,1.779,0,0,1,103.66,17.885ZM93,2.777a2.67,2.67,0,0,1,2.619,2.169,8.946,8.946,0,0,0-5.238,0A2.67,2.67,0,0,1,93,2.777Zm-3.08,4.255a7.029,7.029,0,0,1,3.08-.7,7.121,7.121,0,0,1,7.109,7.109v.778a3.53,3.53,0,0,1-2.652-3.12.889.889,0,0,0-1.481-.58,4.442,4.442,0,0,1-5.953,0,.889.889,0,0,0-1.481.58,3.53,3.53,0,0,1-2.652,3.12v-.778A7.152,7.152,0,0,1,89.916,7.032ZM82.332,17.885a1.779,1.779,0,0,1,1.777-1.777v2.322a9.51,9.51,0,0,0,.081,1.233h-.081A1.779,1.779,0,0,1,82.332,17.885Zm3.794,2.447-.01-.035a7.741,7.741,0,0,1-.229-1.867v-2.4a5.334,5.334,0,0,0,4.1-3.367,6.227,6.227,0,0,0,6.021,0,5.333,5.333,0,0,0,4.1,3.367v2.741a7.072,7.072,0,0,1-13.98,1.558Zm1.916,10.65a7.108,7.108,0,0,0,9.908,0,3.546,3.546,0,0,0,1.267.233,8.083,8.083,0,0,1,.851.046,8.857,8.857,0,0,1-5.456,3.362.888.888,0,0,0-.727.874v9.226H92.107V35.5a.888.888,0,0,0-.728-.874,8.855,8.855,0,0,1-5.456-3.362,8.076,8.076,0,0,1,.851-.046A3.543,3.543,0,0,0,88.042,30.982Zm-9.265,8.231a8.012,8.012,0,0,1,5.278-7.523,10.635,10.635,0,0,0,6.275,4.52v8.513H85V40.99a.889.889,0,1,0-1.777,0v3.732H78.777Zm28.437,5.51h-2.666v-5.51a.889.889,0,1,0-1.777,0v5.51H95.662V36.21a10.635,10.635,0,0,0,6.275-4.52,8.012,8.012,0,0,1,5.278,7.523Z" fill="#3eb7e4"/>
    <path id="Path_25230" data-name="Path 25230" d="M189.233,169.965a2.733,2.733,0,1,1,2.733-2.733A2.736,2.736,0,0,1,189.233,169.965Zm0-4.754a2.022,2.022,0,1,0,2.022,2.022A2.024,2.024,0,0,0,189.233,165.211Z" transform="translate(-99.769 -148.97)" fill="#3eb7e4"/>
    <path id="Path_25231" data-name="Path 25231" d="M269.733,169.965a2.733,2.733,0,1,1,2.733-2.733A2.736,2.736,0,0,1,269.733,169.965Zm0-4.754a2.022,2.022,0,1,0,2.022,2.022A2.024,2.024,0,0,0,269.733,165.211Z" transform="translate(-173.115 -148.97)" fill="#3eb7e4"/>
    <rect id="Rectangle_31" data-name="Rectangle 31" width="2" height="0.655" transform="translate(92.063 17.863)" fill="#3eb7e4"/>
    <rect id="Rectangle_32" data-name="Rectangle 32" width="2" height="0.655" transform="translate(85.385 17.007) rotate(30)" fill="#3eb7e4"/>
    <rect id="Rectangle_33" data-name="Rectangle 33" width="2" height="0.655" transform="translate(98.935 17.711) rotate(-19.77)" fill="#3eb7e4"/>
  </g>
</svg>
