<svg xmlns="http://www.w3.org/2000/svg" width="50" height="50" viewBox="0 0 50 50">
  <g id="milk-bottle" transform="translate(0 0)">
    <g id="Group_607" data-name="Group 607" transform="translate(8.147 20.158)">
      <g id="Group_606" data-name="Group 606">
        <path id="Path_29730" data-name="Path 29730" d="M85.1,206.731a.98.98,0,1,0,.287.693A.986.986,0,0,0,85.1,206.731Z" transform="translate(-83.433 -206.445)" fill="#3eb7e4"/>
      </g>
    </g>
    <g id="Group_609" data-name="Group 609" transform="translate(0 0)">
      <g id="Group_608" data-name="Group 608" transform="translate(0 0)">
        <path id="Path_29731" data-name="Path 29731" d="M46.392,9.934a7.04,7.04,0,0,0,1.21-.541,5.245,5.245,0,0,0,.913-.72,5.082,5.082,0,0,0-7.187-7.187,5.257,5.257,0,0,0-.72.913,7.059,7.059,0,0,0-.541,1.209,5.306,5.306,0,0,1-.875,1.707.65.65,0,0,1-.143-.074c-1.384-.9-4.437-2.338-6.8-1.881l-.785-.785a3.646,3.646,0,0,0-5.936,4,6.708,6.708,0,0,0-5.17,1.952l-9.662,9.662a.977.977,0,0,0,1.381,1.381l5.482-5.482,3.475,3.474a.977.977,0,1,0,1.381-1.381l-3.474-3.474,2.8-2.8a4.771,4.771,0,0,1,6.747,0L40.093,21.518a4.771,4.771,0,0,1,0,6.747L21.225,47.133a3.132,3.132,0,0,1-4.424,0L2.868,33.2a3.132,3.132,0,0,1,0-4.424l4.494-4.494A.977.977,0,1,0,5.98,22.9L1.486,27.394a5.088,5.088,0,0,0,0,7.187L15.42,48.514a5.088,5.088,0,0,0,7.187,0L41.475,29.646a6.708,6.708,0,0,0,1.952-5.17,3.646,3.646,0,0,0,4-5.935l-.785-.785c.457-2.368-.979-5.42-1.881-6.8a.65.65,0,0,1-.074-.143A5.306,5.306,0,0,1,46.392,9.934Zm-1.531,8.8h0l1.182,1.182a1.692,1.692,0,1,1-2.392,2.392L27.686,6.349a1.692,1.692,0,0,1,2.393-2.392l1.183,1.183h0Zm-1.738-6.721a11.162,11.162,0,0,1,1.555,3.776L34.207,5.322a11.156,11.156,0,0,1,3.776,1.555,2.039,2.039,0,0,0,1.8.305c1.159-.377,1.688-1.764,2.113-2.879a6.765,6.765,0,0,1,.365-.859,3.338,3.338,0,0,1,.452-.578,3.129,3.129,0,0,1,4.425,4.425,3.325,3.325,0,0,1-.578.451,6.766,6.766,0,0,1-.86.366c-1.115.425-2.5.954-2.879,2.113A2.039,2.039,0,0,0,43.123,12.017Z" transform="translate(0 0)" fill="#3eb7e4"/>
      </g>
    </g>
    <g id="Group_611" data-name="Group 611" transform="translate(30.766 22.714)">
      <g id="Group_610" data-name="Group 610">
        <path id="Path_29732" data-name="Path 29732" d="M320.922,237.053l-4.084-4.084a.979.979,0,1,0-1.385,1.385l4.084,4.084a.979.979,0,1,0,1.385-1.385Z" transform="translate(-315.166 -232.682)" fill="#3eb7e4"/>
      </g>
    </g>
    <g id="Group_613" data-name="Group 613" transform="translate(26.123 27.357)">
      <g id="Group_612" data-name="Group 612">
        <path id="Path_29733" data-name="Path 29733" d="M273.362,284.613l-4.084-4.084a.979.979,0,0,0-1.385,1.385L271.977,286a.979.979,0,1,0,1.385-1.385Z" transform="translate(-267.606 -280.243)" fill="#3eb7e4"/>
      </g>
    </g>
    <g id="Group_615" data-name="Group 615" transform="translate(21.481 32)">
      <g id="Group_614" data-name="Group 614">
        <path id="Path_29734" data-name="Path 29734" d="M225.8,332.172l-4.084-4.084a.979.979,0,0,0-1.385,1.385l4.084,4.084a.979.979,0,1,0,1.385-1.385Z" transform="translate(-220.047 -327.801)" fill="#3eb7e4"/>
      </g>
    </g>
    <g id="Group_617" data-name="Group 617" transform="translate(16.838 36.619)">
      <g id="Group_616" data-name="Group 616">
        <path id="Path_29735" data-name="Path 29735" d="M178.243,379.732l-4.084-4.084a.979.979,0,1,0-1.385,1.385l4.084,4.084a.979.979,0,1,0,1.385-1.385Z" transform="translate(-172.487 -375.361)" fill="#3eb7e4"/>
      </g>
    </g>
    <g id="Group_619" data-name="Group 619" transform="translate(24.021 19.171)">
      <g id="Group_618" data-name="Group 618">
        <path id="Path_29736" data-name="Path 29736" d="M247.672,196.62a.98.98,0,1,0,.287.693A.986.986,0,0,0,247.672,196.62Z" transform="translate(-246 -196.334)" fill="#3eb7e4"/>
      </g>
    </g>
  </g>
</svg>
