<svg xmlns="http://www.w3.org/2000/svg" width="21.071" height="24.916" viewBox="0 0 21.071 24.916">
  <g id="Vector_Smart_Object" data-name="Vector Smart Object" transform="translate(-949.929 -980)">
    <g id="Vector_Smart_Object-2" data-name="Vector Smart Object" transform="matrix(0, 1, -1, 0, 1357.153, 561.746)">
      <g id="Group_113" data-name="Group 113">
        <g id="Group_110" data-name="Group 110">
          <g id="Group_109" data-name="Group 109">
            <path id="Path_25221" data-name="Path 25221" d="M419.688,392.732l4.125,3.1a1.078,1.078,0,0,1,0,1.72l-4.124,3.1a.9.9,0,0,1-1.433-.722v-6.468A.9.9,0,0,1,419.688,392.732Z" fill="#ce6638"/>
          </g>
        </g>
        <g id="Group_112" data-name="Group 112">
          <g id="Group_111" data-name="Group 111">
            <path id="Path_25222" data-name="Path 25222" d="M431.573,386.613l10.5,7.886a2.744,2.744,0,0,1,0,4.382l-10.5,7.882a2.283,2.283,0,0,1-3.651-1.837l0-16.477A2.285,2.285,0,0,1,431.573,386.613Z" fill="#ce6638"/>
          </g>
        </g>
      </g>
    </g>
    <path id="Color_Overlay" data-name="Color Overlay" d="M958.271,1003.824l-7.882-10.5a2.252,2.252,0,0,1-.46-1.359,2.288,2.288,0,0,1,2.3-2.292l16.477,0a2.285,2.285,0,0,1,1.837,3.653l-7.887,10.5a2.744,2.744,0,0,1-4.382,0Zm1.332-18.266-3.1-4.124a.882.882,0,0,1-.18-.533.9.9,0,0,1,.9-.9H963.7a.9.9,0,0,1,.723,1.434l-3.1,4.125a1.077,1.077,0,0,1-1.72,0Z" fill="#26a9e0"/>
  </g>
</svg>
