<svg xmlns="http://www.w3.org/2000/svg" width="29.72" height="50" viewBox="0 0 29.72 50">
  <g id="maternity" transform="translate(-103.834)">
    <g id="Group_593" data-name="Group 593" transform="translate(113.241 33.51)">
      <g id="Group_592" data-name="Group 592" transform="translate(0)">
        <path id="Path_29719" data-name="Path 29719" d="M208.486,346.5a3.5,3.5,0,0,0-1.847.531,3.5,3.5,0,0,0-1.847-.531,3.578,3.578,0,0,0-3.541,3.606c0,1.128.814,2.486,2.49,4.151a26.21,26.21,0,0,0,2.293,2.016,1,1,0,0,0,1.211,0,26.191,26.191,0,0,0,2.293-2.016c1.675-1.666,2.49-3.024,2.49-4.151A3.578,3.578,0,0,0,208.486,346.5Zm-1.848,7.706c-1.734-1.437-3.393-3.283-3.393-4.1a1.582,1.582,0,0,1,1.546-1.611,1.5,1.5,0,0,1,1.114.5,1,1,0,0,0,1.466,0,1.5,1.5,0,0,1,1.115-.5,1.581,1.581,0,0,1,1.546,1.611C210.032,350.925,208.373,352.771,206.639,354.21Z" transform="translate(-201.251 -346.504)" fill="#3eb7e4"/>
      </g>
    </g>
    <g id="Group_595" data-name="Group 595" transform="translate(103.834 15.525)">
      <g id="Group_594" data-name="Group 594" transform="translate(0)">
        <path id="Path_29720" data-name="Path 29720" d="M117.608,176.332a2.684,2.684,0,0,0-2.173-.685,10.41,10.41,0,0,0-7.015,4.544,1,1,0,0,0,1.713,1.022,8.433,8.433,0,0,1,5.606-3.594.778.778,0,0,1,.566.224,1.749,1.749,0,0,1,.595,1.229.933.933,0,0,1-.635.883,8.207,8.207,0,0,0-3.806,2.182l-3.819,4.753a1.851,1.851,0,0,1-1.488.743.734.734,0,0,1-.563-.256c-.959-1.048-.769-4.464-.688-5.923.013-.225.024-.429.031-.606.391-9.011,3.9-11.578,9.448-12.8l.343-.076a1,1,0,0,0-.429-1.948l-.343.076c-3.685.811-6.211,2.2-7.951,4.382-1.887,2.363-2.86,5.629-3.061,10.278-.007.17-.018.365-.03.582-.154,2.764-.2,5.842,1.208,7.38a2.734,2.734,0,0,0,1.969.9l.12,0q.1,0,.209-.006a10.916,10.916,0,0,0,1.1,4.639,1,1,0,0,0,1.794-.871,8.946,8.946,0,0,1-.9-3.941v-.553a4.176,4.176,0,0,0,.788-.756l3.819-4.753a6.824,6.824,0,0,1,2.881-1.538,2.928,2.928,0,0,0,2-2.765A3.719,3.719,0,0,0,117.608,176.332Z" transform="translate(-103.834 -166.002)" fill="#3eb7e4"/>
      </g>
    </g>
    <g id="Group_597" data-name="Group 597" transform="translate(110.001 44.846)">
      <g id="Group_596" data-name="Group 596" transform="translate(0)">
        <path id="Path_29721" data-name="Path 29721" d="M168.827,460.617l-.026-.027a1,1,0,0,0-1.456,1.363l.043.045a1,1,0,0,0,1.439-1.381Z" transform="translate(-167.076 -460.274)" fill="#3eb7e4"/>
      </g>
    </g>
    <g id="Group_599" data-name="Group 599" transform="translate(121.395 16.178)">
      <g id="Group_598" data-name="Group 598" transform="translate(0)">
        <path id="Path_29722" data-name="Path 29722" d="M290.577,167.934a15.01,15.01,0,0,0-4.716-1.971,1,1,0,0,0-.446,1.944,13.023,13.023,0,0,1,4.091,1.71,1,1,0,0,0,1.071-1.683Z" transform="translate(-284.64 -165.938)" fill="#3eb7e4"/>
      </g>
    </g>
    <g id="Group_601" data-name="Group 601" transform="translate(128.209 20.048)">
      <g id="Group_600" data-name="Group 600">
        <path id="Path_29723" data-name="Path 29723" d="M356.285,205.83l-.053-.055a1,1,0,1,0-1.435,1.385l.045.046a1,1,0,0,0,1.443-1.377Z" transform="translate(-354.517 -205.47)" fill="#3eb7e4"/>
      </g>
    </g>
    <g id="Group_603" data-name="Group 603" transform="translate(112.164 22.063)">
      <g id="Group_602" data-name="Group 602" transform="translate(0)">
        <path id="Path_29724" data-name="Path 29724" d="M213.531,232.381a1,1,0,0,0-1.737.981c1.006,1.782,1.086,3.871,1.086,6.417v3.039c0,3.509-.8,8.438-4.632,11.991a11.113,11.113,0,0,1-3.9,1.906l-.2.052a1.592,1.592,0,0,1-.766-3.087,9.781,9.781,0,0,0,3.781-1.823c2.633-2.444,2.5-6.226,2.377-9.563-.026-.719-.05-1.4-.05-2.065a1,1,0,0,0-.022-.208,3.762,3.762,0,0,0,.41-1.19c.3-1.861-.906-3.433-1.876-4.7a5.462,5.462,0,0,1-.969-1.522,1,1,0,0,0-1.995,0,4.91,4.91,0,0,0,1.381,2.737c.775,1.009,1.653,2.153,1.49,3.163a3.371,3.371,0,0,1-1.652,2,1,1,0,1,0,1.117,1.652c.055-.037.108-.075.162-.113,0,.106.007.211.011.316.11,3.052.224,6.207-1.74,8.03a8.294,8.294,0,0,1-2.99,1.372A3.589,3.589,0,0,0,201,257.4a16.055,16.055,0,0,1-1.841.159,9.051,9.051,0,0,1-4.211-1.039,1,1,0,0,0-.931,1.764,11.054,11.054,0,0,0,5.142,1.27,23.534,23.534,0,0,0,5.477-.85c.068-.016.135-.035.2-.054l.062-.017.015,0,.027-.008a12.764,12.764,0,0,0,4.663-2.35c3.448-3.2,5.27-7.852,5.27-13.453V239.78C214.875,237.034,214.774,234.582,213.531,232.381Z" transform="translate(-193.486 -231.618)" fill="#3eb7e4"/>
      </g>
    </g>
    <g id="Group_605" data-name="Group 605" transform="translate(109.071)">
      <g id="Group_604" data-name="Group 604" transform="translate(0)">
        <path id="Path_29725" data-name="Path 29725" d="M168.567,0a7.691,7.691,0,0,0-3.217.7,4.1,4.1,0,0,0-4.742,6.69.991.991,0,0,0,.225.126c0,.074-.006.147-.006.221V8.965a7.74,7.74,0,1,0,15.479,0V7.74A7.748,7.748,0,0,0,168.567,0Zm-7.2,2.845a2.108,2.108,0,0,1,2-.827,7.761,7.761,0,0,0-2.1,3.181A2.109,2.109,0,0,1,161.364,2.845Zm7.2,11.866a5.752,5.752,0,0,1-5.708-5.1c1.5-.113,4.748-.578,6.9-2.495a8.221,8.221,0,0,0,4.52,2.44A5.753,5.753,0,0,1,168.567,14.71Zm2.147-9.663a1,1,0,0,0-1.664-.091c-1.494,2.02-4.739,2.526-6.225,2.652a5.743,5.743,0,0,1,11.481-.088A5.658,5.658,0,0,1,170.714,5.047Z" transform="translate(-158.955)" fill="#3eb7e4"/>
      </g>
    </g>
  </g>
</svg>
