<svg xmlns="http://www.w3.org/2000/svg" width="59.141" height="50" viewBox="0 0 59.141 50">
  <g id="care" transform="translate(0 -39.568)">
    <g id="Group_551" data-name="Group 551" transform="translate(0 67.64)">
      <g id="Group_550" data-name="Group 550">
        <path id="Path_29700" data-name="Path 29700" d="M35.379,297.829H30.886a1.158,1.158,0,1,0,0,2.315h4.492a1.257,1.257,0,1,1,0,2.515H23.286a6.084,6.084,0,0,1-4.69-2.2L15.7,296.984a8.389,8.389,0,0,0-6.227-3.027v-6.839H13.74a8.031,8.031,0,0,1,5.6,2.264l6.242,6.025a1.137,1.137,0,0,1-1.559,1.657l-4.9-4.492a1.158,1.158,0,1,0-1.565,1.707l4.9,4.492a3.453,3.453,0,0,0,4.731-5.029l-6.242-6.025A10.336,10.336,0,0,0,13.74,284.8H9.252a2.874,2.874,0,0,0-2.645-1.756H1.158A1.158,1.158,0,0,0,0,284.2v8.466a1.158,1.158,0,0,0,2.315,0v-7.308H6.608a.555.555,0,0,1,.554.554V295.2a.555.555,0,0,1-.554.554h-1.2a1.158,1.158,0,1,0,0,2.315h1.2a2.874,2.874,0,0,0,2.661-1.8,6.083,6.083,0,0,1,4.655,2.2l2.892,3.476a8.392,8.392,0,0,0,6.47,3.034H35.379a3.573,3.573,0,0,0,0-7.146Z" transform="translate(0 -283.046)" fill="#3eb7e4"/>
      </g>
    </g>
    <g id="Group_553" data-name="Group 553" transform="translate(20.189 39.568)">
      <g id="Group_552" data-name="Group 552" transform="translate(0 0)">
        <path id="Path_29701" data-name="Path 29701" d="M213.384,50.263a1.158,1.158,0,0,0-1.158,1.158v7.761h-4.292a.555.555,0,0,1-.554-.554V49.347a.555.555,0,0,1,.554-.554h1.117a1.158,1.158,0,0,0,0-2.315h-1.117a2.874,2.874,0,0,0-2.661,1.8,6.083,6.083,0,0,1-4.655-2.2L197.726,42.6a8.392,8.392,0,0,0-6.47-3.034H179.163a3.573,3.573,0,1,0,0,7.145h4.945a1.158,1.158,0,1,0,0-2.315h-4.945a1.257,1.257,0,1,1,0-2.515h12.093a6.083,6.083,0,0,1,4.69,2.2l2.892,3.476a8.389,8.389,0,0,0,6.227,3.027v6.839H200.8a8.031,8.031,0,0,1-5.6-2.264l-6.242-6.025a1.137,1.137,0,0,1,1.559-1.657l4.9,4.492a1.158,1.158,0,1,0,1.564-1.707l-4.9-4.492a3.453,3.453,0,0,0-4.731,5.029l6.242,6.025A10.336,10.336,0,0,0,200.8,59.74h4.488a2.874,2.874,0,0,0,2.645,1.756h5.45a1.158,1.158,0,0,0,1.158-1.158V51.42A1.158,1.158,0,0,0,213.384,50.263Z" transform="translate(-175.59 -39.568)" fill="#3eb7e4"/>
      </g>
    </g>
    <g id="Group_555" data-name="Group 555" transform="translate(35.067 78.165)">
      <g id="Group_554" data-name="Group 554" transform="translate(0 0)">
        <path id="Path_29702" data-name="Path 29702" d="M305.842,374.434a1.169,1.169,0,1,0-.605,1.543l.025-.011A1.159,1.159,0,0,0,305.842,374.434Z" transform="translate(-303.617 -373.752)" fill="#3eb7e4"/>
      </g>
    </g>
    <g id="Group_557" data-name="Group 557" transform="translate(38.069 76.433)">
      <g id="Group_556" data-name="Group 556">
        <path id="Path_29703" data-name="Path 29703" d="M331.7,359.226a1.162,1.162,0,1,0-.253,1.624l.014-.011A1.153,1.153,0,0,0,331.7,359.226Z" transform="translate(-329.603 -358.757)" fill="#3eb7e4"/>
      </g>
    </g>
    <g id="Group_559" data-name="Group 559" transform="translate(31.764 79.226)">
      <g id="Group_558" data-name="Group 558" transform="translate(0 0)">
        <path id="Path_29704" data-name="Path 29704" d="M277.317,383.858a1.168,1.168,0,1,0-.925,1.379l.034-.007A1.156,1.156,0,0,0,277.317,383.858Z" transform="translate(-275.016 -382.94)" fill="#3eb7e4"/>
      </g>
    </g>
    <g id="Group_561" data-name="Group 561" transform="translate(40.634 74.092)">
      <g id="Group_560" data-name="Group 560">
        <path id="Path_29705" data-name="Path 29705" d="M353.76,338.785a1.158,1.158,0,0,0-1.635.084l-.025.028a1.158,1.158,0,1,0,1.66-.112Zm-.647.976-.129-.116.139.126Z" transform="translate(-351.819 -338.487)" fill="#3eb7e4"/>
      </g>
    </g>
    <g id="Group_563" data-name="Group 563" transform="translate(44.017 68.081)">
      <g id="Group_562" data-name="Group 562" transform="translate(0 0)">
        <path id="Path_29706" data-name="Path 29706" d="M382.605,286.492a1.163,1.163,0,1,0,.768,1.456l0-.016A1.155,1.155,0,0,0,382.605,286.492Z" transform="translate(-381.109 -286.443)" fill="#3eb7e4"/>
      </g>
    </g>
    <g id="Group_565" data-name="Group 565" transform="translate(44.695 61.209)">
      <g id="Group_564" data-name="Group 564">
        <path id="Path_29707" data-name="Path 29707" d="M389.279,227.9c0-.015-.005-.029-.009-.044a1.164,1.164,0,1,0,.009.044Z" transform="translate(-386.979 -226.939)" fill="#3eb7e4"/>
      </g>
    </g>
    <g id="Group_567" data-name="Group 567" transform="translate(44.673 64.672)">
      <g id="Group_566" data-name="Group 566">
        <path id="Path_29708" data-name="Path 29708" d="M388.044,256.927a1.159,1.159,0,0,0-1.255,1.051c0,.011,0,.034,0,.045a1.158,1.158,0,0,0,1.088,1.224l.069,0a1.164,1.164,0,0,0,.1-2.323Z" transform="translate(-386.783 -256.923)" fill="#3eb7e4"/>
      </g>
    </g>
    <g id="Group_569" data-name="Group 569" transform="translate(42.649 71.267)">
      <g id="Group_568" data-name="Group 568">
        <path id="Path_29709" data-name="Path 29709" d="M370.994,314.175a1.158,1.158,0,0,0-1.578.436l-.016.029a1.16,1.16,0,0,0,1.017,1.716,1.148,1.148,0,0,0,1.012-.6l-1.006-.572,1.007.571A1.157,1.157,0,0,0,370.994,314.175Z" transform="translate(-369.259 -314.024)" fill="#3eb7e4"/>
      </g>
    </g>
    <g id="Group_571" data-name="Group 571" transform="translate(21.24 48.785)">
      <g id="Group_570" data-name="Group 570">
        <path id="Path_29710" data-name="Path 29710" d="M186.1,120.01a1.157,1.157,0,0,0-1.553-.518l-.01.005a1.158,1.158,0,1,0,1.563.513Z" transform="translate(-183.898 -119.37)" fill="#3eb7e4"/>
      </g>
    </g>
    <g id="Group_573" data-name="Group 573" transform="translate(24.484 47.578)">
      <g id="Group_572" data-name="Group 572" transform="translate(0 0)">
        <path id="Path_29711" data-name="Path 29711" d="M214.284,109.8a1.157,1.157,0,0,0-1.4-.852l-.027.007a1.158,1.158,0,1,0,1.425.845Z" transform="translate(-211.987 -108.918)" fill="#3eb7e4"/>
      </g>
    </g>
    <g id="Group_575" data-name="Group 575" transform="translate(18.318 50.659)">
      <g id="Group_574" data-name="Group 574" transform="translate(0 0)">
        <path id="Path_29712" data-name="Path 29712" d="M160.667,136.026a1.159,1.159,0,0,0-1.627-.176l.718.908-.721-.906a1.158,1.158,0,0,0,1.442,1.811l.015-.012A1.156,1.156,0,0,0,160.667,136.026Z" transform="translate(-158.599 -135.595)" fill="#3eb7e4"/>
      </g>
    </g>
    <g id="Group_577" data-name="Group 577" transform="translate(12.761 59.265)">
      <g id="Group_576" data-name="Group 576">
        <path id="Path_29713" data-name="Path 29713" d="M111.952,210.147a1.158,1.158,0,0,0-1.422.812l-.011.043a1.158,1.158,0,1,0,1.433-.855Z" transform="translate(-110.487 -210.106)" fill="#3eb7e4"/>
      </g>
    </g>
    <g id="Group_579" data-name="Group 579" transform="translate(12.265 62.697)">
      <g id="Group_578" data-name="Group 578" transform="translate(0 0)">
        <path id="Path_29714" data-name="Path 29714" d="M107.416,239.826a1.158,1.158,0,0,0-1.223,1.089c0,.015,0,.03,0,.045a1.157,1.157,0,0,0,1.123,1.19h.035a1.163,1.163,0,0,0,.067-2.324Z" transform="translate(-106.191 -239.824)" fill="#3eb7e4"/>
      </g>
    </g>
    <g id="Group_581" data-name="Group 581" transform="translate(13.98 56.017)">
      <g id="Group_580" data-name="Group 580" transform="translate(0 0)">
        <path id="Path_29715" data-name="Path 29715" d="M122.738,182.122a1.158,1.158,0,0,0-1.563.487l-.019.037a1.158,1.158,0,1,0,1.582-.525Z" transform="translate(-121.037 -181.989)" fill="#3eb7e4"/>
      </g>
    </g>
    <g id="Group_583" data-name="Group 583" transform="translate(15.862 53.105)">
      <g id="Group_582" data-name="Group 582">
        <path id="Path_29716" data-name="Path 29716" d="M139.244,157.04a1.158,1.158,0,0,0-1.63.151l-.024.029a1.158,1.158,0,1,0,1.654-.181Z" transform="translate(-137.339 -156.773)" fill="#3eb7e4"/>
      </g>
    </g>
    <g id="Group_585" data-name="Group 585" transform="translate(12.5 66.158)">
      <g id="Group_584" data-name="Group 584" transform="translate(0 0)">
        <path id="Path_29717" data-name="Path 29717" d="M110.527,270.744a1.158,1.158,0,0,0-2.279.408l0,.011a1.151,1.151,0,0,0,1.135.948,1.182,1.182,0,0,0,.207-.018A1.163,1.163,0,0,0,110.527,270.744Z" transform="translate(-108.23 -269.791)" fill="#3eb7e4"/>
      </g>
    </g>
    <g id="Group_587" data-name="Group 587" transform="translate(20.373 58.326)">
      <g id="Group_586" data-name="Group 586" transform="translate(0 0)">
        <path id="Path_29718" data-name="Path 29718" d="M189.739,202.125a5.361,5.361,0,0,0-3.9,1.67,5.377,5.377,0,1,0-7.339,7.837l.023.019,6.6,5.223a1.158,1.158,0,0,0,1.44,0l6.877-5.478a1.151,1.151,0,0,0,.1-.086,5.376,5.376,0,0,0-3.8-9.183Zm2.2,7.5-6.1,4.862-5.865-4.643a3.061,3.061,0,1,1,4.8-3.514,1.158,1.158,0,0,0,2.139,0,3.061,3.061,0,1,1,5.032,3.3Z" transform="translate(-176.566 -202.125)" fill="#3eb7e4"/>
      </g>
    </g>
    <g id="Group_589" data-name="Group 589" transform="translate(0.004 80.347)">
      <g id="Group_588" data-name="Group 588" transform="translate(0 0)">
        <circle id="Ellipse_743" data-name="Ellipse 743" cx="1.154" cy="1.154" r="1.154" fill="#3eb7e4"/>
      </g>
    </g>
    <g id="Group_591" data-name="Group 591" transform="translate(56.829 46.481)">
      <g id="Group_590" data-name="Group 590" transform="translate(0 0)">
        <circle id="Ellipse_744" data-name="Ellipse 744" cx="1.154" cy="1.154" r="1.154" fill="#3eb7e4"/>
      </g>
    </g>
  </g>
</svg>
