<svg xmlns="http://www.w3.org/2000/svg" width="27.6" height="46.433" viewBox="0 0 27.6 46.433">
  <g id="icon7" transform="translate(-103.834)">
    <g id="Group_133" data-name="Group 133" transform="translate(112.669 31.424)">
      <g id="Group_132" data-name="Group 132" transform="translate(0)">
        <path id="Path_25232" data-name="Path 25232" d="M207.837,346.5a3.19,3.19,0,0,0-1.682.483,3.19,3.19,0,0,0-1.682-.483,3.256,3.256,0,0,0-3.223,3.282c0,1.027.741,2.263,2.266,3.779A23.871,23.871,0,0,0,205.6,355.4a.908.908,0,0,0,1.1,0,23.855,23.855,0,0,0,2.087-1.835c1.525-1.516,2.266-2.752,2.266-3.779A3.257,3.257,0,0,0,207.837,346.5Zm-1.682,7.014c-1.578-1.308-3.088-2.988-3.088-3.732a1.439,1.439,0,0,1,1.407-1.467,1.369,1.369,0,0,1,1.014.451.908.908,0,0,0,1.335,0,1.369,1.369,0,0,1,1.014-.451,1.439,1.439,0,0,1,1.407,1.467C209.244,350.528,207.733,352.208,206.155,353.518Z" transform="translate(-201.251 -346.504)" fill="#3eb7e4"/>
      </g>
    </g>
    <g id="Group_135" data-name="Group 135" transform="translate(103.834 15.055)">
      <g id="Group_134" data-name="Group 134" transform="translate(0)">
        <path id="Path_25233" data-name="Path 25233" d="M116.371,175.4a2.443,2.443,0,0,0-1.978-.623,9.475,9.475,0,0,0-6.385,4.136.908.908,0,0,0,1.559.93,7.676,7.676,0,0,1,5.1-3.272.708.708,0,0,1,.515.2,1.592,1.592,0,0,1,.541,1.119.849.849,0,0,1-.578.8,7.47,7.47,0,0,0-3.464,1.986l-3.476,4.326a1.685,1.685,0,0,1-1.355.676.668.668,0,0,1-.512-.233c-.873-.954-.7-4.063-.626-5.391.011-.205.022-.391.029-.552.356-8.2,3.554-10.538,8.6-11.649l.312-.069a.908.908,0,0,0-.391-1.773l-.312.069c-3.354.738-5.653,2.006-7.237,3.988-1.717,2.151-2.6,5.123-2.786,9.355-.007.154-.017.332-.028.529-.14,2.516-.182,5.317,1.1,6.718a2.489,2.489,0,0,0,1.792.822l.109,0q.1,0,.19-.006a9.936,9.936,0,0,0,1,4.222.908.908,0,0,0,1.633-.793,8.143,8.143,0,0,1-.821-3.587v-.5a3.8,3.8,0,0,0,.717-.688l3.476-4.326a6.212,6.212,0,0,1,2.622-1.4,2.665,2.665,0,0,0,1.821-2.517A3.385,3.385,0,0,0,116.371,175.4Z" transform="translate(-103.834 -166.002)" fill="#3eb7e4"/>
      </g>
    </g>
    <g id="Group_137" data-name="Group 137" transform="translate(109.57 41.742)">
      <g id="Group_136" data-name="Group 136" transform="translate(0)">
        <path id="Path_25234" data-name="Path 25234" d="M168.67,460.586l-.023-.025a.908.908,0,0,0-1.325,1.241l.039.041a.908.908,0,0,0,1.31-1.257Z" transform="translate(-167.076 -460.274)" fill="#3eb7e4"/>
      </g>
    </g>
    <g id="Group_139" data-name="Group 139" transform="translate(120.232 15.049)">
      <g id="Group_138" data-name="Group 138">
        <path id="Path_25235" data-name="Path 25235" d="M290.043,167.755a13.662,13.662,0,0,0-4.292-1.794.908.908,0,0,0-.406,1.769,11.854,11.854,0,0,1,3.724,1.556.908.908,0,0,0,.975-1.531Z" transform="translate(-284.64 -165.938)" fill="#3eb7e4"/>
      </g>
    </g>
    <g id="Group_141" data-name="Group 141" transform="translate(126.569 18.634)">
      <g id="Group_140" data-name="Group 140" transform="translate(0)">
        <path id="Path_25236" data-name="Path 25236" d="M356.126,205.8l-.048-.05a.908.908,0,0,0-1.306,1.261l.041.042a.908.908,0,1,0,1.313-1.253Z" transform="translate(-354.517 -205.47)" fill="#3eb7e4"/>
      </g>
    </g>
    <g id="Group_143" data-name="Group 143" transform="translate(111.965 21.005)">
      <g id="Group_142" data-name="Group 142">
        <path id="Path_25237" data-name="Path 25237" d="M211.731,232.313a.908.908,0,1,0-1.581.893c.916,1.622.989,3.524.989,5.841v2.766c0,3.194-.732,7.68-4.216,10.915a10.115,10.115,0,0,1-3.548,1.735l-.178.048a1.449,1.449,0,0,1-.7-2.809,8.9,8.9,0,0,0,3.441-1.659c2.4-2.224,2.273-5.667,2.163-8.7-.024-.655-.046-1.273-.046-1.879a.914.914,0,0,0-.02-.189,3.425,3.425,0,0,0,.373-1.083c.275-1.693-.825-3.125-1.708-4.275a4.972,4.972,0,0,1-.882-1.385.908.908,0,0,0-1.815,0,4.469,4.469,0,0,0,1.257,2.491c.705.919,1.5,1.959,1.356,2.879a3.068,3.068,0,0,1-1.5,1.818.908.908,0,1,0,1.017,1.5c.05-.034.1-.069.147-.1,0,.1.007.192.01.288.1,2.778.2,5.65-1.584,7.309a7.549,7.549,0,0,1-2.721,1.249,3.267,3.267,0,0,0-1.66,5.126,14.6,14.6,0,0,1-1.675.144,8.238,8.238,0,0,1-3.832-.946.908.908,0,0,0-.848,1.606,10.061,10.061,0,0,0,4.68,1.156,21.418,21.418,0,0,0,4.985-.773c.061-.014.123-.031.184-.049l.056-.015.014,0,.025-.007a11.617,11.617,0,0,0,4.244-2.139c3.138-2.913,4.8-7.147,4.8-12.245v-2.766C212.955,236.548,212.863,234.316,211.731,232.313Z" transform="translate(-193.486 -231.618)" fill="#3eb7e4"/>
      </g>
    </g>
    <g id="Group_145" data-name="Group 145" transform="translate(108.833)">
      <g id="Group_144" data-name="Group 144" transform="translate(0)">
        <path id="Path_25238" data-name="Path 25238" d="M167.7,0a7,7,0,0,0-2.928.64,3.733,3.733,0,0,0-4.316,6.089.9.9,0,0,0,.2.114c0,.067-.005.133-.005.2V8.16a7.045,7.045,0,1,0,14.089,0V7.045A7.053,7.053,0,0,0,167.7,0Zm-6.556,2.589a1.919,1.919,0,0,1,1.817-.753,7.064,7.064,0,0,0-1.914,2.9A1.92,1.92,0,0,1,161.148,2.589Zm6.556,10.8a5.236,5.236,0,0,1-5.2-4.644,11.176,11.176,0,0,0,6.283-2.271A7.483,7.483,0,0,0,172.905,8.7,5.237,5.237,0,0,1,167.7,13.389Zm1.954-8.8a.908.908,0,0,0-1.514-.083c-1.36,1.839-4.313,2.3-5.666,2.414a5.227,5.227,0,0,1,10.45-.08A5.15,5.15,0,0,1,169.658,4.594Z" transform="translate(-158.955)" fill="#3eb7e4"/>
      </g>
    </g>
  </g>
</svg>
