<svg xmlns="http://www.w3.org/2000/svg" xmlns:xlink="http://www.w3.org/1999/xlink" width="1178" height="94" viewBox="0 0 1178 94">
  <defs>
    <clipPath id="clip-path">
      <rect id="Rectangle_205" data-name="Rectangle 205" width="1178" height="94" transform="translate(470 1127)" fill="#fff" stroke="#707070" stroke-width="1"/>
    </clipPath>
  </defs>
  <g id="Mask_Group_4" data-name="Mask Group 4" transform="translate(-470 -1127)" clip-path="url(#clip-path)">
    <g id="Group_448" data-name="Group 448" transform="translate(-154.769 1142.74)">
      <path id="Path_29699" data-name="Path 29699" d="M0,0,.542.1l.517,3.763-.542-.1Z" transform="translate(0 0.722) rotate(-67.737)" fill="#afb0b2"/>
      <path id="Path_29638" data-name="Path 29638" d="M3195.279,236.629l-7.362-1.43.3-.348,7.362,1.43Zm-14.726-2.859-7.364-1.43.3-.347,7.362,1.43Zm-14.728-2.86-7.363-1.43.3-.348,7.364,1.43Zm-14.724-2.86-7.364-1.43.3-.347,7.364,1.43Zm-629.631-2.771-2.3,0,.006-.375q3.983.011,7.954-.017l.011.375Q2524.309,225.279,2521.47,225.279Zm-1375.778-.009c-2.633-.013-5.315-.04-7.968-.08l.025-.375c2.648.041,5.322.068,7.952.08Zm7.969,0-.008-.375c2.613-.014,5.289-.041,7.95-.083l.024.375C1158.962,225.227,1156.283,225.254,1153.662,225.268Zm681.212-.047q-3.2,0-6.413-.027l.016-.375q3.2.027,6.4.027H1835l1.431,0,0,.375h-1.558Zm-1370.826,0h-1.121l0-.375h1.119q3.417,0,6.833-.03l.016.375Q467.471,225.22,464.047,225.22Zm2047.159-.008c-2.631-.035-5.311-.084-7.965-.146l.042-.375c2.647.062,5.319.111,7.945.146Zm625.168-.021-7.364-1.43.3-.347,7.362,1.43Zm-2681.416-.023c-2.634-.031-5.314-.076-7.966-.134l.038-.375c2.645.058,5.319.1,7.947.134Zm1389.441,0-.019-.375c2.648-.032,5.323-.077,7.946-.137l.036.375C1849.734,225.086,1847.055,225.132,1844.4,225.164Zm690.712,0-.028-.375c2.642-.047,5.313-.107,7.944-.18l.046.375C2540.436,225.052,2537.758,225.113,2535.11,225.16Zm-714.617-.074c-2.642-.05-5.319-.113-7.958-.189l.049-.375c2.633.076,5.305.14,7.941.188Zm-1341.631-.007-.033-.375c2.639-.05,5.311-.115,7.942-.192l.051.375C484.184,224.964,481.507,225.028,478.863,225.079Zm650.9-.051c-2.642-.067-5.316-.149-7.952-.243l.059-.375c2.631.094,5.3.176,7.938.243Zm39.834-.008-.043-.375c2.636-.068,5.307-.152,7.935-.246l.06.375C1174.913,224.869,1172.236,224.952,1169.594,225.02Zm1325.692-.182c-2.655-.09-5.326-.194-7.942-.309l.075-.374c2.61.115,5.276.219,7.923.309Zm-2056.25-.02c-2.65-.086-5.324-.186-7.946-.3l.072-.374c2.615.112,5.283.211,7.928.3Zm1421.286-.011-.056-.375c2.633-.086,5.3-.186,7.928-.3l.072.374C1865.633,224.621,1862.961,224.722,1860.322,224.808Zm690.7-.091-.065-.374c2.63-.1,5.294-.216,7.92-.344l.081.373C2556.329,224.5,2553.658,224.616,2551.024,224.717Zm-746.439-.092c-2.63-.1-5.3-.222-7.935-.353l.084-.373c2.629.131,5.292.249,7.915.352Zm-1309.814-.013-.067-.374c2.631-.1,5.3-.225,7.917-.356l.084.373C500.078,224.387,497.408,224.507,494.772,224.612Zm619.1-.153c-2.633-.122-5.3-.258-7.92-.407l.092-.372c2.62.148,5.279.285,7.906.406Zm71.618-.014-.078-.374c2.639-.123,5.3-.261,7.9-.41l.1.372C1190.795,224.183,1188.129,224.322,1185.485,224.445Zm-762.323-.3c-2.642-.14-5.3-.3-7.911-.462l.107-.372c2.6.166,5.256.321,7.891.461Zm2056.257,0c-2.621-.143-5.281-.3-7.907-.474l.11-.372c2.62.171,5.275.33,7.887.473Zm-603.224-.012-.091-.373c2.612-.14,5.265-.3,7.892-.464l.1.372C1881.472,223.828,1878.81,223.985,1876.2,224.124Zm690.683-.179-.1-.372c2.612-.155,5.264-.326,7.879-.508l.118.372C2572.153,223.619,2569.5,223.791,2566.878,223.946Zm-778.141-.11c-2.615-.158-5.272-.333-7.895-.519l.118-.371c2.62.186,5.27.36,7.876.517Zm-1278.117-.02-.1-.372c2.607-.158,5.257-.333,7.877-.52l.119.371C515.888,223.482,513.232,223.657,510.62,223.817Zm587.424-.255c-2.637-.178-5.287-.37-7.877-.573l.13-.37c2.583.2,5.227.394,7.858.571Zm103.263-.02-.111-.372c2.62-.178,5.264-.371,7.858-.575l.13.37C1206.586,223.169,1203.936,223.363,1201.308,223.541Zm-793.942-.407c-2.626-.2-5.27-.407-7.858-.628l.141-.369c2.582.221,5.219.432,7.841.626Zm1484.623-.023-.124-.371c2.606-.2,5.243-.407,7.84-.63l.142.369C1897.243,222.7,1894.6,222.916,1891.989,223.112Zm571.637-.006c-2.644-.2-5.286-.417-7.85-.64l.143-.369c2.559.223,5.2.438,7.834.64Zm119.018-.261-.134-.37c2.607-.21,5.238-.437,7.823-.674l.152.368C2587.895,222.406,2585.258,222.633,2582.644,222.844Zm-809.671-.128c-2.614-.214-5.249-.444-7.834-.685l.154-.369c2.579.24,5.208.47,7.817.684ZM526.381,222.69l-.137-.37c2.62-.215,5.251-.447,7.818-.687l.156.369C531.643,222.242,529.007,222.474,526.381,222.69Zm555.94-.357c-2.612-.233-5.24-.483-7.815-.74l.165-.368c2.569.258,5.192.507,7.8.739Zm2039.326,0-7.362-1.43.3-.348,7.362,1.43ZM1217.035,222.3l-.15-.369c2.61-.234,5.233-.484,7.8-.742l.165.367C1222.28,221.82,1219.65,222.07,1217.035,222.3ZM391.682,221.8c-2.587-.25-5.206-.518-7.788-.8l.176-.366c2.575.279,5.19.545,7.772.794Zm1515.991-.031-.159-.368c2.586-.25,5.2-.518,7.771-.8l.178.366C1912.887,221.245,1910.265,221.514,1907.672,221.765Zm540.282-.024c-2.6-.255-5.218-.526-7.785-.808l.181-.366c2.558.281,5.171.552,7.764.806Zm150.34-.333-.17-.366c2.576-.266,5.183-.549,7.75-.842l.186.365C2603.489,220.858,2600.875,221.143,2598.295,221.408Zm-840.958-.146c-2.6-.271-5.211-.559-7.763-.854l.189-.364c2.545.294,5.152.581,7.744.851ZM542.019,221.23l-.172-.366c2.579-.27,5.183-.558,7.744-.855l.189.365C547.214,220.671,544.6,220.96,542.019,221.23Zm524.711-.463c-2.585-.289-5.187-.595-7.733-.909l.2-.363c2.539.314,5.135.619,7.713.908Zm165.891-.035-.183-.365c2.6-.291,5.191-.6,7.713-.912l.2.363C1237.826,220.134,1235.223,220.442,1232.621,220.733Zm-856.477-.615c-2.567-.306-5.159-.631-7.7-.966l.213-.361c2.539.333,5.125.657,7.686.963Zm1547.067-.036-.2-.363c2.575-.309,5.162-.634,7.683-.967l.215.361C1928.383,219.446,1925.792,219.773,1923.21,220.082Zm509.217-.043c-2.564-.311-5.152-.64-7.7-.978l.216-.361c2.537.338,5.119.666,7.678.976Zm181.358-.4-.205-.362c2.552-.323,5.128-.663,7.658-1.013l.223.36C2618.927,218.971,2616.343,219.312,2613.785,219.634Zm493.137-.164-7.364-1.43.3-.347,7.364,1.43Zm-1365.067,0c-2.582-.33-5.162-.674-7.671-1.025l.227-.36c2.5.35,5.074.694,7.651,1.023ZM557.5,219.43l-.208-.362c2.529-.324,5.1-.669,7.651-1.026l.226.36C562.611,218.761,560.031,219.107,557.5,219.43Zm493.813-.568c-2.55-.345-5.119-.709-7.634-1.08l.237-.359c2.51.371,5.073.734,7.616,1.079Zm196.732-.041-.221-.36c2.55-.347,5.111-.711,7.615-1.083l.238.358C1253.164,218.11,1250.595,218.474,1248.041,218.821Zm-887.253-.72c-2.537-.365-5.094-.748-7.6-1.139l.25-.356c2.5.39,5.049.772,7.578,1.135Zm1577.774-.044-.232-.36c2.542-.366,5.092-.749,7.575-1.139l.251.356C1943.666,217.305,1941.111,217.689,1938.563,218.057ZM2417.088,218c-2.515-.366-5.07-.753-7.589-1.152l.253-.356c2.515.4,5.06.784,7.569,1.149Zm212-.478-.242-.358c2.5-.378,5.041-.776,7.543-1.186l.261.355C2634.137,216.739,2631.594,217.139,2629.083,217.518Zm-902.512-.183c-2.542-.387-5.084-.791-7.556-1.2l.264-.354c2.464.407,5,.809,7.537,1.2Zm-1153.793-.047-.245-.357c2.523-.385,5.059-.789,7.535-1.2l.262.354C577.849,216.5,575.308,216.9,572.779,217.287Zm463.32-.674c-2.491-.4-5.019-.822-7.513-1.255l.275-.353c2.486.432,5.008.854,7.494,1.252Zm2056.1,0-7.364-1.43.3-.348,7.362,1.43Zm-1828.946-.047-.258-.355c2.507-.4,5.028-.827,7.492-1.257l.277.352C1268.288,215.735,1265.761,216.16,1263.249,216.564Zm-917.6-.828c-2.509-.424-5.022-.866-7.469-1.314l.286-.35c2.442.446,4.949.887,7.451,1.311Zm1608.038-.051-.27-.354c2.471-.419,4.978-.862,7.448-1.315l.289.35C1958.679,214.821,1956.167,215.265,1953.692,215.685Zm448.281-.08c-2.512-.43-5.021-.877-7.458-1.327l.288-.35c2.432.449,4.936.895,7.44,1.324Zm242.173-.553-.28-.351c2.464-.436,4.955-.894,7.408-1.362l.3.348C2649.114,214.156,2646.617,214.616,2644.146,215.052Zm-932.623-.2c-2.5-.446-4.99-.909-7.419-1.376l.3-.348c2.423.466,4.911.927,7.4,1.372Zm-1123.7-.055-.281-.351c2.478-.444,4.968-.906,7.4-1.376l.3.348C592.8,213.888,590.306,214.352,587.821,214.8Zm433.32-.783q-1.543-.289-3.078-.586l-4.3-.831.3-.348,4.3.831q1.531.3,3.07.584Zm257.063-.056-.294-.349q1.388-.26,2.771-.528l4.6-.889.3.348-4.6.889Q1279.6,213.7,1278.2,213.957Zm1799.265-.206-7.364-1.43.3-.347,7.364,1.43Zm-2746.678-.728-7.368-1.424.3-.348,7.368,1.424Zm1637.762-.058-.3-.348,7.368-1.424.3.348Zm418.576-.095-7.369-1.424.3-.348,7.368,1.424Zm271.818-.606-.3-.348,7.368-1.424.3.347Zm-962.207-.218-7.362-1.429.3-.348,7.362,1.43Zm-1094.135-.058-.3-.347,7.362-1.43.3.347Zm403.79-.816-7.369-1.424.3-.348,7.368,1.424Zm286.553-.058-.3-.348,7.368-1.424.3.348Zm1769.795-.223-7.364-1.43.3-.347,7.364,1.43Zm-2746.689-.717-7.368-1.424.3-.348,7.368,1.424Zm1667.236-.058-.3-.348,7.369-1.424.3.348Zm389.1-.095-7.369-1.424.3-.348,7.368,1.424Zm301.288-.606-.3-.347,7.367-1.424.3.347Zm-991.668-.229-7.364-1.43.3-.347,7.364,1.43ZM617.33,209.129l-.3-.348,7.364-1.43.3.347Zm374.329-.806L984.29,206.9l.3-.348,7.368,1.424Zm316.025-.058-.3-.348,7.369-1.424.3.348Zm1740.332-.234-7.362-1.43.3-.348,7.362,1.43Zm-2746.7-.706-7.368-1.424.3-.348,7.368,1.424Zm1696.706-.058-.3-.348,7.369-1.424.3.348Zm359.632-.095-7.369-1.424.3-.348,7.369,1.424Zm330.762-.606-.3-.348,7.368-1.424.3.348Zm-1021.132-.24-7.362-1.43.3-.347,7.364,1.43Zm-1035.23-.059-.3-.348,7.362-1.43.3.347Zm344.866-.794-7.368-1.424.3-.348,7.368,1.424Zm345.5-.058-.3-.348,7.369-1.424.3.348Zm1710.869-.245-7.364-1.43.3-.347,7.363,1.43Zm-2746.708-.7-7.368-1.424.3-.348,7.368,1.424Zm1726.18-.058-.3-.348,7.369-1.424.3.348Zm330.16-.095-7.369-1.424.3-.348,7.369,1.424Zm360.233-.606-.3-.348,7.367-1.424.3.348Zm-1050.592-.252-7.364-1.43.3-.348,7.364,1.43Zm-1005.78-.059-.3-.348,7.364-1.43.3.348Zm315.4-.782L954.82,201.2l.3-.347,7.368,1.424Zm374.97-.058-.3-.348,7.369-1.424.3.348Zm1681.408-.256-7.364-1.43.3-.348,7.364,1.43Zm-2746.717-.684-7.368-1.424.3-.348,7.368,1.424Zm1755.651-.058-.3-.348,7.368-1.424.3.348Zm300.687-.095-7.368-1.424.3-.348,7.367,1.424Zm389.707-.605-.3-.348,7.368-1.424.3.348Zm-1080.056-.264-7.364-1.43.3-.348,7.362,1.43Zm-976.327-.059-.3-.348,7.364-1.43.3.348Zm285.942-.77-7.368-1.424.3-.348,7.368,1.424Zm404.442-.059-.3-.348,7.369-1.424.3.348Zm1651.946-.267-7.364-1.43.3-.348,7.364,1.43ZM257.11,198.781l-7.368-1.424.3-.348,7.367,1.424Zm1785.125-.058-.3-.348,4.695-.908q1.336-.258,2.679-.511l.3.348q-1.34.252-2.674.51Zm271.213-.1-4.2-.812q-1.579-.305-3.167-.6l.291-.349q1.593.3,3.176.6l4.205.812Zm419.179-.605-.3-.348.764-.148c2.211-.427,4.445-.845,6.642-1.241l.283.35c-2.191.4-4.42.812-6.623,1.239Zm-1109.519-.274c-2.427-.465-4.917-.927-7.4-1.37l.28-.351c2.491.444,4.988.906,7.422,1.373Zm-946.875-.057-.3-.348c2.447-.469,4.944-.93,7.424-1.37l.278.351C681.166,196.764,678.675,197.224,676.233,197.691ZM932.7,196.95c-2.455-.452-4.96-.9-7.445-1.318l.27-.354c2.491.424,5,.869,7.464,1.323Zm433.935-.054-.288-.35c2.464-.452,4.974-.9,7.464-1.319l.27.354C1371.6,196,1369.1,196.445,1366.64,196.9Zm1622.448-.261c-2.453-.443-4.965-.88-7.464-1.3l.265-.354c2.505.419,5.022.857,7.48,1.3Zm-932.063-.676-.277-.352c2.474-.432,5-.856,7.509-1.261l.259.355C2062.009,195.106,2059.49,195.529,2057.024,195.96Zm-1814.649-.028-7.368-1.424.3-.347,7.368,1.424Zm2056.276-.059c-2.477-.43-5-.851-7.5-1.252l.254-.355c2.505.4,5.035.824,7.516,1.255Zm448.826-.536-.267-.354c2.475-.414,5.012-.822,7.543-1.214l.248.357C2752.476,194.516,2749.944,194.924,2747.476,195.337Zm-1139.244-.24c-2.483-.409-5.019-.811-7.54-1.194l.245-.357c2.526.384,5.07.787,7.556,1.2Zm-917.118-.05-.261-.354c2.494-.41,5.038-.812,7.558-1.194l.243.357C696.141,194.238,693.6,194.638,691.115,195.047Zm226.634-.647c-2.516-.4-5.065-.781-7.575-1.144l.234-.359c2.515.363,5.07.749,7.593,1.147Zm463.852-.047-.251-.357c2.486-.39,5.039-.774,7.594-1.144l.232.359C1386.627,193.579,1384.079,193.963,1381.6,194.353Zm1592.5-.226c-2.5-.387-5.057-.765-7.588-1.124l.231-.36c2.536.36,5.094.739,7.6,1.126Zm-902.025-.595-.239-.358c2.5-.372,5.066-.737,7.631-1.086l.221.361C2077.125,192.8,2074.565,193.162,2072.071,193.532Zm211.52-.075c-2.493-.369-5.055-.731-7.618-1.077l.221-.361c2.566.348,5.135.711,7.634,1.08Zm-2055.953-.372-7.368-1.424.3-.348,7.367,1.424ZM2762.588,193l-.23-.359c2.505-.356,5.082-.706,7.661-1.041l.211.362C2767.657,192.3,2765.086,192.648,2762.588,193ZM1593.094,192.8c-2.518-.351-5.094-.7-7.653-1.021l.208-.363c2.564.327,5.146.671,7.67,1.023Zm-886.838-.044-.224-.36c2.521-.351,5.1-.694,7.672-1.02l.207.363C711.346,192.061,708.77,192.4,706.255,192.752Zm196.289-.554c-2.553-.338-5.138-.665-7.682-.972l.2-.364c2.55.308,5.14.635,7.7.974Zm494.264-.041-.215-.361c2.523-.333,5.114-.66,7.7-.971l.2.364C1401.91,191.5,1399.325,191.826,1396.808,192.158Zm1562.06-.193c-2.526-.328-5.116-.649-7.693-.952l.192-.364c2.583.3,5.178.625,7.712.954Zm-871.518-.514-.2-.363c2.548-.317,5.149-.624,7.729-.914l.183.365C2092.488,190.829,2089.892,191.135,2087.35,191.451Zm180.956-.065c-2.552-.314-5.148-.619-7.718-.906l.184-.365c2.575.288,5.179.593,7.736.908Zm509.616-.373-.192-.365c2.564-.3,5.173-.594,7.755-.868l.175.366C2783.083,190.42,2780.48,190.712,2777.922,191.014Zm-1200.183-.174c-2.56-.3-5.167-.582-7.745-.85l.172-.366c2.585.269,5.2.555,7.763.851ZM721.612,190.8l-.188-.365c2.561-.3,5.173-.58,7.764-.848l.17.366C726.776,190.224,724.169,190.509,721.612,190.8Zm165.524-.463c-2.583-.281-5.2-.55-7.771-.8l.162-.367c2.579.252,5.2.522,7.787.8Zm525.081-.034-.177-.366c2.574-.279,5.192-.549,7.786-.8l.161.367C1417.4,189.759,1414.786,190.028,1412.218,190.306ZM212.9,190.236l-7.367-1.424.3-.348,7.368,1.424Zm2730.536-.089c-2.569-.273-5.184-.536-7.777-.782l.157-.368c2.6.247,5.221.511,7.793.785Zm-840.617-.434-.165-.367c2.563-.259,5.191-.51,7.81-.745l.149.369C2108,189.2,2105.377,189.454,2102.82,189.712Zm150.01-.053c-2.569-.258-5.192-.505-7.8-.737l.149-.369c2.612.233,5.24.481,7.814.74Zm540.6-.3-.156-.368c2.593-.246,5.229-.482,7.829-.7l.14.369C2798.65,188.883,2796.023,189.118,2793.434,189.364Zm-1231.228-.141c-2.582-.24-5.213-.469-7.82-.682l.137-.37c2.61.213,5.249.444,7.836.684Zm-825.061-.029-.153-.369c2.6-.24,5.237-.469,7.839-.68l.134.37C742.371,188.727,739.739,188.954,737.146,189.194Zm134.414-.373c-2.582-.224-5.219-.437-7.839-.634l.126-.371c2.625.2,5.268.412,7.856.636Zm556.234-.027-.143-.37c2.585-.221,5.227-.435,7.856-.632l.124.371C1433.008,188.359,1430.372,188.572,1427.794,188.794Zm1500.048-.128c-2.6-.218-5.238-.425-7.844-.615l.121-.371c2.612.191,5.257.4,7.863.616Zm-809.4-.356-.13-.371c2.583-.2,5.233-.4,7.875-.577l.115.372C2123.664,187.913,2121.021,188.106,2118.44,188.31Zm118.759-.042c-2.586-.2-5.23-.393-7.861-.571l.113-.372c2.636.177,5.286.369,7.879.572Zm571.894-.217-.121-.371c2.6-.19,5.252-.369,7.89-.534l.1.372C2814.336,187.682,2811.688,187.861,2809.093,188.051Zm-1262.557-.109c-2.617-.185-5.267-.359-7.876-.516l.1-.372c2.614.157,5.27.331,7.895.517Zm-793.719-.023-.118-.371c2.623-.185,5.279-.358,7.9-.514l.1.372C758.084,187.563,755.434,187.735,752.817,187.919Zm103.038-.284c-2.625-.17-5.28-.328-7.89-.469l.089-.373c2.617.141,5.278.3,7.909.47Zm587.646-.02-.108-.372c2.642-.17,5.3-.327,7.907-.466l.091.373C1448.79,187.289,1446.135,187.446,1443.5,187.615Zm1468.624-.1c-2.614-.163-5.27-.314-7.893-.45l.086-.373c2.631.136,5.291.288,7.914.451Zm-2713.959-.131-7.367-1.424.3-.348,7.368,1.424Zm1936.017-.148-.1-.372c2.625-.15,5.289-.289,7.923-.412l.076.373C2139.458,186.952,2136.8,187.09,2134.182,187.24Zm87.272-.03c-2.6-.148-5.262-.285-7.906-.406l.076-.373c2.65.122,5.316.258,7.925.406Zm603.406-.14-.087-.373c2.626-.135,5.3-.259,7.931-.368l.068.374C2830.143,186.811,2827.48,186.934,2824.861,187.069Zm-1294.1-.077c-2.621-.13-5.284-.249-7.917-.352l.065-.374c2.639.1,5.308.222,7.934.353Zm-762.166-.017-.081-.373c2.639-.13,5.308-.247,7.934-.348l.065.374C773.893,186.73,771.228,186.847,768.594,186.976Zm71.459-.2c-2.625-.114-5.292-.217-7.926-.3l.056-.375c2.641.087,5.313.19,7.944.3Zm619.248-.014-.072-.374c2.62-.113,5.292-.215,7.942-.3l.057.375C1464.584,186.553,1461.916,186.654,1459.3,186.767Zm1437.014-.065c-2.636-.108-5.3-.2-7.929-.285l.052-.375c2.631.081,5.305.177,7.946.286Zm-746.3-.2-.062-.374c2.633-.1,5.31-.179,7.952-.248l.043.375C2155.307,186.322,2152.636,186.4,2150.01,186.5Zm55.614-.019c-2.63-.094-5.3-.176-7.936-.243l.043-.375c2.644.067,5.318.149,7.952.243Zm635.082-.064-.054-.375c2.626-.081,5.3-.149,7.958-.2l.035.375C2845.994,186.268,2843.322,186.336,2840.705,186.417Zm-1325.8-.046c-2.633-.076-5.3-.139-7.941-.188l.03-.375c2.642.048,5.321.112,7.96.188Zm-730.465-.009-.048-.375c2.637-.075,5.316-.137,7.96-.185l.03.375C789.75,186.226,787.078,186.287,784.445,186.362Zm39.742-.109c-2.621-.06-5.3-.107-7.947-.141l.022-.375c2.656.034,5.337.081,7.965.142Zm650.979-.008-.038-.375c2.629-.059,5.308-.106,7.963-.138l.022.375C1480.464,186.141,1477.79,186.187,1475.167,186.246Zm1405.277-.032c-2.635-.055-5.308-.1-7.949-.122l.018-.375c2.645.027,5.326.068,7.965.122Zm-23.851-.122-.018-.375c2.642-.027,5.323-.041,7.965-.041l0,.375C2861.9,186.051,2859.231,186.064,2856.593,186.091Zm-690.7,0-.027-.375c2.653-.042,5.335-.071,7.968-.085l.009.375C2171.212,186.017,2168.537,186.045,2165.889,186.087Zm23.853-.009c-2.648-.039-5.324-.066-7.95-.079l.01-.375c2.631.014,5.313.04,7.966.079Zm-690.723,0q-3.212-.026-6.427-.026h-1.526l0-.375h1.529q3.222,0,6.442.026Zm-698.681,0-.014-.375c2.036-.017,4.055-.029,6.108-.024l1.862,0,0,.375-1.858,0Q803.382,186.049,800.338,186.075ZM183.43,184.539l-7.368-1.424.3-.348,7.367,1.424Zm-14.737-2.849-7.367-1.424.3-.348L169,181.343Zm-14.735-2.848-7.368-1.424.3-.348,7.368,1.424Zm-14.737-2.849-7.367-1.424.3-.348,7.368,1.424Z" transform="translate(-120.807 -171.119)" fill="#333"/>
      <path id="Path_29639" data-name="Path 29639" d="M2067.269,260.241l-3.676-.951.3-.463,3.676.951Z" transform="translate(1018.423 -191.829)" fill="#afb0b2"/>
    </g>
  </g>
</svg>
