<svg xmlns="http://www.w3.org/2000/svg" xmlns:xlink="http://www.w3.org/1999/xlink" width="1178" height="94" viewBox="0 0 1178 94">
  <defs>
    <clipPath id="clip-path">
      <rect id="Rectangle_205" data-name="Rectangle 205" width="1178" height="94" transform="translate(470 1127)" fill="#fff" stroke="#707070" stroke-width="1"/>
    </clipPath>
  </defs>
  <g id="Mask_Group_4" data-name="Mask Group 4" transform="translate(-470 -1127)" clip-path="url(#clip-path)">
    <g id="Group_448" data-name="Group 448" transform="translate(-47.905 971.621)">
      <rect id="Rectangle_204" data-name="Rectangle 204" width="0.5" height="2.5" transform="translate(124.905 171.842) rotate(-67.737)" fill="#afb0b2"/>
      <path id="Path_29638" data-name="Path 29638" d="M2058.847,236.629l-4.631-1.43.189-.348,4.631,1.43Zm-9.263-2.859-4.632-1.43.19-.347,4.631,1.43Zm-9.264-2.86-4.632-1.43.19-.348,4.632,1.43Zm-9.262-2.86-4.632-1.43.189-.347,4.632,1.43ZM1635,225.279l-1.445,0,0-.375q2.505.011,5-.017l.007.375Q1636.786,225.279,1635,225.279Zm-865.409-.009c-1.656-.013-3.343-.04-5.012-.08l.016-.375c1.666.041,3.348.068,5,.08Zm5.013,0-.005-.375c1.644-.014,3.327-.041,5-.083l.015.375C777.938,225.227,776.253,225.254,774.6,225.268Zm428.5-.047q-2.016,0-4.034-.027l.01-.375q2.012.027,4.024.027h.078l.9,0,0,.375h-.98Zm-862.294,0h-.7v-.375h.7q2.15,0,4.3-.03l.01.375Q342.968,225.22,340.814,225.22Zm1287.729-.008c-1.655-.035-3.341-.084-5.01-.146l.026-.375c1.665.062,3.346.111,5,.146Zm393.251-.021-4.632-1.43.19-.347,4.631,1.43Zm-1686.7-.023c-1.657-.031-3.343-.076-5.011-.134l.024-.375c1.664.058,3.346.1,5,.134Zm874,0-.012-.375c1.666-.032,3.348-.077,5-.137l.023.375C1212.456,225.086,1210.771,225.132,1209.1,225.164Zm434.48,0-.018-.375c1.662-.047,3.342-.107,5-.18l.029.375C1646.93,225.052,1645.245,225.113,1643.58,225.16Zm-449.517-.074c-1.662-.05-3.346-.113-5.006-.189l.031-.375c1.656.076,3.337.14,4.995.188Zm-843.929-.007-.021-.375c1.66-.05,3.341-.115,5-.192l.032.375C353.481,224.964,351.8,225.028,350.134,225.079Zm409.435-.051c-1.662-.067-3.344-.149-5-.243l.037-.375c1.655.094,3.333.176,4.993.243Zm25.057-.008-.027-.375c1.658-.068,3.338-.152,4.991-.246l.038.375C787.972,224.869,786.288,224.952,784.626,225.02Zm833.9-.182c-1.67-.09-3.35-.194-5-.309l.047-.374c1.642.115,3.319.219,4.984.309Zm-1293.448-.02c-1.667-.086-3.349-.186-5-.3l.045-.374c1.645.112,3.323.211,4.987.3Zm894.035-.011-.035-.375c1.656-.086,3.335-.186,4.987-.3l.045.374C1222.457,224.621,1220.776,224.722,1219.116,224.808Zm434.474-.091-.041-.374c1.654-.1,3.33-.216,4.982-.344l.051.373C1656.927,224.5,1655.247,224.616,1653.59,224.717Zm-469.534-.092c-1.654-.1-3.332-.222-4.991-.353l.053-.373c1.654.131,3.329.249,4.979.352Zm-823.915-.013-.042-.374c1.655-.1,3.331-.225,4.98-.356l.053.373C363.479,224.387,361.8,224.507,360.141,224.612Zm389.431-.153c-1.656-.122-3.333-.258-4.982-.407l.058-.372c1.648.148,3.321.285,4.973.406Zm45.05-.014-.049-.374c1.66-.123,3.332-.261,4.972-.41l.06.372C797.962,224.183,796.285,224.322,794.622,224.445Zm-479.526-.3c-1.662-.14-3.336-.3-4.976-.462l.067-.372c1.636.166,3.306.321,4.964.461Zm1293.452,0c-1.649-.143-3.322-.3-4.974-.474l.069-.372c1.648.171,3.318.33,4.961.473Zm-379.447-.012-.057-.373c1.643-.14,3.312-.3,4.964-.464l.066.372C1232.42,223.828,1230.746,223.985,1229.1,224.124Zm434.462-.179-.062-.372c1.643-.155,3.311-.326,4.956-.508l.074.372C1666.881,223.619,1665.21,223.791,1663.563,223.946Zm-489.476-.11c-1.645-.158-3.316-.333-4.966-.519l.074-.371c1.648.186,3.315.36,4.954.517Zm-803.977-.02-.064-.372c1.64-.158,3.307-.333,4.955-.52l.075.371C373.424,223.482,371.753,223.657,370.11,223.817Zm369.509-.255c-1.659-.178-3.326-.37-4.955-.573l.082-.37c1.625.2,3.288.394,4.943.571Zm64.956-.02-.07-.372c1.648-.178,3.311-.371,4.943-.575l.082.37C807.9,223.169,806.228,223.363,804.575,223.541Zm-499.415-.407c-1.652-.2-3.315-.407-4.943-.628l.089-.369c1.624.221,3.283.432,4.932.626Zm933.876-.023-.078-.371c1.639-.2,3.3-.407,4.932-.63l.089.369C1242.341,222.7,1240.678,222.916,1239.036,223.112Zm359.578-.006c-1.663-.2-3.325-.417-4.938-.64l.09-.369c1.61.223,3.268.438,4.928.64Zm74.866-.261-.084-.37c1.64-.21,3.3-.437,4.921-.674l.1.368C1676.783,222.406,1675.124,222.633,1673.48,222.844Zm-509.309-.128c-1.644-.214-3.3-.444-4.928-.685l.1-.369c1.622.24,3.276.47,4.917.684Zm-784.147-.026-.086-.37c1.648-.215,3.3-.447,4.918-.687l.1.369C383.334,222.242,381.676,222.474,380.024,222.69Zm349.7-.357c-1.643-.233-3.3-.483-4.916-.74l.1-.368c1.616.258,3.266.507,4.9.739Zm1282.8,0-4.631-1.43.19-.348,4.631,1.43ZM814.468,222.3l-.094-.369c1.642-.234,3.292-.484,4.9-.742l.1.367C817.767,221.82,816.113,222.07,814.468,222.3ZM295.294,221.8c-1.627-.25-3.275-.518-4.9-.8l.111-.366c1.62.279,3.265.545,4.889.794Zm953.607-.031-.1-.368c1.627-.25,3.271-.518,4.888-.8l.112.366C1252.181,221.245,1250.532,221.514,1248.9,221.765Zm339.855-.024c-1.636-.255-3.282-.526-4.9-.808l.114-.366c1.609.281,3.253.552,4.884.806Zm94.569-.333-.107-.366c1.62-.266,3.26-.549,4.875-.842l.117.365C1686.592,220.858,1684.948,221.143,1683.325,221.408Zm-528.99-.146c-1.636-.271-3.278-.559-4.883-.854l.119-.364c1.6.294,3.241.581,4.871.851Zm-764.474-.032-.108-.366c1.622-.27,3.26-.558,4.871-.855l.119.365C393.129,220.671,391.486,220.96,389.861,221.23Zm330.06-.463c-1.626-.289-3.263-.595-4.864-.909l.127-.363c1.6.314,3.23.619,4.852.908Zm104.351-.035-.115-.365c1.633-.291,3.265-.6,4.852-.912l.127.363C827.546,220.134,825.909,220.442,824.272,220.733Zm-538.752-.615c-1.615-.306-3.245-.631-4.846-.966l.134-.361c1.6.333,3.224.657,4.835.963Zm973.155-.036-.123-.363c1.62-.309,3.247-.634,4.833-.967l.135.361C1261.929,219.446,1260.3,219.773,1258.675,220.082Zm320.314-.043c-1.613-.311-3.241-.64-4.841-.978l.136-.361c1.6.338,3.22.666,4.83.976Zm114.08-.4-.129-.362c1.605-.323,3.226-.663,4.817-1.013l.14.36C1696.3,218.971,1694.678,219.312,1693.069,219.634Zm310.2-.164-4.632-1.43.189-.347,4.632,1.43Zm-858.671,0c-1.624-.33-3.247-.674-4.825-1.025l.143-.36c1.573.35,3.192.694,4.813,1.023Zm-745-.041-.131-.362c1.591-.324,3.21-.669,4.813-1.026l.142.36C402.814,218.761,401.191,219.107,399.6,219.43Zm310.624-.568c-1.6-.345-3.22-.709-4.8-1.08l.149-.359c1.579.371,3.191.734,4.791,1.079Zm123.751-.041-.139-.36c1.6-.347,3.215-.711,4.79-1.083l.15.358C837.194,218.11,835.578,218.474,833.972,218.821Zm-558.111-.72c-1.6-.365-3.2-.748-4.779-1.139l.157-.356c1.572.39,3.176.772,4.767,1.135Zm992.471-.044-.146-.36c1.6-.366,3.2-.749,4.765-1.139l.158.356C1271.542,217.305,1269.935,217.689,1268.332,218.057ZM1569.34,218c-1.582-.366-3.189-.753-4.774-1.152l.159-.356c1.582.4,3.183.784,4.761,1.149Zm133.352-.478-.152-.358c1.575-.378,3.171-.776,4.745-1.186l.164.355C1705.871,216.739,1704.271,217.139,1702.692,217.518Zm-567.709-.183c-1.6-.387-3.2-.791-4.753-1.2l.166-.354c1.55.407,3.145.809,4.741,1.2Zm-725.773-.047-.154-.357c1.587-.385,3.182-.789,4.74-1.2l.165.354C412.4,216.5,410.8,216.9,409.21,217.287Zm291.443-.674c-1.567-.4-3.157-.822-4.726-1.255L696.1,215c1.564.432,3.15.854,4.714,1.252Zm1293.351,0-4.632-1.43.19-.348,4.631,1.43Zm-1150.466-.047-.162-.355c1.577-.4,3.163-.827,4.713-1.257l.174.352C846.708,215.735,845.118,216.16,843.538,216.564Zm-577.2-.828c-1.578-.424-3.159-.866-4.7-1.314l.18-.35c1.536.446,3.113.887,4.687,1.311Zm1011.508-.051-.17-.354c1.554-.419,3.131-.862,4.685-1.315l.182.35C1280.986,214.821,1279.406,215.265,1277.849,215.685Zm281.983-.08c-1.58-.43-3.158-.877-4.691-1.327l.181-.35c1.53.449,3.1.895,4.68,1.324Zm152.335-.553-.176-.351c1.55-.436,3.117-.894,4.66-1.362l.188.348C1715.292,214.156,1713.721,214.616,1712.167,215.052Zm-586.65-.2c-1.57-.446-3.139-.909-4.667-1.376l.189-.348c1.524.466,3.089.927,4.655,1.372ZM418.672,214.8l-.177-.351c1.559-.444,3.125-.906,4.654-1.376l.19.348C421.8,213.888,420.235,214.352,418.672,214.8Zm272.572-.783q-.971-.289-1.936-.586l-2.7-.831.189-.348,2.7.831q.963.3,1.931.584Zm161.7-.056-.185-.349q.873-.26,1.743-.528l2.893-.889.189.348-2.893.889Q853.821,213.7,852.945,213.957Zm1131.8-.206-4.632-1.43.19-.347,4.632,1.43Zm-1727.749-.728-4.635-1.424.189-.348,4.635,1.424Zm1030.205-.058-.189-.348,4.635-1.424.189.348Zm263.3-.095-4.635-1.424.19-.348,4.635,1.424Zm170.982-.606-.19-.348,4.635-1.424.189.347Zm-605.259-.218-4.631-1.429.189-.348,4.631,1.43Zm-688.246-.058-.19-.347,4.631-1.43.19.347Zm254-.816-4.635-1.424.189-.348,4.635,1.424Zm180.251-.058-.19-.348,4.635-1.424.189.348Zm1113.258-.223-4.632-1.43.189-.347,4.632,1.43Zm-1727.756-.717-4.635-1.424.19-.348,4.635,1.424Zm1048.745-.058-.19-.348,4.635-1.424.19.348Zm244.759-.095-4.635-1.424.189-.348,4.635,1.424Zm189.52-.606-.189-.347,4.634-1.424.19.347Zm-623.791-.229-4.632-1.43.19-.347,4.632,1.43Zm-669.721-.058-.19-.348,4.632-1.43.191.347Zm235.465-.806-4.635-1.424.19-.348,4.635,1.424Zm198.79-.058-.189-.348,4.635-1.424.189.348Zm1094.725-.234-4.631-1.43.189-.348,4.631,1.43Zm-1727.761-.706-4.635-1.424.189-.348,4.635,1.424Zm1067.283-.058-.189-.348,4.635-1.424.189.348Zm226.22-.095-4.635-1.424.19-.348,4.635,1.424Zm208.06-.606-.19-.348,4.635-1.424.189.348Zm-642.325-.24-4.631-1.43.189-.347,4.632,1.43ZM446.5,206.269l-.19-.348,4.631-1.43.191.347Zm216.932-.794-4.635-1.424.189-.348,4.635,1.424Zm217.329-.058-.19-.348,4.635-1.424.19.348Zm1076.192-.245-4.632-1.43.19-.347,4.632,1.43Zm-1727.768-.7-4.635-1.424.19-.348,4.635,1.424Zm1085.823-.058-.19-.348,4.635-1.424.19.348Zm207.681-.095-4.635-1.424.189-.348,4.635,1.424Zm226.6-.606-.189-.348,4.634-1.424.19.348Zm-660.856-.252-4.632-1.43.189-.348,4.632,1.43Zm-632.668-.059-.19-.348,4.632-1.43.19.348Zm198.4-.782-4.634-1.424.189-.347,4.635,1.424Zm235.868-.058-.189-.348,4.635-1.424.189.348Zm1057.66-.256-4.632-1.43.189-.348,4.632,1.43Zm-1727.774-.684-4.635-1.424.189-.348,4.635,1.424Zm1104.361-.058-.189-.348,4.635-1.424.189.348Zm189.142-.095-4.635-1.424.19-.348,4.634,1.424Zm245.138-.605-.19-.348L1763,199.1l.189.348Zm-679.39-.264-4.632-1.43.19-.348,4.631,1.43Zm-614.141-.059-.19-.348,4.632-1.43.19.348Zm179.867-.77-4.635-1.424.19-.348,4.635,1.424ZM899.3,199.72l-.19-.348,4.635-1.424.19.348Zm1039.127-.267-4.632-1.43.189-.348,4.632,1.43Zm-1727.781-.672-4.635-1.424.19-.348,4.634,1.424Zm1122.9-.058-.19-.348,2.953-.908q.84-.258,1.685-.511l.186.348q-.843.252-1.682.51Zm170.6-.1-2.644-.812q-.993-.305-1.992-.6l.183-.349q1,.3,2,.6l2.645.812Zm263.677-.605-.189-.348.481-.148c1.391-.427,2.8-.845,4.178-1.241l.178.35c-1.378.4-2.78.812-4.166,1.239Zm-697.923-.274c-1.527-.465-3.093-.927-4.656-1.37l.176-.351c1.567.444,3.138.906,4.669,1.373Zm-595.615-.057-.187-.348c1.539-.469,3.11-.93,4.67-1.37l.175.351C477.389,196.764,475.822,197.224,474.286,197.691Zm161.329-.741c-1.544-.452-3.12-.9-4.683-1.318l.17-.354c1.567.424,3.147.869,4.7,1.323Zm272.959-.054-.181-.35c1.55-.452,3.129-.9,4.7-1.319l.17.354C911.7,196,910.12,196.445,908.574,196.9Zm1020.572-.261c-1.543-.443-3.123-.88-4.695-1.3l.167-.354c1.576.419,3.159.857,4.7,1.3Zm-586.3-.676-.174-.352c1.556-.432,3.145-.856,4.723-1.261l.163.355C1345.984,195.106,1344.4,195.529,1342.848,195.96Zm-1141.473-.028-4.635-1.424.189-.347,4.635,1.424Zm1293.464-.059c-1.558-.43-3.144-.851-4.716-1.252l.16-.355c1.576.4,3.167.824,4.728,1.255Zm282.326-.536-.168-.354c1.557-.414,3.153-.822,4.745-1.214l.156.357C1780.31,194.516,1778.717,194.924,1777.165,195.337Zm-716.621-.24c-1.562-.409-3.157-.811-4.743-1.194l.154-.357c1.589.384,3.189.787,4.753,1.2Zm-576.9-.05-.164-.354c1.569-.41,3.169-.812,4.754-1.194l.153.357C486.809,194.238,485.212,194.638,483.647,195.047Zm142.56-.647c-1.583-.4-3.186-.781-4.765-1.144l.147-.359c1.582.363,3.189.749,4.776,1.147Zm291.778-.047-.158-.357c1.564-.39,3.17-.774,4.777-1.144l.146.359C921.147,193.579,919.544,193.963,917.985,194.353Zm1001.731-.226c-1.575-.387-3.181-.765-4.773-1.124l.145-.36c1.595.36,3.2.739,4.783,1.126Zm-567.4-.595-.15-.358c1.572-.372,3.187-.737,4.8-1.086l.139.361C1355.492,192.8,1353.882,193.162,1352.313,193.532Zm133.053-.075c-1.568-.369-3.18-.731-4.792-1.077l.139-.361c1.614.348,3.23.711,4.8,1.08ZM192.1,193.084l-4.635-1.424.19-.348,4.634,1.424ZM1786.671,193l-.145-.359c1.576-.356,3.2-.706,4.819-1.041l.133.362C1789.859,192.3,1788.242,192.648,1786.671,193Zm-735.65-.206c-1.584-.351-3.2-.7-4.814-1.021l.131-.363c1.613.327,3.237.671,4.825,1.023Zm-557.85-.044-.141-.36c1.586-.351,3.21-.694,4.826-1.02l.13.363C496.373,192.061,494.753,192.4,493.171,192.752Zm123.472-.554c-1.606-.338-3.232-.665-4.832-.972l.124-.364c1.6.308,3.233.635,4.842.974Zm310.908-.041-.135-.361c1.587-.333,3.217-.66,4.844-.971l.123.364C930.76,191.5,929.134,191.826,927.551,192.158Zm982.586-.193c-1.589-.328-3.218-.649-4.839-.952l.121-.364c1.625.3,3.257.625,4.851.954Zm-548.213-.514-.127-.363c1.6-.317,3.239-.624,4.862-.914l.115.365C1365.156,190.829,1363.523,191.135,1361.924,191.451Zm113.827-.065c-1.6-.314-3.238-.619-4.855-.906l.116-.365c1.62.288,3.258.593,4.866.908Zm320.565-.373-.121-.365c1.613-.3,3.254-.594,4.878-.868l.11.366C1799.563,190.42,1797.925,190.712,1796.316,191.014Zm-754.954-.174c-1.61-.3-3.25-.582-4.872-.85l.108-.366c1.626.269,3.269.555,4.883.851ZM502.831,190.8l-.118-.365c1.611-.3,3.254-.58,4.884-.848l.107.366C506.079,190.224,504.439,190.509,502.831,190.8Zm104.12-.463c-1.625-.281-3.269-.55-4.888-.8l.1-.367c1.622.252,3.27.522,4.9.8Zm330.293-.034-.111-.366c1.619-.279,3.266-.549,4.9-.8l.1.367C940.5,189.759,938.86,190.028,937.244,190.306Zm-754.409-.071-4.634-1.424.189-.348,4.635,1.424Zm1717.6-.089c-1.616-.273-3.261-.536-4.892-.782l.1-.368c1.634.247,3.284.511,4.9.785Zm-528.775-.434-.1-.367c1.612-.259,3.265-.51,4.913-.745l.094.369C1374.914,189.2,1373.264,189.454,1371.655,189.712Zm94.361-.053c-1.616-.258-3.266-.505-4.906-.737l.094-.369c1.643.233,3.3.481,4.915.74Zm340.058-.3-.1-.368c1.631-.246,3.289-.482,4.925-.7l.088.369C1809.355,188.883,1807.7,189.118,1806.074,189.364Zm-774.482-.141c-1.624-.24-3.279-.469-4.919-.682l.086-.37c1.642.213,3.3.444,4.929.684Zm-518.99-.029-.1-.369c1.635-.24,3.294-.469,4.931-.68l.084.37C515.889,188.727,514.233,188.954,512.6,189.194Zm84.551-.373c-1.624-.224-3.283-.437-4.931-.634l.079-.371c1.651.2,3.314.412,4.942.636Zm349.889-.027-.09-.37c1.626-.221,3.288-.435,4.942-.632l.078.371C950.322,188.359,948.664,188.572,947.042,188.794Zm943.579-.128c-1.635-.218-3.295-.425-4.934-.615l.076-.371c1.643.191,3.307.4,4.946.616Zm-509.14-.356-.082-.371c1.625-.2,3.292-.4,4.954-.577l.072.372C1384.767,187.913,1383.1,188.106,1381.481,188.31Zm74.7-.042c-1.627-.2-3.29-.393-4.945-.571l.071-.372c1.658.177,3.325.369,4.956.572Zm359.74-.217-.076-.371c1.635-.19,3.3-.369,4.963-.534l.065.372C1819.222,187.682,1817.556,187.861,1815.924,188.051Zm-794.189-.109c-1.646-.185-3.313-.359-4.954-.516l.063-.372c1.644.157,3.315.331,4.966.517Zm-499.275-.023-.074-.371c1.65-.185,3.321-.358,4.967-.514l.062.372C525.773,187.563,524.106,187.735,522.46,187.919Zm64.814-.284c-1.651-.17-3.321-.328-4.963-.469l.056-.373c1.646.141,3.32.3,4.975.47Zm369.648-.02-.068-.372c1.662-.17,3.335-.327,4.974-.466l.057.373C960.249,187.289,958.579,187.446,956.922,187.615Zm923.812-.1c-1.644-.163-3.315-.314-4.965-.45l.054-.373c1.655.136,3.328.288,4.978.451Zm-1707.168-.131-4.634-1.424.189-.348,4.635,1.424Zm1217.817-.148-.061-.372c1.651-.15,3.327-.289,4.984-.412l.048.373C1394.7,186.952,1393.029,187.09,1391.383,187.24Zm54.9-.03c-1.636-.148-3.31-.285-4.973-.406l.048-.373c1.667.122,3.344.258,4.985.406Zm379.562-.14-.055-.373c1.652-.135,3.331-.259,4.989-.368l.043.374C1829.165,186.811,1827.49,186.934,1825.842,187.069Zm-814.031-.077c-1.649-.13-3.324-.249-4.98-.352l.041-.374c1.66.1,3.339.222,4.991.353Zm-479.427-.017-.051-.373c1.66-.13,3.339-.247,4.991-.348l.041.374C535.717,186.73,534.041,186.847,532.384,186.976Zm44.95-.2c-1.651-.114-3.329-.217-4.986-.3l.035-.375c1.661.087,3.342.19,5,.3Zm389.527-.014-.045-.374c1.648-.113,3.329-.215,5-.3l.036.375C970.184,186.553,968.506,186.654,966.861,186.767Zm903.928-.065c-1.658-.108-3.336-.2-4.988-.285l.033-.375c1.655.081,3.337.177,5,.286Zm-469.45-.2-.039-.374c1.656-.1,3.34-.179,5-.248l.027.375C1404.671,186.322,1402.991,186.4,1401.339,186.5Zm34.983-.019c-1.654-.094-3.333-.176-4.992-.243l.027-.375c1.663.067,3.345.149,5,.243Zm399.487-.064-.034-.375c1.652-.081,3.335-.149,5.006-.2l.022.375C1839.136,186.268,1837.455,186.336,1835.809,186.417Zm-833.968-.046c-1.656-.076-3.337-.139-4.995-.188l.019-.375c1.662.048,3.347.112,5.007.188Zm-459.486-.009-.03-.375c1.659-.075,3.344-.137,5.007-.185l.019.375C545.692,186.226,544.011,186.287,542.355,186.362Zm25-.109c-1.649-.06-3.331-.107-5-.141l.014-.375c1.671.034,3.357.081,5.01.142Zm409.487-.008-.024-.375c1.654-.059,3.339-.106,5.009-.138l.014.375C980.173,186.141,978.491,186.187,976.841,186.246Zm883.965-.032c-1.658-.055-3.339-.1-5-.122l.011-.375c1.664.027,3.35.068,5.01.122Zm-15-.122-.011-.375c1.662-.027,3.348-.041,5.01-.041l0,.375C1849.144,186.051,1847.462,186.064,1845.8,186.091Zm-434.475,0-.017-.375c1.669-.042,3.356-.071,5.012-.085l.006.375C1414.676,186.017,1412.993,186.045,1411.328,186.087Zm15-.009c-1.666-.039-3.349-.066-5-.079l.006-.375c1.655.014,3.342.04,5.011.079Zm-434.487,0q-2.02-.026-4.043-.026h-.96l0-.375h.962q2.027,0,4.052.026Zm-439.493,0-.009-.375c1.281-.017,2.551-.029,3.842-.024l1.171,0,0,.375-1.169,0Q554.267,186.049,552.352,186.075ZM164.3,184.539l-4.635-1.424.19-.348,4.634,1.424Zm-9.27-2.849-4.634-1.424.189-.348,4.635,1.424Zm-9.269-2.848-4.635-1.424.189-.348,4.635,1.424Zm-9.27-2.849-4.634-1.424.189-.348,4.635,1.424Z" fill="#333"/>
    </g>
  </g>
</svg>
