<svg xmlns="http://www.w3.org/2000/svg" width="50.153" height="41.295" viewBox="0 0 50.153 41.295">
  <g id="boy" transform="translate(0 -45.214)">
    <g id="Group_1960" data-name="Group 1960" transform="translate(24.956 45.214)">
      <g id="Group_1959" data-name="Group 1959" transform="translate(0 0)">
        <path id="Path_30923" data-name="Path 30923" d="M275.011,47.369a.794.794,0,1,0-.872,1.327,9.092,9.092,0,0,1,4.044,5.828,11.268,11.268,0,0,0-1.234-.814,7.982,7.982,0,0,0-7.134-.6c-3.254,1.316-4.862.594-5.789-.065a5.959,5.959,0,0,1-.769-.658.794.794,0,1,0-1.123,1.123c.141.141.281.271.422.393-.836,1.164-2.793,1.677-3.947,1.842-.439-.86-1.283-2.853-.6-4.388,1.494-3.361,6.1-4.553,9.593-4.553a12.346,12.346,0,0,1,4.8.967.794.794,0,0,0,.623-1.461,13.948,13.948,0,0,0-5.424-1.094c-6.342,0-9.863,2.839-11.044,5.5-1.06,2.385.329,5.216.8,6.058l-.064.665a2.888,2.888,0,0,0-.54,5.6,7.615,7.615,0,0,0,3.1,6.809l.168.122A6.927,6.927,0,0,0,256,76.243v9.471a.794.794,0,0,0,.794.794h20.458a.794.794,0,0,0,.794-.794V76.244a6.883,6.883,0,0,0-1.143-3.808.794.794,0,1,0-1.325.876,5.3,5.3,0,0,1,.879,2.932v4.281h-2.376V77.55a.794.794,0,1,0-1.588,0v7.371H261.553V77.55a.794.794,0,1,0-1.588,0v2.975H257.59V76.244a5.336,5.336,0,0,1,3.026-4.8,6.487,6.487,0,0,0,.7,2.035.794.794,0,0,0,1.395-.759,4.865,4.865,0,0,1-.435-1.107l1.257.913a5.929,5.929,0,0,0,6.99,0l1.259-.914a4.919,4.919,0,0,1-4.753,3.675,4.857,4.857,0,0,1-3.06-1.07.794.794,0,0,0-.99,1.241,6.5,6.5,0,0,0,10.46-4.015,5.335,5.335,0,0,1,.679.39.794.794,0,1,0,.89-1.315,6.907,6.907,0,0,0-.968-.546l.168-.122a7.615,7.615,0,0,0,3.1-6.809,2.888,2.888,0,0,0-.54-5.6l-.089-.921a.794.794,0,1,0-1.581.153l.624,6.468a6.021,6.021,0,0,1-2.444,5.428l-3.683,2.676a4.345,4.345,0,0,1-5.123,0l-3.683-2.676a6.021,6.021,0,0,1-2.445-5.429l.563-5.83c1.216-.184,3.746-.765,4.97-2.5,1.788.908,3.939.834,6.543-.219a6.353,6.353,0,0,1,5.713.488,9.8,9.8,0,0,1,2.444,1.948.794.794,0,0,0,1.4-.51A10.637,10.637,0,0,0,275.011,47.369Zm-18.1,13.99a1.3,1.3,0,0,1,.217-2.247Zm17.173,20.753h2.376v2.809h-2.376Zm-14.119,0v2.809H257.59V82.112ZM277.687,60.3a1.3,1.3,0,0,1-.549,1.062l-.217-2.246A1.3,1.3,0,0,1,277.687,60.3Z" transform="translate(-254.773 -45.214)" fill="#0054a5"/>
      </g>
    </g>
    <g id="Group_1962" data-name="Group 1962" transform="translate(32.419 61.038)">
      <g id="Group_1961" data-name="Group 1961" transform="translate(0 0)">
        <path id="Path_30924" data-name="Path 30924" d="M331.755,206.754a.794.794,0,0,0-.794.794v1.076a.794.794,0,1,0,1.588,0v-1.076A.794.794,0,0,0,331.755,206.754Z" transform="translate(-330.961 -206.754)" fill="#0054a5"/>
      </g>
    </g>
    <g id="Group_1964" data-name="Group 1964" transform="translate(38.869 57.798)">
      <g id="Group_1963" data-name="Group 1963">
        <path id="Path_30925" data-name="Path 30925" d="M401.243,174.554a2.97,2.97,0,0,0-4.2,0,.794.794,0,0,0,1.123,1.123,1.382,1.382,0,0,1,1.954,0,.794.794,0,0,0,1.123-1.123Z" transform="translate(-396.81 -173.684)" fill="#0054a5"/>
      </g>
    </g>
    <g id="Group_1966" data-name="Group 1966" transform="translate(30.88 57.798)">
      <g id="Group_1965" data-name="Group 1965">
        <path id="Path_30926" data-name="Path 30926" d="M319.684,174.554a2.97,2.97,0,0,0-4.2,0,.794.794,0,1,0,1.123,1.123,1.382,1.382,0,0,1,1.954,0,.794.794,0,0,0,1.123-1.123Z" transform="translate(-315.252 -173.684)" fill="#0054a5"/>
      </g>
    </g>
    <g id="Group_1968" data-name="Group 1968" transform="translate(40.408 61.038)">
      <g id="Group_1967" data-name="Group 1967" transform="translate(0 0)">
        <path id="Path_30927" data-name="Path 30927" d="M413.311,206.754a.794.794,0,0,0-.794.794v1.076a.794.794,0,0,0,1.588,0v-1.076A.794.794,0,0,0,413.311,206.754Z" transform="translate(-412.517 -206.754)" fill="#0054a5"/>
      </g>
    </g>
    <g id="Group_1970" data-name="Group 1970" transform="translate(34.669 66.937)">
      <g id="Group_1969" data-name="Group 1969" transform="translate(0 0)">
        <path id="Path_30928" data-name="Path 30928" d="M358.771,267.216a.794.794,0,0,0-1.123,0,1.675,1.675,0,0,1-2.367,0,.794.794,0,1,0-1.123,1.123,3.265,3.265,0,0,0,4.612,0A.794.794,0,0,0,358.771,267.216Z" transform="translate(-353.926 -266.983)" fill="#0054a5"/>
      </g>
    </g>
    <g id="Group_1972" data-name="Group 1972" transform="translate(35.74 61.127)">
      <g id="Group_1971" data-name="Group 1971">
        <path id="Path_30929" data-name="Path 30929" d="M367.009,207.67a.794.794,0,0,0-.794.794v1.9h-.552a.794.794,0,0,0,0,1.588h1.346a.794.794,0,0,0,.794-.794v-2.692A.794.794,0,0,0,367.009,207.67Z" transform="translate(-364.869 -207.67)" fill="#0054a5"/>
      </g>
    </g>
    <g id="Group_1974" data-name="Group 1974" transform="translate(13.999 62.738)">
      <g id="Group_1973" data-name="Group 1973">
        <path id="Path_30930" data-name="Path 30930" d="M147.178,224.954a2.851,2.851,0,0,0-4.031,0,.794.794,0,0,0,1.123,1.123,1.263,1.263,0,0,1,1.786,0,.794.794,0,0,0,1.123-1.123Z" transform="translate(-142.914 -224.119)" fill="#0054a5"/>
      </g>
    </g>
    <g id="Group_1976" data-name="Group 1976" transform="translate(6.448 62.738)">
      <g id="Group_1975" data-name="Group 1975">
        <path id="Path_30931" data-name="Path 30931" d="M70.087,224.954a2.851,2.851,0,0,0-4.032,0,.794.794,0,0,0,1.123,1.123,1.263,1.263,0,0,1,1.786,0,.794.794,0,0,0,1.123-1.123Z" transform="translate(-65.823 -224.119)" fill="#0054a5"/>
      </g>
    </g>
    <g id="Group_1978" data-name="Group 1978" transform="translate(10.029 68.55)">
      <g id="Group_1977" data-name="Group 1977" transform="translate(0 0)">
        <path id="Path_30932" data-name="Path 30932" d="M107.035,283.681a.794.794,0,0,0-1.123,0,1.54,1.54,0,0,1-2.176,0,.794.794,0,0,0-1.123,1.123,3.126,3.126,0,0,0,4.421,0A.794.794,0,0,0,107.035,283.681Z" transform="translate(-102.382 -283.448)" fill="#0054a5"/>
      </g>
    </g>
    <g id="Group_1980" data-name="Group 1980" transform="translate(11.141 65.319)">
      <g id="Group_1979" data-name="Group 1979" transform="translate(0 0)">
        <path id="Path_30933" data-name="Path 30933" d="M115.6,250.461H114.53a.794.794,0,1,0,0,1.588H115.6a.794.794,0,1,0,0-1.588Z" transform="translate(-113.736 -250.461)" fill="#0054a5"/>
      </g>
    </g>
    <g id="Group_1982" data-name="Group 1982" transform="translate(0 48.079)">
      <g id="Group_1981" data-name="Group 1981">
        <path id="Path_30934" data-name="Path 30934" d="M24.943,88.34a2.775,2.775,0,0,0-1.482-2.453l1.03-1.413A2.258,2.258,0,0,0,22.906,80.9a.794.794,0,1,0-.168,1.579.67.67,0,0,1,.47,1.061L21.488,85.9a.67.67,0,0,1-1.153-.123l-1.213-2.736a2.6,2.6,0,0,0,.641-.878l.809.086a.81.81,0,0,0,.085,0,.794.794,0,0,0,.083-1.583l-.808-.086a2.588,2.588,0,0,0-2.806-2.046L15.912,75.8a2.258,2.258,0,0,0-3.888-.414l-1.72,2.36a2.258,2.258,0,0,0,1.585,3.575l2.974.317a2.571,2.571,0,0,0,.2.587C13.047,84.2,9.629,86.137,4.416,84.97a8.458,8.458,0,0,1,4.77-5.252.794.794,0,1,0-.619-1.463,10.046,10.046,0,0,0-5.939,7.317A2.774,2.774,0,0,0,2,91.005a8.009,8.009,0,0,0,3.279,6.944l.627.456a6.592,6.592,0,0,0-3.9,6.009v1.722a.794.794,0,0,0,1.588,0v-1.722a5,5,0,0,1,2.784-4.478,6.187,6.187,0,0,0,11.791,1.335.794.794,0,1,0-1.462-.619A4.6,4.6,0,0,1,8,99.924l.9.654a6.064,6.064,0,0,0,7.146,0l1.417-1.029a5,5,0,0,1,3.885,4.866V111.3H19.188v-5.652a.794.794,0,1,0-1.588,0V111.3H7.344v-5.652a.794.794,0,1,0-1.588,0V111.3H3.6V109.04a.794.794,0,1,0-1.588,0v3.055a.794.794,0,0,0,.794.794H22.141a.794.794,0,0,0,.794-.794v-7.681a6.592,6.592,0,0,0-3.9-6.009l.627-.456A8.009,8.009,0,0,0,22.941,91,2.767,2.767,0,0,0,24.943,88.34ZM2.173,89.364a1.186,1.186,0,0,1,.238-2.151ZM17.4,80.11a1,1,0,1,1-1,1A1,1,0,0,1,17.4,80.11Zm-2.365-.051-2.975-.317a.67.67,0,0,1-.47-1.06l1.72-2.36a.67.67,0,0,1,1.154.123l1.214,2.736A2.6,2.6,0,0,0,15.033,80.059Zm3.7,16.605-3.617,2.628a4.48,4.48,0,0,1-5.28,0L6.215,96.665a6.417,6.417,0,0,1-2.6-5.885l.465-4.211c0-.015,0-.031.006-.046a15.62,15.62,0,0,0,3.414.4A11.987,11.987,0,0,0,14.568,84.7a8.526,8.526,0,0,0,2.315,1.967.794.794,0,1,0,.793-1.377,6.982,6.982,0,0,1-1.87-1.587q.18-.164.348-.329a2.572,2.572,0,0,0,1.245.32,2.616,2.616,0,0,0,.273-.014l1.213,2.735a2.235,2.235,0,0,0,1.824,1.33,2.345,2.345,0,0,0,.248.013H21l.334,3.019A6.418,6.418,0,0,1,18.729,96.665Zm4.042-7.3-.238-2.15a1.185,1.185,0,0,1,.238,2.15Z" transform="translate(0 -74.458)" fill="#0054a5"/>
      </g>
    </g>
  </g>
</svg>
