<svg xmlns="http://www.w3.org/2000/svg" width="36.738" height="48.231" viewBox="0 0 36.738 48.231">
  <g id="doll" transform="translate(-61.003)">
    <path id="Path_30935" data-name="Path 30935" d="M96.183,25.878,86.924,20.1a11.492,11.492,0,0,0,3.528-5.642c1,.032,1.911.907,2.7,2.607.415.893.979,1.056,1.335,1.056a1.108,1.108,0,0,0,.272-.033c1.088-.278,1.584-2.017,1.394-4.894-.266-4.045-3.482-6.171-6.524-6.854A11.457,11.457,0,0,0,87.252,3.13a.707.707,0,1,0-.97,1.027,10.059,10.059,0,0,1,2.2,3.032.711.711,0,0,0,.061.133,9.89,9.89,0,0,1,.62,1.824,11.149,11.149,0,0,1-10.58-3.924.838.838,0,0,0-.719-.335.79.79,0,0,0-.625.4,8,8,0,0,1-7.672,3.9,10.08,10.08,0,0,1,9.8-7.778,9.958,9.958,0,0,1,4.612,1.115.707.707,0,0,0,.648-1.256A11.358,11.358,0,0,0,79.374,0,11.489,11.489,0,0,0,69.111,6.341c-3.042.683-6.256,2.81-6.522,6.853-.189,2.878.306,4.616,1.394,4.894a1.113,1.113,0,0,0,.272.033c.356,0,.92-.163,1.335-1.056.791-1.7,1.7-2.575,2.7-2.607A11.491,11.491,0,0,0,71.821,20.1l-9.258,5.777a3.123,3.123,0,0,0-1.557,2.788,3.507,3.507,0,0,0,1.828,2.928,3,3,0,0,0,1.419.358,3.336,3.336,0,0,0,1.769-.531l4.745-2.96v2.965l-6.076,8.4c-.849,1.173-.75,1.961-.518,2.417.216.424.74.929,2.006.929h4.267l1.049,2.7a3.2,3.2,0,0,0,6.188-1.611l-.155-1.093h3.689l-.155,1.093a3.2,3.2,0,0,0,6.191,1.612l1.048-2.7h4.266c1.266,0,1.79-.5,2.006-.929.232-.455.331-1.244-.518-2.416l-6.076-8.4V28.461l4.745,2.96a3.336,3.336,0,0,0,1.769.531,3,3,0,0,0,1.419-.358,3.507,3.507,0,0,0,1.828-2.929,3.123,3.123,0,0,0-1.557-2.788ZM94.746,13.287a7.537,7.537,0,0,1-.275,3.255c-.011-.022-.023-.045-.035-.072-1.16-2.493-2.533-3.291-3.7-3.411a11.516,11.516,0,0,0,.111-1.589c0-.6-.165-1.936-.17-1.953A11.507,11.507,0,0,0,90.306,8a6,6,0,0,1,4.44,5.287ZM68.03,9.725a11.514,11.514,0,0,0-.022,3.334c-1.165.119-2.538.917-3.7,3.411-.012.026-.024.05-.035.071A7.537,7.537,0,0,1,64,13.287,6,6,0,0,1,68.434,8C68.266,8.531,68.032,9.71,68.03,9.725ZM91.645,24.712,89.68,27.857l-1.705-1.064a8.583,8.583,0,0,0-2.331-5.719l.082-.055ZM69.311,11.47c0-.3.014-.59.039-.88A9.318,9.318,0,0,0,78,6.693a12.58,12.58,0,0,0,5.19,3.364,12.808,12.808,0,0,0,4.069.65,13.924,13.924,0,0,0,2.132-.166c.028.307.042.616.042.929a10.062,10.062,0,0,1-20.124,0ZM65.273,30.222a1.69,1.69,0,0,1-1.776.124,2.1,2.1,0,0,1-1.08-1.73,1.69,1.69,0,0,1,.893-1.541L65.9,25.46l1.965,3.145Zm3.792-2.365L67.1,24.712l5.919-3.693.085.056a8.583,8.583,0,0,0-2.335,5.72Zm5.962,18.9a1.79,1.79,0,0,1-2.175-1.277.7.7,0,0,0-.025-.078L70.9,40.428a2.182,2.182,0,0,1,.985-2.505,2.573,2.573,0,0,1,2.86.039,1.88,1.88,0,0,1,.8,1.256l.748,5.287a.705.705,0,0,0,.016.079A1.789,1.789,0,0,1,75.026,46.76ZM87.85,40.428l-1.928,4.977a.7.7,0,0,0-.025.076,1.786,1.786,0,0,1-3.457-.9.705.705,0,0,0,.016-.079l.748-5.288a1.867,1.867,0,0,1,.852-1.29,2.551,2.551,0,0,1,3.784,1.2,1.843,1.843,0,0,1,.01,1.3Zm5.06.232c.427.59.427.9.4.945s-.2.158-.748.158H88.848l.32-.825a3.264,3.264,0,0,0-.175-2.7,3.967,3.967,0,0,0-5.721-1.491A3.261,3.261,0,0,0,81.8,39.019l-.388,2.744H77.328L76.94,39.02a3.426,3.426,0,0,0-2.234-2.662,3.978,3.978,0,0,0-4.955,1.885,3.265,3.265,0,0,0-.174,2.7l.32.824H66.179c-.548,0-.732-.127-.748-.158s-.024-.355.4-.946l6-8.3h5.905a.707.707,0,1,0,0-1.413h-5.56v-4a7.178,7.178,0,0,1,2.2-5.156,11.464,11.464,0,0,0,10,0,7.178,7.178,0,0,1,2.194,5.156v4H81.027a.707.707,0,1,0,0,1.413h5.884Zm3.417-12.042a2.1,2.1,0,0,1-1.08,1.73,1.69,1.69,0,0,1-1.776-.124L90.879,28.6l1.965-3.145,2.591,1.617a1.69,1.69,0,0,1,.893,1.54Z" fill="#0054a5"/>
    <path id="Path_30936" data-name="Path 30936" d="M290.793,126.656a.706.706,0,0,0,.707-.706v-1.028a.706.706,0,1,0-1.413,0v1.028A.707.707,0,0,0,290.793,126.656Z" transform="translate(-207.504 -112.514)" fill="#0054a5"/>
    <path id="Path_30937" data-name="Path 30937" d="M207.628,126.656a.706.706,0,0,0,.706-.706v-1.028a.706.706,0,1,0-1.413,0v1.028A.707.707,0,0,0,207.628,126.656Z" transform="translate(-132.173 -112.514)" fill="#0054a5"/>
    <path id="Path_30938" data-name="Path 30938" d="M221.114,174.09a5.111,5.111,0,0,0,6.083,0,.706.706,0,0,0-.872-1.112,3.747,3.747,0,0,1-4.339,0,.706.706,0,1,0-.872,1.112Z" transform="translate(-144.783 -156.547)" fill="#0054a5"/>
  </g>
</svg>
