<svg xmlns="http://www.w3.org/2000/svg" width="80" height="80" viewBox="0 0 80 80">
  <g id="Group_435" data-name="Group 435" transform="translate(-370.008 -1124.008)">
    <g id="Path_29640" data-name="Path 29640" transform="translate(370.008 1124.008)" fill="#fff">
      <path d="M 40 79.75 C 34.63367080688477 79.75 29.42799949645996 78.69905090332031 24.52758026123047 76.62635040283203 C 19.79421043395996 74.62429809570312 15.5431604385376 71.75814819335938 11.89251041412354 68.10749053955078 C 8.241849899291992 64.45684051513672 5.375699996948242 60.20579147338867 3.373650074005127 55.47241973876953 C 1.300950050354004 50.57199859619141 0.25 45.36632919311523 0.25 40 C 0.25 34.63367080688477 1.300950050354004 29.42799949645996 3.373650074005127 24.52758026123047 C 5.375699996948242 19.79421043395996 8.241849899291992 15.5431604385376 11.89251041412354 11.89251041412354 C 15.5431604385376 8.241849899291992 19.79421043395996 5.375699996948242 24.52758026123047 3.373650074005127 C 29.42799949645996 1.300950050354004 34.63367080688477 0.25 40 0.25 C 45.36632919311523 0.25 50.57199859619141 1.300950050354004 55.47241973876953 3.373650074005127 C 60.20579147338867 5.375699996948242 64.45684051513672 8.241849899291992 68.10749053955078 11.89251041412354 C 71.75814819335938 15.5431604385376 74.62429809570312 19.79421043395996 76.62635040283203 24.52758026123047 C 78.69905090332031 29.42799949645996 79.75 34.63367080688477 79.75 40 C 79.75 45.36632919311523 78.69905090332031 50.57199859619141 76.62635040283203 55.47241973876953 C 74.62429809570312 60.20579147338867 71.75814819335938 64.45684051513672 68.10749053955078 68.10749053955078 C 64.45684051513672 71.75814819335938 60.20579147338867 74.62429809570312 55.47241973876953 76.62635040283203 C 50.57199859619141 78.69905090332031 45.36632919311523 79.75 40 79.75 Z" stroke="none"/>
      <path d="M 40 0.5 C 34.66731262207031 0.5 29.49441146850586 1.544296264648438 24.62496566772461 3.603897094726562 C 19.9213981628418 5.593345642089844 15.69705200195312 8.441513061523438 12.06927490234375 12.06927490234375 C 8.441513061523438 15.69705200195312 5.593345642089844 19.9213981628418 3.603897094726562 24.62496566772461 C 1.544296264648438 29.49441146850586 0.5 34.66731262207031 0.5 40 C 0.5 45.33268737792969 1.544296264648438 50.50558853149414 3.603897094726562 55.37503051757812 C 5.593345642089844 60.07859802246094 8.441513061523438 64.30294799804688 12.06927490234375 67.93072509765625 C 15.69705200195312 71.55848693847656 19.9213981628418 74.40665435791016 24.62496566772461 76.39610290527344 C 29.49441146850586 78.45570373535156 34.66731262207031 79.5 40 79.5 C 45.33268737792969 79.5 50.50558853149414 78.45570373535156 55.37503051757812 76.39610290527344 C 60.07859802246094 74.40665435791016 64.30294799804688 71.55848693847656 67.93072509765625 67.93072509765625 C 71.55848693847656 64.30294799804688 74.40665435791016 60.07859802246094 76.39610290527344 55.37503051757812 C 78.45570373535156 50.50558853149414 79.5 45.33268737792969 79.5 40 C 79.5 34.66731262207031 78.45570373535156 29.49441146850586 76.39610290527344 24.62496566772461 C 74.40665435791016 19.9213981628418 71.55848693847656 15.69705200195312 67.93072509765625 12.06927490234375 C 64.30294799804688 8.441513061523438 60.07859802246094 5.593345642089844 55.37503051757812 3.603897094726562 C 50.50558853149414 1.544296264648438 45.33268737792969 0.5 40 0.5 M 40 0 C 62.09138870239258 0 80 17.90861129760742 80 40 C 80 62.09138870239258 62.09138870239258 80 40 80 C 17.90861129760742 80 0 62.09138870239258 0 40 C 0 17.90861129760742 17.90861129760742 0 40 0 Z" stroke="none" fill="#0054a5"/>
    </g>
    <g id="Out_line" data-name="Out line" transform="translate(297.454 1123.68)">
      <path id="Path_30915" data-name="Path 30915" d="M113.09,16h-.061l-.178,0h-.075A16.776,16.776,0,0,0,96,32.776c0,8.572,1.5,15.919,4.465,21.84a24.628,24.628,0,0,0,8.2,9.785,7.511,7.511,0,0,0,8.221.006,24.593,24.593,0,0,0,8.177-9.738c2.961-5.889,4.472-13.2,4.493-21.717A16.872,16.872,0,0,0,113.09,16Zm12.269,8.5v3.24a16.589,16.589,0,0,1-1.521,6.941,4.218,4.218,0,0,0-.923-1.013,11.736,11.736,0,0,0-.256-12.266,15.329,15.329,0,0,1,2.7,3.1ZM112.776,45.082l-5.319-3.617q-.4-.27-.775-.561a4.217,4.217,0,0,0,2.289-2.047,11.8,11.8,0,0,0,7.61,0,4.217,4.217,0,0,0,2.289,2.047q-.378.29-.775.561ZM102.711,27.743a10.077,10.077,0,0,1,10.066-10.066h0l.224,0h.043c.129,0,.257.01.385.018a.839.839,0,0,0,.187,1.656.84.84,0,0,1,.839.839v.839a.84.84,0,0,1-.839.839h-2.1a.419.419,0,0,1,0-.839h.419a.839.839,0,0,0,0-1.678h-.419a2.1,2.1,0,0,0,0,4.194h2.1a2.519,2.519,0,0,0,2.516-2.516v-.839a2.52,2.52,0,0,0-1.7-2.38,10.065,10.065,0,0,1,6.977,15.1,4.192,4.192,0,0,0-5.277,4.051c0,.088,0,.176.009.262a10.106,10.106,0,0,1-6.729,0c.005-.087.009-.174.009-.262a4.192,4.192,0,0,0-5.277-4.051A10,10,0,0,1,102.711,27.743Zm2.516,6.711a2.516,2.516,0,0,1,0,5.033c-.057,0-.114,0-.17-.007a16.571,16.571,0,0,1-2.316-2.9,2.518,2.518,0,0,1,2.486-2.123ZM120.5,39.48c-.057,0-.113.007-.17.007a2.516,2.516,0,1,1,2.486-2.91A16.571,16.571,0,0,1,120.5,39.48Zm-18.373-17.4q.408-.406.84-.776a11.734,11.734,0,0,0-.326,12.372,4.217,4.217,0,0,0-.925,1.009,16.585,16.585,0,0,1-1.519-6.937V24.422A15.254,15.254,0,0,1,102.123,22.077ZM115.965,63A5.834,5.834,0,0,1,109.58,63a22.941,22.941,0,0,1-7.614-9.132c-2.845-5.685-4.288-12.781-4.288-21.089a15.117,15.117,0,0,1,.84-4.986,18.255,18.255,0,0,0,8,15.062l5.71,3.883a16.579,16.579,0,0,1,7.255,13.213A18.6,18.6,0,0,1,115.965,63Zm7.6-9.087a28.334,28.334,0,0,1-2.552,4.17,18.249,18.249,0,0,0-6.784-11.96l4.814-3.274A18.254,18.254,0,0,0,127.034,27.9a15.275,15.275,0,0,1,.841,5.047C127.855,41.207,126.4,48.261,123.561,53.916Z" transform="translate(0)" fill="#0054a5"/>
      <path id="Path_30916" data-name="Path 30916" d="M178.515,99.05a1.524,1.524,0,0,1,1.084.449.839.839,0,0,0,1.186-1.186,3.211,3.211,0,0,0-4.542,0A.839.839,0,0,0,177.43,99.5,1.524,1.524,0,0,1,178.515,99.05Z" transform="translate(-71.61 -72.84)" fill="#0054a5"/>
      <path id="Path_30917" data-name="Path 30917" d="M289.43,99.5a1.534,1.534,0,0,1,2.169,0,.839.839,0,1,0,1.186-1.186,3.211,3.211,0,0,0-4.542,0A.839.839,0,0,0,289.43,99.5Z" transform="translate(-171.867 -72.84)" fill="#0054a5"/>
      <path id="Path_30918" data-name="Path 30918" d="M240.838,118.711a.837.837,0,0,0,.593-.246.347.347,0,0,1,.491,0,.839.839,0,1,0,1.186-1.186,2.025,2.025,0,0,0-2.864,0,.839.839,0,0,0,.593,1.432Z" transform="translate(-128.901 -90.128)" fill="#0054a5"/>
      <path id="Path_30919" data-name="Path 30919" d="M224.57,153.633a8.851,8.851,0,0,0,5.563,0,.839.839,0,0,0-.531-1.592,7.163,7.163,0,0,1-4.5,0,.839.839,0,1,0-.53,1.592Z" transform="translate(-114.575 -121.738)" fill="#0054a5"/>
    </g>
  </g>
</svg>
