<svg xmlns="http://www.w3.org/2000/svg" width="31.042" height="45.474" viewBox="0 0 31.042 45.474"><g fill="#3eb7e4"><path data-name="Path 30910" d="M7.043 30.968a.419.419 0 0 1-.38.212.375.375 0 0 1-.358-.212l-.694-1.271v2.813c0 .234-.285.351-.57.351s-.57-.117-.57-.351v-4.421a.527.527 0 0 1 .57-.57c.409 0 .585.044.884.57l.753 1.315.753-1.315c.3-.526.475-.57.884-.57a.524.524 0 0 1 .57.57v4.421c0 .234-.285.351-.57.351s-.57-.117-.57-.351v-2.74z"/><path data-name="Path 30911" d="M10.842 27.862c0-.241.285-.343.57-.343s.57.1.57.343v4.647c0 .234-.285.351-.57.351s-.57-.117-.57-.351z"/><path data-name="Path 30912" d="M14.438 32.86c-.248 0-.5-.117-.5-.351v-4.647c0-.241.285-.343.57-.343s.57.1.57.343v4h1.666c.219 0 .329.248.329.5s-.11.5-.329.5z"/><path data-name="Path 30913" d="M18.705 27.862c0-.241.285-.343.57-.343s.57.1.57.343v1.754l1.366-1.936a.342.342 0 0 1 .3-.161.726.726 0 0 1 .672.585.37.37 0 0 1-.073.219l-1.2 1.505 1.513 2.316a.362.362 0 0 1 .058.19.7.7 0 0 1-.687.57.441.441 0 0 1-.395-.212l-1.249-1.9-.307.395v1.323c0 .234-.285.351-.57.351s-.57-.117-.57-.351z"/><path data-name="Path 30914" d="M29.112 4.02h-5.755a.67.67 0 0 0 0 1.34h5.754a.59.59 0 1 1 0 1.179H17.189V5.36h3.489a.67.67 0 0 0 0-1.34H16.87l-2.06-2.989a2.384 2.384 0 0 0-3.925 0L8.627 4.31a.683.683 0 0 0-.118.38V8.8a28.125 28.125 0 0 0-5.782 1.049C.895 10.442.004 11.18.004 12.108v24.3a.67.67 0 1 0 1.34 0V34.59a13.155 13.155 0 0 0 3.49 1.1.655.655 0 0 0 .04.08 10.072 10.072 0 0 0 17.291 0 .711.711 0 0 0 .029-.054 14.8 14.8 0 0 0 3.5-1.039v7.3c-.054.186-.8.828-3.472 1.387a44.5 44.5 0 0 1-8.7.766 43.753 43.753 0 0 1-8.788-.789c-2.72-.586-3.364-1.257-3.387-1.4v-2.856a.67.67 0 1 0-1.34 0v2.857c0 1.159 1.4 2.035 4.287 2.677a44.515 44.515 0 0 0 9.229.854 44.933 44.933 0 0 0 9.227-.848c2.885-.636 4.288-1.5 4.288-2.639V12.108c0-1-1.036-1.781-3.168-2.395a33.44 33.44 0 0 0-6.674-1.019v-.815h11.923a1.93 1.93 0 0 0 0-3.859zM15.848 7.209V9.6a.43.43 0 0 1-.43.43h-5.142a.43.43 0 0 1-.43-.43V5.36h6v1.849zm-3.86-5.418a1.044 1.044 0 0 1 1.718 0l1.537 2.229h-4.792zm13.7 12.01v1.166c-.023.147-.667.818-3.387 1.4a43.745 43.745 0 0 1-8.788.789 43.745 43.745 0 0 1-8.788-.789c-2.72-.586-3.364-1.257-3.387-1.4V13.8a11.894 11.894 0 0 0 2.947.984 44.515 44.515 0 0 0 9.229.854 44.51 44.51 0 0 0 9.229-.854 11.888 11.888 0 0 0 2.947-.984zm0 9.292c-.788.209-2.4.6-4.54.943a10.07 10.07 0 0 0-15.268 0 47.266 47.266 0 0 1-4.492-.926l-.05-.011v-6.436a11.894 11.894 0 0 0 2.947.984 44.516 44.516 0 0 0 9.229.854 44.515 44.515 0 0 0 9.229-.854 11.89 11.89 0 0 0 2.947-.984v6.43zm-6.161 1.175a48.05 48.05 0 0 1-6.009.391 47.93 47.93 0 0 1-6.005-.394 8.729 8.729 0 0 1 12.014 0zm-6.012 15.065a8.787 8.787 0 0 1-6.868-3.341 52.085 52.085 0 0 0 6.868.439 52.513 52.513 0 0 0 6.854-.421 8.788 8.788 0 0 1-6.854 3.324zm12.129-6.183a11.23 11.23 0 0 1-4.33 1.358 49.013 49.013 0 0 1-7.8.582c-6.374 0-10.952-1.032-12.024-2a.669.669 0 0 0-.151-.1v-8.513A51.164 51.164 0 0 0 13.515 26a51.492 51.492 0 0 0 12.175-1.522v8.64a.484.484 0 0 0-.046.033zm.046-21.044c-.024.148-.668.818-3.387 1.4a43.745 43.745 0 0 1-8.788.789 43.746 43.746 0 0 1-8.788-.785c-2.717-.585-3.362-1.255-3.387-1.4 0-.011.164-.477 1.913-1.023a27.321 27.321 0 0 1 5.338-.949 1.773 1.773 0 0 0 1.685 1.229h5.143a1.772 1.772 0 0 0 1.708-1.333 32.667 32.667 0 0 1 6.232.932c2.145.6 2.325 1.138 2.326 1.141z"/></g></svg>